<svg width="20" height="20" viewBox="0 0 20 20" fill="none" xmlns="http://www.w3.org/2000/svg">
<path fill-rule="evenodd" clip-rule="evenodd" d="M5.22032 8.22C5.36094 8.07955 5.55157 8.00066 5.75032 8.00066C5.94907 8.00066 6.13969 8.07955 6.28032 8.22L10.0003 11.94L13.7203 8.22C13.789 8.14631 13.8718 8.08721 13.9638 8.04622C14.0558 8.00523 14.1551 7.98319 14.2558 7.98141C14.3565 7.97963 14.4565 7.99816 14.5499 8.03588C14.6433 8.0736 14.7281 8.12974 14.7994 8.20096C14.8706 8.27218 14.9267 8.35701 14.9644 8.4504C15.0022 8.54379 15.0207 8.64382 15.0189 8.74452C15.0171 8.84523 14.9951 8.94454 14.9541 9.03654C14.9131 9.12854 14.854 9.21134 14.7803 9.28L10.5303 13.53C10.3897 13.6705 10.1991 13.7493 10.0003 13.7493C9.80157 13.7493 9.61094 13.6705 9.47032 13.53L5.22032 9.28C5.07987 9.13938 5.00098 8.94875 5.00098 8.75C5.00098 8.55125 5.07987 8.36063 5.22032 8.22Z" fill="#818385"/>
</svg>
