<svg width="140" height="96" viewBox="0 0 140 96" fill="none" xmlns="http://www.w3.org/2000/svg">
<path d="M73.5689 75.4531C75.4263 75.3932 77.2838 75.3932 79.1413 75.4531C80.5793 75.4531 81.8975 76.3519 82.7064 77.5203C83.3655 78.5389 83.3954 79.7972 83.2157 80.9656C83.0659 82.134 82.1671 83.0628 81.2384 83.7219C79.5607 84.7704 77.5534 84.2911 75.696 84.4109C75.5162 86.3582 75.696 88.3356 75.636 90.2829C74.947 90.3428 74.2579 90.3428 73.5689 90.2829C73.5689 85.3396 73.5389 80.3964 73.5689 75.4531ZM75.696 77.5203C75.5462 79.1081 75.5761 80.7259 75.666 82.3437C76.9542 82.3437 78.2425 82.4336 79.5307 82.2838C81.2683 81.6846 81.7177 79.1681 80.3097 77.9997C78.9615 77.1309 77.2239 77.6402 75.696 77.5203ZM104.547 79.4377C104.577 78.509 104.457 77.5802 104.666 76.6815C105.326 76.6515 105.985 76.6815 106.674 76.7114C106.734 77.6102 106.674 78.509 106.734 79.4077C107.423 79.7673 108.351 79.4976 109.13 79.6175C109.16 80.2466 109.16 80.8757 109.13 81.5348C108.321 81.5648 107.513 81.5948 106.704 81.6846C106.704 83.602 106.674 85.5194 106.704 87.4667C106.674 87.976 106.913 88.5453 107.453 88.6651C108.052 88.725 108.651 88.6052 109.25 88.5752C109.31 89.2343 109.25 89.8934 109.07 90.5226C108.112 90.5825 107.093 90.7023 106.164 90.4327C105.415 89.9833 104.636 89.3242 104.606 88.3655C104.397 86.1485 104.666 83.9016 104.457 81.6846C103.858 81.5948 103.228 81.5049 102.629 81.415C102.629 80.8158 102.629 80.2166 102.689 79.6474C103.318 79.6175 103.977 79.6774 104.547 79.4377ZM84.9833 81.5348C86.631 78.4491 91.8739 78.4491 93.5516 81.5348C94.0309 82.5534 93.9111 83.7219 93.9411 84.8004C93.9111 86.6279 94.001 88.4554 93.9111 90.2829C93.3718 90.3129 92.8326 90.3128 92.2933 90.2529C92.1135 90.0133 91.9637 89.7436 91.784 89.504C90.5557 90.2829 89.1176 91.0918 87.6496 90.5825C85.4926 90.2529 83.8448 87.7963 84.8035 85.7291C85.4027 84.1413 87.1403 83.4223 88.7282 83.3024C89.8367 83.2125 90.9152 83.602 92.0237 83.6619C91.9038 82.3737 90.9451 81.1154 89.5371 81.2053C88.3087 80.9956 87.2901 81.7446 86.4812 82.5834C85.912 82.3737 85.4327 81.9842 84.9833 81.5348ZM86.7209 87.2271C86.8108 88.3056 87.9792 88.9048 88.9678 88.8448C90.4958 88.7849 91.814 87.4368 91.8739 85.9089C91.035 85.1599 89.8067 85.1 88.7282 85.1898C87.6796 85.2198 86.6011 86.0886 86.7209 87.2271ZM112.995 80.4563C113.954 79.8871 114.942 79.1381 116.171 79.2579C118.238 79.0782 120.095 80.9057 120.095 82.913C120.125 85.3696 120.095 87.7963 120.095 90.2529C119.406 90.3128 118.717 90.3428 118.028 90.2829C117.938 87.8562 118.148 85.4295 117.908 83.0028C117.788 81.445 115.871 80.9656 114.613 81.445C113.504 81.9243 112.905 83.1227 112.905 84.2911C112.845 86.2983 112.935 88.2756 112.905 90.2829C112.186 90.3428 111.497 90.3428 110.778 90.2829C110.748 86.7477 110.718 83.1826 110.778 79.6474C111.437 79.5875 112.066 79.5875 112.725 79.6774C112.785 79.8871 112.935 80.2766 112.995 80.4563ZM123.84 80.2766C125.848 78.7187 129.053 78.9883 130.731 80.9057C131.749 82.164 132.259 83.8417 132.019 85.4595C129.323 85.5494 126.596 85.4595 123.9 85.4894C123.66 87.4667 125.698 89.0845 127.585 88.755C128.694 88.725 129.353 87.7663 130.102 87.0773C130.761 86.9874 131.27 87.4967 131.839 87.7364C130.761 90.4327 127.196 91.5412 124.649 90.223C120.934 88.5153 120.635 82.6433 123.84 80.2766ZM123.87 83.6619C125.818 83.7518 127.795 83.7518 129.742 83.6619C129.622 82.2539 128.214 81.0854 126.776 81.2652C125.368 81.1753 124.32 82.4336 123.87 83.6619ZM137.591 79.4077C138.34 79.1381 139.179 79.2879 139.928 79.4077C139.988 80.1268 140.018 80.8458 139.988 81.5648C139.209 81.5348 138.4 81.3251 137.621 81.5049C136.483 81.8943 135.794 83.0628 135.794 84.2312C135.734 86.2085 135.824 88.2157 135.794 90.193C135.105 90.2829 134.386 90.2829 133.697 90.223C133.667 86.6878 133.667 83.1227 133.697 79.5875C134.236 79.5276 134.805 79.5276 135.345 79.5276C135.524 79.7972 135.704 80.0668 135.914 80.3365C136.483 80.0668 136.992 79.6774 137.591 79.4077ZM97.7758 80.696C98.5548 80.2766 99.2438 79.5875 100.173 79.5875C100.652 79.5575 101.161 79.5875 101.641 79.6175C101.67 80.2766 101.67 80.9357 101.67 81.5648C100.742 81.7146 99.6333 81.4749 98.8843 82.164C98.375 82.6433 97.8956 83.2725 97.8956 84.0214C97.8058 86.1785 97.9556 88.3355 97.8357 90.4926C97.1766 90.5525 96.4876 90.5525 95.7985 90.5226C95.7386 86.9574 95.7386 83.4223 95.7985 79.8571C96.3677 79.8272 96.9669 79.7972 97.5661 79.917C97.5961 80.1268 97.7159 80.5162 97.7758 80.696Z" fill="#A9A9A9"/>
<path d="M48.583 9.0406C54.5149 2.92895 63.1731 -0.306635 71.6815 0.0229154C76.6547 0.352465 81.6279 1.64071 85.8821 4.30707C87.6497 5.41555 89.4173 6.58396 90.7954 8.14183C89.4472 9.6997 87.8894 11.0778 86.4513 12.5758C84.9234 14.0438 83.5153 15.6016 81.9575 17.0097C79.5308 14.7927 76.5049 13.115 73.2094 12.6657C69.7941 12.2762 66.169 12.426 63.0533 13.9839C59.578 15.5417 56.642 18.268 54.6947 21.5635C54.0356 22.672 53.5862 23.9003 53.0469 25.0687C49.5717 22.5222 46.2462 19.766 42.8009 17.1595C44.1491 14.1037 46.2162 11.3774 48.583 9.0406Z" fill="#EA4335"/>
<path d="M42.8011 17.1289C46.2464 19.7353 49.5719 22.4616 53.0472 25.0381C52.5379 27.5247 51.7589 30.0712 52.2383 32.6477C52.3881 34.0558 52.8075 35.4339 53.0472 36.812C50.3508 38.9391 47.5946 41.0363 44.8983 43.1933C44.2092 43.7326 43.4902 44.2119 42.7113 44.6014C40.8838 40.8865 39.6854 36.7821 39.5656 32.5878C39.4457 29.8615 39.5356 27.0753 40.1348 24.409C40.7939 21.9523 41.4829 19.4058 42.8011 17.1289Z" fill="#FBBC04"/>
<path d="M70.5431 25.2793C78.9915 25.2793 87.44 25.2793 95.8885 25.2793C96.967 25.2793 98.0455 25.1894 99.1241 25.3692C100.982 34.5666 98.9443 44.7227 92.8626 51.9728C92.2035 52.7518 91.5444 53.6206 90.6456 54.1299C87.2603 51.6433 84.0546 48.9769 80.6992 46.4604C83.6352 44.2734 85.8821 40.9779 86.2716 37.2629C80.9988 37.1731 75.726 37.2929 70.4532 37.203C70.3034 34.0873 70.4532 30.9416 70.3933 27.8258C70.4232 26.987 70.2734 26.1182 70.5431 25.2793Z" fill="#4284F4"/>
<path d="M44.9282 43.2241C47.6245 41.067 50.3807 38.9699 53.077 36.8428C53.7361 38.0711 54.1556 39.4492 54.9345 40.6176C57.3612 44.6022 61.3457 47.628 65.8396 48.8564C68.9853 49.6053 72.3108 49.4855 75.4565 48.7965C77.314 48.3171 79.0216 47.4183 80.6993 46.4896C84.0548 49.0062 87.2604 51.7025 90.6458 54.1591C89.8369 55.2077 88.7284 55.9267 87.6498 56.6757C82.6167 60.2408 76.3852 61.6489 70.3035 61.7987C64.1619 61.6789 58.0203 59.9412 52.9572 56.4061C48.6131 53.4401 45.048 49.3357 42.7112 44.6321C43.4901 44.2127 44.2391 43.7633 44.9282 43.2241Z" fill="#34A853"/>
<path d="M3.1951 76.5926C5.35216 74.885 8.46791 74.7651 10.9845 75.6938C11.8832 76.1133 12.9318 76.6226 13.3512 77.6112C12.9318 78.0906 12.4824 78.54 11.9731 78.9294C11.2541 78.3302 10.5051 77.7011 9.60635 77.4015C7.35942 76.7424 4.69306 77.4315 3.31494 79.3788C2.14653 80.727 2.08661 82.6444 2.35624 84.352C2.86555 86.9884 5.56187 88.9358 8.22823 88.6961C10.625 88.726 12.9917 86.7188 12.9917 84.2322C11.2541 84.1124 9.51647 84.2322 7.77885 84.1723C7.50921 83.633 7.53918 83.0039 7.65901 82.4346C10.0857 82.195 12.5723 82.3448 14.999 82.3448C15.2686 84.5318 14.9391 86.9585 13.2614 88.5463C10.565 91.4224 5.68171 91.4523 2.77568 88.9358C0.91821 87.3479 -0.160317 84.8913 0.0194378 82.4346C0.169233 80.1578 1.3676 77.9707 3.1951 76.5926ZM53.4066 75.5141C54.0956 75.3943 54.8146 75.3942 55.5037 75.4242C55.5936 80.3375 55.5337 85.2508 55.5337 90.1641C54.8446 90.4337 54.1256 90.2839 53.4066 90.254C53.3766 85.3706 53.4066 80.4573 53.4066 75.5141ZM20.6013 79.4088C22.1293 79.0792 23.8369 79.259 25.1252 80.1877C27.6417 81.8355 28.3308 85.5504 26.743 88.0669C25.8142 89.8345 23.7471 90.7633 21.7997 90.7633C20.4815 90.6135 19.1334 90.1641 18.2046 89.2054C16.6168 87.7074 16.1075 85.2508 16.7366 83.2136C17.186 81.3561 18.7738 79.948 20.6013 79.4088ZM20.871 81.446C19.6127 81.8654 18.7738 83.1237 18.7139 84.4119C18.5941 85.7002 18.8338 87.1981 19.9422 88.007C21.6499 89.505 24.6758 88.5762 25.245 86.3593C25.5146 84.9812 25.5446 83.2435 24.3762 82.2249C23.5373 81.2363 22.0693 81.0865 20.871 81.446ZM32.6149 79.4387C34.023 79.1391 35.5809 79.1691 36.8392 79.948C39.8051 81.4759 40.5841 85.7301 38.6967 88.3665C37.708 89.9244 35.8805 90.7633 34.0829 90.7932C32.3753 90.6734 30.6077 89.9244 29.649 88.4564C28.6903 87.1981 28.5405 85.5504 28.6903 84.0225C28.93 81.8954 30.6077 80.0679 32.6149 79.4387ZM33.0943 81.416C30.2781 82.2848 29.9186 86.599 32.2554 88.1868C33.3939 88.9657 35.1615 88.9657 36.21 88.007C37.9177 86.6589 38.0076 83.8727 36.5995 82.2848C35.7607 81.2962 34.2927 81.0865 33.0943 81.416ZM40.9735 83.2136C41.5428 80.9666 43.6699 79.0493 46.0666 79.2889C47.235 79.1991 48.1637 79.978 49.1224 80.5173C49.2123 80.2177 49.3022 79.9181 49.3921 79.6185C50.0212 79.5885 50.6503 79.5885 51.2495 79.6185C51.3094 83.0338 51.2495 86.4791 51.2795 89.8944C51.3094 91.5722 50.6204 93.3997 49.1524 94.3284C47.8641 95.1673 46.2463 95.1673 44.7784 95.0175C43.1606 94.8077 41.7225 93.6094 41.2432 92.0515C41.7525 91.662 42.3217 91.1827 43.0108 91.3025C43.58 91.8717 44.0593 92.5908 44.8083 92.9802C46.1864 93.6393 47.9241 93.1001 48.7929 91.8718C49.2722 91.1527 49.2423 90.254 49.2423 89.4451C48.1338 90.1641 46.8755 90.943 45.4974 90.7932C44.1192 90.5835 42.6512 89.9843 41.8723 88.756C40.7339 87.1682 40.4942 85.071 40.9735 83.2136ZM44.8383 81.5059C42.5015 82.5844 42.2019 86.0597 43.8496 87.8572C44.7783 88.8459 46.3662 89.0256 47.5645 88.3965C49.8714 86.9884 49.9014 83.1237 47.6544 81.6557C46.8156 81.2063 45.737 81.1464 44.8383 81.5059ZM58.8292 80.7869C59.7879 79.7683 61.1959 79.1691 62.604 79.2889C64.3716 79.1991 66.0194 80.3375 66.9181 81.8055C67.5173 82.884 67.5772 84.1423 67.5473 85.3407C64.8809 85.6702 62.1546 85.3407 59.4583 85.4905C59.2186 87.5277 61.4057 89.1754 63.323 88.6961C64.4315 88.5762 65.0307 87.6176 65.6898 86.8386C66.259 87.0783 66.7983 87.3479 67.3376 87.5876C66.9781 89.1455 65.3902 90.194 63.8923 90.5535C62.3044 91.0329 60.6267 90.5236 59.2786 89.6248C57.8405 88.5763 57.3013 86.7188 57.1215 85.0411C57.2713 83.5431 57.6608 81.8954 58.8292 80.7869ZM61.136 81.5359C60.2073 81.8654 59.7879 82.8541 59.5182 83.7229C61.4656 83.7528 63.4129 83.7528 65.3603 83.7229C65.1506 83.0937 65.0008 82.3747 64.4315 81.9553C63.5328 81.1464 62.2146 81.1164 61.136 81.5359Z" fill="#A9A9A9"/>
</svg>
