<svg width="28" height="28" viewBox="0 0 28 28" fill="none" xmlns="http://www.w3.org/2000/svg">
<path d="M13.75 26.75C20.9297 26.75 26.75 20.9297 26.75 13.75C26.75 6.5703 20.9297 0.75 13.75 0.75C6.5703 0.75 0.75 6.5703 0.75 13.75C0.75 20.9297 6.5703 26.75 13.75 26.75Z" stroke="#212427" stroke-width="1.5" stroke-linecap="round" stroke-linejoin="round"/>
<path d="M3.13116 21.2513L4.71254 20.2967C4.87139 20.2008 5.00295 20.0657 5.0946 19.9044C5.18626 19.7431 5.23494 19.5609 5.23598 19.3753L5.26345 14.4829C5.26459 14.2785 5.32355 14.0785 5.4335 13.9062L8.12052 9.69508C8.19994 9.57061 8.30396 9.46369 8.42621 9.38089C8.54845 9.29808 8.68633 9.24113 8.83138 9.21355C8.97643 9.18596 9.12558 9.18832 9.26969 9.22047C9.41379 9.25263 9.54981 9.3139 9.66937 9.40052L12.3311 11.3289C12.5565 11.4923 12.8362 11.5626 13.1121 11.5252L17.375 10.9479C17.6365 10.9125 17.8761 10.7828 18.0488 10.5833L21.0492 7.11652C21.2314 6.90606 21.3256 6.63356 21.3122 6.35554L21.154 3.06445M21.7483 23.9988L20.2951 22.5427C20.1591 22.4065 19.9894 22.3089 19.8033 22.2601L16.8974 21.4975C16.6395 21.4298 16.4156 21.2694 16.2686 21.047C16.1216 20.8245 16.0618 20.5556 16.1006 20.2918L16.4236 18.0986C16.4508 17.9135 16.5256 17.7386 16.6406 17.5909C16.7555 17.4433 16.9068 17.3279 17.0796 17.2561L21.2031 15.5422C21.3935 15.463 21.6027 15.4398 21.8058 15.4754C22.009 15.511 22.1978 15.6039 22.35 15.7431L25.7211 18.8263" stroke="#212427" stroke-width="1.5" stroke-linecap="round" stroke-linejoin="round"/>
</svg>
