<svg width="187" height="55" viewBox="0 0 187 55" fill="none" xmlns="http://www.w3.org/2000/svg">
<path fill-rule="evenodd" clip-rule="evenodd" d="M46.9692 20.9803L27.3562 4.69117C27.3562 4.69117 20.3286 -0.918335 13.6217 5.31145C7.31562 11.1637 2.58604 18.8498 2.58604 18.8498C2.58604 18.8498 -5.16298 30.7969 6.16662 42.6902C6.16662 42.6902 10.9496 47.14 15.3318 49.4863C19.7942 51.8595 27.6501 52.6416 32.1659 47.9221C37.4299 42.3935 46.9692 29.9339 46.9692 29.9339C46.9692 29.9339 51.5385 25.538 46.9692 20.9803ZM16.08 42.9868C12.5796 41.2878 6.83464 37.4043 6.56743 28.99C6.32695 22.1939 11.4841 13.6718 17.3893 10.867C23.2679 8.06226 27.1691 12.4312 27.1691 12.4312C16.9084 20.7645 18.0306 30.3385 18.0306 30.3385C19.9278 41.8272 31.7117 40.3439 31.7117 40.3439C31.7117 40.3439 25.9934 47.7603 16.08 42.9868ZM37.8574 31.633C33.876 35.7862 29.2534 36.6492 26.1003 33.9792C22.9473 31.3093 22.8137 27.0213 26.2072 22.1669C28.9327 18.2565 31.6315 16.2608 31.6315 16.2608L42.7206 25.7538C42.7206 25.7538 41.2777 28.1001 37.8574 31.633Z" fill="#00AEEF"/>
<path d="M66.0505 46.9101C66.0505 46.4187 65.9276 46.0808 65.6819 45.8966C65.4362 45.7123 65.0676 45.6201 64.6069 45.6201C64.3305 45.6201 64.054 45.6508 63.8083 45.6816C63.5626 45.7123 63.3169 45.7737 63.0712 45.8658C62.9176 45.5894 62.8255 45.2823 62.8255 44.883C63.1019 44.7908 63.409 44.7294 63.7469 44.668C64.0848 44.6066 64.4226 44.6066 64.7297 44.6066C65.559 44.6066 66.1733 44.7908 66.6033 45.1594C67.0333 45.528 67.2483 46.1423 67.2483 46.9408V50.903C66.9719 50.9644 66.6033 51.0258 66.204 51.118C65.8047 51.1794 65.3747 51.2101 64.9447 51.2101C64.5455 51.2101 64.1769 51.1794 63.839 51.0873C63.5012 51.0258 63.2248 50.903 63.0098 50.7187C62.7948 50.5651 62.6105 50.3501 62.4876 50.1044C62.3648 49.8587 62.3033 49.5515 62.3033 49.183C62.3033 48.8451 62.3648 48.5073 62.5183 48.2615C62.6719 47.9851 62.8562 47.7701 63.1019 47.5858C63.3476 47.4016 63.624 47.2787 63.9619 47.1866C64.269 47.0944 64.6069 47.0637 64.9755 47.0637C65.2519 47.0637 65.4669 47.0637 65.6205 47.0944C65.774 47.0944 65.9276 47.1251 66.0505 47.1251V46.9101ZM66.0505 48.0773C65.9276 48.0465 65.774 48.0466 65.5897 48.0158C65.4055 47.9851 65.2519 47.9851 65.0983 47.9851C64.5762 47.9851 64.2076 48.0773 63.9312 48.2615C63.6548 48.4458 63.5319 48.753 63.5319 49.1215C63.5319 49.3673 63.5626 49.5515 63.6548 49.7051C63.7469 49.8587 63.8698 49.9508 63.9926 50.0123C64.1155 50.0737 64.269 50.1351 64.4533 50.1351C64.6069 50.1658 64.7605 50.1658 64.914 50.1658C65.0983 50.1658 65.3133 50.1658 65.4976 50.1351C65.7126 50.1044 65.8662 50.0737 66.0197 50.043V48.0773H66.0505Z" fill="#818385"/>
<path d="M73.1454 42.0266C73.2375 41.9959 73.3297 41.9959 73.4525 41.9959C73.5754 41.9959 73.6675 41.9959 73.7597 41.9959C73.8518 41.9959 73.944 41.9959 74.0668 41.9959C74.1897 41.9959 74.2818 42.0266 74.374 42.0266V50.903C74.0668 50.9952 73.6983 51.0566 73.3297 51.118C72.9304 51.1794 72.5004 51.2102 72.0397 51.2102C71.6097 51.2102 71.1797 51.1487 70.7804 51.0566C70.3811 50.9337 70.0433 50.7494 69.7361 50.5037C69.429 50.258 69.214 49.9202 69.0297 49.5209C68.8454 49.1216 68.784 48.6302 68.784 48.0159C68.784 47.4937 68.8454 47.033 68.999 46.6337C69.1526 46.2037 69.3676 45.8659 69.644 45.5588C69.9204 45.2516 70.2583 45.0366 70.6576 44.8523C71.0568 44.6987 71.4868 44.6066 71.9475 44.6066C72.1625 44.6066 72.3775 44.6373 72.5925 44.668C72.8075 44.6988 72.9918 44.7295 73.1761 44.7909V42.0266H73.1454ZM73.1454 45.8045C72.9918 45.743 72.8075 45.6816 72.6233 45.6509C72.439 45.6202 72.224 45.5895 72.009 45.5895C71.6711 45.5895 71.3947 45.6509 71.149 45.7737C70.9033 45.8966 70.6883 46.0502 70.5347 46.2652C70.3811 46.4802 70.2583 46.7259 70.1661 47.033C70.074 47.3402 70.0433 47.6473 70.0433 47.9852C70.0433 48.753 70.2276 49.3366 70.5961 49.6744C70.9647 50.0123 71.4561 50.1659 72.0704 50.1659C72.2854 50.1659 72.4697 50.1659 72.654 50.1352C72.8383 50.1044 72.9918 50.0737 73.1454 50.043V45.8045Z" fill="#818385"/>
<path d="M76.1861 49.9201C76.4011 50.0123 76.6469 50.0737 76.9233 50.1351C77.1997 50.1966 77.4454 50.2273 77.7219 50.2273C77.9061 50.2273 78.0904 50.1966 78.2747 50.1659C78.459 50.1351 78.5818 50.0737 78.7354 49.9816C78.8583 49.8894 78.9504 49.7973 79.0426 49.6744C79.1347 49.5516 79.1654 49.4287 79.1654 49.2752C79.1654 49.1216 79.1347 48.968 79.0733 48.8759C79.0118 48.7837 78.9197 48.6916 78.8276 48.5994C78.7354 48.538 78.6126 48.4766 78.459 48.4151C78.3361 48.3537 78.1826 48.323 78.029 48.2616L77.599 48.108C77.0769 47.9237 76.6776 47.678 76.4626 47.4323C76.2169 47.1866 76.094 46.8487 76.094 46.4494C76.094 45.8966 76.2783 45.4359 76.6776 45.1287C77.0769 44.7909 77.6604 44.6373 78.4283 44.6373C78.7354 44.6373 79.0733 44.668 79.3804 44.7294C79.6876 44.7909 79.964 44.8523 80.179 44.9445C80.1483 45.098 80.1176 45.2823 80.0868 45.4359C80.0561 45.5895 79.9947 45.743 79.9333 45.8966C79.749 45.8352 79.534 45.7737 79.2883 45.7123C79.0426 45.6509 78.7661 45.6202 78.4897 45.6202C78.1826 45.6202 77.9061 45.6816 77.6911 45.7737C77.4454 45.8659 77.3533 46.0809 77.3533 46.3266C77.3533 46.4802 77.384 46.5723 77.4454 46.6952C77.5069 46.7873 77.5683 46.8794 77.6911 46.9409C77.7833 47.0023 77.9061 47.0637 78.029 47.1252C78.1519 47.1866 78.3054 47.2173 78.4283 47.2787L78.9811 47.463C79.1654 47.5244 79.3804 47.6166 79.534 47.7087C79.7183 47.8009 79.8718 47.9237 79.9947 48.0466C80.1176 48.1694 80.2097 48.3537 80.3018 48.538C80.394 48.7223 80.4247 48.968 80.4247 49.2444C80.4247 49.5516 80.3633 49.828 80.2404 50.0737C80.1176 50.3194 79.9333 50.5344 79.7183 50.7187C79.5033 50.903 79.2268 51.0259 78.889 51.118C78.5818 51.2101 78.2133 51.2716 77.814 51.2716C77.4147 51.2716 77.0769 51.2409 76.7697 51.1794C76.4626 51.118 76.1861 51.0566 75.9404 50.9644C75.9711 50.8109 76.0019 50.6266 76.0326 50.473C76.0633 50.258 76.1247 50.0737 76.1861 49.9201Z" fill="#818385"/>
<path d="M97.8089 49.9508C97.8703 50.0737 97.9317 50.1966 97.9932 50.3808C98.0546 50.5651 98.0853 50.7187 98.0853 50.903C97.5939 51.0873 97.041 51.1794 96.4267 51.1794C95.3825 51.1794 94.5839 50.8723 94.0617 50.2887C93.5396 49.7051 93.2632 48.8759 93.2632 47.893C93.2632 47.4323 93.3246 47.0023 93.4475 46.5723C93.5703 46.173 93.7853 45.8351 94.031 45.528C94.2768 45.2209 94.6146 45.0059 95.0139 44.8216C95.4132 44.6373 95.8432 44.5759 96.3653 44.5759C96.7032 44.5759 97.0103 44.6066 97.2867 44.6373C97.5632 44.668 97.8089 44.7294 98.0239 44.8216C98.0239 44.9752 97.9932 45.1287 97.9624 45.313C97.9317 45.4973 97.8703 45.6509 97.8089 45.8044C97.4096 45.6509 96.9489 45.5894 96.4267 45.5894C95.7817 45.5894 95.321 45.8044 95.0139 46.2037C94.7067 46.6337 94.5532 47.1866 94.5532 47.8623C94.5532 48.6609 94.7375 49.2137 95.0753 49.5823C95.4439 49.9508 95.9046 50.1351 96.5189 50.1351C96.7646 50.1351 96.9796 50.1044 97.1946 50.0737C97.3789 50.1044 97.5939 50.043 97.8089 49.9508Z" fill="#818385"/>
<path d="M101.863 51.2101C101.372 51.2101 100.942 51.118 100.573 50.9644C100.205 50.8108 99.8974 50.5651 99.6517 50.258C99.406 49.9508 99.2217 49.613 99.0989 49.2137C98.976 48.8144 98.9146 48.3844 98.9146 47.893C98.9146 47.4323 98.976 47.0023 99.0989 46.5723C99.2217 46.173 99.406 45.8351 99.6517 45.528C99.8974 45.2209 100.205 45.0059 100.573 44.8216C100.942 44.6373 101.372 44.5759 101.863 44.5759C102.355 44.5759 102.785 44.668 103.153 44.8216C103.522 45.0059 103.829 45.2209 104.075 45.528C104.32 45.8351 104.505 46.173 104.627 46.5723C104.75 46.9716 104.812 47.4016 104.812 47.893C104.812 48.3537 104.75 48.7837 104.627 49.2137C104.505 49.613 104.32 49.9508 104.075 50.258C103.829 50.5651 103.522 50.7801 103.153 50.9644C102.785 51.118 102.355 51.2101 101.863 51.2101ZM101.863 50.2273C102.416 50.2273 102.846 50.0123 103.122 49.613C103.399 49.2137 103.522 48.6301 103.522 47.893C103.522 47.1559 103.399 46.603 103.122 46.173C102.846 45.7737 102.447 45.5587 101.863 45.5587C101.31 45.5587 100.88 45.7737 100.604 46.173C100.327 46.5723 100.205 47.1559 100.205 47.893C100.205 48.6301 100.327 49.183 100.604 49.613C100.88 50.043 101.31 50.2273 101.863 50.2273Z" fill="#818385"/>
<path d="M110.463 42.0266C110.555 41.9959 110.647 41.9959 110.77 41.9959C110.893 41.9959 110.985 41.9959 111.077 41.9959C111.17 41.9959 111.262 41.9959 111.385 41.9959C111.507 41.9959 111.6 42.0266 111.692 42.0266V50.903C111.385 50.9952 111.016 51.0566 110.647 51.118C110.248 51.1794 109.818 51.2102 109.357 51.2102C108.927 51.2102 108.497 51.1487 108.098 51.0566C107.699 50.9337 107.361 50.7494 107.054 50.5037C106.747 50.258 106.532 49.9202 106.347 49.5209C106.163 49.1216 106.102 48.6302 106.102 48.0159C106.102 47.4937 106.163 47.033 106.317 46.6337C106.47 46.2037 106.685 45.8659 106.962 45.5588C107.238 45.2516 107.576 45.0366 107.975 44.8523C108.375 44.6987 108.805 44.6066 109.265 44.6066C109.48 44.6066 109.695 44.6373 109.91 44.668C110.125 44.6988 110.31 44.7295 110.494 44.7909V42.0266H110.463ZM110.463 45.8045C110.31 45.743 110.125 45.6816 109.941 45.6509C109.757 45.6202 109.542 45.5895 109.327 45.5895C108.989 45.5895 108.712 45.6509 108.467 45.7737C108.221 45.8966 108.006 46.0502 107.852 46.2652C107.699 46.4802 107.576 46.7259 107.484 47.033C107.392 47.3402 107.361 47.6473 107.361 47.9852C107.361 48.753 107.545 49.3366 107.914 49.6744C108.282 50.0123 108.774 50.1659 109.388 50.1659C109.603 50.1659 109.787 50.1659 109.972 50.1352C110.156 50.1044 110.31 50.0737 110.463 50.043V45.8045Z" fill="#818385"/>
<path d="M114.548 48.2002C114.579 48.8759 114.732 49.398 115.07 49.7051C115.408 50.0123 115.93 50.1966 116.575 50.1966C117.159 50.1966 117.712 50.1044 118.234 49.8894C118.295 50.0123 118.357 50.1659 118.387 50.3501C118.418 50.5344 118.449 50.688 118.449 50.8723C118.172 50.9951 117.865 51.0873 117.558 51.118C117.22 51.1794 116.882 51.2101 116.483 51.2101C115.9 51.2101 115.408 51.118 115.009 50.9644C114.61 50.8109 114.272 50.5651 113.995 50.2887C113.719 49.9816 113.535 49.6437 113.412 49.2444C113.289 48.8452 113.227 48.4151 113.227 47.9237C113.227 47.463 113.289 47.033 113.412 46.603C113.535 46.2037 113.719 45.8352 113.965 45.528C114.21 45.2209 114.517 44.9752 114.886 44.8216C115.255 44.6373 115.715 44.5452 116.207 44.5452C116.637 44.5452 117.036 44.6066 117.343 44.7602C117.681 44.9137 117.957 45.098 118.172 45.3744C118.387 45.6202 118.572 45.9273 118.664 46.2959C118.787 46.6644 118.848 47.033 118.848 47.463C118.848 47.5859 118.848 47.7087 118.848 47.8316C118.848 47.9544 118.817 48.0773 118.817 48.1694H114.548V48.2002ZM117.681 47.2787C117.681 47.0637 117.65 46.818 117.589 46.6337C117.527 46.4187 117.435 46.2344 117.312 46.0809C117.19 45.9273 117.036 45.8044 116.852 45.7123C116.667 45.6202 116.452 45.5587 116.207 45.5587C115.715 45.5587 115.316 45.7123 115.04 46.0194C114.763 46.3266 114.61 46.7566 114.548 47.2787H117.681Z" fill="#818385"/>
<path d="M120.384 49.9201C120.599 50.0123 120.845 50.0737 121.121 50.1351C121.397 50.1966 121.643 50.2273 121.92 50.2273C122.104 50.2273 122.288 50.1966 122.472 50.1659C122.657 50.1351 122.78 50.0737 122.933 49.9816C123.056 49.8894 123.148 49.7973 123.24 49.6744C123.332 49.5516 123.363 49.4287 123.363 49.2752C123.363 49.1216 123.332 48.968 123.271 48.8759C123.21 48.7837 123.117 48.6916 123.025 48.5994C122.933 48.538 122.81 48.4766 122.657 48.4151C122.503 48.3537 122.38 48.323 122.227 48.2616L121.797 48.108C121.275 47.9237 120.875 47.678 120.66 47.4323C120.415 47.1866 120.292 46.8487 120.292 46.4494C120.292 45.8966 120.507 45.4359 120.875 45.1287C121.275 44.7909 121.858 44.6373 122.626 44.6373C122.933 44.6373 123.271 44.668 123.578 44.7294C123.885 44.7909 124.162 44.8523 124.377 44.9445C124.346 45.098 124.315 45.2823 124.285 45.4359C124.254 45.5895 124.192 45.743 124.131 45.8966C123.947 45.8352 123.732 45.7737 123.486 45.7123C123.24 45.6509 122.964 45.6202 122.687 45.6202C122.38 45.6202 122.104 45.6816 121.889 45.7737C121.643 45.8659 121.551 46.0809 121.551 46.3266C121.551 46.4802 121.582 46.5723 121.643 46.6952C121.705 46.7873 121.766 46.8794 121.889 46.9409C121.981 47.0023 122.104 47.0637 122.227 47.1252C122.35 47.1866 122.503 47.2173 122.626 47.2787L123.179 47.463C123.363 47.5244 123.578 47.6166 123.732 47.7087C123.916 47.8009 124.07 47.9237 124.192 48.0466C124.315 48.1694 124.407 48.3537 124.5 48.538C124.592 48.7223 124.622 48.968 124.622 49.2444C124.622 49.5516 124.561 49.828 124.438 50.0737C124.315 50.3194 124.131 50.5344 123.916 50.7187C123.701 50.903 123.425 51.0259 123.087 51.118C122.78 51.2101 122.411 51.2716 122.012 51.2716C121.612 51.2716 121.275 51.2409 120.967 51.1794C120.66 51.118 120.384 51.0566 120.138 50.9644C120.169 50.8109 120.2 50.6266 120.23 50.473C120.261 50.258 120.322 50.0737 120.384 49.9201Z" fill="#818385"/>
<path d="M141.822 42.0266C141.914 41.9959 142.007 41.9959 142.129 41.9959C142.252 41.9959 142.344 41.9959 142.437 41.9959C142.529 41.9959 142.621 41.9959 142.744 41.9959C142.867 41.9959 142.959 42.0266 143.051 42.0266V50.903C142.744 50.9952 142.375 51.0566 142.007 51.118C141.607 51.1794 141.177 51.2102 140.717 51.2102C140.287 51.2102 139.857 51.1487 139.457 51.0566C139.058 50.9337 138.72 50.7494 138.413 50.5037C138.106 50.258 137.891 49.9202 137.707 49.5209C137.522 49.1216 137.461 48.6302 137.461 48.0159C137.461 47.4937 137.522 47.033 137.676 46.6337C137.829 46.2037 138.044 45.8659 138.321 45.5588C138.597 45.2516 138.935 45.0366 139.334 44.8523C139.734 44.6987 140.164 44.6066 140.624 44.6066C140.839 44.6066 141.054 44.6373 141.269 44.668C141.484 44.6988 141.669 44.7295 141.853 44.7909V42.0266H141.822ZM141.822 45.8045C141.669 45.743 141.484 45.6816 141.3 45.6509C141.116 45.6202 140.901 45.5895 140.686 45.5895C140.348 45.5895 140.072 45.6509 139.795 45.7737C139.549 45.8966 139.334 46.0502 139.181 46.2652C139.027 46.4802 138.904 46.7259 138.812 47.033C138.72 47.3402 138.689 47.6473 138.689 47.9852C138.689 48.753 138.874 49.3366 139.242 49.6744C139.611 50.0123 140.102 50.1659 140.717 50.1659C140.932 50.1659 141.116 50.1659 141.3 50.1352C141.484 50.1044 141.638 50.0737 141.792 50.043V45.8045H141.822Z" fill="#818385"/>
<path d="M145.907 48.2002C145.938 48.8759 146.092 49.398 146.429 49.7051C146.767 50.0123 147.259 50.1966 147.934 50.1966C148.518 50.1966 149.071 50.1044 149.593 49.8894C149.654 50.0123 149.716 50.1659 149.747 50.3501C149.777 50.5344 149.808 50.688 149.808 50.8723C149.532 50.9951 149.224 51.0873 148.917 51.118C148.579 51.1794 148.242 51.2101 147.842 51.2101C147.259 51.2101 146.767 51.118 146.368 50.9644C145.969 50.8109 145.631 50.5651 145.354 50.2887C145.078 49.9816 144.894 49.6437 144.771 49.2444C144.648 48.8452 144.587 48.4151 144.587 47.9237C144.587 47.463 144.648 47.033 144.771 46.603C144.894 46.2037 145.078 45.8352 145.324 45.528C145.569 45.2209 145.877 44.9752 146.245 44.8216C146.614 44.6373 147.074 44.5452 147.566 44.5452C147.996 44.5452 148.395 44.6066 148.702 44.7602C149.04 44.9137 149.317 45.098 149.532 45.3744C149.747 45.6202 149.931 45.9273 150.023 46.2959C150.146 46.6644 150.207 47.033 150.207 47.463C150.207 47.5859 150.207 47.7087 150.207 47.8316C150.207 47.9544 150.177 48.0773 150.177 48.1694H145.907V48.2002ZM149.04 47.2787C149.04 47.0637 149.009 46.818 148.948 46.6337C148.887 46.4187 148.794 46.2344 148.672 46.0809C148.549 45.9273 148.395 45.8044 148.211 45.7123C148.027 45.6202 147.812 45.5587 147.566 45.5587C147.074 45.5587 146.675 45.7123 146.399 46.0194C146.122 46.3266 145.969 46.7566 145.907 47.2787H149.04Z" fill="#818385"/>
<path d="M151.006 50.903L154.323 45.7123H151.374C151.344 45.5587 151.344 45.4052 151.344 45.2209C151.344 45.0366 151.344 44.883 151.374 44.7295H156.166L156.227 44.883L152.879 50.0737H156.012C156.043 50.2273 156.043 50.4116 156.043 50.5651C156.043 50.7187 156.043 50.8723 156.012 51.0259H151.067L151.006 50.903Z" fill="#818385"/>
<path d="M157.886 45.7123H157.087C157.057 45.6509 157.057 45.5587 157.057 45.4973C157.057 45.4051 157.057 45.313 157.057 45.2516C157.057 45.1594 157.057 45.098 157.057 45.0059C157.057 44.9137 157.087 44.8523 157.087 44.7909H159.084V51.118C158.992 51.1487 158.899 51.1487 158.777 51.1487C158.654 51.1487 158.562 51.1487 158.469 51.1487C158.377 51.1487 158.285 51.1487 158.193 51.1487C158.07 51.1487 157.978 51.118 157.886 51.118V45.7123ZM157.64 43.3473C157.609 43.2551 157.609 43.1323 157.609 43.0401C157.609 42.9173 157.609 42.8252 157.609 42.733C157.609 42.6409 157.609 42.5487 157.609 42.4259C157.609 42.303 157.609 42.2109 157.64 42.1187C157.732 42.088 157.855 42.088 157.978 42.088C158.101 42.088 158.193 42.088 158.285 42.088C158.377 42.088 158.469 42.088 158.592 42.088C158.715 42.088 158.838 42.1187 158.93 42.1187C158.961 42.2109 158.961 42.303 158.961 42.4259C158.961 42.5487 158.961 42.6409 158.961 42.733C158.961 42.8252 158.961 42.9173 158.961 43.0401C158.961 43.163 158.961 43.2551 158.93 43.3473C158.838 43.378 158.715 43.378 158.592 43.378C158.469 43.378 158.377 43.378 158.285 43.378C158.193 43.378 158.07 43.378 157.947 43.378C157.855 43.378 157.732 43.378 157.64 43.3473Z" fill="#818385"/>
<path d="M164.459 50.258C165.196 50.2887 165.718 50.4423 166.056 50.7187C166.394 51.0258 166.547 51.4251 166.547 51.9473C166.547 52.2851 166.455 52.5923 166.301 52.8687C166.117 53.1451 165.902 53.3601 165.595 53.5444C165.288 53.7287 164.919 53.8823 164.52 53.9744C164.09 54.0665 163.66 54.128 163.169 54.128C162.309 54.128 161.664 54.0051 161.234 53.7287C160.804 53.4523 160.558 53.053 160.558 52.4694C160.558 52.1316 160.65 51.8244 160.834 51.5787C161.019 51.3023 161.234 51.0873 161.541 50.9337C161.387 50.8108 161.234 50.688 161.141 50.5344C161.019 50.3808 160.988 50.1658 160.988 49.9508C160.988 49.6437 161.049 49.398 161.203 49.1523C161.326 48.9373 161.51 48.7223 161.756 48.5687C161.479 48.3844 161.264 48.1387 161.111 47.8316C160.957 47.5244 160.865 47.1866 160.865 46.818C160.865 46.5109 160.927 46.2037 161.049 45.9273C161.172 45.6509 161.326 45.4051 161.541 45.2209C161.756 45.0059 162.032 44.8523 162.339 44.7601C162.646 44.6373 163.015 44.5759 163.445 44.5759C163.814 44.5759 164.151 44.6373 164.459 44.7294C164.766 44.8216 165.011 44.9752 165.226 45.1287C165.38 45.0059 165.626 44.883 165.902 44.7909C166.179 44.6987 166.486 44.668 166.824 44.668C166.854 44.8216 166.885 45.0059 166.885 45.1901C166.885 45.2823 166.885 45.3744 166.885 45.4666C166.885 45.5587 166.854 45.6509 166.854 45.7737H165.749C165.841 45.9273 165.902 46.0501 165.964 46.2344C166.025 46.388 166.025 46.603 166.025 46.7873C166.025 47.1251 165.964 47.4323 165.841 47.7087C165.718 47.9851 165.534 48.2001 165.319 48.4151C165.104 48.5994 164.827 48.753 164.52 48.8451C164.213 48.9373 163.875 48.9987 163.506 48.9987C163.169 48.9987 162.861 48.968 162.585 48.8758C162.462 48.9373 162.37 49.0294 162.247 49.183C162.124 49.3058 162.094 49.4594 162.094 49.613C162.094 49.7666 162.155 49.8894 162.247 50.0123C162.339 50.1351 162.585 50.1966 162.954 50.1966L164.459 50.258ZM162.8 51.2101C162.431 51.2101 162.155 51.3023 161.971 51.5173C161.787 51.7323 161.694 51.978 161.694 52.2544C161.694 52.4387 161.725 52.5923 161.817 52.6844C161.879 52.8073 162.001 52.8994 162.124 52.9608C162.247 53.0223 162.431 53.0837 162.616 53.1144C162.8 53.1451 163.015 53.1451 163.23 53.1451C163.875 53.1451 164.397 53.0223 164.766 52.8073C165.134 52.5923 165.319 52.3158 165.319 51.978C165.319 51.7323 165.226 51.548 165.073 51.4251C164.919 51.3023 164.643 51.2101 164.213 51.2101H162.8ZM163.384 48.1387C163.814 48.1387 164.151 48.0158 164.366 47.7701C164.581 47.5244 164.674 47.2173 164.674 46.818C164.674 46.4187 164.581 46.1116 164.366 45.8351C164.151 45.5894 163.814 45.4666 163.384 45.4666C162.954 45.4666 162.616 45.5894 162.401 45.8351C162.186 46.0809 162.094 46.4187 162.094 46.818C162.094 47.2173 162.186 47.5244 162.401 47.7701C162.616 48.0158 162.923 48.1387 163.384 48.1387Z" fill="#818385"/>
<path d="M167.899 44.7294C167.991 44.6987 168.083 44.6987 168.175 44.6987C168.267 44.6987 168.359 44.6987 168.451 44.6987C168.544 44.6987 168.636 44.6987 168.697 44.6987C168.789 44.6987 168.851 44.7294 168.943 44.7294C168.974 44.8523 169.004 45.0059 169.004 45.2209C169.035 45.4359 169.035 45.6202 169.035 45.743C169.127 45.5894 169.219 45.4666 169.342 45.313C169.465 45.1594 169.619 45.0366 169.772 44.9444C169.926 44.8216 170.11 44.7294 170.325 44.668C170.54 44.6066 170.786 44.5759 171.031 44.5759C171.769 44.5759 172.291 44.7909 172.629 45.1901C172.966 45.6201 173.151 46.2344 173.151 47.033V51.0258C173.059 51.0566 172.966 51.0566 172.844 51.0566C172.721 51.0566 172.629 51.0566 172.536 51.0566C172.444 51.0566 172.352 51.0566 172.229 51.0566C172.106 51.0566 172.014 51.0258 171.922 51.0258V47.3401C171.922 46.7566 171.83 46.3266 171.646 46.0501C171.461 45.7737 171.185 45.6509 170.786 45.6509C170.571 45.6509 170.325 45.6816 170.141 45.7737C169.926 45.8659 169.741 45.9887 169.588 46.1423C169.434 46.3266 169.311 46.5416 169.219 46.818C169.127 47.0944 169.066 47.4323 169.066 47.8008V50.9951C168.974 51.0258 168.881 51.0258 168.759 51.0258C168.636 51.0258 168.544 51.0258 168.451 51.0258C168.359 51.0258 168.267 51.0258 168.144 51.0258C168.021 51.0258 167.929 50.9951 167.837 50.9951V44.7294H167.899Z" fill="#818385"/>
<path d="M174.901 49.9201C175.116 50.0123 175.362 50.0737 175.639 50.1351C175.915 50.1966 176.161 50.2273 176.437 50.2273C176.621 50.2273 176.806 50.1966 176.99 50.1659C177.174 50.1351 177.297 50.0737 177.451 49.9816C177.574 49.8894 177.666 49.7973 177.758 49.6744C177.85 49.5516 177.881 49.4287 177.881 49.2752C177.881 49.1216 177.85 48.968 177.789 48.8759C177.727 48.7837 177.635 48.6916 177.543 48.5994C177.451 48.538 177.328 48.4766 177.174 48.4151C177.051 48.3537 176.898 48.323 176.744 48.2616L176.314 48.108C175.792 47.9237 175.393 47.678 175.178 47.4323C174.932 47.1866 174.809 46.8487 174.809 46.4494C174.809 45.8966 174.994 45.4359 175.393 45.1287C175.792 44.7909 176.376 44.6373 177.144 44.6373C177.451 44.6373 177.789 44.668 178.096 44.7294C178.403 44.7909 178.679 44.8523 178.894 44.9445C178.864 45.098 178.833 45.2823 178.802 45.4359C178.771 45.5895 178.71 45.743 178.649 45.8966C178.464 45.8352 178.249 45.7737 178.004 45.7123C177.758 45.6509 177.481 45.6202 177.205 45.6202C176.898 45.6202 176.621 45.6816 176.406 45.7737C176.161 45.8659 176.069 46.0809 176.069 46.3266C176.069 46.4802 176.099 46.5723 176.161 46.6952C176.222 46.7873 176.284 46.8794 176.406 46.9409C176.499 47.0023 176.621 47.0637 176.744 47.1252C176.867 47.1866 177.021 47.2173 177.144 47.2787L177.696 47.463C177.881 47.5244 178.096 47.6166 178.249 47.7087C178.434 47.8009 178.587 47.9237 178.71 48.0466C178.833 48.1694 178.925 48.3537 179.017 48.538C179.109 48.7223 179.14 48.968 179.14 49.2444C179.14 49.5516 179.079 49.828 178.956 50.0737C178.833 50.3194 178.649 50.5344 178.434 50.7187C178.219 50.903 177.942 51.0259 177.604 51.118C177.297 51.2101 176.929 51.2716 176.529 51.2716C176.13 51.2716 175.792 51.2409 175.485 51.1794C175.178 51.118 174.901 51.0566 174.656 50.9644C174.686 50.8109 174.717 50.6266 174.748 50.473C174.779 50.258 174.84 50.0737 174.901 49.9201Z" fill="#818385"/>
<path d="M72.8996 18.8375C72.8996 17.2403 72.5004 16.1346 71.6711 15.4896C70.8725 14.8754 69.6747 14.5682 68.1389 14.5682C67.1868 14.5682 66.2961 14.6296 65.4668 14.7832C64.6375 14.9368 63.839 15.1211 63.0404 15.3668C62.5182 14.4761 62.2725 13.4011 62.2725 12.1418C63.194 11.8346 64.2075 11.6196 65.3132 11.4354C66.419 11.2818 67.494 11.1896 68.5382 11.1896C71.2411 11.1896 73.2989 11.8039 74.7118 13.0325C76.1246 14.2611 76.8311 16.2268 76.8311 18.9603V32.0139C75.8789 32.2289 74.7425 32.4439 73.3604 32.6896C72.0089 32.9046 70.6268 33.0274 69.2139 33.0274C67.8932 33.0274 66.6954 32.9046 65.6204 32.6588C64.5454 32.4131 63.6547 32.0138 62.8868 31.4917C62.1497 30.9389 61.5661 30.2631 61.1668 29.4031C60.7676 28.5739 60.5526 27.5603 60.5526 26.3624C60.5526 25.1953 60.7983 24.1817 61.259 23.291C61.7197 22.4003 62.3647 21.6632 63.194 21.0796C63.9925 20.496 64.9447 20.066 65.989 19.7896C67.0332 19.5132 68.1697 19.3596 69.3368 19.3596C70.1968 19.3596 70.9032 19.3903 71.4868 19.421C72.0396 19.4518 72.5004 19.5132 72.8996 19.5746V18.8375ZM72.8996 22.7689C72.5004 22.7075 71.9782 22.646 71.3639 22.6153C70.7496 22.5539 70.1968 22.5232 69.7668 22.5232C68.0775 22.5232 66.8182 22.8303 65.9275 23.4446C65.0368 24.0589 64.6068 25.011 64.6068 26.301C64.6068 27.1303 64.7604 27.7446 65.0675 28.2053C65.3747 28.666 65.7432 29.0039 66.1732 29.2496C66.634 29.4953 67.1254 29.6489 67.6475 29.7103C68.2004 29.7717 68.6918 29.8024 69.1832 29.8024C69.7975 29.8024 70.4425 29.7717 71.1182 29.7103C71.7939 29.6489 72.3775 29.526 72.8996 29.4031V22.7689Z" fill="white"/>
<path d="M95.5974 28.9424C95.8124 29.311 95.9967 29.8024 96.181 30.3553C96.3346 30.9389 96.4267 31.5224 96.4574 32.106C94.8603 32.7203 93.0174 33.0274 90.9596 33.0274C87.4889 33.0274 84.8782 32.0446 83.0968 30.0789C81.3461 28.1132 80.4554 25.4717 80.4554 22.1239C80.4554 20.5882 80.6704 19.1446 81.1004 17.8239C81.5304 16.5032 82.1753 15.3361 83.0353 14.3532C83.8953 13.3704 84.9396 12.6025 86.2296 12.0496C87.5196 11.4661 88.9939 11.1896 90.6525 11.1896C91.7889 11.1896 92.8024 11.2511 93.6624 11.4046C94.5224 11.5275 95.3517 11.7425 96.1503 12.0496C96.1503 12.5104 96.0889 13.0325 95.966 13.6468C95.8431 14.2611 95.6589 14.7832 95.4439 15.2439C94.1232 14.7832 92.5874 14.5375 90.8982 14.5375C88.8096 14.5375 87.2432 15.2439 86.2296 16.6261C85.1853 18.0082 84.6939 19.851 84.6939 22.1239C84.6939 24.7346 85.2775 26.6389 86.4446 27.8367C87.6118 29.0346 89.2089 29.6489 91.236 29.6489C92.0653 29.6489 92.8024 29.5874 93.5089 29.4953C94.2153 29.4031 94.891 29.2189 95.5974 28.9424Z" fill="white"/>
<path d="M107.76 33.0581C106.132 33.0581 104.72 32.7817 103.491 32.2288C102.262 31.676 101.249 30.9081 100.45 29.9253C99.6517 28.9424 99.0375 27.806 98.6382 26.4545C98.2389 25.1338 98.0546 23.6903 98.0546 22.1546C98.0546 20.6189 98.2389 19.1753 98.6382 17.8546C99.0375 16.5339 99.621 15.3667 100.45 14.3839C101.249 13.401 102.293 12.6332 103.491 12.0803C104.72 11.4968 106.132 11.2203 107.76 11.2203C109.388 11.2203 110.801 11.4968 112.03 12.0803C113.258 12.6639 114.272 13.4317 115.07 14.3839C115.869 15.3667 116.483 16.5032 116.882 17.8546C117.282 19.1753 117.466 20.6189 117.466 22.1546C117.466 23.6903 117.282 25.1338 116.882 26.4545C116.483 27.7753 115.9 28.9424 115.07 29.9253C114.272 30.9081 113.227 31.676 112.03 32.2288C110.832 32.7817 109.388 33.0581 107.76 33.0581ZM107.76 29.8331C109.634 29.8331 111.016 29.1574 111.907 27.806C112.797 26.4545 113.258 24.581 113.258 22.1546C113.258 19.7281 112.797 17.8546 111.907 16.5339C111.016 15.1825 109.634 14.5067 107.76 14.5067C105.887 14.5067 104.505 15.1825 103.645 16.5339C102.754 17.8853 102.324 19.7589 102.324 22.1546C102.324 24.581 102.754 26.4545 103.645 27.806C104.535 29.1574 105.887 29.8331 107.76 29.8331Z" fill="white"/>
<path d="M134.942 2.74322C135.249 2.68179 135.587 2.65108 135.956 2.62037C136.324 2.58965 136.662 2.58965 136.939 2.58965C137.246 2.58965 137.584 2.58965 137.922 2.62037C138.29 2.65108 138.628 2.68179 138.904 2.74322V31.9831C137.86 32.2902 136.724 32.536 135.434 32.7202C134.144 32.9352 132.731 33.0274 131.164 33.0274C129.69 33.0274 128.308 32.8431 126.987 32.4745C125.667 32.106 124.53 31.4917 123.547 30.6624C122.564 29.8331 121.797 28.7274 121.213 27.4067C120.63 26.086 120.353 24.4274 120.353 22.4924C120.353 20.8031 120.599 19.2674 121.09 17.8853C121.582 16.5032 122.319 15.3053 123.24 14.3225C124.162 13.3396 125.267 12.5718 126.557 12.0189C127.847 11.466 129.291 11.2203 130.857 11.2203C131.564 11.2203 132.27 11.2818 133.007 11.3739C133.714 11.4968 134.359 11.6196 134.912 11.7732V2.74322H134.942ZM134.942 15.2439C134.389 15.0289 133.806 14.8753 133.192 14.7525C132.577 14.6296 131.902 14.5989 131.164 14.5989C130.059 14.5989 129.076 14.8139 128.277 15.2132C127.479 15.6125 126.803 16.1653 126.25 16.8717C125.728 17.5782 125.329 18.4074 125.083 19.3596C124.837 20.3117 124.684 21.3867 124.684 22.5231C124.714 25.1031 125.329 26.946 126.527 28.0517C127.724 29.1574 129.352 29.7103 131.41 29.7103C132.117 29.7103 132.762 29.6795 133.376 29.6181C133.959 29.5567 134.512 29.4645 134.973 29.311V15.2439H134.942Z" fill="white"/>
<path d="M147.197 23.1374C147.259 25.4103 147.842 27.0688 148.979 28.1438C150.115 29.1881 151.774 29.741 153.954 29.741C155.889 29.741 157.701 29.4031 159.452 28.7274C159.667 29.1267 159.851 29.6181 159.974 30.2017C160.097 30.7852 160.189 31.3688 160.22 31.9217C159.329 32.2902 158.346 32.5974 157.271 32.7817C156.196 32.966 154.999 33.0581 153.709 33.0581C151.804 33.0581 150.177 32.7817 148.825 32.2595C147.474 31.7374 146.337 31.0002 145.477 30.0174C144.587 29.0653 143.942 27.9288 143.542 26.6081C143.143 25.2874 142.928 23.8438 142.928 22.2774C142.928 20.7417 143.112 19.2982 143.512 17.9467C143.911 16.5953 144.494 15.4282 145.324 14.4453C146.122 13.4625 147.167 12.6639 148.395 12.0803C149.624 11.4968 151.098 11.2203 152.757 11.2203C154.2 11.2203 155.459 11.466 156.534 11.9575C157.609 12.4489 158.531 13.1246 159.268 13.9846C160.005 14.8446 160.558 15.8582 160.926 17.0253C161.295 18.1924 161.51 19.4824 161.51 20.8646C161.51 21.2331 161.51 21.6324 161.479 22.0624C161.449 22.4924 161.418 22.8303 161.387 23.1374H147.197ZM157.517 20.1274C157.517 19.3596 157.425 18.6532 157.21 17.9467C156.995 17.2403 156.719 16.6567 156.319 16.1346C155.92 15.6124 155.429 15.2132 154.814 14.906C154.2 14.5989 153.494 14.4453 152.634 14.4453C150.975 14.4453 149.716 14.9367 148.825 15.9503C147.934 16.9639 147.412 18.346 147.228 20.1274H157.517Z" fill="white"/>
<path d="M162.8 32.0138L173.796 14.9367H164.121C164.029 14.4453 163.998 13.8925 163.998 13.3089C163.998 12.7253 164.029 12.2032 164.121 11.7118H179.785L180 12.2339L168.943 29.3724H179.324C179.416 29.9252 179.447 30.4781 179.447 31.031C179.447 31.5838 179.416 32.0752 179.324 32.5667H163.046L162.8 32.0138Z" fill="white"/>
<path d="M182.39 4.11932V1.49858H183.647C183.78 1.49858 183.907 1.53054 184.031 1.59446C184.156 1.65601 184.259 1.74834 184.339 1.87145C184.422 1.99219 184.464 2.14134 184.464 2.31889C184.464 2.49645 184.421 2.65033 184.336 2.78054C184.253 2.90838 184.147 3.00663 184.016 3.07528C183.888 3.14394 183.756 3.17827 183.619 3.17827H182.646V2.8196H183.498C183.619 2.8196 183.726 2.77699 183.821 2.69176C183.918 2.60417 183.967 2.47988 183.967 2.31889C183.967 2.15317 183.918 2.0348 183.821 1.96378C183.726 1.89276 183.622 1.85724 183.509 1.85724H182.848V4.11932H182.39ZM183.917 2.90128L184.57 4.11932H184.059L183.423 2.90128H183.917ZM183.352 5.68182C182.959 5.68182 182.591 5.60843 182.248 5.46165C181.905 5.31487 181.603 5.11127 181.342 4.85085C181.082 4.59044 180.878 4.28859 180.732 3.94531C180.585 3.60204 180.511 3.2339 180.511 2.84091C180.511 2.44792 180.585 2.07978 180.732 1.73651C180.878 1.39323 181.082 1.09138 181.342 0.830966C181.603 0.57055 181.905 0.366951 182.248 0.220171C182.591 0.0733902 182.959 0 183.352 0C183.745 0 184.113 0.0733902 184.457 0.220171C184.8 0.366951 185.102 0.57055 185.362 0.830966C185.623 1.09138 185.826 1.39323 185.973 1.73651C186.12 2.07978 186.193 2.44792 186.193 2.84091C186.193 3.2339 186.12 3.60204 185.973 3.94531C185.826 4.28859 185.623 4.59044 185.362 4.85085C185.102 5.11127 184.8 5.31487 184.457 5.46165C184.113 5.60843 183.745 5.68182 183.352 5.68182ZM183.352 5.1527C183.778 5.1527 184.165 5.04853 184.513 4.8402C184.864 4.63187 185.143 4.35369 185.352 4.00568C185.56 3.6553 185.664 3.26705 185.664 2.84091C185.664 2.41477 185.56 2.0277 185.352 1.67969C185.143 1.32931 184.864 1.04995 184.513 0.841619C184.165 0.633286 183.778 0.529119 183.352 0.529119C182.926 0.529119 182.538 0.633286 182.187 0.841619C181.839 1.04995 181.561 1.32931 181.353 1.67969C181.145 2.0277 181.04 2.41477 181.04 2.84091C181.04 3.26705 181.145 3.6553 181.353 4.00568C181.561 4.35369 181.839 4.63187 182.187 4.8402C182.538 5.04853 182.926 5.1527 183.352 5.1527Z" fill="white"/>
</svg>
