<svg width="28" height="28" viewBox="0 0 28 28" fill="none" xmlns="http://www.w3.org/2000/svg">
<path d="M20.7947 16.588L18.6466 14.9446C18.2911 14.6738 17.8495 14.5409 17.4036 14.5703C16.9577 14.5998 16.5375 14.7897 16.2206 15.1049L15.3812 15.9443C14.7401 15.7852 14.1438 15.4818 13.6378 15.0573L13.5645 14.9955C13.3605 14.824 13.1719 14.6352 13.0007 14.4311L12.941 14.36C12.5161 13.8538 12.2125 13.257 12.0535 12.6155L12.8924 11.7766C13.2074 11.4601 13.3973 11.0403 13.4271 10.5947C13.4568 10.1492 13.3244 9.70788 13.0542 9.35229L11.4109 7.20636C11.1485 6.86219 10.7779 6.61632 10.3588 6.5083C9.9397 6.40027 9.49644 6.43638 9.10035 6.61081L8.85644 6.72019C8.1534 7.02993 7.55322 7.53367 7.12626 8.17236C6.69931 8.81105 6.46327 9.55822 6.44582 10.3263C6.39263 12.9235 7.28444 15.4516 8.95543 17.4406L9.0648 17.568C9.48028 18.0623 9.93771 18.5197 10.432 18.9352L10.5594 19.0445C12.4914 20.6656 14.9324 21.5549 17.4544 21.5563C17.5273 21.5563 17.6019 21.5563 17.6781 21.5563C18.4464 21.5383 19.1937 21.3015 19.8322 20.8738C20.4707 20.446 20.974 19.845 21.2831 19.1413L21.3924 18.8974C21.5662 18.5012 21.6017 18.0581 21.4933 17.6393C21.3849 17.2204 21.1388 16.8502 20.7947 16.588ZM20.0876 18.3276L19.9782 18.5715C19.7779 19.0263 19.4521 19.4146 19.039 19.6908C18.6259 19.967 18.1426 20.1198 17.6458 20.1312C17.5807 20.1312 17.5156 20.1312 17.4511 20.1312C15.2644 20.1301 13.1478 19.3596 11.4721 17.9546L11.3447 17.8452C10.9131 17.4825 10.5137 17.083 10.1509 16.6514L10.0415 16.5235C8.59128 14.7972 7.81776 12.6028 7.86496 10.3487C7.87631 9.8518 8.02905 9.36843 8.30528 8.95523C8.58152 8.54204 8.96981 8.21614 9.42464 8.01573L9.66855 7.90636C9.7738 7.86075 9.89135 7.85197 10.0022 7.88144C10.113 7.91092 10.2107 7.97692 10.2794 8.06878L11.9228 10.2147C11.9849 10.2962 12.0155 10.3974 12.0087 10.4997C12.002 10.6019 11.9584 10.6983 11.8861 10.7709L10.7771 11.8805C10.6974 11.9602 10.6378 12.0577 10.6031 12.1649C10.5685 12.2722 10.5599 12.3861 10.578 12.4974C10.745 13.5213 11.1854 14.4811 11.8528 15.2755L11.9124 15.346C12.1362 15.6124 12.3826 15.8589 12.649 16.0827L12.7223 16.1445C13.5164 16.8109 14.4756 17.2507 15.4988 17.4176C15.6101 17.4358 15.7242 17.4272 15.8315 17.3926C15.9389 17.358 16.0365 17.2983 16.1162 17.2185L17.2258 16.1089C17.2985 16.0367 17.3948 15.9932 17.497 15.9865C17.5993 15.9798 17.7005 16.0102 17.782 16.0723L19.9301 17.7195C20.0205 17.7888 20.0852 17.8864 20.1137 17.9967C20.1423 18.107 20.1331 18.2237 20.0876 18.3281V18.3276Z" fill="#212427"/>
<path d="M13.9983 4.59418e-05C10.5707 -0.00010983 7.26209 1.25717 4.6996 3.53361C2.13711 5.81004 0.498774 8.94744 0.095093 12.3512C-0.250125 15.3073 0.349871 18.2967 1.809 20.8906L0.627748 24.9577C0.53061 25.2924 0.525107 25.647 0.611813 25.9845C0.69852 26.3221 0.874256 26.6301 1.12067 26.8765C1.36708 27.1229 1.67514 27.2987 2.01266 27.3854C2.35018 27.4721 2.70479 27.4666 3.03946 27.3695L7.10766 26.1893C9.21649 27.3765 11.5957 28.0001 14.0158 28C16.7829 27.9961 19.4868 27.1723 21.7861 25.6326C24.0853 24.0929 25.8766 21.9064 26.9339 19.3492C27.9912 16.792 28.267 13.9789 27.7264 11.2651C27.1858 8.55123 25.8531 6.05847 23.8967 4.1016C22.5999 2.79746 21.0573 1.76345 19.3583 1.05942C17.6592 0.35539 15.8374 -0.00468091 13.9983 4.59418e-05ZM22.8921 22.8944C20.9014 24.8999 18.2876 26.1684 15.4803 26.4912C12.7287 26.8134 9.94736 26.2232 7.56375 24.8112C7.48 24.7612 7.38688 24.7291 7.29016 24.7166C7.19345 24.7042 7.09521 24.7118 7.00156 24.739L2.64298 26.005C2.55283 26.0311 2.45732 26.0326 2.36642 26.0092C2.27551 25.9858 2.19255 25.9385 2.12618 25.8721C2.05981 25.8057 2.01247 25.7228 1.9891 25.6319C1.96572 25.541 1.96717 25.4455 1.99329 25.3553L3.25931 20.9962C3.28647 20.9025 3.29408 20.8043 3.28166 20.7076C3.26924 20.6109 3.23706 20.5177 3.18712 20.434C1.77514 18.0504 1.18491 15.2691 1.50712 12.5174C1.87008 9.4596 3.34214 6.64113 5.64435 4.59615C7.94656 2.55116 10.919 1.42174 13.9983 1.42192C16.486 1.42191 18.9179 2.15962 20.9864 3.54175C23.0549 4.92388 24.6671 6.88836 25.619 9.18676C26.571 11.4852 26.8201 14.0142 26.3347 16.4542C25.8493 18.8941 24.6513 21.1353 22.8921 22.8944Z" fill="#212427"/>
</svg>
