<svg width="50" height="50" viewBox="0 0 50 50" fill="none" xmlns="http://www.w3.org/2000/svg">
<path d="M30.4687 28.5625H19.5312V30.125H30.4687V28.5625ZM21.6093 22.3125L20.7812 26.9219L25 24.7656L29.1406 26.9687L28.375 22.2812L31.7656 19.0469L27.0781 18.3281L25 14.2031L22.8906 18.375L18.2031 19.0156L21.6093 22.3125ZM23.9531 19.8281L25 17.7344L26.0156 19.8281L28.3281 20.1875L26.6406 21.75L27.0156 24.0469L25 23L22.9218 24.0625L23.3281 21.7656L21.6718 20.2031L23.9531 19.8281ZM45.8281 26.8438V26.7656C46.9942 26.5858 48.0569 25.9931 48.8227 25.0955C49.5884 24.1978 50.0062 23.0549 49.9999 21.875V20.5312H49.2187C47.9728 20.5325 46.7752 21.0137 45.8749 21.875C45.8164 21.0892 45.7174 20.3069 45.5781 19.5312H45.6874V19.4531C46.7438 18.75 47.5394 17.7189 47.9517 16.5188C48.3639 15.3187 48.3699 14.0163 47.9687 12.8125L47.7031 12.0156L46.9218 12.3438C45.7386 12.8518 44.7979 13.7981 44.2968 14.9844C43.9943 14.2415 43.65 13.5164 43.2656 12.8125C44.0508 11.8004 44.4886 10.5619 44.5139 9.28112C44.5393 8.00033 44.1508 6.74554 43.4062 5.70312L42.8749 4.98438L42.1874 5.46875C41.264 6.42305 40.7101 7.67476 40.6249 9C40.1076 8.44905 39.5598 7.92741 38.9843 7.4375C39.4872 6.2218 39.5616 4.8712 39.1953 3.60761C38.829 2.34403 38.0438 1.24262 36.9687 0.484375L36.2343 0L35.8437 0.78125C35.439 1.59196 35.2252 2.48454 35.2187 3.39063C34.1811 2.98065 33.0347 2.93656 31.9687 3.26562H31.125L31.3125 4.20312C31.4292 4.79069 31.6621 5.34903 31.9975 5.84541C32.3329 6.34178 32.764 6.76619 33.2656 7.09375C32.6056 7.57543 32.07 8.20748 31.7031 8.9375L31.3906 9.5625L31.9687 9.9375C32.7108 10.4264 33.58 10.6872 34.4687 10.6875C34.8532 10.6876 35.2363 10.6404 35.6093 10.5469C36.6346 10.2479 37.5343 9.62245 38.1718 8.76562C38.6628 9.22296 39.1271 9.70814 39.5624 10.2188C38.9161 10.16 38.2648 10.2412 37.6527 10.4569C37.0406 10.6727 36.4822 11.0178 36.0156 11.4688L35.4375 11.9531L35.8749 12.5469C36.2722 13.1012 36.7826 13.5648 37.3726 13.9069C37.9625 14.249 38.6184 14.4618 39.2968 14.5312H39.6874C40.5221 14.523 41.3384 14.2851 42.0468 13.8437C42.3593 14.4375 42.6406 15.0469 42.9062 15.6875H42.7812C42.209 15.3957 41.5806 15.2307 40.9389 15.2038C40.2971 15.1768 39.6571 15.2885 39.0624 15.5312L38.3906 15.8125L38.6093 16.5C38.8217 17.1968 39.1756 17.8422 39.6488 18.3961C40.1219 18.9499 40.7043 19.4002 41.3593 19.7188C41.9509 19.9964 42.5964 20.1404 43.2499 20.1406C43.5075 20.1326 43.7637 20.1012 44.0156 20.0469C44.1249 20.6719 44.2031 21.2969 44.2656 21.9375C43.354 21.0605 42.1398 20.5681 40.8749 20.5625H40.0937V21.875C40.0972 23.0219 40.5024 24.1312 41.2388 25.0104C41.9753 25.8896 42.9965 26.483 44.1249 26.6875C44.0312 27.3594 43.9062 28.0312 43.7499 28.6719C43.2507 27.4734 42.3113 26.5117 41.1249 25.9844L40.3124 25.5781L40.0312 26.4531C39.6301 27.6352 39.6234 28.9156 40.0122 30.1018C40.401 31.288 41.1644 32.316 42.1874 33.0312C41.9091 33.6171 41.5961 34.1858 41.2499 34.7344C41.1454 33.4215 40.5811 32.1876 39.6562 31.25L39.0624 30.5312L38.5312 31.2656C37.7919 32.2829 37.3936 33.5081 37.3936 34.7656C37.3936 36.0232 37.7919 37.2484 38.5312 38.2656C38.0781 38.7031 37.6093 39.125 37.1249 39.5156C37.4715 38.1699 37.3218 36.7443 36.7031 35.5L36.3593 34.5781L35.5312 35.1094C34.5163 35.8486 33.7672 36.8959 33.3956 38.0953C33.0239 39.2947 33.0496 40.582 33.4687 41.7656C32.0147 42.4027 30.47 42.8087 28.8906 42.9688C27.6548 43.0988 26.5016 43.6506 25.625 44.5312L24.9843 45.1719L24.3437 44.5312C23.4671 43.6506 22.3139 43.0988 21.0781 42.9688C19.4987 42.8087 17.954 42.4027 16.5 41.7656C16.9191 40.582 16.9447 39.2947 16.5731 38.0953C16.2015 36.8959 15.4524 35.8486 14.4375 35.1094L13.6406 34.4844L13.2969 35.4219C12.6688 36.6906 12.5084 38.1402 12.8437 39.5156C12.3594 39.125 11.8906 38.7031 11.4375 38.2656C12.1723 37.2465 12.5677 36.022 12.5677 34.7656C12.5677 33.5092 12.1723 32.2847 11.4375 31.2656L10.9375 30.5625L10.3437 31.25C9.37908 32.1982 8.79068 33.4638 8.68749 34.8125C8.35991 34.2371 8.0677 33.6422 7.81249 33.0312C8.80476 32.3161 9.54391 31.304 9.92309 30.1412C10.3023 28.9784 10.3018 27.7251 9.92186 26.5625L9.65624 25.75L8.87499 26.0781C7.69632 26.5929 6.75778 27.537 6.24999 28.7187C6.09374 28.0625 5.96874 27.3906 5.87499 26.7188C7.00013 26.5035 8.01449 25.9014 8.74222 25.0167C9.46995 24.132 9.86517 23.0205 9.85936 21.875V20.5312H9.07811C7.81753 20.5284 6.60392 21.0094 5.68749 21.875C5.68749 21.2344 5.82812 20.6094 5.93749 19.9844C6.18934 20.0387 6.4456 20.0701 6.70311 20.0781C7.35664 20.0779 8.00212 19.9339 8.59374 19.6562C9.2488 19.3377 9.83112 18.8874 10.3043 18.3336C10.7775 17.7797 11.1313 17.1343 11.3437 16.4375L11.5469 15.75L10.9375 15.5312C10.3559 15.2881 9.72948 15.1708 9.09933 15.1869C8.46919 15.2031 7.84959 15.3524 7.28124 15.625H7.15624C7.42186 14.9844 7.70311 14.375 8.01561 13.7812C8.72406 14.2226 9.54033 14.4605 10.375 14.4688H10.7656C11.4428 14.4012 12.0979 14.1908 12.6877 13.8514C13.2776 13.512 13.7887 13.0514 14.1875 12.5L14.5781 11.9375L14.0625 11.5C13.5922 11.0378 13.0276 10.6826 12.4074 10.4588C11.7871 10.2349 11.1258 10.1477 10.4687 10.2031C10.9062 9.6875 11.3594 9.21875 11.8281 8.76562C12.4664 9.62162 13.3658 10.2468 14.3906 10.5469C14.7636 10.6404 15.1467 10.6876 15.5312 10.6875C16.4199 10.6872 17.2891 10.4264 18.0312 9.9375L18.6093 9.54688L18.2968 8.92188C17.9271 8.18943 17.3922 7.55291 16.7344 7.0625C17.2568 6.70791 17.6972 6.24554 18.026 5.70651C18.3548 5.16748 18.5644 4.56429 18.6406 3.9375L18.75 3.3125L18.0468 3.125C17.5841 2.99399 17.1059 2.92567 16.625 2.92187C15.9876 2.91857 15.3558 3.04068 14.7656 3.28125C14.7375 2.40294 14.5246 1.54043 14.1406 0.75L13.7344 0L13.0312 0.46875C11.9762 1.22524 11.2056 2.31399 10.8429 3.56056C10.4803 4.80713 10.5466 6.13935 11.0312 7.34375C10.4434 7.86441 9.89011 8.42289 9.37499 9.01562C9.24951 7.64639 8.64014 6.36671 7.65624 5.40625L7.03124 4.90625L6.54687 5.5625C5.80079 6.60804 5.41287 7.86683 5.44103 9.15096C5.46919 10.4351 5.91192 11.6757 6.70311 12.6875C6.32812 13.375 5.99999 14.0937 5.68749 14.8281C5.16804 13.713 4.25571 12.8284 3.125 12.3438L2.34375 11.9375L2.0625 12.7969C1.66127 14.0007 1.66724 15.3031 2.07951 16.5032C2.49177 17.7033 3.28742 18.7344 4.34374 19.4375V19.5156H4.43749C4.29243 20.2961 4.18812 21.0836 4.12499 21.875C3.21983 21.0251 2.02286 20.5553 0.781249 20.5625H0V21.875C0.00373032 23.0422 0.422173 24.1702 1.18063 25.0574C1.93908 25.9447 2.98817 26.5335 4.14062 26.7188V26.7969H4.26562C4.39062 27.6406 4.53124 28.4688 4.73437 29.2812H4.68749C4.13268 29.0193 3.52943 28.8757 2.91611 28.8596C2.30279 28.8435 1.69282 28.9551 1.125 29.1875L0.390624 29.4219L0.624999 30.1562C0.837421 30.853 1.19127 31.4985 1.66444 32.0523C2.13761 32.6061 2.71993 33.0564 3.375 33.375C3.96593 33.6546 4.61186 33.7988 5.26562 33.7969C5.59642 33.8085 5.92733 33.777 6.24999 33.7031V33.7812H6.39062C6.74979 34.5196 7.14613 35.2393 7.57811 35.9375C6.92579 35.8825 6.26932 35.97 5.65417 36.194C5.03903 36.4179 4.47993 36.7729 4.01562 37.2344L3.49999 37.7031L3.90624 38.2812C4.29911 38.8385 4.80881 39.3034 5.39981 39.6434C5.99082 39.9835 6.64888 40.1905 7.32811 40.25H7.71874C8.61673 40.2483 9.49336 39.976 10.2344 39.4688L10.3594 39.3594C10.9249 39.9174 11.5251 40.4393 12.1562 40.9219C11.5043 41.1231 10.9004 41.4556 10.3818 41.899C9.86314 42.3424 9.44076 42.8872 9.14061 43.5L8.79686 44.125L9.39061 44.5156C10.1281 45.0161 10.9993 45.2829 11.8906 45.2812C12.2763 45.2832 12.6603 45.2305 13.0312 45.125C14.1223 44.8232 15.0732 44.1487 15.7187 43.2188V43.0938C17.3239 43.8084 19.0329 44.262 20.7812 44.4375C21.6537 44.5249 22.4672 44.9179 23.0781 45.5469L23.7187 46.1875L21.0625 48.8438L22.1718 49.9531L25 47.375L27.6562 50L28.7656 48.8906L26.1093 46.2344L26.75 45.5938C27.3609 44.9647 28.1744 44.5718 29.0468 44.4844C30.8005 44.3108 32.515 43.8571 34.125 43.1406V43.2656C34.7675 44.1917 35.7121 44.8656 36.7968 45.1719C37.1678 45.2774 37.5518 45.33 37.9374 45.3281C38.8288 45.3298 39.6999 45.063 40.4374 44.5625L41.0156 44.1719L40.7031 43.5469C40.3974 42.9352 39.9714 42.3915 39.4505 41.9485C38.9296 41.5055 38.3246 41.1723 37.6718 40.9687C38.302 40.4909 38.8972 39.9688 39.4531 39.4062L39.5781 39.5312C40.3237 40.027 41.1983 40.2932 42.0937 40.2969H42.4843C43.1648 40.2355 43.8237 40.0261 44.4148 39.6833C45.0059 39.3405 45.5149 38.8727 45.9062 38.3125L46.2968 37.7656L45.7968 37.2812C45.358 36.8358 44.8314 36.4863 44.2504 36.255C43.6694 36.0237 43.0468 35.9156 42.4218 35.9375C42.8649 35.2348 43.2717 34.5099 43.6406 33.7656H43.7812V33.6875C44.0844 33.7504 44.3934 33.7818 44.7031 33.7812C45.3516 33.7813 45.9921 33.6372 46.5781 33.3594C47.2331 33.0408 47.8154 32.5905 48.2886 32.0367C48.7618 31.4829 49.1156 30.8374 49.3281 30.1406L49.5312 29.4531L48.8749 29.1875C48.301 28.9488 47.6835 28.8324 47.062 28.8458C46.4405 28.8593 45.8287 29.0023 45.2656 29.2656C45.4687 28.4531 45.6093 27.625 45.7343 26.7812L45.8281 26.8438ZM45.8281 25.0469C45.9218 24.3669 46.2224 23.7323 46.6893 23.2292C47.1561 22.726 47.7664 22.3787 48.4374 22.2344C48.3667 22.92 48.0877 23.5675 47.6379 24.0899C47.1882 24.6123 46.5893 24.9844 45.9218 25.1562L45.8281 25.0469ZM33.0937 4.6875C33.5266 4.62777 33.9672 4.65948 34.387 4.78059C34.8069 4.9017 35.1966 5.10952 35.5312 5.39062C35.6175 5.67527 35.7272 5.95226 35.8593 6.21875C35.6765 6.21314 35.4935 6.2236 35.3125 6.25C34.8438 6.18844 34.3971 6.0141 34.0107 5.74196C33.6242 5.46981 33.3096 5.10798 33.0937 4.6875ZM35.2187 9.09375C34.664 9.26576 34.0703 9.26576 33.5156 9.09375C33.9234 8.47442 34.5381 8.02028 35.2499 7.8125C35.798 7.63242 36.3894 7.63242 36.9374 7.8125C36.5229 8.40547 35.9154 8.83622 35.2187 9.03125V9.09375ZM37.7187 6.25C37.3008 5.73099 37.0075 5.12309 36.8612 4.47301C36.7149 3.82294 36.7196 3.14798 36.8749 2.5C37.296 3.01725 37.5913 3.62511 37.7377 4.2758C37.8841 4.92648 37.8776 5.60226 37.7187 6.25ZM39.3593 12.9844C38.7005 12.9268 38.0794 12.652 37.5937 12.2031C38.1209 11.8756 38.742 11.7326 39.3593 11.7969C40.0231 11.8534 40.6494 12.1281 41.1406 12.5781C40.6 12.8846 39.9776 13.0156 39.3593 12.9531V12.9844ZM42.3906 11.25C42.1441 10.627 42.0414 9.95639 42.0901 9.28817C42.1388 8.61994 42.3376 7.97132 42.6718 7.39062C42.9172 8.01387 43.0193 8.6843 42.9706 9.35233C42.9219 10.0204 42.7237 10.6689 42.3906 11.25ZM42.0624 18.2969C41.3953 17.9464 40.8504 17.4015 40.4999 16.7344C41.0338 16.6732 41.5743 16.7597 42.0624 16.9844C42.7344 17.3282 43.2811 17.8749 43.6249 18.5469C43.091 18.6097 42.5501 18.5231 42.0624 18.2969ZM14.4687 5.32812C14.7906 5.0318 15.1711 4.80637 15.5856 4.66641C16.0001 4.52644 16.4394 4.47507 16.875 4.51562C16.6875 4.95504 16.3962 5.34241 16.0261 5.6445C15.6559 5.94658 15.2181 6.15436 14.75 6.25C14.5491 6.20861 14.3454 6.1825 14.1406 6.17188C14.2804 5.90341 14.3904 5.62048 14.4687 5.32812ZM14.0625 7.71875V7.96875L14.7969 7.8125C15.4643 8.00797 16.0542 8.40668 16.4844 8.95312C15.9297 9.12514 15.3359 9.12514 14.7812 8.95312C14.0972 8.76555 13.4901 8.36627 13.0469 7.8125C13.3773 7.72195 13.7211 7.69021 14.0625 7.71875ZM13.1094 2.46875C13.2755 3.11996 13.2872 3.80099 13.1434 4.45751C12.9996 5.11402 12.7044 5.72785 12.2812 6.25C12.1187 5.59852 12.1089 4.91831 12.2526 4.26242C12.3962 3.60653 12.6894 2.99268 13.1094 2.46875ZM10.6406 11.8437C11.2577 11.783 11.8777 11.9257 12.4062 12.25C11.9192 12.6969 11.2989 12.9714 10.6406 13.0312C10.0052 13.0505 9.38045 12.8642 8.85936 12.5C9.35683 12.067 9.98253 11.8091 10.6406 11.7656V11.8437ZM7.31249 7.40625C7.64468 7.98455 7.8437 8.62966 7.89506 9.29459C7.94642 9.95953 7.84881 10.6276 7.60936 11.25C7.27717 10.6717 7.07815 10.0266 7.02679 9.36166C6.97544 8.69672 7.07304 8.0287 7.31249 7.40625ZM7.93749 17.0312C8.42286 16.7975 8.96592 16.7106 9.49999 16.7812C9.15618 17.4533 8.60949 17.9999 7.93749 18.3437C7.4498 18.57 6.90892 18.6565 6.37499 18.5938C6.7188 17.9217 7.26548 17.3751 7.93749 17.0312ZM1.5625 22.2344C2.21247 22.3896 2.80101 22.7361 3.25219 23.2291C3.70337 23.722 3.99649 24.3389 4.09374 25V25.125C3.42791 24.9578 2.82889 24.5915 2.37663 24.0751C1.92436 23.5586 1.64035 22.9165 1.5625 22.2344ZM3.34375 14.2812C3.83618 14.721 4.2154 15.273 4.4493 15.8904C4.68321 16.5078 4.76491 17.1725 4.68749 17.8281C4.20019 17.3844 3.82452 16.8319 3.59102 16.2155C3.35753 15.5992 3.2728 14.9365 3.34375 14.2812ZM4.03124 31.9687C3.35601 31.6294 2.80811 31.0815 2.46875 30.4062C3.00261 30.3467 3.54262 30.4331 4.03124 30.6563C4.70517 30.9974 5.25258 31.5448 5.59374 32.2188C5.05992 32.2768 4.52032 32.1904 4.03124 31.9687ZM8.28124 22.2344C8.21039 22.9289 7.9259 23.5844 7.46696 24.1105C7.00802 24.6366 6.39723 25.0074 5.71874 25.1719C5.78736 24.4766 6.07106 23.82 6.53036 23.2934C6.98965 22.7669 7.60168 22.3967 8.28124 22.2344ZM7.24999 31.5156C7.18091 30.8563 7.27116 30.19 7.51315 29.5728C7.75514 28.9555 8.1418 28.4054 8.64061 27.9688C8.70327 28.6276 8.61005 29.2919 8.36847 29.9081C8.1269 30.5243 7.74375 31.0749 7.24999 31.5156ZM7.46874 38.6562C6.805 38.5997 6.17866 38.325 5.68749 37.875C6.24027 37.5473 6.88406 37.4068 7.52311 37.4744C8.16216 37.5419 8.76233 37.814 9.23436 38.25C8.70585 38.5743 8.08583 38.7169 7.46874 38.6562ZM10.5 36.9531C10.2539 36.3354 10.1514 35.6698 10.2001 35.0067C10.2488 34.3436 10.4475 33.7001 10.7812 33.125C11.0228 33.7437 11.1229 34.4085 11.0742 35.0709C11.0256 35.7333 10.8294 36.3764 10.5 36.9531ZM12.6875 43.75C12.1316 43.9136 11.5403 43.9136 10.9844 43.75C11.4214 43.183 12.0296 42.772 12.7187 42.5781C13.2681 42.4064 13.8568 42.4064 14.4062 42.5781C13.974 43.1432 13.3714 43.5541 12.6875 43.75ZM15.1875 40.9375C14.7774 40.4144 14.4901 39.8058 14.3467 39.1567C14.2034 38.5077 14.2077 37.8347 14.3594 37.1875C14.762 37.6993 15.0452 38.2946 15.1885 38.9298C15.3318 39.5651 15.3314 40.2243 15.1875 40.8594V40.9375ZM35.6406 37.1875C35.7968 37.8344 35.8035 38.5084 35.66 39.1582C35.5165 39.8081 35.2266 40.4166 34.8125 40.9375C34.6411 40.2791 34.6267 39.5897 34.7706 38.9248C34.9144 38.2599 35.2124 37.638 35.6406 37.1094V37.1875ZM39.0624 43.6094C38.5119 43.7735 37.9255 43.7735 37.3749 43.6094C36.6911 43.4134 36.0884 43.0026 35.6562 42.4375C36.2056 42.2658 36.7943 42.2658 37.3437 42.4375C38.0336 42.6204 38.6402 43.0339 39.0624 43.6094ZM39.5624 36.9531C39.2285 36.3752 39.0297 35.7292 38.981 35.0635C38.9323 34.3978 39.0349 33.7297 39.2812 33.1094C39.604 33.6925 39.7913 34.3409 39.8291 35.0063C39.867 35.6717 39.7545 36.3371 39.4999 36.9531H39.5624ZM42.6093 37.4687C43.2259 37.4158 43.8435 37.5579 44.3749 37.875C43.8838 38.325 43.2574 38.5997 42.5937 38.6562C41.977 38.7113 41.3587 38.5691 40.8281 38.25C41.3067 37.8237 41.9088 37.561 42.5468 37.5L42.6093 37.4687ZM41.4218 27.9531C41.9219 28.3922 42.3092 28.945 42.5512 29.5649C42.7932 30.1849 42.8828 30.8539 42.8124 31.5156C42.3061 31.0787 41.9105 30.5282 41.6579 29.9089C41.4053 29.2897 41.303 28.6195 41.3593 27.9531H41.4218ZM41.7812 22.2344C42.4608 22.3967 43.0728 22.7669 43.5321 23.2934C43.9914 23.82 44.2751 24.4766 44.3437 25.1719C43.6537 25.0188 43.0291 24.6529 42.5581 24.1259C42.0872 23.5988 41.7935 22.9372 41.7187 22.2344H41.7812ZM46.0156 30.7031C46.5052 30.4838 47.0456 30.4027 47.5781 30.4688C47.236 31.142 46.6888 31.6892 46.0156 32.0312C45.528 32.2583 44.9883 32.35 44.4531 32.2969C44.7726 31.6208 45.2976 31.063 45.9531 30.7031H46.0156ZM45.3124 17.8438C45.2434 17.1821 45.3336 16.5135 45.5755 15.8938C45.8174 15.274 46.204 14.7212 46.7031 14.2812C46.767 14.9425 46.6744 15.6096 46.4328 16.2284C46.1913 16.8473 45.8074 17.4007 45.3124 17.8438ZM28.125 33.25V31.6875H21.875V33.25H28.125Z" fill="#44CC9C"/>
</svg>
