<svg width="49" height="50" viewBox="0 0 49 50" fill="none" xmlns="http://www.w3.org/2000/svg">
<g clip-path="url(#clip0_999_1269)">
<path d="M49 25.5542C49.0296 23.8356 48.8522 22.1196 48.4717 20.4433H25V29.7209H38.7776C38.5166 31.3476 37.9293 32.9048 37.051 34.2987C36.1726 35.6925 35.0215 36.8944 33.6667 37.8319L33.6186 38.1426L41.0403 43.8919L41.5543 43.9433C46.2762 39.5821 48.999 33.1652 48.999 25.5542" fill="#4285F4"/>
<path d="M25 50C31.7498 50 37.4164 47.7776 41.5557 43.9443L33.6667 37.8328C31.5557 39.3055 28.7224 40.3333 25 40.3333C21.8386 40.3148 18.7633 39.3013 16.2104 37.4365C13.6575 35.5716 11.7567 32.9503 10.7776 29.9443L10.4846 29.9692L2.76752 35.9414L2.66666 36.2219C4.74506 40.3641 7.93472 43.8465 11.879 46.2797C15.8232 48.713 20.3666 50.001 25.001 50" fill="#34A853"/>
<path d="M10.7776 29.9443C10.2308 28.353 9.94864 26.6827 9.94237 25C9.95244 23.3201 10.2242 21.652 10.7478 20.0557L10.7339 19.7243L2.92219 13.6561L2.66667 13.7776C0.91336 17.2587 9.15527e-05 21.1021 9.15527e-05 24.9998C9.15527e-05 28.8974 0.91336 32.7409 2.66667 36.2219L10.7776 29.9443Z" fill="#FBBC05"/>
<path d="M25 9.6667C28.5823 9.61107 32.0469 10.9452 34.6667 13.3891L41.7224 6.50003C37.1971 2.25474 31.2045 -0.0745917 25 3.01104e-05C20.3657 -0.00107252 15.8224 1.28695 11.8781 3.72008C7.93387 6.15322 4.74418 9.63553 2.66571 13.7776L10.7498 20.0557C11.7385 17.0503 13.6456 14.4309 16.2023 12.567C18.7589 10.7031 21.8361 9.68864 25 9.6667Z" fill="#EB4335"/>
</g>
<defs>
<clipPath id="clip0_999_1269">
<rect width="49" height="50" fill="white"/>
</clipPath>
</defs>
</svg>
