<svg width="144" height="144" viewBox="0 0 144 144" fill="none" xmlns="http://www.w3.org/2000/svg">
<g opacity="0.06" clip-path="url(#clip0_999_1184)">
<path d="M143.873 74.7462C143.782 74.6711 143.65 74.6473 143.547 74.6819C143.421 74.7205 143.306 74.7541 143.198 74.7859L143.145 74.8014C142.877 74.8797 142.645 74.9468 142.416 75.0389C138.795 76.4776 135.945 78.9424 133.701 82.5738C133.147 83.4711 132.718 84.4037 132.376 85.3338C132.937 82.2053 133.066 80.9864 133.166 77.4857C133.17 77.3388 133.17 77.1893 133.17 77.041C133.17 76.636 133.17 76.2534 133.259 75.9044C133.365 75.4908 133.578 75.0782 133.785 74.679C133.843 74.566 133.901 74.4531 133.949 74.3538C133.966 74.3343 134.019 74.3015 134.04 74.2982C135.076 74.1401 135.992 73.7005 136.84 72.9545C137.696 72.199 138.399 71.2743 138.932 70.2052C140.842 66.3735 141.799 62.1383 141.774 57.6187C141.772 57.1827 141.721 56.7582 141.665 56.2966C141.639 56.0897 141.613 55.8782 141.591 55.6591C141.579 55.539 141.505 55.4321 141.398 55.3801C141.292 55.3289 141.164 55.3325 141.058 55.3971C140.993 55.4375 140.938 55.4704 140.888 55.4996C140.791 55.5574 140.717 55.6025 140.647 55.653C139.017 56.8214 137.579 58.2759 136.373 59.9752C134.405 62.7526 133.261 65.8931 132.952 69.348C132.922 68.9629 132.891 68.5778 132.86 68.1926L132.849 68.053C132.728 66.5432 132.603 64.9818 132.501 63.4463C132.476 63.0576 132.401 62.6794 132.329 62.3134C132.189 61.6099 132.058 60.9454 132.268 60.2492C132.316 60.0918 132.357 59.9334 132.397 59.7753C132.497 59.3836 132.978 58.7805 133.717 58.1211L133.745 58.0962C134.017 57.8652 135.417 56.5846 136.211 54.0515C137.017 51.4781 136.956 48.7891 136.912 46.8256L136.91 46.7733C136.851 44.0742 136.56 42.0403 135.965 40.1775C135.888 39.9393 135.797 39.7043 135.7 39.4575C135.65 39.329 135.598 39.1961 135.546 39.0572C135.502 38.9395 135.399 38.854 135.277 38.8338L135.217 38.8284C135.112 38.8284 135.013 38.8756 134.947 38.9572L134.369 39.6614C131.598 43.0405 130.237 47.0036 130.322 51.4409C130.337 52.2223 130.396 53.024 130.499 53.8516C129.795 51.4214 128.969 49.0558 128.03 46.7801C128.011 46.7303 127.998 46.6686 127.996 46.6163L127.99 46.3051C127.98 45.8561 127.97 45.3916 127.989 44.9347C127.992 44.8589 128.041 44.7228 128.143 44.5889C128.288 44.3972 128.449 44.2099 128.616 44.015C128.9 43.6844 129.194 43.3429 129.426 42.9531C130.175 41.6992 130.526 40.218 130.532 38.2909C130.542 36.0224 130.192 33.6352 129.43 30.7777C129.014 29.2188 128.385 27.1936 127.214 25.3575C127.135 25.2341 127.046 25.1178 126.951 24.9948C126.909 24.9403 126.864 24.8822 126.818 24.8197C126.752 24.7306 126.66 24.6786 126.512 24.6786C126.394 24.6873 126.289 24.7544 126.23 24.8587C124.76 27.5112 124.028 30.3449 123.994 33.5219C123.964 36.1708 124.378 38.4501 124.896 40.2515C123.576 37.8401 122.11 35.5103 120.52 33.3003L120.483 33.2501C120.447 33.2021 120.432 33.1786 120.434 33.1952C120.334 32.4802 120.265 31.9081 120.217 31.41C120.218 31.4025 120.228 31.3606 120.302 31.2364C120.407 31.0574 120.522 30.882 120.645 30.6965C120.89 30.3233 121.143 29.9371 121.306 29.5047C121.796 28.1995 121.906 26.7193 121.641 24.9811C121.061 21.1338 119.365 17.6696 116.458 14.3898C116.158 14.053 115.828 13.7552 115.478 13.4405L115.381 13.3528C115.245 13.229 115.104 13.1023 114.962 12.9684C114.872 12.8825 114.743 12.8504 114.618 12.8872C114.499 12.9247 114.408 13.0229 114.38 13.1449L114.316 13.4235C114.273 13.6083 114.239 13.7541 114.214 13.9007C113.823 16.2359 113.852 18.7372 114.302 21.5482C114.749 24.3361 115.639 26.7406 117.006 28.8294C114.957 26.4154 112.964 24.3884 110.882 22.592C110.872 22.5797 110.858 22.5426 110.857 22.5332C111.02 21.131 110.674 19.8099 109.799 18.4947C108.651 16.7662 107.054 15.4487 105.055 14.5796C103.858 14.0606 102.618 13.6011 101.404 13.151C100.823 12.9352 100.242 12.7201 99.6428 12.4894C99.0411 12.2501 98.7837 12.2075 98.644 12.3368C98.4643 12.5042 98.5076 12.6472 98.5859 12.907L98.6112 12.9918C99.345 15.4635 100.319 17.4184 101.589 18.9679C103.921 21.8153 106.647 23.2619 109.921 23.3897C110.036 23.3965 110.127 23.4283 110.164 23.4572C110.625 23.8022 110.964 24.0784 111.264 24.3519C112.213 25.2189 113.147 26.1425 114.061 27.1153C112.701 26.2707 111.04 25.8895 109.169 25.9841C108.145 26.0357 107.129 26.1859 106.146 26.331L106.108 26.3367C105.818 26.3793 105.529 26.4215 105.24 26.4623C104.609 26.5479 103.972 26.6598 103.409 26.7579C103.182 26.7987 102.638 26.9225 102.513 27.1864C102.469 27.2766 102.473 27.3755 102.522 27.4654C102.565 27.5437 102.613 27.6173 102.665 27.6845C104.288 29.7905 106.14 31.1776 108.325 31.9244C110.991 32.8397 113.438 32.7643 115.638 31.6876C115.974 31.5024 116.38 31.4086 116.844 31.4086C117.193 31.4086 117.456 31.4638 117.543 31.4837C117.673 31.5053 117.85 31.5782 117.886 31.6252C119.254 33.4237 120.552 35.3446 121.765 37.3626C120.74 36.3664 119.404 35.6947 117.585 35.2573C115.99 34.8772 114.359 34.7956 112.782 34.7162L112.254 34.6895C111.76 34.6642 111.265 34.6328 110.756 34.6007L109.902 34.548C109.792 34.548 109.687 34.6014 109.622 34.6902C109.551 34.7859 109.534 34.91 109.576 35.0216C109.61 35.1147 109.673 35.2789 109.705 35.3338C111.368 38.1151 113.32 40.0389 115.674 41.2156C117.974 42.3648 120.053 42.6687 122.15 42.1674C122.392 42.1089 122.673 42.0779 122.964 42.0779C123.856 42.0779 124.478 42.35 124.608 42.6019C125.762 44.9816 126.791 47.4544 127.679 49.9766C126.748 48.6927 125.446 47.65 123.797 46.87C122.159 46.0969 120.454 45.3902 118.776 44.6946C118.054 44.3965 117.33 44.0973 116.61 43.7912C116.502 43.7443 116.376 43.754 116.276 43.8201C116.178 43.8854 116.119 43.9944 116.119 44.1117C116.119 44.337 118.512 50.9785 121.988 53.5957C123.405 54.6633 125.152 55.7617 127.354 55.8133C128.013 55.8266 128.694 55.9197 129.209 56.5048C129.287 56.5979 129.392 56.6705 129.506 56.7091C129.681 56.7669 129.73 56.8744 129.816 57.2411C130.529 60.2355 131.049 63.3218 131.369 66.4558C131.272 66.1378 131.16 65.8166 131.031 65.4914C130.253 63.5189 128.944 61.7929 126.911 60.0593C125.863 59.162 124.766 58.2933 123.705 57.4526L123.654 57.4129C123.171 57.03 122.689 56.6485 122.208 56.2623C122.109 56.1825 122.012 56.1002 121.9 56.0042L121.6 55.7472C121.495 55.6584 121.339 55.64 121.216 55.7014C121.09 55.7653 121.014 55.8974 121.024 56.0385C121.039 56.2504 121.051 56.4507 121.062 56.6431L121.068 56.7329C121.092 57.1289 121.114 57.5024 121.154 57.8713C121.53 61.463 122.598 64.4616 124.419 67.0384C125.546 68.6312 127.163 70.5781 129.685 71.4988C130.298 71.724 130.744 72.0651 131.22 72.6773C131.67 73.2504 131.754 73.7742 131.744 74.4332C131.701 77.194 131.504 79.9328 131.157 82.6149C131.076 81.8685 130.904 81.1001 130.64 80.3017C130.094 78.6486 129.243 77.0413 128.038 75.3883C126.998 73.9568 125.915 72.5203 124.869 71.1303L124.799 71.0375C124.384 70.4871 123.969 69.936 123.565 69.3967C123.489 69.2859 123.38 69.2462 123.317 69.2242C123.227 69.1805 123.121 69.1762 123.026 69.2166C122.932 69.2563 122.861 69.3346 122.83 69.4307L122.817 69.4682C122.8 69.5187 122.786 69.5635 122.779 69.6082C122.057 73.9128 122.5 77.7693 124.133 81.3996C124.93 83.1747 125.999 85.1844 127.885 86.6303C128.746 87.2905 129.425 88.2166 129.799 89.2377C129.878 89.4575 129.875 89.5528 129.866 89.5896C129.068 92.8951 128.025 96.0832 126.758 99.1007C127.084 97.5104 127.062 95.84 126.689 94.1093C126.161 91.6564 125.252 89.2792 124.441 87.2436L124.198 86.6339C123.818 85.68 123.436 84.7185 123.04 83.7219C122.99 83.5945 122.869 83.5075 122.708 83.4996C122.581 83.4996 122.464 83.5721 122.403 83.6898L122.276 83.9294C122.22 84.0345 122.168 84.1323 122.123 84.2334C120.492 87.9127 119.941 91.6845 120.487 95.444C120.877 98.1323 121.537 100.057 122.629 101.686C123.193 102.527 123.73 103.465 123.828 104.618C123.851 104.891 123.84 105.079 123.718 105.293C122.342 107.704 120.798 109.979 119.108 112.093C119.115 112.081 119.121 112.069 119.127 112.058C120.343 109.836 120.38 107.433 120.256 105.375C120.149 103.611 119.946 101.85 119.752 100.147L119.741 100.048C119.662 99.3663 119.584 98.6845 119.513 98.0012C119.472 97.614 119.426 97.2267 119.379 96.8336L119.317 96.3016C119.303 96.1839 119.231 96.0822 119.128 96.0309C118.936 95.9306 118.625 96.0854 118.289 96.4824C115.983 99.2107 114.551 102.294 114.034 105.647C113.498 109.123 113.789 112.098 114.924 114.741C114.954 114.811 114.953 114.955 114.953 115.003L114.892 116.524C114.883 116.633 114.825 116.757 114.778 116.803C112.474 119.021 109.938 120.95 107.217 122.555C108.505 121.39 109.431 119.871 110.031 117.946C110.696 115.812 111.038 113.591 111.369 111.438L111.398 111.246C111.515 110.49 111.637 109.735 111.762 108.963L111.903 108.09C111.924 107.963 111.873 107.836 111.775 107.76C111.677 107.682 111.536 107.663 111.423 107.712L111.3 107.763C111.169 107.817 111.054 107.865 110.946 107.92C105.801 110.489 102.415 116.482 102.893 122.169C102.968 123.06 102.887 123.897 102.644 124.725C102.621 124.801 102.548 124.883 102.518 124.896C100.075 125.927 97.7515 126.679 95.4137 127.195C95.2935 127.223 95.1982 127.309 95.1592 127.424C95.1199 127.541 95.1437 127.668 95.2238 127.763C95.4779 128.064 95.6992 128.388 95.8811 128.727C95.9558 128.865 96.1337 128.936 96.2669 128.902C98.1716 128.467 100.026 127.904 101.782 127.228C101.924 127.171 102.032 127.144 102.133 127.161C102.524 127.213 102.936 127.293 103.394 127.406C103.489 127.429 103.567 127.473 103.569 127.469C104.569 129.464 106.289 130.734 108.827 131.352C109.379 131.485 109.949 131.583 110.52 131.643C111.118 131.706 111.784 131.738 112.501 131.738C113.493 131.738 114.201 131.677 114.21 131.676C116.41 131.43 118.289 130.934 119.953 130.162C120.636 129.845 121.414 129.419 122.012 128.658C122.127 128.512 122.108 128.301 121.969 128.179C120.278 126.687 118.557 125.603 116.706 124.866C113.963 123.776 111.464 123.48 109.016 123.951C108.65 124.023 108.292 124.112 107.945 124.215C110.236 122.846 112.429 121.236 114.501 119.403C114.54 119.366 114.606 119.335 114.657 119.326C114.996 119.269 115.446 119.2 115.906 119.167C115.949 119.167 116.003 119.187 116.009 119.19C117.257 120.586 118.865 121.265 120.925 121.265C121.03 121.265 121.135 121.263 121.24 121.26C123.48 121.187 125.732 120.572 127.934 119.43C129.534 118.595 131.202 117.623 132.555 116.173C132.855 115.851 133.123 115.486 133.359 115.165L133.382 115.133C133.487 114.992 133.593 114.849 133.701 114.708C133.761 114.631 133.785 114.533 133.77 114.434C133.753 114.339 133.698 114.254 133.604 114.193C133.58 114.18 133.007 113.873 132.484 113.67C128.983 112.317 125.447 112.178 122.075 113.265C120.97 113.62 119.931 114.153 118.92 114.889C120.791 112.714 122.523 110.33 124.096 107.764C124.113 107.737 124.158 107.664 124.172 107.651C124.31 107.563 124.451 107.48 124.591 107.398C124.843 107.25 125.103 107.098 125.348 106.916C125.554 106.762 125.612 106.758 125.821 106.892C126.116 107.083 126.46 107.183 126.759 107.261C128.509 107.71 130.274 107.486 132.226 106.57C134.009 105.734 135.38 104.413 136.596 103.11C138.365 101.209 139.521 99.4941 140.235 97.7125C140.384 97.3386 140.491 96.952 140.602 96.5478C140.648 96.3781 140.695 96.2085 140.745 96.0417C140.8 95.8627 140.704 95.6732 140.527 95.6108L140.381 95.5996C139.659 95.5996 133.223 95.7053 129.459 99.358C128.64 100.153 127.905 100.997 127.235 101.922C128.724 98.7682 129.987 95.4444 131.005 91.9942L131.02 91.9437C131.032 91.9014 131.051 91.8375 131.063 91.8202L132.048 90.4682C132.084 90.414 132.089 90.414 132.146 90.414C132.172 90.414 132.2 90.4158 132.232 90.4176L132.443 90.4303C133.175 90.4757 133.607 90.4692 133.962 90.4137C135.363 90.1924 136.629 89.4864 137.83 88.2549C140.638 85.3746 142.571 81.7812 143.739 77.2702C143.865 76.7869 143.9 76.2989 143.937 75.7813C143.954 75.5467 143.972 75.3049 143.999 75.0551C144.01 74.9353 143.963 74.8209 143.873 74.7462Z" fill="#818385"/>
<path d="M48.5848 127.192C46.2492 126.676 43.9262 125.924 41.482 124.894C41.4527 124.88 41.3802 124.798 41.3574 124.725C41.1138 123.894 41.0322 123.058 41.1073 122.167C41.5859 116.48 38.1993 110.487 33.0556 107.918C32.9462 107.862 32.8321 107.814 32.7008 107.76L32.5788 107.71C32.4629 107.66 32.3218 107.681 32.2283 107.756C32.1272 107.834 32.0771 107.961 32.0976 108.088L32.2384 108.961C32.3633 109.732 32.4856 110.487 32.603 111.243L32.6325 111.441C32.9628 113.589 33.3042 115.81 33.9695 117.944C34.5697 119.869 35.4959 121.388 36.784 122.552C34.0626 120.948 31.5266 119.019 29.2235 116.801C29.1751 116.755 29.1178 116.631 29.1095 116.529L29.0477 115.007C29.0474 114.953 29.0466 114.809 29.0773 114.738C30.2118 112.096 30.5023 109.121 29.9663 105.645C29.4495 102.292 28.018 99.2088 25.7112 96.4804C25.4413 96.161 25.203 95.9993 25.0031 95.9993C24.9544 95.9993 24.9103 96.0091 24.8757 96.0271C24.7696 96.0798 24.6977 96.182 24.6837 96.3L24.6219 96.8309C24.5743 97.2251 24.5285 97.612 24.4873 97.9996C24.4162 98.6825 24.3382 99.3643 24.2599 100.046L24.2487 100.145C24.0538 101.848 23.8517 103.61 23.7449 105.373C23.6207 107.431 23.6575 109.833 24.8735 112.056C24.88 112.067 24.8858 112.079 24.8923 112.09C23.202 109.977 21.659 107.702 20.2824 105.292C20.1608 105.077 20.1503 104.889 20.173 104.616C20.2709 103.462 20.8072 102.525 21.3721 101.684C22.4632 100.055 23.1237 98.1303 23.5139 95.442C24.0592 91.6825 23.5085 87.9111 21.8777 84.2317C21.833 84.1303 21.7807 84.0325 21.7247 83.9275L21.5973 83.6871C21.5363 83.5698 21.406 83.4925 21.2685 83.4987C21.1313 83.5059 21.0104 83.5929 20.9606 83.7192C20.565 84.7168 20.1824 85.678 19.8024 86.632L19.5595 87.2416C18.7488 89.2776 17.8396 91.6547 17.3112 94.1073C16.9387 95.838 16.916 97.5084 17.2426 99.0987C15.975 96.0816 14.933 92.8935 14.135 89.5877C14.1259 89.5508 14.123 89.4556 14.2021 89.2357C14.5753 88.2143 15.2549 87.2881 16.1161 86.628C18.0013 85.1821 19.0707 83.1724 19.8681 81.3973C21.5006 77.767 21.9434 73.9104 21.2216 69.6063C21.214 69.5611 21.2003 69.5164 21.184 69.4677L21.171 69.4287C21.1396 69.3323 21.0682 69.2543 20.9736 69.2136C20.8812 69.1749 20.765 69.1822 20.6932 69.2175C20.621 69.2439 20.5116 69.2839 20.4405 69.3882C20.0319 69.934 19.6172 70.4848 19.2021 71.0352L19.1325 71.128C18.0858 72.5179 17.0033 73.9544 15.9631 75.3856C14.7579 77.039 13.9068 78.6462 13.3607 80.2993C13.0973 81.0977 12.9251 81.8662 12.8439 82.6126C12.497 79.9305 12.3003 77.192 12.2574 74.4309C12.2473 73.7718 12.331 73.2481 12.7811 72.6746C13.2575 72.0631 13.7026 71.7217 14.3161 71.4965C16.8373 70.5754 18.4546 68.6288 19.5818 67.036C21.4028 64.4593 22.4708 61.461 22.8469 57.8697C22.8869 57.5001 22.9097 57.1262 22.9331 56.7306L22.9389 56.6407C22.9501 56.4483 22.962 56.248 22.9772 56.0358C22.9865 55.895 22.9111 55.7629 22.7851 55.699C22.6631 55.6377 22.5069 55.6557 22.4007 55.7456L22.1015 56.0019C21.9889 56.0979 21.8925 56.1802 21.7926 56.2603C21.3122 56.6461 20.83 57.028 20.3467 57.411L20.2961 57.4507C19.2353 58.2909 18.1381 59.1597 17.0903 60.057C15.0571 61.7909 13.748 63.5169 12.9702 65.4894C12.8417 65.8146 12.7291 66.1362 12.6324 66.4546C12.9522 63.3202 13.4716 60.2335 14.1848 57.2388C14.2714 56.8724 14.3198 56.7649 14.4977 56.7064C14.6096 56.6685 14.7139 56.5956 14.7901 56.5054C15.3073 55.9174 15.9884 55.8243 16.6481 55.8109C18.8499 55.7593 20.5961 54.661 22.0135 53.5933C25.4889 50.9758 27.8819 44.3346 27.8819 44.1094C27.8819 43.9921 27.8234 43.8827 27.7242 43.8167C27.6264 43.7521 27.4943 43.743 27.3946 43.7874C26.6706 44.0946 25.9466 44.3938 25.1969 44.7039C23.5474 45.3878 21.842 46.0945 20.2041 46.8673C18.5557 47.6473 17.2531 48.6904 16.3219 49.9739C17.2094 47.452 18.2384 44.9796 19.3905 42.6036C19.523 42.3473 20.1453 42.0752 21.0375 42.0752C21.3277 42.0752 21.6089 42.1062 21.8518 42.1647C23.9481 42.6671 26.0267 42.3625 28.3273 41.2129C30.681 40.0362 32.6336 38.1124 34.2968 35.33C34.3286 35.2762 34.391 35.112 34.4246 35.0199C34.4668 34.9073 34.4499 34.7832 34.3798 34.689C34.3149 34.5995 34.2109 34.546 34.0785 34.546C34.0774 34.546 34.0767 34.546 34.0756 34.546L33.2447 34.5984C32.7354 34.6305 32.2409 34.6619 31.7465 34.6872L31.2184 34.7139C29.6418 34.7933 28.0111 34.8749 26.4158 35.2549C24.5963 35.6924 23.2605 36.3641 22.2362 37.3603C23.4485 35.3423 24.7468 33.4221 26.1144 31.6235C26.1512 31.5759 26.3277 31.503 26.4725 31.4788C26.5446 31.4618 26.8074 31.4066 27.1568 31.4066C27.6202 31.4066 28.0259 31.5008 28.3699 31.69C30.5554 32.7587 33.0097 32.8381 35.6745 31.9228C37.8603 31.176 39.7116 29.7889 41.3343 27.6836C41.387 27.6157 41.4347 27.5417 41.478 27.4638C41.5274 27.3739 41.5307 27.275 41.4874 27.1848C41.3618 26.9213 40.8182 26.7975 40.5894 26.7563C40.0278 26.6581 39.3914 26.5463 38.7605 26.4607C38.4714 26.4203 38.1819 26.3781 37.8917 26.3351L37.8546 26.3293C36.8714 26.1842 35.855 26.0341 34.831 25.9825C32.9599 25.8868 31.2985 26.2687 29.9389 27.114C30.8531 26.1409 31.7872 25.2177 32.7358 24.3503C33.0357 24.0767 33.375 23.801 33.8374 23.4548C33.8731 23.4274 33.964 23.3953 34.0756 23.3888C37.3525 23.2607 40.0794 21.814 42.411 18.967C43.6812 17.4171 44.655 15.4623 45.3887 12.9906L45.414 12.9058C45.4923 12.6459 45.5356 12.503 45.3555 12.3355C45.2166 12.2063 44.9719 12.2445 44.3359 12.4965C43.7584 12.7184 43.1773 12.9339 42.5807 13.1552C41.382 13.5995 40.1422 14.059 38.9457 14.578C36.9461 15.4471 35.3493 16.7645 34.2005 18.4931C33.3255 19.8083 32.9798 21.1297 33.1426 22.5258C33.1415 22.5413 33.1278 22.5785 33.1256 22.5828C31.0383 24.385 29.043 26.4138 26.9944 28.8285C28.3605 26.7397 29.2509 24.3348 29.6978 21.5469C30.1482 18.7363 30.1767 16.2347 29.7855 13.8994C29.7606 13.7533 29.727 13.6071 29.6841 13.4241L29.6202 13.1422C29.5913 13.0213 29.5003 12.9235 29.3809 12.8859C29.2614 12.8506 29.1275 12.882 29.0384 12.9668C28.8954 13.1014 28.7554 13.2285 28.6186 13.3519L28.5222 13.4389C28.1721 13.7543 27.8415 14.0521 27.5423 14.3889C24.6349 17.6687 22.9393 21.1329 22.3585 24.9798C22.0939 26.7184 22.2037 28.1986 22.6942 29.5038C22.8566 29.9362 23.11 30.3224 23.3623 30.7057C23.4778 30.8807 23.5933 31.0565 23.699 31.237C23.777 31.3666 23.7835 31.4001 23.7831 31.394C23.7351 31.9083 23.6662 32.4815 23.5731 33.1694C23.5691 33.1781 23.5561 33.1983 23.5146 33.2532L23.481 33.2997C21.8911 35.5097 20.4243 37.8396 19.1043 40.251C19.6233 38.4499 20.0366 36.1702 20.0074 33.5213C19.972 30.344 19.2404 27.5103 17.7699 24.8571C17.7118 24.7539 17.6064 24.6867 17.4588 24.6766C17.3516 24.6766 17.2484 24.7297 17.1809 24.8203C17.1369 24.8816 17.0921 24.9394 17.0495 24.9942C16.9546 25.117 16.8658 25.2332 16.7864 25.3573C15.6155 27.1934 14.9875 29.2179 14.5706 30.7768C13.8087 33.6358 13.4586 36.023 13.4687 38.29C13.4744 40.2171 13.8256 41.6983 14.5742 42.9519C14.807 43.342 15.1001 43.6835 15.3946 44.0271C15.5509 44.2094 15.7115 44.3967 15.857 44.5887C15.9588 44.7223 16.0078 44.8583 16.0107 44.9341C16.0299 45.3911 16.0198 45.8556 16.01 46.3046L16.0032 46.615C16.0021 46.6684 15.9898 46.7298 15.9714 46.7767C15.0315 49.0538 14.2053 51.4205 13.5008 53.851C13.6044 53.0234 13.6629 52.2221 13.6776 51.4404C13.7628 47.003 12.4017 43.0403 9.6312 39.6609L9.0537 38.9574C8.98693 38.8747 8.88803 38.8278 8.78264 38.8278L8.72489 38.8329C8.60145 38.8534 8.4975 38.939 8.45455 39.0556C8.40185 39.196 8.35024 39.3284 8.30007 39.4566C8.20334 39.7042 8.11202 39.9388 8.03478 40.1774C7.44032 42.0394 7.14868 44.0737 7.08949 46.772L7.08841 46.8247C7.04401 48.7878 6.98301 51.4772 7.78934 54.0506C8.58304 56.5841 9.98275 57.8643 10.2542 58.0942L10.283 58.1202C11.0219 58.7796 11.503 59.3827 11.6026 59.7744C11.6427 59.9325 11.6835 60.0909 11.7311 60.2476C11.9419 60.9445 11.8102 61.6086 11.668 62.3258C11.5972 62.6878 11.5236 63.0618 11.498 63.4454C11.3962 64.9809 11.2713 66.5423 11.1504 68.0521L11.1395 68.1917C11.1085 68.5769 11.0775 68.962 11.0468 69.3471C10.7385 65.8922 9.59438 62.7517 7.62584 59.9743C6.42031 58.275 4.98307 56.8212 3.35308 55.6521C3.2827 55.6016 3.20871 55.5565 3.10981 55.4976C3.06181 55.4698 3.00622 55.4366 2.93873 55.3944C2.83694 55.3334 2.70628 55.328 2.60125 55.3792C2.49369 55.4316 2.4197 55.5381 2.40743 55.6586C2.38541 55.877 2.35979 56.0885 2.33272 56.3079C2.27821 56.7573 2.2266 57.1818 2.22444 57.6178C2.20025 62.1374 3.15637 66.3726 5.06717 70.2043C5.59955 71.2734 6.30301 72.1981 7.15879 72.9539C8.00735 73.6993 8.92304 74.1389 9.9564 74.297C9.97914 74.3009 10.0333 74.3338 10.0416 74.3403C10.0975 74.4525 10.1556 74.5651 10.2137 74.6781C10.4202 75.077 10.6335 75.4895 10.7396 75.9031C10.8281 76.2529 10.8281 76.6351 10.8281 77.0401C10.8281 77.1884 10.8281 77.3379 10.8328 77.4844C10.932 80.9855 11.0623 82.2047 11.6225 85.3329C11.2807 84.4028 10.8515 83.4702 10.2975 82.5729C8.05391 78.9415 5.2036 76.4767 1.58377 75.0383C1.3535 74.9456 1.1225 74.8788 0.854684 74.8008L0.801266 74.785C0.692624 74.7532 0.577486 74.7193 0.454407 74.6817C0.343239 74.6453 0.21655 74.6702 0.125955 74.7453C0.0357213 74.82 -0.0115613 74.9344 0.000349575 75.0535C0.0270588 75.3018 0.0454665 75.5433 0.0624305 75.779C0.0996069 76.2958 0.134618 76.7838 0.259862 77.2668C1.42785 81.7781 3.36102 85.3712 6.16946 88.2518C7.3703 89.4833 8.63574 90.1893 10.038 90.4106C10.3917 90.4658 10.8241 90.4727 11.5561 90.4272L11.7669 90.4146C11.799 90.4128 11.8271 90.4109 11.8528 90.4109C11.9105 90.4109 11.9152 90.4109 11.9553 90.4701L12.9359 91.8168C12.9486 91.8345 12.967 91.8984 12.9796 91.9424L12.994 91.9908C14.0119 95.4413 15.2748 98.7648 16.764 101.919C16.0938 100.994 15.3592 100.149 14.5406 99.3549C10.7761 95.7023 4.33988 95.5965 3.61837 95.5965L3.5285 95.5972L3.47183 95.6077C3.29497 95.6705 3.19932 95.8596 3.25382 96.0376C3.30399 96.2054 3.35092 96.375 3.4047 96.5743C3.50756 96.9486 3.6144 97.3351 3.76419 97.7091C4.4774 99.4914 5.63347 101.206 7.40314 103.107C8.61913 104.409 9.98997 105.731 11.7726 106.566C13.7249 107.483 15.4877 107.707 17.2408 107.258C17.5389 107.18 17.8818 107.08 18.1767 106.889C18.3868 106.754 18.4442 106.759 18.6506 106.913C18.8953 107.094 19.1556 107.247 19.4082 107.395C19.5479 107.477 19.6887 107.56 19.8201 107.643C19.841 107.66 19.8857 107.734 19.9023 107.761C21.4753 110.326 23.2082 112.711 25.0792 114.886C24.0672 114.149 23.028 113.617 21.9243 113.262C18.5514 112.175 15.016 112.313 11.5146 113.667C10.9919 113.87 10.4191 114.176 10.3809 114.198C10.3007 114.251 10.2455 114.336 10.2282 114.434C10.213 114.53 10.2379 114.628 10.2964 114.703C10.4058 114.845 10.5115 114.988 10.6162 115.13L10.6393 115.161C10.8757 115.483 11.1435 115.847 11.4438 116.17C12.7962 117.62 14.4641 118.592 16.0652 119.426C18.2669 120.569 20.5185 121.184 22.7577 121.256C22.8631 121.26 22.9685 121.262 23.0735 121.262C25.1334 121.262 26.7414 120.583 27.9808 119.194C27.996 119.184 28.0497 119.163 28.0793 119.163C28.5529 119.197 29.003 119.266 29.3394 119.322C29.3924 119.331 29.4578 119.363 29.4985 119.4C31.5692 121.233 33.7623 122.842 36.0531 124.211C35.7059 124.108 35.3482 124.019 34.9822 123.947C32.534 123.476 30.0356 123.772 27.2921 124.862C25.4413 125.599 23.72 126.683 22.0297 128.175C21.8904 128.297 21.8709 128.508 21.9857 128.654C22.5837 129.415 23.3619 129.841 24.0444 130.157C25.7091 130.931 27.5881 131.426 29.7909 131.672C29.7974 131.672 30.5052 131.734 31.4978 131.734C32.2142 131.734 32.8809 131.702 33.4782 131.638C34.0492 131.579 34.6188 131.481 35.1714 131.348C37.7095 130.73 39.4293 129.46 40.4147 127.487C40.4324 127.47 40.5082 127.426 40.6042 127.403C41.0622 127.289 41.4744 127.209 41.8664 127.156C41.9588 127.142 42.0739 127.166 42.219 127.225C43.9717 127.9 45.8266 128.463 47.7283 128.897C47.755 128.903 47.7828 128.907 47.8106 128.907C47.9384 128.907 48.0561 128.836 48.1181 128.721C48.2997 128.384 48.5209 128.059 48.7754 127.758C48.8552 127.663 48.879 127.537 48.8396 127.42C48.8021 127.307 48.7068 127.221 48.5848 127.192Z" fill="#818385"/>
<path d="M89.1205 80.612L103.623 66.4756C104.114 65.9963 104.292 65.2788 104.079 64.6258C103.867 63.9722 103.303 63.4957 102.623 63.3972L82.5825 60.487L73.6186 42.3272C73.3147 41.7111 72.6874 41.3213 72.0006 41.3213C71.3137 41.3213 70.686 41.7118 70.3825 42.3272L61.4219 60.487L41.3784 63.3972C40.6988 63.4957 40.1339 63.9725 39.9217 64.6258C39.7091 65.2788 39.8863 65.9963 40.3783 66.4756L54.8807 80.612L51.459 100.571C51.3428 101.248 51.621 101.933 52.1769 102.336C52.732 102.74 53.4683 102.793 54.0772 102.474L72.0013 93.0513L89.9254 102.474C90.1892 102.613 90.4776 102.681 90.7645 102.681C91.1388 102.681 91.5109 102.565 91.8253 102.336C92.3812 101.933 92.6598 101.248 92.5432 100.571L89.1205 80.612Z" fill="#818385"/>
</g>
<defs>
<clipPath id="clip0_999_1184">
<rect width="144" height="144" fill="white"/>
</clipPath>
</defs>
</svg>
