<svg width="120" height="53" viewBox="0 0 120 53" fill="none" xmlns="http://www.w3.org/2000/svg">
<g opacity="0.5" clip-path="url(#clip0_999_1332)">
<path d="M38.8204 2.46533H2.94867V36.931H38.8204V2.46533Z" fill="#F0E9EB"/>
<path d="M38.8204 2.46533H20.9388V36.931H38.8204V2.46533Z" fill="#CFCFCF"/>
<mask id="mask0_999_1332" style="mask-type:luminance" maskUnits="userSpaceOnUse" x="-19" y="-33" width="158" height="118">
<path d="M138.296 -32.4438H-18.3553V84.4074H138.296V-32.4438Z" fill="white"/>
</mask>
<g mask="url(#mask0_999_1332)">
<path d="M13.2296 21.7025C11.4986 18.0121 9.77562 14.3375 8.04272 10.6412C8.11378 10.6373 8.16509 10.6314 8.21641 10.6314C11.3881 10.6314 14.5579 10.6314 17.7296 10.6275C17.8638 10.6275 17.919 10.6746 17.9743 10.7904C18.9 12.7749 19.8315 14.7575 20.7631 16.7421C20.7907 16.801 20.8204 16.8579 20.8677 16.9502C20.9072 16.8736 20.9368 16.8265 20.9605 16.7755C21.9 14.7732 22.8375 12.771 23.775 10.7688C23.8184 10.6765 23.8579 10.6235 23.9782 10.6235C27.1875 10.6275 30.3986 10.6275 33.6079 10.6275H33.7263C31.9875 14.3355 30.2585 18.0259 28.5236 21.7241C27.8546 21.306 27.1973 20.8957 26.5401 20.4835C24.6947 19.3293 22.8493 18.177 21.0059 17.0189C20.9013 16.9541 20.8322 16.9521 20.7276 17.0169C18.2921 18.5441 15.8526 20.0673 13.4151 21.5926C13.3598 21.6259 13.3026 21.6593 13.2296 21.7025Z" fill="white"/>
</g>
<mask id="mask1_999_1332" style="mask-type:luminance" maskUnits="userSpaceOnUse" x="-19" y="-33" width="158" height="118">
<path d="M138.296 -32.4438H-18.3553V84.4074H138.296V-32.4438Z" fill="white"/>
</mask>
<g mask="url(#mask1_999_1332)">
<path d="M14.471 24.3409C14.6684 24.2172 14.8559 24.0995 15.0414 23.9817C16.948 22.7902 18.8565 21.5967 20.7611 20.4032C20.846 20.3502 20.9052 20.3365 20.996 20.3954C23.0546 21.687 25.1171 22.9747 27.1776 24.2644C27.2151 24.2879 27.2486 24.3134 27.294 24.3448C27.0039 24.9612 26.7157 25.5756 26.4296 26.1881C25.7842 27.5661 25.1368 28.9441 24.4953 30.3221C24.444 30.4339 24.3848 30.4712 24.2605 30.4712C22.0065 30.4654 19.7506 30.4634 17.4967 30.4654C17.396 30.4654 17.3269 30.4536 17.2756 30.3456C16.3539 28.3709 15.4282 26.3981 14.5046 24.4234C14.4967 24.4037 14.4888 24.3821 14.471 24.3409Z" fill="white"/>
</g>
<mask id="mask2_999_1332" style="mask-type:luminance" maskUnits="userSpaceOnUse" x="-19" y="-33" width="158" height="118">
<path d="M138.296 -32.4438H-18.3553V84.4074H138.296V-32.4438Z" fill="white"/>
</mask>
<g mask="url(#mask2_999_1332)">
<path d="M3.97304 48.0474L3.43619 49.4961H3.10461L4.65198 45.3052H5.03685L6.64935 49.4961H6.29409L5.74738 48.0474H3.97304ZM5.6408 47.7491C5.17106 46.5045 4.93027 45.9058 4.8454 45.6232H4.83948C4.73685 45.9412 4.46646 46.6832 4.08751 47.7491H5.6408Z" fill="white"/>
</g>
<mask id="mask3_999_1332" style="mask-type:luminance" maskUnits="userSpaceOnUse" x="-19" y="-33" width="158" height="118">
<path d="M138.296 -32.4438H-18.3553V84.4074H138.296V-32.4438Z" fill="white"/>
</mask>
<g mask="url(#mask3_999_1332)">
<path d="M12.8131 45.3052H13.1388V49.1977H15.4006L15.3414 49.4961H12.8131V45.3052Z" fill="white"/>
</g>
<mask id="mask4_999_1332" style="mask-type:luminance" maskUnits="userSpaceOnUse" x="-19" y="-33" width="158" height="118">
<path d="M138.296 -32.4438H-18.3553V84.4074H138.296V-32.4438Z" fill="white"/>
</mask>
<g mask="url(#mask4_999_1332)">
<path d="M20.4493 47.437H18.302V49.1977H20.6546L20.6072 49.4961H17.9763V45.3052H20.5579V45.6055H18.302V47.1386H20.4493V47.437Z" fill="white"/>
</g>
<mask id="mask5_999_1332" style="mask-type:luminance" maskUnits="userSpaceOnUse" x="-19" y="-33" width="158" height="118">
<path d="M138.296 -32.4438H-18.3553V84.4074H138.296V-32.4438Z" fill="white"/>
</mask>
<g mask="url(#mask5_999_1332)">
<path d="M26.6368 49.4959H26.3664C26.3427 49.4488 26.3309 49.2329 26.325 48.8246C26.175 49.1112 25.8434 49.543 24.9651 49.543C23.7552 49.543 23.1355 48.6263 23.1355 47.4348C23.1355 46.1844 23.7967 45.2441 25.0322 45.2441C25.9421 45.2441 26.5421 45.7172 26.6763 46.4887H26.3506C26.171 45.8958 25.7546 45.5425 25.0204 45.5425C23.9664 45.5425 23.4848 46.3571 23.4848 47.4171C23.4848 48.3751 23.9487 49.2427 24.9769 49.2427C26.0309 49.2427 26.325 48.5596 26.325 47.6331V47.586H24.9651V47.2876H26.6388V49.4959H26.6368Z" fill="white"/>
</g>
<mask id="mask6_999_1332" style="mask-type:luminance" maskUnits="userSpaceOnUse" x="-19" y="-33" width="158" height="118">
<path d="M138.296 -32.4438H-18.3553V84.4074H138.296V-32.4438Z" fill="white"/>
</mask>
<g mask="url(#mask6_999_1332)">
<path d="M30.15 48.0474L29.6151 49.4961H29.2835L30.8309 45.3052H31.2157L32.8282 49.4961H32.473L31.9243 48.0474H30.15ZM31.8177 47.7491C31.348 46.5045 31.1072 45.9058 31.0223 45.6232H31.0164C30.9138 45.9412 30.6434 46.6832 30.2644 47.7491H31.8177Z" fill="white"/>
</g>
<mask id="mask7_999_1332" style="mask-type:luminance" maskUnits="userSpaceOnUse" x="-19" y="-33" width="158" height="118">
<path d="M138.296 -32.4438H-18.3553V84.4074H138.296V-32.4438Z" fill="white"/>
</mask>
<g mask="url(#mask7_999_1332)">
<path d="M38.6112 48.377C38.4118 49.0425 37.9184 49.545 37.0283 49.545C35.8184 49.545 35.1809 48.5871 35.1809 47.4073C35.1809 46.2766 35.8066 45.2461 37.0342 45.2461C37.9441 45.2461 38.4789 45.7486 38.6171 46.4494H38.2914C38.098 45.9037 37.7447 45.5445 37.0145 45.5445C35.9664 45.5445 35.5283 46.4965 35.5283 47.3995C35.5283 48.2985 35.9625 49.2427 37.0401 49.2427C37.727 49.2427 38.0763 48.8894 38.2855 48.3751H38.6112V48.377Z" fill="white"/>
</g>
<mask id="mask8_999_1332" style="mask-type:luminance" maskUnits="userSpaceOnUse" x="-19" y="-33" width="158" height="118">
<path d="M138.296 -32.4438H-18.3553V84.4074H138.296V-32.4438Z" fill="white"/>
</mask>
<g mask="url(#mask8_999_1332)">
<path d="M42.4795 49.4961V47.9218C42.4795 47.8865 42.4677 47.8433 42.4559 47.8256L40.9519 45.3052H41.3309C41.7532 46.0177 42.4874 47.2564 42.667 47.5685C42.8466 47.2564 43.5887 46.0295 44.0387 45.3052H44.3999L42.8289 47.8511C42.817 47.8747 42.8111 47.8982 42.8111 47.9414V49.4981H42.4795V49.4961Z" fill="white"/>
</g>
<mask id="mask9_999_1332" style="mask-type:luminance" maskUnits="userSpaceOnUse" x="-19" y="-33" width="158" height="118">
<path d="M138.296 -32.4438H-18.3553V84.4074H138.296V-32.4438Z" fill="white"/>
</mask>
<g mask="url(#mask9_999_1332)">
<path d="M53.9388 47.372C53.9388 48.5164 53.325 49.5568 52.0243 49.5568C50.8381 49.5568 50.1454 48.6047 50.1454 47.4014C50.1454 46.2158 50.8145 45.2461 52.0658 45.2461C53.2224 45.2461 53.9388 46.1491 53.9388 47.372ZM50.4947 47.3838C50.4947 48.3476 51.0296 49.2584 52.0421 49.2584C53.1316 49.2584 53.5895 48.3731 53.5895 47.3779C53.5895 46.4023 53.0724 45.5464 52.0539 45.5464C50.9704 45.5445 50.4947 46.4376 50.4947 47.3838Z" fill="white"/>
</g>
<mask id="mask10_999_1332" style="mask-type:luminance" maskUnits="userSpaceOnUse" x="-19" y="-33" width="158" height="118">
<path d="M138.296 -32.4438H-18.3553V84.4074H138.296V-32.4438Z" fill="white"/>
</mask>
<g mask="url(#mask10_999_1332)">
<path d="M56.7908 45.3052H59.3427V45.6055H57.1145V47.1857H59.2046V47.486H57.1145V49.4961H56.7908V45.3052Z" fill="white"/>
</g>
<mask id="mask11_999_1332" style="mask-type:luminance" maskUnits="userSpaceOnUse" x="-19" y="-33" width="158" height="118">
<path d="M138.296 -32.4438H-18.3553V84.4074H138.296V-32.4438Z" fill="white"/>
</mask>
<g mask="url(#mask11_999_1332)">
<path d="M65.5046 45.3052H68.0566V45.6055H65.8283V47.1857H67.9165V47.486H65.8283V49.4961H65.5046V45.3052Z" fill="white"/>
</g>
<mask id="mask12_999_1332" style="mask-type:luminance" maskUnits="userSpaceOnUse" x="-19" y="-33" width="158" height="118">
<path d="M138.296 -32.4438H-18.3553V84.4074H138.296V-32.4438Z" fill="white"/>
</mask>
<g mask="url(#mask12_999_1332)">
<path d="M71.0526 45.3052H70.7269V49.4961H71.0526V45.3052Z" fill="white"/>
</g>
<mask id="mask13_999_1332" style="mask-type:luminance" maskUnits="userSpaceOnUse" x="-19" y="-33" width="158" height="118">
<path d="M138.296 -32.4438H-18.3553V84.4074H138.296V-32.4438Z" fill="white"/>
</mask>
<g mask="url(#mask13_999_1332)">
<path d="M74.2164 49.4961V45.3052H74.698C75.3552 46.3102 76.8947 48.652 77.1612 49.1074H77.1671C77.1316 48.5028 77.1375 47.8865 77.1375 47.2034V45.3052H77.4691V49.4961H77.023C76.3974 48.5264 74.8322 46.0904 74.5302 45.6291H74.5243C74.5539 46.1807 74.548 46.7911 74.548 47.5508V49.4961H74.2164Z" fill="white"/>
</g>
<mask id="mask14_999_1332" style="mask-type:luminance" maskUnits="userSpaceOnUse" x="-19" y="-33" width="158" height="118">
<path d="M138.296 -32.4438H-18.3553V84.4074H138.296V-32.4438Z" fill="white"/>
</mask>
<g mask="url(#mask14_999_1332)">
<path d="M83.1058 47.437H80.9565V49.1977H83.3111L83.2618 49.4961H80.6328V45.3052H83.2144V45.6055H80.9565V47.1386H83.1058V47.437Z" fill="white"/>
</g>
<mask id="mask15_999_1332" style="mask-type:luminance" maskUnits="userSpaceOnUse" x="-19" y="-33" width="158" height="118">
<path d="M138.296 -32.4438H-18.3553V84.4074H138.296V-32.4438Z" fill="white"/>
</mask>
<g mask="url(#mask15_999_1332)">
<path d="M89.5559 45.3052H89.8816V49.1977H92.1434L92.0842 49.4961H89.5559V45.3052Z" fill="white"/>
</g>
<mask id="mask16_999_1332" style="mask-type:luminance" maskUnits="userSpaceOnUse" x="-19" y="-33" width="158" height="118">
<path d="M138.296 -32.4438H-18.3553V84.4074H138.296V-32.4438Z" fill="white"/>
</mask>
<g mask="url(#mask16_999_1332)">
<path d="M95.0448 45.3052H94.7191V49.4961H95.0448V45.3052Z" fill="white"/>
</g>
<mask id="mask17_999_1332" style="mask-type:luminance" maskUnits="userSpaceOnUse" x="-19" y="-33" width="158" height="118">
<path d="M138.296 -32.4438H-18.3553V84.4074H138.296V-32.4438Z" fill="white"/>
</mask>
<g mask="url(#mask17_999_1332)">
<path d="M99.2092 49.4961L97.644 45.3052H97.9934L98.8125 47.4959C99.0473 48.1299 99.3118 48.8307 99.4026 49.184H99.4144C99.5052 48.8719 99.7934 48.1358 100.028 47.5194L100.877 45.3032H101.22L99.596 49.4941H99.2092V49.4961Z" fill="white"/>
</g>
<mask id="mask18_999_1332" style="mask-type:luminance" maskUnits="userSpaceOnUse" x="-19" y="-33" width="158" height="118">
<path d="M138.296 -32.4438H-18.3553V84.4074H138.296V-32.4438Z" fill="white"/>
</mask>
<g mask="url(#mask18_999_1332)">
<path d="M104.185 45.3052H103.859V49.4961H104.185V45.3052Z" fill="white"/>
</g>
<mask id="mask19_999_1332" style="mask-type:luminance" maskUnits="userSpaceOnUse" x="-19" y="-33" width="158" height="118">
<path d="M138.296 -32.4438H-18.3553V84.4074H138.296V-32.4438Z" fill="white"/>
</mask>
<g mask="url(#mask19_999_1332)">
<path d="M107.351 49.4961V45.3052H107.832C108.487 46.3102 110.029 48.652 110.293 49.1074H110.299C110.264 48.5028 110.27 47.8865 110.27 47.2034V45.3052H110.601V49.4961H110.155C109.53 48.5264 107.964 46.0904 107.662 45.6291H107.657C107.686 46.1807 107.68 46.7911 107.68 47.5508V49.4961H107.351Z" fill="white"/>
</g>
<mask id="mask20_999_1332" style="mask-type:luminance" maskUnits="userSpaceOnUse" x="-19" y="-33" width="158" height="118">
<path d="M138.296 -32.4438H-18.3553V84.4074H138.296V-32.4438Z" fill="white"/>
</mask>
<g mask="url(#mask20_999_1332)">
<path d="M116.955 49.4959H116.684C116.66 49.4488 116.649 49.2329 116.643 48.8246C116.493 49.1112 116.161 49.543 115.283 49.543C114.073 49.543 113.453 48.6263 113.453 47.4348C113.453 46.1844 114.114 45.2441 115.35 45.2441C116.26 45.2441 116.862 45.7172 116.994 46.4887H116.668C116.487 45.8958 116.072 45.5425 115.338 45.5425C114.284 45.5425 113.803 46.3571 113.803 47.4171C113.803 48.3751 114.266 49.2427 115.295 49.2427C116.349 49.2427 116.643 48.5596 116.643 47.6331V47.586H115.283V47.2876H116.957V49.4959H116.955Z" fill="white"/>
</g>
<mask id="mask21_999_1332" style="mask-type:luminance" maskUnits="userSpaceOnUse" x="-19" y="-33" width="158" height="118">
<path d="M138.296 -32.4438H-18.3553V84.4074H138.296V-32.4438Z" fill="white"/>
</mask>
<g mask="url(#mask21_999_1332)">
<path d="M52.0243 18.7504L58.3618 2.40869H56.4513L53.1868 10.928C53.0211 11.3637 52.8474 11.8152 52.6737 12.2706C52.0974 13.7723 51.5072 15.3132 51.1382 16.385C50.7434 15.1326 50.0862 13.3601 49.4467 11.6346L46.0026 2.40869H44.0743L50.177 18.7504H52.0243Z" fill="white"/>
</g>
<mask id="mask22_999_1332" style="mask-type:luminance" maskUnits="userSpaceOnUse" x="-19" y="-33" width="158" height="118">
<path d="M138.296 -32.4438H-18.3553V84.4074H138.296V-32.4438Z" fill="white"/>
</mask>
<g mask="url(#mask22_999_1332)">
<path d="M57.8703 18.7504L59.8855 13.2992H66.1657L68.2263 18.7504H70.1822L63.8921 2.40869H62.0427L56.0092 18.7504H57.8703ZM60.5249 11.5993C60.9157 10.5 61.2749 9.49695 61.5986 8.59791C62.1848 6.9608 62.6486 5.66132 62.9585 4.76425C63.221 5.50428 63.6217 6.55054 64.1743 7.99921C64.5532 8.99051 65.0072 10.1781 65.544 11.6012H60.5249V11.5993Z" fill="white"/>
</g>
<mask id="mask23_999_1332" style="mask-type:luminance" maskUnits="userSpaceOnUse" x="-19" y="-33" width="158" height="118">
<path d="M138.296 -32.4438H-18.3553V84.4074H138.296V-32.4438Z" fill="white"/>
</mask>
<g mask="url(#mask23_999_1332)">
<path d="M80.327 14.7695V15.1758C80.327 15.3937 80.325 15.6077 80.323 15.8197C80.3131 16.966 80.3052 17.9573 80.5756 18.5796L80.6506 18.7523H82.5454L82.346 18.3401C82.1349 17.9063 82.1506 16.8031 82.1645 15.9178C82.1684 15.6921 82.1704 15.4722 82.1704 15.2661V14.6576C82.1704 12.5199 81.5033 11.189 80.0881 10.5432C81.5645 9.9131 82.4191 8.58025 82.4191 6.84106C82.4191 4.06543 80.5243 2.40869 77.3526 2.40869H71.3802V18.7504H73.202V11.3834H76.8099C79.8 11.3834 80.327 12.4748 80.327 14.7695ZM73.202 4.10862H77.0802C78.6533 4.10862 80.5302 4.58562 80.5302 6.86265C80.5302 8.78832 79.3263 9.68539 76.7408 9.68539H73.202V4.10862Z" fill="white"/>
</g>
<mask id="mask24_999_1332" style="mask-type:luminance" maskUnits="userSpaceOnUse" x="-19" y="-33" width="158" height="118">
<path d="M138.296 -32.4438H-18.3553V84.4074H138.296V-32.4438Z" fill="white"/>
</mask>
<g mask="url(#mask24_999_1332)">
<path d="M99.1046 11.2087V18.7484H100.905V2.40869H98.6132L98.5382 2.58536C96.5921 7.18654 93.9099 13.8096 93.0316 16.1534C92.1099 13.5819 89.6527 7.27291 87.7698 2.58928L87.6967 2.40869H85.3796V18.7504H87.1796V11.7504C87.1796 9.84832 87.1579 7.36321 87.1007 5.43362C88.3599 8.99051 90.8921 15.5488 92.0823 18.5678L92.1533 18.7504H93.7461L93.8191 18.5698C94.1882 17.657 94.5987 16.65 95.027 15.5998C96.5566 11.8466 98.2441 7.69691 99.15 5.25106C99.1185 6.70758 99.1046 8.70195 99.1046 11.2087Z" fill="white"/>
</g>
<mask id="mask25_999_1332" style="mask-type:luminance" maskUnits="userSpaceOnUse" x="-19" y="-33" width="158" height="118">
<path d="M138.296 -32.4438H-18.3553V84.4074H138.296V-32.4438Z" fill="white"/>
</mask>
<g mask="url(#mask25_999_1332)">
<path d="M114.778 18.7504H116.734L110.443 2.40869H108.594L102.561 18.7504H104.42L106.435 13.2992H112.715L114.778 18.7504ZM112.091 11.5993H107.072C107.463 10.5 107.822 9.49695 108.146 8.59791C108.732 6.9608 109.196 5.66132 109.506 4.76425C109.768 5.50428 110.169 6.55054 110.722 7.99921C111.101 8.98854 111.555 10.1761 112.091 11.5993Z" fill="white"/>
</g>
<mask id="mask26_999_1332" style="mask-type:luminance" maskUnits="userSpaceOnUse" x="-19" y="-33" width="158" height="118">
<path d="M138.296 -32.4438H-18.3553V84.4074H138.296V-32.4438Z" fill="white"/>
</mask>
<g mask="url(#mask26_999_1332)">
<path d="M88.7368 20.7758C86.8756 25.1336 84.3177 31.3935 83.4434 33.6941C82.5355 31.1913 80.1888 25.2219 78.3848 20.7798L78.3078 20.5913H76.0243V36.2813H77.8144V29.5581C77.8144 27.6835 77.7907 25.4339 77.7414 23.6751C78.975 27.1123 81.3651 33.2465 82.498 36.0928L82.573 36.2832H84.146L84.223 36.0948C84.5782 35.2232 84.973 34.2633 85.3835 33.2642C86.8322 29.7407 88.4309 25.852 89.3171 23.4926C89.2914 24.8725 89.2796 26.7275 89.2796 29.0419V36.2832H91.0697V20.5913H88.8118L88.7368 20.7758Z" fill="white"/>
</g>
<mask id="mask27_999_1332" style="mask-type:luminance" maskUnits="userSpaceOnUse" x="-19" y="-33" width="158" height="118">
<path d="M138.296 -32.4438H-18.3553V84.4074H138.296V-32.4438Z" fill="white"/>
</mask>
<g mask="url(#mask27_999_1332)">
<path d="M95.8855 28.8672H103.693V27.1888H95.8855V22.2696H104.088V20.5913H94.0934V36.2813H104.218L104.491 34.6029H95.8855V28.8672Z" fill="white"/>
</g>
<mask id="mask28_999_1332" style="mask-type:luminance" maskUnits="userSpaceOnUse" x="-19" y="-33" width="158" height="118">
<path d="M138.296 -32.4438H-18.3553V84.4074H138.296V-32.4438Z" fill="white"/>
</mask>
<g mask="url(#mask28_999_1332)">
<path d="M54.7224 27.3498H45.9119V20.5972H44.0724V36.7131H45.9119V29.0732H54.7224V36.7131H56.5619V20.5972H54.7224V27.3498Z" fill="white"/>
</g>
<mask id="mask29_999_1332" style="mask-type:luminance" maskUnits="userSpaceOnUse" x="-19" y="-33" width="158" height="118">
<path d="M138.296 -32.4438H-18.3553V84.4074H138.296V-32.4438Z" fill="white"/>
</mask>
<g mask="url(#mask29_999_1332)">
<path d="M66.4263 20.3755C61.952 20.3755 58.946 23.7027 58.946 28.6533C58.946 33.6059 61.8888 36.9311 66.2684 36.9311C71.4197 36.9311 73.727 32.7166 73.727 28.5414C73.727 23.6595 70.7921 20.3755 66.4263 20.3755ZM66.3355 35.2096C62.5835 35.2096 60.8743 31.7764 60.8743 28.5885C60.8743 25.595 62.3171 22.1009 66.3809 22.1009C70.123 22.1009 71.7967 25.3477 71.7967 28.5669C71.7967 34.7306 67.6164 35.2096 66.3355 35.2096Z" fill="white"/>
</g>
<mask id="mask30_999_1332" style="mask-type:luminance" maskUnits="userSpaceOnUse" x="3" y="0" width="117" height="52">
<path d="M120 0H3V51.9635H120V0Z" fill="white"/>
</mask>
<g mask="url(#mask30_999_1332)">
<path d="M111.416 27.3381C108.517 26.6295 107.722 26.0327 107.722 24.5605C107.722 22.9744 108.855 22.1009 110.913 22.1009C112.972 22.1009 114.158 22.9548 114.539 24.7136L114.592 24.957H116.451L116.414 24.6155C116.203 22.6604 114.653 20.3774 110.98 20.3774C107.149 20.3774 105.791 22.6663 105.791 24.6273C105.791 27.2714 107.791 28.3059 110.793 29.0439C114.162 29.8625 114.801 30.8616 114.801 32.4202C114.801 34.2203 113.501 35.2116 111.138 35.2116C108.819 35.2116 107.463 34.2183 106.995 32.1748L106.94 31.9334H105.073L105.122 32.2848C105.316 33.6687 106.287 36.8899 111.095 36.8899C114.519 36.8899 116.734 35.0997 116.734 32.3299C116.732 30.4141 116.088 28.4825 111.416 27.3381Z" fill="white"/>
</g>
</g>
<defs>
<clipPath id="clip0_999_1332">
<rect width="120" height="53" fill="white"/>
</clipPath>
</defs>
</svg>
