<svg width="60" height="60" viewBox="0 0 60 60" fill="none" xmlns="http://www.w3.org/2000/svg">
<g opacity="0.5">
<path fill-rule="evenodd" clip-rule="evenodd" d="M30 0C13.4266 0 0 13.4266 0 30C0 46.5734 13.4266 60 30 60C46.5734 60 60 46.5734 60 30C59.8951 13.4266 46.4685 0 30 0ZM2.93706 29.8951C2.93706 15 15.1049 2.83217 30 2.83217C45 2.83217 57.0629 15 57.0629 29.8951C57.0629 44.7902 44.8951 56.958 30 56.958C15 56.958 2.93706 44.8951 2.93706 29.8951Z" fill="white"/>
<path fill-rule="evenodd" clip-rule="evenodd" d="M44.1607 13.2168C44.0558 13.2168 43.9509 13.2168 43.846 13.3217L29.895 27.1678L16.1537 13.4266C16.0488 13.3217 15.9439 13.3217 15.839 13.3217H13.846C13.5313 13.3217 13.3215 13.5315 13.3215 13.8462V46.2588C13.3215 46.5734 13.5313 46.7832 13.846 46.7832H15.6292C15.9439 46.7832 16.1537 46.5734 16.1537 46.2588V17.4126L27.902 29.1609L24.4404 32.6224C26.7481 32.6224 28.4264 32.7273 29.895 31.1539C31.4684 32.7273 33.0418 32.6224 35.3495 32.6224L31.888 29.1609L43.6362 17.4126V46.049C43.6362 46.3636 43.846 46.5734 44.1607 46.5734H46.0488C46.3635 46.5734 46.5733 46.3636 46.5733 46.049V13.7413C46.5733 13.4266 46.3635 13.2168 46.0488 13.2168H44.1607ZM28.1117 34.8252C28.1117 35.8741 28.9509 36.7133 29.9999 36.7133C31.0488 36.7133 31.888 35.8741 31.888 34.8252C31.888 33.7762 31.0488 32.9371 29.9999 32.9371C28.9509 32.9371 28.1117 33.7762 28.1117 34.8252Z" fill="white"/>
</g>
</svg>
