<svg width="57" height="55" viewBox="0 0 57 55" fill="none" xmlns="http://www.w3.org/2000/svg">
<g opacity="0.2">
<path d="M5.96122 10.3197C-0.19341 19.5516 -2.53215 31.8609 3.56094 41.7083C6.33052 46.2012 10.5772 49.5863 15.4394 51.6173C20.9785 53.8945 27.5025 54.8177 33.4109 53.5252C44.6123 51.0634 54.0905 40.9082 55.7522 29.5222C56.6139 23.7368 55.1368 18.0745 51.7517 13.3355C48.4282 8.59641 43.7507 4.84208 38.4577 2.56487C28.6103 -1.74338 16.301 -0.881727 8.54618 7.1193C7.62298 8.10404 6.76132 9.15032 5.96122 10.3197C5.5304 10.9352 6.51516 11.4891 6.94599 10.8736C13.1006 1.88786 24.4867 -0.758635 34.5803 2.25713C44.797 5.33445 54.7059 14.5049 54.8906 25.7678C55.0752 36.8462 46.8896 47.3706 36.796 51.3096C26.7024 55.187 13.593 52.0481 6.57669 43.8009C-0.439595 35.5537 -0.0703174 23.8599 4.7303 14.6895C5.40731 13.397 6.20742 12.1045 7.00752 10.8736C7.31525 10.2582 6.3305 9.70424 5.96122 10.3197Z" fill="white"/>
<path d="M1.52991 26.5065C3.74557 25.9526 6.02277 26.4449 8.23843 26.7526C10.2695 27.0604 12.2389 27.1219 14.27 27.1835C18.9475 27.3066 23.625 27.0604 28.241 26.9373C37.4114 26.6911 46.5818 27.5528 55.7522 27.6758C56.4908 27.6758 56.4908 26.568 55.7522 26.568C46.3972 26.4449 37.1652 25.5217 27.8102 25.8295C23.1326 25.9525 18.4551 26.1987 13.8392 26.0756C11.5004 26.0141 9.28474 25.7679 6.94597 25.4602C5.03804 25.1525 3.13011 24.9678 1.22217 25.4602C0.545165 25.5833 0.852896 26.6911 1.52991 26.5065Z" fill="white"/>
<path d="M27.9332 0.595383C25.102 0.964661 23.0095 4.41126 21.5324 6.56538C20.4861 8.04249 19.3783 9.39651 18.4551 10.9352C17.4703 12.6585 16.6702 14.5664 16.1778 16.5359C15.0085 20.6595 14.7007 25.0908 14.7007 29.3375C14.6392 34.015 16.1163 38.5079 17.4703 42.9393C18.5166 46.3243 19.3167 51.0634 22.7017 52.9713C23.3172 53.3406 23.9327 52.3558 23.2557 51.9866C20.4245 50.3864 19.686 46.4474 18.8243 43.6163C17.5934 39.4927 16.1163 35.3075 15.8085 30.9993C15.5624 26.9988 15.9316 22.6905 16.7317 18.8131C17.5318 14.9357 19.132 11.6737 21.4708 8.53486C22.4555 7.18084 23.3788 5.76528 24.4866 4.4728C25.4713 3.30342 26.6407 1.9494 28.2409 1.70322C28.9179 1.58013 28.6102 0.533837 27.9332 0.595383Z" fill="white"/>
<path d="M28.1795 2.31895C28.1795 2.2574 28.241 2.2574 28.241 2.19586C27.9948 2.19586 27.6871 2.19586 27.4409 2.19586C27.6256 2.31895 27.7487 2.74977 27.9333 2.93441C28.1795 3.24214 28.4257 3.48833 28.6719 3.79606C29.3489 4.53461 30.0259 5.21162 30.5798 5.95018C31.6876 7.36575 32.6724 8.9044 33.4725 10.5662C35.1958 13.9512 36.3651 17.5209 36.6729 21.3368C37.3499 28.8454 35.442 36.4772 32.7955 43.4319C31.5645 46.6938 30.149 51.2483 26.9486 53.0947C26.3331 53.4639 26.887 54.4487 27.5025 54.0794C30.272 52.4792 31.6261 49.2788 32.7955 46.5092C34.3957 42.6318 35.6881 38.6928 36.6113 34.5692C38.3346 26.9375 38.5193 18.9365 35.2573 11.7355C34.3341 9.76605 33.2878 7.79657 31.9954 6.07327C31.3799 5.27317 30.7644 4.53461 30.0874 3.79606C29.6566 3.30369 29.1642 2.81132 28.7334 2.31895C28.5487 2.07276 28.4257 1.70348 28.1179 1.4573C27.8717 1.27266 27.5025 1.21111 27.3178 1.4573C27.3178 1.51884 27.2563 1.51885 27.2563 1.58039C26.887 2.07276 27.6871 2.87286 28.1795 2.31895Z" fill="white"/>
<path d="M7.31522 44.663C7.37677 42.1396 11.6235 41.0933 13.5314 40.601C17.1011 39.6162 20.7939 39.1239 24.4251 39.0623C28.4256 39.0623 32.3646 39.8009 36.1805 40.9702C38.1499 41.5857 40.0579 42.3243 41.8427 43.3705C42.7044 43.8629 43.6276 44.4168 44.3661 45.0938C45.0431 45.7093 45.5355 46.4479 46.274 47.0633C46.828 47.4942 47.6281 46.694 47.0742 46.2632C45.8432 45.2785 44.9816 44.0476 43.6891 43.1859C42.3351 42.2627 40.858 41.5857 39.3809 40.9702C36.242 39.6778 32.7954 38.7546 29.4104 38.3238C23.3788 37.5236 16.6703 38.1391 10.9465 40.2932C8.97699 41.0318 6.26894 42.2627 6.2074 44.7246C6.2074 45.4016 7.31522 45.4016 7.31522 44.663Z" fill="white"/>
<path d="M8.30002 8.47297C17.4704 15.9201 31.0721 18.0742 42.0274 13.766C43.2583 13.2736 44.4277 12.6581 45.5355 11.9811C46.3356 11.4887 47.6281 10.7502 47.7512 9.7039C47.8743 8.96534 46.7665 8.65761 46.6434 9.39617C46.5203 10.3809 44.5508 11.2426 43.7507 11.6734C42.2736 12.4735 40.7349 13.0274 39.1347 13.4582C35.7497 14.3814 32.18 14.9353 28.6718 14.7507C21.7786 14.3814 14.4546 11.9811 9.10011 7.61132C8.54619 7.24205 7.7461 8.04215 8.30002 8.47297Z" fill="white"/>
<path d="M18.578 11.9201C17.2855 10.8123 15.4391 10.6892 14.5775 12.3509C13.7774 13.828 14.6391 15.6129 16.3008 15.9206C17.8395 16.1668 19.9936 14.4435 19.255 12.7818C18.4549 10.9969 15.9931 11.5508 15.5622 13.2741C15.1314 15.1821 17.6548 15.9206 18.8857 14.8743C20.4859 13.5203 19.8089 11.2431 17.8395 10.8123C15.9315 10.3814 13.7774 11.9201 13.285 13.7665C12.7926 15.736 14.4544 17.5208 16.4239 17.2746C18.4549 16.9669 20.1782 14.7512 19.255 12.7202C18.3318 10.8123 15.3161 10.0122 14.1467 12.0432C14.0236 12.2278 14.2082 12.474 14.3928 12.474C15.6238 12.5971 17.1009 12.4125 17.5317 11.0585C17.5933 10.9354 17.4702 10.7507 17.3471 10.6892C14.5775 9.76598 12.0541 13.0895 13.7774 15.4898C15.0699 17.2746 17.901 17.09 19.3781 15.5513C20.8552 14.0127 20.4859 11.3662 18.3934 10.6276C16.6085 9.95062 14.3929 10.8738 14.639 13.0279C14.9468 15.9206 18.8242 15.3667 19.255 12.8433C19.255 12.7202 19.255 12.5971 19.1319 12.5356C17.6548 11.9201 16.3008 12.7818 15.6853 14.1973C15.6238 14.382 15.8084 14.5666 15.9315 14.5666C16.7932 14.4435 17.4702 14.3204 18.1472 13.828C17.9626 13.7665 17.8394 13.6434 17.6548 13.5819C17.4702 14.5666 17.8395 14.9359 18.6396 15.4282C18.9473 15.6129 19.255 15.1205 18.9473 14.9359C18.5165 14.6281 18.0856 14.505 18.2087 13.7049C18.2703 13.3972 17.9625 13.2741 17.7164 13.4588C17.1624 13.8896 16.6085 13.9511 15.9315 14.0742C15.9931 14.1973 16.1162 14.3204 16.1777 14.4435C16.3623 13.9511 16.6701 13.5203 17.1624 13.2126C17.3471 13.0895 18.3934 12.7202 18.6396 13.0279C18.8857 13.3972 17.8394 14.1973 17.5933 14.3204C16.3623 14.9974 15.1314 14.1973 15.0699 12.8433C15.0699 10.5045 18.4549 10.7507 19.3166 12.3509C20.4859 14.5051 18.0241 16.5361 15.9931 16.2899C14.8237 16.1668 13.8389 15.3051 13.6543 14.1358C13.4081 12.2278 15.316 10.8123 17.0393 11.3662C16.9778 11.2431 16.9162 11.12 16.8547 10.9969C16.547 12.0432 15.1929 12.1047 14.2697 11.9816C14.3313 12.1047 14.4544 12.2894 14.5159 12.4125C15.316 10.9969 17.1625 11.3662 18.1472 12.3509C19.1319 13.3972 18.9473 14.9359 17.9625 15.9206C17.0393 16.7823 15.5007 17.1515 14.4544 16.2899C13.285 15.2436 13.5927 13.6434 14.5775 12.5971C15.4391 11.6739 16.8547 11.12 18.0241 11.6124C19.6858 12.2894 19.3781 14.8128 17.5317 14.9974C15.3776 15.2436 15.7469 12.1663 17.5317 12.4125C18.5165 12.5356 18.9473 13.6434 18.4549 14.4435C18.0856 15.059 17.4086 15.4898 16.6701 15.5513C15.2545 15.6744 14.2697 14.1973 14.8852 12.9048C15.5622 11.5508 16.9778 11.6124 18.0241 12.474C18.4549 12.5356 18.8857 12.1047 18.578 11.9201Z" fill="#00AEEF"/>
<path d="M37.8419 24.5989C36.8572 23.5526 36.057 23.7373 35.5031 24.9682C35.0108 26.0145 35.0723 27.1838 35.8109 28.107C36.3648 28.8456 37.4111 29.3995 38.3343 29.0302C39.1959 28.661 39.6268 27.4916 39.3806 26.6299C39.0728 25.3375 36.611 24.3527 35.934 25.8298C35.6262 26.5684 35.9955 27.6147 36.7341 27.9839C37.4111 28.2917 38.2112 27.9224 38.7035 27.3685C40.0576 25.7683 37.6573 24.1681 36.2417 25.2144C35.0723 26.1376 35.6878 28.5379 37.1649 28.7225C37.965 28.8456 38.9497 28.2917 39.2575 27.43C39.5652 26.5068 38.9497 25.5221 38.2727 24.9682C37.5957 24.4143 36.611 24.1065 35.8109 24.6604C35.1338 25.0913 34.703 26.0145 35.0108 26.753C35.5647 28.1686 38.642 28.9687 39.0728 27.0608C39.6268 24.5374 35.5647 24.4143 34.4569 25.9529C34.2722 26.2606 34.7646 26.5068 34.9492 26.2606C35.5647 25.3375 37.9035 25.0913 38.4574 26.2606C39.0728 27.6147 37.3495 27.7993 36.4879 27.43C36.0571 27.2454 35.5647 26.9377 35.4416 26.4453C35.257 25.8298 35.8109 25.0913 36.4263 24.9682C37.5342 24.722 39.0728 26.1376 38.642 27.3069C38.1496 28.5994 36.4879 28.2917 36.1802 27.0608C35.8724 25.8298 37.0418 24.9682 38.1496 25.7683C39.1959 26.5068 37.5342 28.107 36.7341 27.3069C36.3648 26.9377 36.1802 26.1991 36.611 25.8298C36.9803 25.5221 37.5957 25.6452 37.965 25.8298C39.5036 26.5068 38.7651 29.1533 37.1034 28.4148C36.3648 28.107 35.8109 27.3069 35.6878 26.4453C35.6263 25.8914 35.8109 25.4605 36.0571 24.9682C36.1186 24.8451 36.1802 24.722 36.3033 24.5989C36.7341 24.045 37.1034 24.5374 37.4111 24.9066C37.7188 25.2759 38.0881 24.8451 37.8419 24.5989Z" fill="#00AEEF"/>
<path d="M37.9036 25.3987C38.519 24.537 38.0267 23.7985 36.9804 23.86C35.811 23.9216 34.5185 24.6601 33.9031 25.7064C33.1645 26.9989 33.7184 28.9684 35.134 29.5838C36.6111 30.1993 38.5806 29.3377 38.8268 27.6759C38.9498 26.8143 38.5806 25.768 37.6574 25.5833C36.7342 25.3987 35.9956 26.1372 35.811 26.9374C35.7494 27.0604 35.811 27.1835 35.9341 27.2451C36.9188 27.7375 37.6574 27.3682 38.0882 26.445C37.9036 26.445 37.7805 26.445 37.5958 26.445C37.7189 26.6296 37.7805 26.6912 37.9651 26.8758C38.2728 27.0604 38.519 26.6296 38.2728 26.3834C38.2113 26.3219 38.1497 26.2603 38.0882 26.1988C38.0266 26.0142 37.7189 26.0142 37.5958 26.1988C37.2881 26.8143 36.9188 27.1835 36.2418 26.8143C36.3033 26.9374 36.3034 26.9989 36.3649 27.122C36.6726 26.0757 37.9651 25.7064 38.2728 26.9374C38.4575 27.799 37.9651 28.5991 37.165 28.9684C35.6263 29.7069 33.9646 28.5376 34.1493 26.8143C34.2723 25.7064 35.2571 24.9063 36.2418 24.5986C36.7957 24.414 38.0267 24.1678 37.4112 25.091C37.2266 25.3987 37.7189 25.7064 37.9036 25.3987Z" fill="#00AEEF"/>
<path d="M17.7164 38.2611C16.9778 36.9686 14.639 37.1533 14.2697 38.7535C13.9005 40.5383 16.4239 41.0922 17.5933 40.4152C18.9473 39.6151 18.4549 37.2764 16.7932 37.461C15.0083 37.7072 14.1466 39.7998 15.1929 41.2153C16.1777 42.4463 18.5164 43.0617 19.3165 41.3384C20.0551 39.6767 18.1472 38.138 16.7316 37.8303C15.0698 37.461 13.4081 39.1843 14.639 40.723C15.7469 42.1385 18.4549 41.4615 18.2087 39.492C17.9625 37.7072 15.4391 37.0302 14.2697 38.3227C12.7926 39.9844 15.3776 41.6462 16.9778 41.1538C18.6395 40.6614 19.0088 38.6304 17.7164 37.5225C16.3008 36.3532 13.5927 37.1533 13.1004 38.9381C12.4849 41.0307 15.2545 41.9539 16.7932 41.2153C18.578 40.3537 18.3318 38.1996 16.4854 37.5841C15.193 37.1533 12.8542 37.3995 12.3003 38.8766C11.6233 40.5999 13.5312 41.4615 14.9468 41.5231C16.3623 41.5846 18.578 41.1538 18.8857 39.492C19.1934 37.9534 17.4086 36.3532 15.9931 37.5225C14.8237 38.5073 15.0698 40.7845 16.8547 40.723C17.5317 40.6614 18.4549 40.169 18.578 39.4305C18.7011 38.6919 17.901 38.1996 17.2855 38.4457C16.3623 38.815 15.9315 39.7998 16.0546 40.723C16.1161 40.9691 16.3623 40.9691 16.547 40.8461C17.4086 40.1075 17.5317 39.1843 16.8547 38.1996C16.7316 38.0765 16.5469 38.0149 16.4239 38.138C15.9315 38.6304 15.5622 38.9381 15.3776 39.6151C15.3161 39.9229 15.7469 40.1075 15.87 39.8613C16.3623 38.7535 15.9315 37.7687 14.7006 37.6456C14.5775 37.6456 14.5159 37.7072 14.4544 37.7687C14.2082 38.2611 14.0235 38.6919 13.962 39.2458C13.9005 39.6151 14.5159 39.6151 14.5159 39.2458C14.4544 38.6304 14.639 38.4457 15.0699 38.7535C15.6238 38.7535 15.7469 38.9997 15.3776 39.5536C15.5622 39.6151 15.7469 39.6767 15.87 39.7998C16.0546 39.2458 16.3623 38.9381 16.7316 38.5688C16.6085 38.5688 16.4239 38.5073 16.3008 38.5073C16.7932 39.1843 16.7316 39.8613 16.0546 40.4152C16.2392 40.4768 16.3623 40.4768 16.547 40.5383C16.6085 40.2306 16.6085 39.9229 16.6701 39.6767C16.9162 39.1228 17.2855 38.9997 17.901 39.3689C17.901 39.492 17.5933 39.7998 17.4086 39.9229C17.0393 40.169 16.4854 40.2921 16.1161 40.0459C14.8852 39.2458 16.4854 36.9686 17.7164 38.0765C18.5165 38.815 18.2087 39.9229 17.4086 40.4768C16.6701 40.9076 15.7468 41.0922 14.8852 41.0307C14.2082 41.0307 13.2235 40.8461 12.7926 40.2306C12.1772 39.2458 13.1619 38.3842 14.0236 38.138C14.7621 37.9534 15.7468 37.9534 16.4239 38.2611C18.1472 39.1227 17.0393 40.8461 15.5007 40.9691C13.962 41.0922 12.6695 39.5536 13.962 38.3227C14.8237 37.5225 16.4854 37.2148 17.3471 38.138C18.0241 38.8766 17.901 39.9229 17.0393 40.4152C16.4239 40.7845 15.6853 40.723 15.0699 40.4152C14.0236 39.7998 14.0851 38.5688 15.2545 38.1996C16.3008 37.8918 17.901 38.9997 17.3471 40.169C16.9162 41.0307 15.7469 41.1538 15.0699 40.5383C14.3313 39.8613 14.5775 38.6919 15.5007 38.3842C17.3471 37.7687 20.3013 41.0922 17.8395 41.7692C16.7316 42.077 15.2545 41.1538 15.0699 40.0459C14.9468 39.0612 16.4854 37.2148 17.4086 38.3842C18.5165 39.7998 15.87 40.723 14.9468 39.7998C13.7158 38.6304 16.1777 37.1533 16.9778 38.5688C17.4702 38.815 17.901 38.5688 17.7164 38.2611Z" fill="#00AEEF"/>
<path d="M22.5785 52.9713C22.9478 52.9713 22.9478 52.4174 22.5785 52.4174C22.2092 52.3559 22.2092 52.9713 22.5785 52.9713Z" fill="white"/>
<path d="M51.1975 15.6135C52.613 17.5215 53.844 19.3679 54.3363 21.7682C54.3979 22.1374 54.9518 21.9528 54.8902 21.6451C54.3363 19.2448 53.167 17.3368 51.6899 15.3673C51.4437 15.0596 50.9513 15.3673 51.1975 15.6135Z" fill="white"/>
<path d="M52.0593 15.2442C51.8746 16.352 52.9209 17.2752 53.2902 18.3215C53.8441 19.9217 54.0288 21.645 54.1518 23.3683C54.4596 26.8764 54.4596 30.5077 53.9056 34.0158C53.8441 34.3851 54.398 34.5082 54.4596 34.1389C55.0135 30.7539 55.075 27.3688 54.8288 23.9838C54.7057 22.5066 54.5827 20.968 54.2134 19.4909C54.0903 18.8754 53.9056 18.1984 53.6594 17.6445C53.3517 16.9675 52.5516 16.2289 52.6747 15.4904C52.6747 15.0595 52.1208 14.9365 52.0593 15.2442Z" fill="white"/>
<path d="M54.5826 24.5363C54.9519 24.5363 54.9519 23.9824 54.5826 23.9824C54.2133 23.9824 54.2133 24.5363 54.5826 24.5363Z" fill="white"/>
<path d="M45.5352 46.8169C44.1196 45.7091 43.258 44.0473 41.8424 42.878C40.5499 41.8317 39.0112 41.3393 37.5957 40.6008C37.5341 40.7854 37.4726 40.97 37.3495 41.0931C40.673 41.647 43.6272 44.3551 45.5352 46.94C45.6583 46.8169 45.8429 46.6938 45.966 46.5707C45.966 46.5092 45.5352 45.9553 45.5352 45.8322C45.5352 45.6476 45.7198 45.5245 45.7198 45.3398C45.7198 45.0321 45.5351 44.909 45.3505 44.6628C45.1659 44.4782 44.7966 44.6628 44.8581 44.909C44.9197 45.1552 45.0428 45.4014 45.1043 45.6475C45.2274 46.0168 45.7813 45.8322 45.6582 45.5245C45.5967 45.2783 45.5352 45.0321 45.4121 44.7859C45.2274 44.8475 45.1044 44.9705 44.9197 45.0321C45.2274 45.4014 44.9197 45.3398 44.9197 45.7706C44.9197 46.1399 45.289 46.6323 45.5352 46.94C45.7198 47.1862 46.1506 46.8785 45.966 46.5707C43.9349 43.8627 40.8576 41.0316 37.4111 40.4777C37.1033 40.4161 36.8571 40.8469 37.1649 40.97C38.8266 41.7701 40.5499 42.3241 41.9039 43.6165C43.0733 44.7244 43.8734 46.1399 45.1043 47.1247C45.5352 47.5555 45.7814 47.0631 45.5352 46.8169Z" fill="white"/>
<path d="M46.7047 8.84232C45.9046 7.73449 44.9199 6.81129 43.9967 5.765C43.8736 5.8881 43.7505 6.01119 43.5659 6.19583C44.0583 6.6882 44.5506 7.11902 45.1046 7.54985C45.3507 7.73449 45.7816 7.4883 45.5354 7.18057C45.4123 7.05748 45.3507 6.93438 45.1046 6.87284C44.9815 6.87284 44.9199 6.87284 44.8584 6.93438C44.6122 7.18057 45.043 7.61139 45.2892 7.36521C45.2276 7.36521 45.1045 7.42676 45.043 7.42676L45.1046 7.4883C45.2276 7.36521 45.4123 7.24212 45.5354 7.11902C44.9815 6.6882 44.4891 6.19583 43.9967 5.765C43.7505 5.51882 43.3813 5.8881 43.5659 6.19583C44.4275 7.18057 45.4123 8.04222 46.1508 9.15005C46.397 9.45778 46.8894 9.15005 46.7047 8.84232Z" fill="white"/>
<path d="M51.1359 15.0585C52.1207 16.2894 52.4284 17.8281 53.0439 19.3052C53.167 19.6129 53.7209 19.4898 53.5978 19.1821C52.9823 17.705 52.613 16.1048 51.6283 14.8123C51.3821 14.5046 50.8898 14.7508 51.1359 15.0585Z" fill="white"/>
<path d="M50.0896 13.3349C51.6283 14.2581 52.0591 16.6584 52.6746 18.2586C53.4747 20.4127 53.844 22.6899 54.1517 24.9671C54.2133 25.3364 54.7671 25.1518 54.7056 24.844C54.2748 22.1975 53.7824 19.7357 52.8592 17.2123C52.3053 15.6736 51.8745 13.7657 50.3974 12.8425C50.0896 12.6579 49.7819 13.1502 50.0896 13.3349Z" fill="white"/>
<path d="M7.56114 45.34C7.93042 45.34 7.93042 44.7861 7.56114 44.7861C7.19186 44.7861 7.19186 45.34 7.56114 45.34Z" fill="white"/>
<path d="M27.5638 1.88798C25.7789 2.07261 24.3633 3.48818 23.2555 4.78065C21.963 6.25776 20.9168 7.85797 19.9936 9.58127C19.932 9.76591 20.1782 9.889 20.2397 9.70436C21.0398 8.22725 22.0246 6.75013 23.0709 5.45766C24.1787 4.10364 25.7174 2.38035 27.5638 2.19571C27.7484 2.13416 27.7484 1.82643 27.5638 1.88798Z" fill="white"/>
<path d="M25.9019 1.33401C21.7783 3.24195 20.9782 7.85792 18.5163 11.243C18.3932 11.3661 18.6394 11.5507 18.7625 11.3661C21.2244 8.04256 22.0245 3.48814 26.0865 1.5802C26.2096 1.51865 26.0865 1.27247 25.9019 1.33401Z" fill="white"/>
<path d="M24.6711 2.93415C24.4249 3.18033 24.2403 3.36497 23.9941 3.61116C23.871 3.73425 24.0556 3.91889 24.1787 3.7958C24.4249 3.54961 24.6095 3.36497 24.8557 3.11879C24.9788 2.9957 24.7942 2.81106 24.6711 2.93415Z" fill="white"/>
<path d="M7.9303 44.5392C8.91504 47.4319 12.2385 49.2168 14.8235 50.3861C18.7009 52.171 22.8861 53.0942 27.0712 53.5866C27.2559 53.5866 27.2559 53.3404 27.0712 53.2788C23.0092 52.7864 18.9471 51.9248 15.1928 50.263C12.6078 49.0937 9.16124 47.3704 8.1765 44.4777C8.1765 44.2931 7.9303 44.3546 7.9303 44.5392Z" fill="white"/>
<path d="M7.68431 44.4166C7.68431 44.2935 7.68431 44.232 7.68431 44.1089C7.49967 44.1704 7.31502 44.232 7.13038 44.232C7.74584 45.0936 8.17666 46.0168 8.85367 46.7554C9.09985 47.0015 9.53069 46.6323 9.2845 46.3245C8.60749 45.586 8.23821 44.7243 7.62274 43.9242C7.4381 43.678 7.13039 43.8011 7.06885 44.0473C7.06885 44.1704 7.06885 44.232 7.06885 44.3551C7.13039 44.7243 7.68431 44.7243 7.68431 44.4166Z" fill="white"/>
<path d="M6.82272 44.1705C8.6691 47.8018 12.1773 50.0174 15.87 51.4946C20.486 53.2794 25.4713 54.2641 30.3334 53.2794C30.7027 53.2179 30.518 52.6639 30.2103 52.7255C25.5328 53.7102 20.7937 52.787 16.3624 51.0637C12.6696 49.6482 9.16147 47.4941 7.31508 43.8628C7.13044 43.5551 6.63808 43.8628 6.82272 44.1705Z" fill="white"/>
<path d="M23.748 52.8484C23.6249 52.7868 23.5018 52.7253 23.4403 52.6637C23.4403 52.8484 23.3788 53.033 23.3788 53.1561C25.7791 52.5407 28.2409 53.3407 30.6412 53.033C32.9184 52.7253 35.1957 51.9252 37.4113 51.1251C40.981 49.8326 44.7353 48.0478 46.8894 44.7243C47.0741 44.4165 46.5817 44.1088 46.3971 44.4165C44.1814 47.8016 40.0578 49.5864 36.365 50.8789C34.2109 51.6174 31.9952 52.356 29.7796 52.5407C27.5639 52.7253 25.4098 52.0483 23.2557 52.6022C23.0095 52.6637 23.0095 52.9715 23.1941 53.0946C23.3172 53.1561 23.3787 53.2177 23.5018 53.2792C23.8096 53.5254 24.1173 53.033 23.748 52.8484Z" fill="white"/>
<path d="M46.1508 46.2635C47.1355 45.4018 47.8741 44.3555 48.5511 43.2477C48.7357 42.94 48.2434 42.6322 48.0587 42.94C47.3817 43.9863 46.6432 44.971 45.72 45.8326C45.4738 46.1404 45.8431 46.5096 46.1508 46.2635Z" fill="white"/>
<path d="M46.7047 45.5857C51.1361 40.1696 54.5826 33.7073 54.8904 26.5679C55.075 22.9366 54.398 19.2439 52.8594 15.9204C52.1208 14.2586 51.1361 12.9046 49.9667 11.5506C48.9819 10.3197 48.1203 8.96563 46.7047 8.22708C46.4585 8.10398 46.1508 8.35017 46.3355 8.59635C48.0588 11.4275 50.2744 14.0124 51.0745 17.2744C51.1361 17.6437 51.69 17.459 51.6284 17.1513C50.8283 13.8278 48.5511 11.2428 46.8278 8.35017C46.7047 8.47327 46.5817 8.59636 46.4586 8.71945C47.8126 9.45801 48.6742 10.7505 49.6589 11.9814C50.7668 13.3354 51.69 14.6894 52.4285 16.2896C53.9672 19.6131 54.5827 23.3675 54.3365 27.0603C53.9057 33.8919 50.5822 40.1081 46.3355 45.3395C46.0893 45.4626 46.4585 45.8934 46.7047 45.5857Z" fill="white"/>
<path d="M13.0386 15.7359C13.7772 17.8285 17.1007 18.0131 18.7009 16.8437C20.4858 15.6128 21.8398 12.7201 19.6857 11.1815C19.6241 11.1199 19.4395 11.1815 19.501 11.3046C19.7472 13.5818 21.1012 16.2283 18.0239 17.1515C15.439 17.89 11.9924 15.9821 12.9156 12.9663C13.7772 10.0121 19.9318 9.08888 20.1165 12.9048C20.1165 13.0894 20.4242 13.0894 20.4242 12.9048C20.2396 8.8427 13.7772 9.6428 12.7309 12.8432C11.9308 15.3666 14.208 17.6438 16.6699 17.6438C17.9008 17.6438 19.6241 17.2745 20.2396 16.0436C20.7319 15.0589 20.4242 13.828 20.178 12.7817C20.1165 12.597 19.8703 11.7354 20.1165 11.7969C20.6088 11.8585 20.7319 13.2125 20.6704 13.5202C20.5473 14.6281 19.8703 15.6743 19.0702 16.4129C17.6546 17.6438 14.208 17.89 13.4695 15.7359C13.2848 15.4897 12.9771 15.6128 13.0386 15.7359Z" fill="white"/>
<path d="M33.5952 28.9064C34.2722 30.8144 37.6573 29.9527 38.8882 29.0911C41.1654 27.4909 39.9345 24.352 37.4111 23.9212C35.257 23.6134 33.2259 25.3983 33.6567 27.614C34.1491 30.0758 37.5342 30.1374 39.1959 28.7833C41.4116 26.9369 39.4421 22.998 36.6725 23.5519C36.4879 23.6134 36.5494 23.8596 36.7341 23.7981C38.3343 23.4903 39.7499 24.9675 39.8729 26.5061C39.996 28.0448 38.7651 29.0295 37.3495 29.2757C36.1801 29.4603 34.8261 29.3373 34.2107 28.2294C33.7183 27.3062 33.9029 26.1368 34.5184 25.2752C36.4879 22.5672 41.5347 25.1521 39.319 28.2294C38.4574 29.3988 34.6415 30.5682 33.9645 28.7218C33.7798 28.6602 33.5337 28.7218 33.5952 28.9064Z" fill="white"/>
<path d="M12.4849 38.2C11.1309 40.2925 13.4696 42.0158 15.3776 42.4466C16.4854 42.7544 17.7779 42.6928 18.6395 41.8312C19.3781 41.0926 19.8089 39.9232 19.3165 38.9385C18.4549 37.0306 15.4391 36.9075 13.9004 37.9538C12.4233 38.9385 12.6695 40.8464 14.0851 41.7696C15.6853 42.8159 18.2087 42.7544 19.1934 40.9695C19.1319 40.908 19.0088 40.908 18.9472 40.8464C18.4549 42.2005 16.8547 41.7696 15.8699 42.4466C15.8084 42.5082 15.7468 42.6313 15.8699 42.6928C17.9625 43.6776 18.024 41.3388 18.8857 40.0463C18.8241 40.0463 18.7011 40.0463 18.6395 39.9848C19.1319 41.2773 17.7778 41.9543 16.7316 42.2005C16.5469 42.262 16.6085 42.5082 16.7931 42.5082C17.9625 42.5082 19.8704 40.0463 18.7626 39.0616C18.6395 38.9385 18.4548 39.1231 18.5779 39.2462C19.5011 40.0463 17.5932 42.2005 16.7931 42.2005C16.7931 42.3236 16.7931 42.3851 16.8547 42.5082C18.0856 42.262 19.5012 41.4004 18.9472 39.9848C18.8857 39.8617 18.7626 39.8617 18.701 39.9232C18.4549 40.3541 18.2702 40.7849 18.1471 41.2157C18.0241 41.585 17.8394 42.0158 17.5932 42.3236C17.4701 42.4466 17.2855 42.6313 17.1009 42.6313C16.8547 42.6928 16.1776 42.7544 16.5469 42.5082C16.9777 42.1389 17.8394 42.262 18.3933 42.0774C18.9472 41.8312 19.1934 41.5235 19.3781 40.9695C19.4396 40.8464 19.1934 40.7234 19.1319 40.8464C18.2702 42.3851 16.1161 42.4466 14.639 41.6465C12.5464 40.5387 13.285 38.0769 15.4391 37.646C16.4238 37.4614 17.6548 37.5845 18.4549 38.2C19.932 39.3078 19.3165 41.6465 17.5932 42.2005C15.5622 42.8159 11.1924 40.908 12.7926 38.323C12.8542 38.1999 12.608 38.0153 12.4849 38.2Z" fill="white"/>
</g>
</svg>
