<svg width="53" height="60" viewBox="0 0 53 60" fill="none" xmlns="http://www.w3.org/2000/svg">
<g opacity="0.2">
<path d="M33.775 36.5661C33.8894 36.4517 33.9466 36.2801 34.0038 36.1657C34.1182 35.9368 34.4615 35.994 34.5759 36.1657C34.9764 36.9094 35.2052 37.7103 35.3768 38.5684C35.434 38.9117 34.9764 39.1405 34.8047 38.7973C34.1754 37.7103 33.7178 36.5661 32.9169 35.6508C33.0885 35.5936 33.2601 35.4791 33.4317 35.4219C33.6033 36.6233 33.8894 37.8247 34.2327 39.0261C34.2899 39.3694 33.8322 39.5982 33.6606 39.2549C32.9169 37.8247 32.5164 36.2801 31.6011 34.9071C31.7727 34.8498 32.0015 34.7926 32.1732 34.7354C32.116 35.5364 32.402 36.3373 32.5736 37.1382C32.7452 37.9963 32.8597 38.9117 33.2029 39.7126C33.0313 39.7698 32.8024 39.827 32.6308 39.8842C32.8024 37.8819 31.5439 35.8224 30.4569 34.1633C30.6285 34.1061 30.8574 33.9917 31.029 33.9345C31.4867 36.2801 32.5164 38.454 32.9169 40.8568C32.9741 41.2 32.5164 41.4289 32.3448 41.0856C31.2578 38.9117 31.0862 36.4517 29.8848 34.335C30.0564 34.335 30.2281 34.335 30.4569 34.335C30.1136 34.9071 30.6857 36.3945 30.8573 36.9666C31.2006 38.2824 31.3722 39.6554 31.6583 40.9712C31.7727 41.3717 31.1434 41.5433 31.029 41.1428C30.3425 38.454 29.6559 35.7652 28.3401 33.3052C28.5118 33.248 28.7406 33.1336 28.9122 33.0764C29.1411 34.3922 29.5415 35.6508 29.7704 36.9094C29.9992 38.1108 30.1136 39.2549 30.4569 40.4563C30.2281 40.5135 30.0565 40.5707 29.8276 40.628C29.0839 37.7103 28.6834 34.7354 27.4248 31.9322C27.5964 31.9322 27.8253 31.875 27.9969 31.875C27.8253 32.3899 28.1685 33.534 28.2257 34.0489C28.3402 34.7354 28.3974 35.4219 28.5118 36.1084C28.6834 37.3098 28.9695 38.454 29.0267 39.6554C29.0267 39.9986 28.5118 40.0559 28.3974 39.7126C27.5393 36.9666 27.3104 33.9917 25.9374 31.4173C26.109 31.3601 26.3379 31.2457 26.5095 31.1885C27.196 33.8201 27.5964 36.5661 28.2829 39.1977C28.0541 39.1977 27.8825 39.2549 27.6537 39.2549C27.4248 37.5387 26.9099 35.9368 26.5095 34.2778C26.1662 32.9619 25.823 31.5317 25.0221 30.4447C25.1937 30.3875 25.4225 30.3303 25.5942 30.2731C25.823 33.0192 26.5095 35.6508 27.0244 38.3968C27.0816 38.7973 26.5095 38.9689 26.3951 38.5684C25.5942 35.3075 24.5644 32.0466 22.6193 29.2434C22.7909 29.2434 22.9625 29.2434 23.1914 29.2434C23.0197 29.6438 23.4202 30.6164 23.5347 31.0168C23.7063 31.5889 23.8779 32.1038 24.0495 32.6759C24.6216 34.5066 25.0221 36.3945 25.2509 38.3396C25.3081 38.6828 24.736 38.7401 24.6216 38.3968C23.9923 36.3373 23.363 34.2778 22.7337 32.2754C22.4477 31.4745 22.2188 30.6736 21.9328 29.9299C21.8184 29.5866 21.6468 29.2434 21.5324 28.8429C21.4752 28.6713 21.1891 28.328 21.3607 28.328C21.4751 28.2136 21.6467 28.042 21.7611 27.9275C22.4476 30.9596 23.4774 33.9345 24.2783 36.9666C24.3928 37.367 23.8207 37.5387 23.6491 37.1382C22.5621 34.1061 21.4751 31.074 19.8733 28.2136C20.0449 28.1564 20.2738 28.042 20.4454 27.9848C20.9603 30.3303 22.0472 32.5615 22.5049 34.9071C22.5621 35.1931 22.2188 35.4791 21.99 35.1931C21.2463 34.3922 21.1319 33.1908 20.7886 32.2182C20.5026 31.4173 20.1594 30.5592 19.8161 29.7582C19.5873 29.1862 19.4728 28.328 19.0724 27.8703C19.244 27.8131 19.4156 27.6987 19.5873 27.6415C19.7589 29.8154 20.5598 31.8178 21.0175 33.9345C21.1319 34.335 20.5598 34.5066 20.3882 34.1061C19.8161 32.5615 19.3012 31.0168 18.5003 29.5294C18.6719 29.4722 18.9007 29.415 19.0724 29.3578C19.0152 30.4447 19.4728 31.4173 19.7016 32.3899C19.7589 32.7331 19.3012 32.9619 19.1296 32.6187C18.7863 31.8178 18.6147 30.5592 17.9282 30.0443C18.0998 29.9871 18.2143 29.9299 18.3859 29.8727C18.2143 30.6736 18.3858 31.4173 18.6147 32.161C18.7291 32.5615 18.157 32.7331 17.9854 32.3326C17.6421 31.4173 17.3561 30.4447 16.8984 29.5294C17.07 29.4722 17.2989 29.415 17.4705 29.3578C17.4705 30.2159 17.7566 31.3601 18.3859 31.9322C18.2143 31.9894 18.0426 32.1038 17.871 32.161C17.8138 31.3601 17.4706 30.6736 17.5278 29.8727C17.5278 29.6438 17.871 29.415 18.0426 29.6438C18.5002 30.1587 18.8435 30.788 19.1296 31.4173C19.3012 31.7606 18.7863 32.1038 18.5575 31.7606C18.2714 31.1885 17.9854 30.6164 17.585 30.1587C17.7566 30.1015 17.9282 29.9871 18.0998 29.9299C18.0998 30.6736 18.3859 31.4173 18.4431 32.2182C18.4431 32.5043 18.0998 32.6187 17.9282 32.4471C17.1845 31.7606 16.8412 30.4447 16.8412 29.415C16.8412 29.1289 17.2989 28.9573 17.4133 29.2434C17.871 30.2159 18.2142 31.1885 18.5575 32.2182C18.3286 32.2754 18.157 32.3326 17.9282 32.3899C17.6994 31.5317 17.5277 30.6736 17.6993 29.7582C17.7566 29.5866 17.9854 29.4722 18.157 29.5866C19.0724 30.2731 19.1868 31.4745 19.5873 32.3899C19.4156 32.4471 19.1868 32.5615 19.0152 32.6187C18.7863 31.5317 18.2715 30.502 18.3859 29.415C18.3859 29.1289 18.8436 28.9573 18.958 29.2434C19.7589 30.7308 20.3309 32.3326 20.903 33.9345C20.6742 33.9917 20.5026 34.0489 20.2737 34.1061C19.7589 31.9322 18.9579 29.8727 18.7863 27.6415C18.7863 27.3555 19.1296 27.241 19.3012 27.4127C19.9877 28.2136 20.2737 29.701 20.617 30.6164C20.8458 31.3029 21.1319 31.9322 21.3607 32.6187C21.5895 33.3052 21.704 34.1633 22.2188 34.7354C22.0472 34.8498 21.8756 34.9643 21.7039 35.0215C21.1891 32.6759 20.1021 30.4447 19.6445 28.0992C19.5872 27.7559 20.0449 27.5271 20.2165 27.8703C21.8184 30.7308 22.9625 33.8773 24.0495 36.9666C23.8207 37.0238 23.649 37.081 23.4202 37.1382C22.6193 34.1061 21.5895 31.1885 20.903 28.0992C20.8458 27.8703 21.0747 27.6415 21.3035 27.6987C21.704 27.8131 21.8756 28.4424 21.99 28.7285C22.3332 29.5866 22.6765 30.502 22.9626 31.4173C23.7063 33.6485 24.3928 35.9368 25.0793 38.2252C24.8504 38.2252 24.6788 38.2824 24.45 38.2824C24.2212 36.2229 23.7063 34.1633 23.077 32.2182C22.7909 31.3601 22.0472 29.8727 22.4477 28.9001C22.5621 28.6713 22.9054 28.7285 23.0198 28.9001C24.9649 31.7606 26.0518 35.0787 26.8527 38.3968C26.6239 38.454 26.4523 38.5112 26.2234 38.5684C25.7086 35.8224 25.0221 33.0764 24.7932 30.2731C24.736 29.9299 25.1937 29.8727 25.3653 30.1015C26.2234 31.2457 26.5667 32.7331 26.9672 34.1061C27.4249 35.8224 27.9397 37.5387 28.1686 39.2549C28.2258 39.5982 27.6537 39.6554 27.5393 39.3121C26.8528 36.6805 26.5095 33.9345 25.7657 31.3029C25.6513 30.9596 26.1662 30.7308 26.3378 31.074C27.7108 33.7057 27.9969 36.6805 28.855 39.541C28.6262 39.541 28.4546 39.5982 28.2257 39.5982C28.1685 38.2824 27.8253 36.9666 27.7109 35.6508C27.6536 34.9643 27.5392 34.2778 27.4248 33.5912C27.3104 32.9047 27.0816 32.3326 27.2532 31.6461C27.3104 31.4173 27.7109 31.3029 27.8253 31.5889C29.0839 34.3922 29.5416 37.4242 30.3425 40.3991C30.4569 40.7996 29.8276 40.9712 29.7132 40.5707C29.3699 39.4266 29.2555 38.2252 29.0267 37.0238C28.7978 35.708 28.3974 34.5066 28.1686 33.1908C28.1113 32.8475 28.569 32.6187 28.7406 32.9619C30.1136 35.4791 30.8001 38.2252 31.4866 40.9712C31.2578 41.0284 31.0862 41.0856 30.8573 41.1428C30.5141 39.5982 30.2853 38.0535 29.8848 36.5661C29.7132 35.8796 29.2555 34.6782 29.7132 33.9917C29.8276 33.8201 30.1708 33.7629 30.2852 33.9917C31.4294 36.1084 31.6583 38.5684 32.7452 40.7424C32.5736 40.7996 32.3448 40.914 32.1732 40.9712C31.7727 38.6256 30.8001 36.3945 30.2852 34.0489C30.228 33.7057 30.6857 33.4768 30.8573 33.8201C32.0015 35.5363 33.2601 37.7103 33.0885 39.827C33.0885 40.1131 32.6308 40.2847 32.5164 39.9987C32.1159 39.1405 32.0015 38.2252 31.8299 37.2526C31.6583 36.3945 31.3722 35.5936 31.4294 34.7354C31.4294 34.3922 31.8299 34.335 32.0015 34.5638C32.9168 35.8796 33.3173 37.4815 34.061 38.9117C33.8894 38.9689 33.6606 39.0833 33.489 39.1405C33.2029 37.8819 32.8596 36.6233 32.688 35.3647C32.6308 35.0787 33.0313 34.9643 33.2029 35.1359C34.061 36.1084 34.5759 37.3098 35.2052 38.454C35.0336 38.5112 34.8048 38.6256 34.6331 38.6828C34.4615 37.8819 34.2899 37.1382 33.8894 36.4517C34.061 36.4517 34.2327 36.4517 34.4615 36.4517C34.4043 36.6233 34.3471 36.7377 34.2327 36.8522C34.1182 37.2526 33.5462 36.9094 33.775 36.5661Z" fill="#00AEEF"/>
<path d="M23.4201 52.9845L23.4773 52.9273C23.7062 52.6985 24.1067 53.0417 23.8778 53.3278L23.8206 53.385C23.5346 53.6138 23.1913 53.2133 23.4201 52.9845Z" fill="#00AEEF"/>
<path d="M21.8184 50.0664C21.8184 49.8376 21.8756 49.6087 21.8756 49.4371C22.0473 49.4371 22.2189 49.4371 22.3905 49.4371C22.3905 50.5813 22.3333 51.6682 22.1617 52.7552C22.1045 53.0413 21.7612 52.9841 21.6468 52.7552C21.1891 51.4966 21.3608 50.1236 20.7315 48.9222C20.9031 48.865 21.0747 48.8078 21.2464 48.8078C21.0747 50.4669 21.2463 52.1831 21.1891 53.8422C21.1891 54.1282 20.7315 54.1854 20.6743 53.8994C20.331 52.412 20.1022 50.9245 19.6445 49.4371C19.8161 49.4371 19.9878 49.4943 20.1022 49.4943C19.4729 50.9245 20.1021 52.7552 20.2738 54.2426C20.331 54.5287 19.8161 54.5859 19.7589 54.2999C19.53 52.9268 19.3584 51.4966 18.8436 50.1808C19.0152 50.1808 19.1868 50.1808 19.3584 50.1808C19.0724 51.7827 19.5873 53.3845 19.5301 54.9292C19.5301 55.2152 19.0724 55.2724 19.0152 54.9864C18.672 53.6133 18.4431 52.1831 18.0426 50.8101C18.2142 50.8101 18.3859 50.8101 18.5575 50.8101C18.3859 51.2678 18.5575 51.8399 18.6147 52.3548C18.6719 53.0985 18.672 53.8994 18.7292 54.7003C18.7292 54.9292 18.3287 55.0436 18.2143 54.8147C17.8138 53.8994 17.6422 52.8696 17.299 51.9543C17.4706 51.9543 17.6422 51.9543 17.8138 51.9543C17.5278 53.3273 17.871 54.7575 17.9854 56.1305C17.9854 56.4166 17.5277 56.4738 17.4705 56.1878C17.1273 54.9292 17.2417 53.3845 16.4408 52.2975C16.6124 52.2403 16.7841 52.1831 16.9557 52.1831C16.8985 53.4417 17.2417 54.7003 17.1845 56.0161C17.1845 56.3022 16.8413 56.3594 16.6697 56.1305C16.1548 55.3296 16.212 54.3571 15.8687 53.4989C16.0404 53.4989 16.212 53.4417 16.3836 53.4417C16.3836 54.3571 16.5552 55.2724 16.6124 56.245C16.6124 56.5882 16.0976 56.5882 16.0976 56.245C16.0404 55.3296 15.9259 54.4143 15.8687 53.4417C15.8687 53.0985 16.2692 53.0985 16.3836 53.3845C16.7269 54.1854 16.6124 55.1008 17.1273 55.8445C16.9557 55.9017 16.784 55.9589 16.6124 55.9589C16.7268 54.7003 16.3264 53.4417 16.3836 52.1259C16.3836 51.8399 16.7268 51.7827 16.8984 52.0115C17.7566 53.2129 17.585 54.7003 17.9854 56.0733C17.8138 56.0733 17.6422 56.1305 17.4705 56.1305C17.3561 54.7003 17.0129 53.2701 17.299 51.7827C17.3562 51.4966 17.6994 51.5538 17.8138 51.7827C18.1571 52.698 18.3287 53.6706 18.672 54.5287C18.5003 54.5859 18.3287 54.6431 18.1571 54.6431C18.0999 53.8422 18.0998 52.9841 18.0426 52.1831C17.9854 51.6682 17.871 51.1534 18.0426 50.6957C18.0998 50.4669 18.4431 50.4669 18.5575 50.6957C19.0152 52.0687 19.1868 53.4989 19.5301 54.8719C19.3585 54.8719 19.1868 54.9292 19.0152 54.9292C19.0724 53.2701 18.6147 51.6682 18.8436 50.0092C18.9008 49.7231 19.244 49.7803 19.3584 50.0092C19.8733 51.325 20.0449 52.7552 20.2738 54.1282C20.1021 54.1282 19.9305 54.1854 19.7589 54.1854C19.5873 52.5836 19.0152 50.7529 19.6445 49.2083C19.7589 48.9794 20.045 49.0938 20.1022 49.2655C20.5599 50.7529 20.7886 52.2403 21.1319 53.7278C20.9603 53.7278 20.7886 53.785 20.617 53.785C20.6742 52.1259 20.5026 50.4096 20.6743 48.7506C20.6743 48.5217 21.0175 48.3501 21.1891 48.6362C21.8184 49.8948 21.6468 51.325 22.1617 52.5836C21.9901 52.5836 21.8184 52.5836 21.6468 52.5836C21.8184 51.4966 21.8757 50.4668 21.8184 49.3799C21.8184 49.0366 22.3333 49.0366 22.3333 49.3799C22.3333 49.8376 22.3333 49.7803 22.2761 50.1808C22.2189 50.5241 21.704 50.4096 21.8184 50.0664Z" fill="#00AEEF"/>
<path d="M14.0378 41.886C14.2095 42.8013 14.3239 43.7167 14.4384 44.5748C14.4956 44.918 13.9807 45.0325 13.9235 44.6892C13.7518 43.9455 13.523 43.259 13.1797 42.5725C13.3513 42.5725 13.523 42.5153 13.6374 42.5153C13.4086 43.3734 13.6947 44.2315 13.8091 45.0897C13.8663 45.4329 13.4086 45.5473 13.2942 45.2041C13.0653 44.346 12.7793 43.545 12.3789 42.8013C12.5505 42.8013 12.7221 42.7441 12.8365 42.7441C12.6649 43.7167 12.9509 44.6892 13.1797 45.6618C13.2369 46.005 12.7793 46.1194 12.6649 45.7762C12.3216 44.632 12.0928 43.4878 11.5779 42.4581C11.7495 42.4008 11.9212 42.3436 12.0928 42.3436C11.9784 43.7167 12.2072 45.0325 12.3216 46.4055C12.3216 46.6915 11.864 46.7487 11.8068 46.4627C11.5779 45.0325 11.2347 43.6022 10.4337 42.3436C10.6054 42.3436 10.7197 42.3436 10.8914 42.3436C10.5481 42.7441 10.8914 43.6594 11.0058 44.1743C11.1775 45.2613 11.4635 46.4055 11.4635 47.5497C11.4635 47.8357 11.0631 47.8929 10.9486 47.6069C10.4338 46.1766 10.3193 44.632 9.57562 43.3734C9.74724 43.3162 9.91888 43.259 10.0905 43.259C10.1477 44.6892 10.6053 46.0622 10.6053 47.4925C10.6053 47.7213 10.2049 47.8929 10.0905 47.6069C9.63284 46.4627 9.68999 45.0325 8.88907 44.0599C9.0607 44.0027 9.17514 43.9455 9.34677 43.8883C9.28956 45.1469 9.51842 46.4055 9.51842 47.7213C9.51842 48.0073 9.06074 48.0645 9.00353 47.7785C8.77469 46.8632 8.60303 45.9478 8.31698 45.0325C8.48861 45.0325 8.66025 44.9752 8.83188 44.9752C8.88908 45.8906 9.00354 46.8059 8.94633 47.7213C8.94633 47.9501 8.54586 48.1217 8.43144 47.8357C8.20261 47.3208 8.08815 46.6915 7.7449 46.1766C7.91652 46.1194 8.08816 46.0622 8.25979 46.0622C8.14537 46.8059 8.25979 47.5497 8.25979 48.2934C8.25979 48.5794 7.80211 48.6366 7.7449 48.3506C7.57327 47.7213 7.4589 47.0348 7.28727 46.4055C7.4589 46.4055 7.63054 46.3483 7.80216 46.3483C7.80216 46.7487 7.85934 47.1492 7.91655 47.5497C7.97376 47.8929 7.45887 48.0073 7.40166 47.6641C7.28724 47.2064 7.23006 46.8059 7.28727 46.3483C7.28727 46.0622 7.68774 46.005 7.80216 46.2911C8.031 46.9204 8.08816 47.6069 8.25979 48.2362C8.08816 48.2362 7.91652 48.2934 7.7449 48.2934C7.7449 47.5497 7.63048 46.8059 7.7449 46.0622C7.80211 45.8334 8.08816 45.6618 8.25979 45.9478C8.54583 46.4627 8.66029 47.0348 8.94633 47.6069C8.77471 47.6641 8.60307 47.7213 8.43144 47.7213C8.48865 46.8059 8.37419 45.8906 8.31698 44.9752C8.31698 44.6892 8.77467 44.632 8.83188 44.918C9.11792 45.8334 9.28959 46.7487 9.51842 47.6641C9.3468 47.6641 9.17516 47.7213 9.00353 47.7213C9.00353 46.4627 8.77467 45.2041 8.83188 43.8883C8.83188 43.6594 9.11795 43.545 9.28957 43.7167C10.1477 44.7464 10.0905 46.1766 10.6053 47.378C10.4337 47.4352 10.2621 47.4925 10.0905 47.4925C10.0905 46.0622 9.63282 44.6892 9.57562 43.259C9.57562 42.9729 9.91888 42.9157 10.0905 43.1446C10.8914 44.5176 11.0058 46.0622 11.5207 47.5497C11.3491 47.5497 11.1775 47.6069 11.0058 47.6069C11.0058 46.3483 10.6626 45.1469 10.4909 43.9455C10.4337 43.4306 10.2049 42.6297 10.5481 42.172C10.6626 42.0004 10.8914 42.0004 11.0058 42.172C11.8068 43.4306 12.15 44.918 12.3789 46.4055C12.2072 46.4055 12.0356 46.4627 11.864 46.4627C11.7495 45.0897 11.4635 43.7739 11.6351 42.4008C11.6351 42.172 11.9784 42.0004 12.15 42.2864C12.7221 43.3734 12.9509 44.5748 13.2942 45.719C13.1226 45.7762 12.9509 45.8334 12.7793 45.8334C12.5505 44.8036 12.2644 43.7167 12.436 42.6297C12.4933 42.4008 12.8365 42.4008 12.8937 42.5725C13.3513 43.3734 13.6374 44.2315 13.8663 45.1469C13.6946 45.2041 13.523 45.2613 13.3514 45.2613C13.237 44.2887 12.9509 43.3734 13.1797 42.4008C13.2369 42.172 13.5802 42.1148 13.6374 42.3436C13.9807 43.0874 14.2667 43.7739 14.4384 44.5748C14.2667 44.632 14.0951 44.6892 13.9235 44.6892C13.809 43.7739 13.6947 42.8585 13.523 42.0004C13.4658 41.6571 13.9806 41.5427 14.0378 41.886Z" fill="#00AEEF"/>
<path d="M41.8414 37.0808C41.8414 36.5087 41.6698 35.9938 41.4982 35.4789C41.3838 35.1357 41.8986 35.0212 42.0131 35.3073C42.2991 35.9938 42.4707 36.7375 42.6424 37.4812C42.4707 37.5384 42.2991 37.5956 42.1275 37.6529C41.9558 36.7947 41.6698 35.9366 41.5554 35.0785C41.4982 34.7352 42.0131 34.5636 42.0703 34.9068C42.2419 35.765 42.4135 36.6231 42.3563 37.5384C42.3563 37.8245 42.0131 37.9389 41.8414 37.6529C41.5554 37.1952 41.441 36.6231 41.0405 36.2226C41.2122 36.1654 41.3838 36.1082 41.4982 36.051C41.4982 37.7101 41.9559 39.2547 42.2419 40.8566C42.2991 41.1998 41.7842 41.3714 41.727 41.0282C41.4982 39.7124 41.1549 38.4538 40.5256 37.3096C40.6973 37.2524 40.8689 37.1952 41.0405 37.1952C41.1549 38.9115 41.727 40.5705 42.2419 42.2296C42.3563 42.5728 41.7842 42.7445 41.727 42.4012C41.3265 41.1426 40.8689 39.884 40.354 38.6826C40.5256 38.6254 40.6973 38.5682 40.8689 38.5682C40.7545 40.4561 41.8415 42.2296 42.4707 43.9458C42.5852 44.2319 42.1275 44.4035 41.9559 44.1747C41.1549 42.8589 40.6973 41.3142 39.9536 39.9412C40.1252 39.884 40.2968 39.8268 40.4684 39.8268C40.6973 41.6575 41.3838 43.3166 41.9559 45.0328C42.0703 45.3189 41.6126 45.5477 41.441 45.2617C40.64 43.7742 40.1824 42.1724 39.4387 40.6849C39.6103 40.6849 39.7819 40.6277 39.9536 40.6277C39.7819 41.5431 40.2968 42.5156 40.5828 43.3738C40.9261 44.3463 41.2694 45.3189 41.6698 46.2914C41.7842 46.5775 41.3265 46.8063 41.1549 46.5203C40.2968 44.9756 39.8964 43.2021 39.0382 41.6575C39.2099 41.6003 39.3815 41.4859 39.5531 41.4287C40.354 43.8314 41.1549 46.177 41.9559 48.5798C41.7842 48.637 41.6126 48.6942 41.441 48.7514C41.1549 47.4928 40.6401 46.2914 40.1824 45.1472C39.7819 44.2319 39.4959 43.2021 38.8666 42.4584C39.0382 42.4012 39.2099 42.344 39.3243 42.2868C39.4959 43.5454 40.0108 44.7468 40.354 45.9482C40.6973 47.1496 40.9833 48.4082 41.4982 49.5523C41.3266 49.6095 41.1549 49.6667 40.9833 49.6667C40.8689 47.3212 39.5531 45.2044 38.5233 43.0877C38.695 43.0305 38.8666 42.9161 39.0382 42.8589C39.8964 45.9482 40.8689 48.9802 41.9559 52.0123C41.7842 52.0695 41.6126 52.1267 41.441 52.1839C40.6973 49.2663 39.6103 46.463 38.3517 43.717C38.5233 43.6598 38.6949 43.5454 38.8666 43.4882C39.3242 45.09 39.9535 46.6919 40.4112 48.3509C40.8117 49.9528 41.1549 51.4974 41.7842 53.0421C41.6126 53.0993 41.441 53.1565 41.2693 53.2137C40.4112 50.1244 39.3815 47.0923 37.8941 44.2891C38.0657 44.2319 38.2373 44.1175 38.4089 44.0603C38.6377 45.4333 39.2099 46.7491 39.6103 48.0649C40.068 49.4379 40.4112 50.8681 40.8689 52.2412C40.6973 52.2984 40.5256 52.3556 40.354 52.4128C39.6675 49.3807 38.8094 46.2914 37.0931 43.6598C37.2647 43.6026 37.4364 43.5454 37.608 43.5454C37.608 44.6896 38.0657 45.7765 38.3517 46.8635C38.7522 48.2365 39.0954 49.6095 39.3815 50.9826C39.2098 51.0398 39.0382 51.097 38.8666 51.1542C38.6377 49.8956 38.2945 48.6942 37.8941 47.4928C37.5508 46.5203 37.2647 45.3761 36.5782 44.5751C36.7499 44.4607 36.8643 44.4035 37.0359 44.2891C37.5508 46.2914 38.3517 48.2365 38.981 50.2388C38.8094 50.296 38.6378 50.3533 38.4661 50.4105C38.1801 48.7514 37.7224 46.9207 36.6355 45.6049C36.8071 45.4905 36.9215 45.4333 37.0931 45.3189C37.4364 47.0351 38.2945 48.5798 38.3517 50.3533C38.3517 50.6393 37.9512 50.7537 37.8368 50.4677C36.9787 49.0375 36.9787 47.2068 35.7773 46.0626C35.949 46.0054 36.0634 46.0054 36.235 45.9482C35.9489 47.3784 36.9787 48.8658 37.2075 50.2388C37.2648 50.5249 36.8643 50.7537 36.6927 50.4677C36.1778 49.3235 36.1206 47.7789 35.148 46.9207C35.3196 46.8635 35.4913 46.8063 35.6057 46.7491C35.6057 47.7216 35.8345 48.6942 36.0634 49.6095C36.1206 49.8956 35.7201 50.1244 35.5485 49.8384C35.148 49.2091 34.9764 48.4654 34.8048 47.7789C34.9764 47.7216 35.148 47.6644 35.3197 47.6072C35.3769 47.7789 35.3768 48.0077 35.4341 48.1793C35.4913 48.5226 34.9764 48.6942 34.9192 48.3509C34.862 48.1793 34.862 47.9505 34.8048 47.7789C34.7476 47.4356 35.2625 47.264 35.3197 47.6072C35.4913 48.2937 35.6629 48.923 36.0061 49.5523C35.8345 49.6095 35.6629 49.724 35.4913 49.7812C35.2625 48.8086 35.0336 47.7789 35.0336 46.7491C35.0336 46.5203 35.3197 46.4058 35.4913 46.5775C36.521 47.4928 36.5782 49.0374 37.1503 50.2388C36.9787 50.296 36.8071 50.4105 36.6355 50.4677C36.4066 48.923 35.3769 47.4928 35.6629 45.891C35.7201 45.6621 36.0062 45.6049 36.1206 45.7765C37.3792 47.0351 37.3792 48.8658 38.2373 50.2961C38.0657 50.3533 37.894 50.4105 37.7224 50.4105C37.7224 48.6942 36.8071 47.2068 36.521 45.5477C36.4638 45.3189 36.8071 45.0328 36.9787 45.2617C38.1801 46.6347 38.695 48.5226 38.981 50.2961C39.0382 50.6393 38.5806 50.8109 38.4661 50.4677C37.8368 48.4654 37.0359 46.5203 36.521 44.5179C36.4638 44.2891 36.8071 44.0031 36.9787 44.2319C37.608 44.9756 37.894 45.891 38.2373 46.8063C38.7522 48.1793 39.1526 49.5523 39.4387 51.0398C39.4959 51.383 38.981 51.5547 38.9238 51.2114C38.6378 49.724 38.2373 48.2365 37.7796 46.7491C37.4936 45.7193 37.0931 44.6896 37.0931 43.6026C37.0931 43.3166 37.4936 43.2593 37.608 43.4882C39.3243 46.177 40.2396 49.2663 40.9261 52.3556C40.9833 52.6988 40.5256 52.8705 40.4112 52.5272C39.9535 51.1542 39.5531 49.724 39.1526 48.3509C38.7522 47.0351 38.1801 45.7193 37.9513 44.3463C37.894 44.0603 38.2945 43.8314 38.4661 44.1175C40.0108 46.9779 41.0405 50.0672 41.8987 53.2137C42.0131 53.557 41.4982 53.6714 41.3838 53.3853C40.7545 51.8407 40.4112 50.296 40.0107 48.6942C39.5531 47.0351 38.981 45.4905 38.4661 43.8314C38.4089 43.5454 38.8666 43.3166 38.981 43.6026C40.2396 46.4058 41.3838 49.2091 42.1275 52.1839C42.2419 52.5272 41.727 52.6416 41.6126 52.3556C40.5257 49.3235 39.5531 46.2914 38.695 43.2021C38.6377 42.9161 39.0954 42.6873 39.2098 42.9733C40.2396 45.1472 41.6126 47.3212 41.727 49.8384C41.727 50.1244 41.3266 50.2388 41.2122 49.9528C40.6973 48.7514 40.4112 47.4928 40.0107 46.2342C39.6675 44.9756 39.1526 43.717 38.981 42.4012C38.9238 42.1724 39.3242 42.0007 39.4387 42.2296C40.068 43.0305 40.4112 43.9459 40.8117 44.8612C41.3266 46.177 41.8986 47.4356 42.2419 48.8086C42.2991 49.1519 41.8414 49.3235 41.727 48.9802C40.9261 46.5775 40.1252 44.2319 39.3243 41.8291C39.2099 41.5431 39.6675 41.3142 39.8391 41.6003C40.6973 43.1449 41.1549 44.8612 41.9559 46.463C41.7842 46.5203 41.6126 46.6347 41.441 46.6919C40.9833 45.5477 40.5256 44.3463 40.1252 43.1449C39.8391 42.344 39.5531 41.6003 39.7247 40.7421C39.7819 40.5133 40.1252 40.4561 40.2396 40.6849C40.9261 42.1724 41.441 43.8314 42.2419 45.2617C42.0703 45.3189 41.8986 45.4333 41.727 45.4905C41.1549 43.717 40.4112 42.0007 40.1824 40.1701C40.1252 39.884 40.5828 39.8268 40.6973 40.0556C41.4982 41.4287 41.8986 42.9161 42.6996 44.2891C42.5279 44.3463 42.3563 44.4607 42.1847 44.5179C41.4982 42.7445 40.4684 40.9138 40.5828 38.9687C40.5828 38.7398 40.9833 38.5682 41.0977 38.8542C41.6698 40.1128 42.1275 41.4287 42.5279 42.7445C42.3563 42.8017 42.1847 42.8589 42.0131 42.9161C41.4982 41.1998 40.9261 39.5408 40.8117 37.7673C40.8117 37.4812 41.2122 37.3668 41.3266 37.6529C41.9559 38.8542 42.2991 40.1701 42.5851 41.5431C42.4135 41.6003 42.2419 41.6575 42.0703 41.7147C41.7842 40.0556 41.2693 38.4538 41.2693 36.7947C41.2693 36.5659 41.5554 36.3943 41.727 36.6231C42.1275 37.0808 42.2419 37.6529 42.5851 38.1677C42.4135 38.225 42.2419 38.2822 42.0703 38.2822C42.1275 37.424 41.9559 36.6231 41.7842 35.8222C41.9559 35.765 42.1275 35.7078 42.2991 35.6505C42.4707 36.5087 42.7568 37.3668 42.8712 38.2249C42.9284 38.5682 42.4135 38.7398 42.3563 38.3966C42.1847 37.6529 42.0131 36.9091 41.727 36.2226C41.8986 36.1654 42.0703 36.1082 42.2419 36.051C42.4135 36.6231 42.5851 37.1952 42.5851 37.8245C42.4135 37.424 41.8414 37.424 41.8414 37.0808Z" fill="#00AEEF"/>
<path d="M18.4431 20.7187C18.4431 20.9475 18.5002 21.1191 18.5574 21.2908C18.3858 21.2908 18.2142 21.348 17.9854 21.348C18.0426 20.9475 18.0426 20.6043 18.157 20.2038C18.2142 19.9177 18.6147 19.9177 18.6719 20.2038C18.7291 20.261 18.7863 20.3182 18.8435 20.4326C19.0151 20.261 19.4156 20.261 19.3584 20.547C19.3012 20.8331 19.244 21.0047 19.0723 21.2908C19.0151 21.4052 18.9007 21.4624 18.7291 21.4052C18.3286 21.2336 18.0426 21.0047 17.6993 20.7759C17.8137 20.7187 17.9282 20.7187 18.0998 20.6615C17.6994 21.2908 17.7565 21.9773 17.6993 22.6638C17.6993 22.9498 17.356 23.007 17.1844 22.7782C16.784 22.2061 16.5552 21.5196 16.1547 20.8903C16.3263 20.8903 16.498 20.8331 16.6696 20.8331C16.3263 21.9201 16.6696 23.0642 16.3836 24.2084C16.3263 24.4373 15.9831 24.4945 15.8687 24.2656C15.4682 23.4075 15.3538 22.4349 15.0105 21.5196C15.1822 21.5196 15.3538 21.5196 15.5254 21.5196C15.3538 22.8926 15.5254 24.2656 15.5826 25.6386C15.5826 25.9247 15.125 26.0391 15.0105 25.6959C14.7245 24.3801 14.6673 23.007 14.2668 21.7484C14.4384 21.7484 14.61 21.6912 14.8389 21.6912C14.8389 23.1787 15.1821 24.6661 15.0677 26.1535C15.0677 26.4396 14.5529 26.554 14.4956 26.2107C14.2668 24.7233 14.038 23.2359 13.4087 21.8629C13.5803 21.8056 13.7519 21.7484 13.9236 21.7484C13.7519 23.2931 14.0952 24.7805 14.2096 26.2679C14.2668 26.6112 13.6947 26.6112 13.6375 26.2679C13.4659 24.7805 12.951 23.4075 12.4933 21.9773C12.665 21.9773 12.8366 21.9201 13.0654 21.9201C13.0082 23.8652 13.1798 25.7531 13.1798 27.6982C13.1798 27.9842 12.7794 28.0986 12.665 27.8126C12.2645 27.1261 12.2073 26.3252 12.1501 25.5242C11.9785 24.2656 11.6352 23.007 11.0631 21.8629C11.2348 21.8056 11.4064 21.7484 11.578 21.7484C11.5208 22.8926 11.7496 23.9796 11.9784 25.0666C12.1501 26.0391 12.2073 27.0117 12.4933 27.927C12.3217 27.9842 12.1501 28.0414 11.9784 28.0986C11.6352 26.1535 11.0059 24.2656 10.3194 22.3777C10.491 22.3205 10.6627 22.2633 10.8343 22.2061C11.3492 24.6089 11.3492 27.1261 11.9213 29.5289C11.7496 29.5289 11.578 29.5861 11.3492 29.5861C11.2348 27.2405 10.491 24.9521 9.63291 22.721C9.80453 22.6638 9.97618 22.6066 10.1478 22.5494C10.4338 23.9796 10.6627 25.4098 10.9487 26.84C11.1776 27.927 11.5208 29.014 11.5208 30.1582C11.5208 30.5014 11.0632 30.5586 10.9487 30.2154C10.5483 28.7851 10.3194 27.3549 9.91895 25.9247C9.63291 24.8949 9.51848 23.6935 8.83197 22.8354C9.0036 22.7782 9.17524 22.721 9.34687 22.721C9.63291 25.1238 10.3194 27.4693 10.4338 29.8721C10.4338 30.1582 10.0334 30.2726 9.91895 29.9865C9.00361 28.0414 8.94638 25.8675 8.31708 23.808C8.48871 23.808 8.66033 23.7508 8.88917 23.7508C8.71754 25.6959 8.88917 27.7554 9.46126 29.6433C9.28963 29.6433 9.118 29.7005 8.88917 29.7005C8.83196 27.4693 8.14551 25.3526 7.51622 23.2359C7.68784 23.2359 7.85941 23.2359 8.03104 23.2359C7.745 25.4098 8.54597 27.4693 8.66039 29.6433C8.66039 29.9865 8.20272 30.0437 8.0883 29.7005C7.57343 27.8126 7.40174 25.8103 6.60082 23.9796C6.77245 23.9224 6.94409 23.8652 7.11572 23.8652C7.23013 25.4098 7.45895 26.8972 7.745 28.3847C7.80221 28.7279 7.28738 28.8996 7.23017 28.5563C6.7725 26.8972 6.88688 24.8377 5.6855 23.4647C5.85713 23.4075 6.02878 23.3503 6.1432 23.2931C6.08599 24.8949 6.372 26.4396 6.82967 27.9842C6.65805 28.0414 6.48641 28.0986 6.31478 28.1558C5.91432 26.7256 5.68554 25.2382 4.94183 23.9796C5.11345 23.9796 5.28502 23.9224 5.45665 23.9224C5.22782 25.0093 5.68548 26.1535 5.74269 27.2405C5.7999 27.5838 5.28502 27.5838 5.17061 27.2977C4.77015 26.2107 4.54133 25.0094 4.25528 23.8652C4.42691 23.8652 4.59853 23.808 4.82737 23.808C4.94179 24.7805 5.11344 25.6959 5.28507 26.6112C5.34228 26.9545 4.82738 27.1261 4.77017 26.7828C4.54134 25.9819 4.42694 25.1238 4.14089 24.3228C4.31252 24.3228 4.48415 24.2656 4.71298 24.2656C4.71298 25.2382 4.82741 26.1535 4.94183 27.0689C4.7702 27.1261 4.59856 27.1833 4.42694 27.2405C4.25531 26.0963 4.08368 25.0093 3.85485 23.9224C3.79764 23.5791 4.31253 23.4075 4.36974 23.7508C4.54137 24.4373 4.59856 25.1238 4.71298 25.8103C4.77019 26.1535 4.19809 26.3252 4.19809 25.9819C4.08367 25.2954 4.02648 24.6089 3.85485 23.9224C4.02648 23.8652 4.19812 23.808 4.36974 23.7508C4.59858 24.8377 4.7702 25.9819 4.94183 27.0689C4.99904 27.4121 4.48415 27.5838 4.42694 27.2405C4.25531 26.2679 4.14089 25.2382 4.14089 24.2656C4.14089 23.9224 4.59856 23.9224 4.71298 24.2084C4.99902 25.0093 5.11343 25.8675 5.34226 26.6684C5.17064 26.7256 4.999 26.7828 4.82737 26.84C4.65574 25.8675 4.4269 24.8949 4.31248 23.9224C4.25527 23.5791 4.77015 23.5791 4.88456 23.8652C5.17061 25.0094 5.3995 26.1535 5.79996 27.2977C5.62833 27.2977 5.45671 27.3549 5.22787 27.3549C5.11345 26.2107 4.65579 25.0666 4.94183 23.8652C4.99904 23.6363 5.34223 23.5791 5.45665 23.808C6.25757 25.1238 6.48641 26.6684 6.88687 28.1558C7.00128 28.4991 6.42925 28.6707 6.37204 28.3275C5.97158 26.7256 5.62829 25.1238 5.6855 23.4647C5.6855 23.2359 5.97157 23.0642 6.1432 23.2931C7.40179 24.7233 7.34459 26.84 7.80226 28.6135C7.63063 28.6707 7.45899 28.7279 7.28737 28.7851C7.00133 27.2405 6.71524 25.6959 6.60082 24.094C6.60082 23.808 7.0013 23.6935 7.11572 23.9796C7.91664 25.8675 8.14551 27.8698 8.66039 29.8721C8.48876 29.8721 8.31714 29.9293 8.0883 29.9293C7.97389 27.7554 7.17291 25.6386 7.45895 23.4075C7.51616 23.1215 7.91664 23.1787 7.97384 23.4075C8.60314 25.5814 9.28966 27.7554 9.34687 30.0437C9.34687 30.387 8.8892 30.387 8.77478 30.101C8.20269 28.1558 7.97387 26.0963 8.1455 24.0368C8.1455 23.7508 8.60317 23.6363 8.71758 23.9796C9.40409 25.9819 9.40406 28.0986 10.2622 29.9865C10.0906 30.0437 9.91892 30.101 9.7473 30.101C9.63288 27.6982 9.00364 25.3526 8.66039 22.9498C8.60318 22.6638 9.06079 22.6066 9.17521 22.8354C9.80451 23.6935 9.97616 24.7805 10.205 25.8103C10.6055 27.2977 10.8915 28.8424 11.292 30.387C11.1203 30.387 10.9487 30.4442 10.7199 30.4442C10.6627 29.2428 10.2622 28.0986 10.0906 26.8973C9.86177 25.5814 9.63291 24.2656 9.34687 23.007C9.28966 22.6638 9.74734 22.5494 9.86176 22.8354C10.7199 25.0666 11.5208 27.4121 11.6352 29.8149C11.6352 30.101 11.1775 30.2154 11.0631 29.8721C10.491 27.4693 10.491 24.9521 9.97615 22.5494C9.91894 22.2061 10.3766 22.0917 10.491 22.3777C11.1775 24.2656 11.8069 26.1535 12.1501 28.0986C12.2073 28.4419 11.6924 28.6135 11.6352 28.2703C11.3492 27.2405 11.2348 26.1535 11.0631 25.0666C10.8915 24.0368 10.6627 23.007 10.7199 21.9201C10.7199 21.634 11.1204 21.5196 11.2348 21.8056C11.7497 22.7782 12.0357 23.8652 12.2645 24.8949C12.4361 25.8103 12.3789 26.8973 12.8366 27.7554C12.665 27.8126 12.4933 27.8698 12.3217 27.8698C12.3217 25.9247 12.0929 24.0368 12.2073 22.0917C12.2073 21.7484 12.665 21.6912 12.7794 22.0345C13.2371 23.5219 13.7519 24.9521 13.9236 26.4968C13.7519 26.4968 13.5231 26.4968 13.3515 26.4968C13.2371 25.0093 12.8366 23.5219 13.0654 21.9773C13.1226 21.7484 13.4659 21.5768 13.5803 21.8629C14.2668 23.2931 14.5529 24.7805 14.7245 26.3252C14.5529 26.3252 14.3812 26.3824 14.1524 26.3824C14.2668 24.8949 13.9236 23.4075 13.9236 21.9201C13.9236 21.5768 14.3812 21.5768 14.4956 21.8629C14.8961 23.1787 14.9533 24.4945 15.2394 25.8103C15.0678 25.8103 14.8961 25.8675 14.6673 25.8675C14.6101 24.4373 14.4384 23.007 14.61 21.5768C14.6672 21.2908 15.0677 21.348 15.1249 21.5768C15.4682 22.4349 15.5826 23.3503 15.9259 24.1512C15.7542 24.1512 15.5826 24.2084 15.411 24.2084C15.697 23.1215 15.3538 21.9773 15.697 20.8331C15.7542 20.6043 16.0975 20.547 16.2119 20.7759C16.6124 21.348 16.8412 22.0345 17.2417 22.6638C17.0701 22.721 16.8984 22.7782 16.7268 22.7782C16.784 21.9773 16.7268 21.2336 17.1844 20.4898C17.2416 20.3754 17.4133 20.3182 17.5849 20.3754C17.871 20.547 18.3287 21.1764 18.3859 20.6043C18.5575 20.6615 18.7291 20.7187 18.9007 20.7187C18.3858 21.4052 17.8709 21.1763 17.6993 20.3754C17.8709 20.3754 18.0426 20.3754 18.2142 20.3754C18.157 20.7187 18.0998 21.0047 18.0426 21.348C18.0426 21.634 17.5849 21.7484 17.4705 21.4052C17.4133 21.1763 17.3561 20.9475 17.3561 20.6615C17.871 20.3754 18.4431 20.3754 18.4431 20.7187Z" fill="#00AEEF"/>
<path d="M25.8803 20.2041C26.0519 21.2911 26.7384 22.3208 27.2533 23.2362C27.0817 23.2934 26.8528 23.3506 26.6812 23.4078C26.7384 21.9204 25.3654 20.6046 24.9077 19.2316C24.7933 18.8883 25.3082 18.6595 25.4798 19.0027C26.1091 20.0897 26.624 21.2339 27.1388 22.378C27.5965 23.3506 27.8825 24.3804 28.6263 25.1241C28.4546 25.1813 28.2831 25.2957 28.1114 25.3529C27.9398 23.3506 26.338 21.7487 25.8803 19.8036C25.7659 19.4604 26.2807 19.2888 26.4524 19.5748C27.711 21.4627 28.3975 23.6366 29.5988 25.5245C29.4272 25.5818 29.1984 25.6962 29.0268 25.7534C28.7979 24.3804 28.0542 23.1218 27.4249 21.9204C26.9672 21.0622 26.3952 20.1469 26.4524 19.1743C26.4524 18.8883 26.7956 18.7167 26.9673 18.9455C28.0542 20.0897 28.5119 21.5771 29.3128 22.8929C29.7705 23.6939 30.2853 24.552 30.8002 25.3529C31.0863 25.8106 31.3151 26.4399 31.7728 26.7259C31.6011 26.8404 31.4867 26.9548 31.3151 27.0692C30.1709 24.2659 28.3403 21.806 27.3105 18.9455C27.1961 18.6023 27.711 18.3734 27.8826 18.7167C28.7407 20.4329 29.7133 22.1492 30.743 23.8083C31.5439 25.1813 32.2876 26.6687 33.5462 27.7557C33.3746 27.8701 33.203 27.9845 33.0314 28.1562C31.6011 25.0669 29.4844 22.3208 28.283 19.0599C28.1686 18.7739 28.5119 18.6023 28.7407 18.7167C29.37 19.0599 29.656 19.9181 29.9993 20.5474C30.6286 21.5771 31.2007 22.6069 31.7728 23.6366C32.3449 24.6092 32.8597 25.5245 33.4318 26.4399C33.8323 27.1264 34.4044 28.385 35.0337 28.8427C34.862 28.9571 34.7476 29.0715 34.576 29.1859C33.3174 25.639 30.5714 22.8357 29.1411 19.346C29.0267 19.0599 29.4844 18.8311 29.656 19.0599C31.0863 20.4901 31.83 22.378 32.8597 24.0943C34.1755 26.3827 35.4913 28.6138 36.9787 30.7878C36.8071 30.845 36.5783 30.9022 36.4067 30.9594C36.4639 30.3873 35.8346 29.472 35.6058 28.9571C35.3769 28.4422 35.1481 27.9845 34.9192 27.4697C34.4044 26.3827 33.8323 25.3529 33.2602 24.3232C32.8025 23.465 32.4021 22.5497 31.9444 21.6915C31.6011 21.0622 31.3151 20.4902 31.2579 19.7464C31.2579 19.4604 31.6011 19.346 31.7728 19.5176C33.203 20.7762 33.9467 22.7213 34.8048 24.3804C35.3769 25.4673 36.0062 26.6115 36.5783 27.6985C37.0359 28.4994 37.322 29.472 38.0085 30.1585C37.8369 30.2729 37.6653 30.3873 37.4936 30.4445C36.9215 28.0417 35.4341 25.8678 34.0611 23.8083C33.3746 22.7785 31.9444 21.1767 32.2304 19.8609C32.2876 19.6892 32.5165 19.5748 32.6881 19.6892C34.0039 20.6618 34.7476 22.1492 35.4913 23.5222C36.5783 25.4673 37.6653 27.4697 38.9238 29.3003C38.7522 29.3003 38.5234 29.3575 38.3518 29.3575C38.5234 28.7855 37.8369 27.8701 37.5508 27.4124C37.2648 26.9548 36.9787 26.4971 36.6927 26.0394C35.4341 24.0943 33.7751 22.3208 32.8025 20.1469C32.6881 19.8609 32.9169 19.5748 33.2602 19.6892C33.9467 20.0325 34.2327 20.719 34.6332 21.3483C35.2053 22.2636 35.7202 23.2362 36.235 24.2087C37.2076 26.0394 38.0085 28.1562 39.3815 29.7008C39.2099 29.8152 39.0382 29.9296 38.8666 30.1013C38.0085 28.0417 36.8071 26.1538 35.5485 24.2659C35.1481 23.6939 33.5462 21.6915 34.3472 20.9478C34.4616 20.8334 34.6904 20.8334 34.8048 20.9478C36.0062 22.0348 36.7499 23.4078 37.4364 24.838C38.0085 25.8678 38.4662 27.7557 39.4959 28.4422C39.3243 28.5566 39.1527 28.6138 39.0383 28.7283C39.2099 27.4697 38.3517 26.2683 37.7224 25.2385C37.0932 24.0943 36.235 23.1218 35.8346 21.8632C35.7774 21.5771 36.0634 21.3483 36.2922 21.5199C38.3517 22.8357 38.5806 25.5818 40.4113 27.1836C40.2396 27.298 40.068 27.4124 39.8964 27.4697C39.6104 26.1538 38.7522 24.838 38.0085 23.6939C37.4936 23.0073 36.8071 22.2064 36.8071 21.2911C36.8071 21.0622 37.0932 20.8906 37.2648 21.005C39.0955 22.3781 39.2671 24.838 40.7545 26.4399C40.5829 26.5543 40.4113 26.6687 40.2396 26.7259C39.9536 24.6092 38.409 23.0073 37.7797 21.005C37.7225 20.7762 38.0085 20.4902 38.2373 20.6618C38.9238 21.1194 39.3243 21.8632 39.6676 22.6069C40.1824 23.6367 40.8117 24.6664 41.441 25.639C41.2694 25.639 41.0978 25.639 40.8689 25.639C41.4982 24.6664 39.3815 22.6641 38.981 21.806C38.8094 21.4627 39.2099 21.1767 39.4959 21.4055C40.1252 21.9204 40.4685 22.6069 40.8689 23.2362C41.3266 24.0943 41.8987 24.8952 42.4136 25.6962C42.2419 25.8106 42.0703 25.925 41.8415 26.0394C41.6699 25.8106 41.4982 25.5245 41.3266 25.2957C41.0978 24.9525 41.6699 24.6664 41.8987 24.9525C42.0703 25.1813 42.2419 25.4673 42.4136 25.6962C42.6424 26.0394 42.0703 26.3827 41.8415 26.0394C41.3838 25.2957 40.869 24.552 40.4685 23.8083C40.068 23.1218 39.7248 22.3781 39.0955 21.8632C39.2671 21.7488 39.4387 21.6343 39.6104 21.4627C40.2397 22.6069 42.4136 24.4948 41.4982 25.925C41.3838 26.1538 41.0978 26.0966 40.9262 25.925C40.3541 25.1241 39.8392 24.2659 39.3815 23.4078C38.9811 22.6641 38.6378 21.7487 37.9513 21.2339C38.1229 21.1194 38.2373 21.005 38.409 20.8906C39.0383 22.8929 40.5829 24.4376 40.8689 26.6115C40.9261 26.8976 40.5829 27.1836 40.3541 26.8976C38.9238 25.3529 38.695 22.8929 36.9787 21.5771C37.1504 21.4627 37.322 21.4055 37.4364 21.2911C37.4364 22.2064 38.409 23.0646 38.8666 23.8083C39.5531 24.8952 40.2968 25.9822 40.5257 27.2408C40.5829 27.5841 40.2396 27.7557 40.0108 27.5269C38.2945 25.9822 38.0085 23.2362 36.0634 21.9776C36.235 21.8632 36.3495 21.7487 36.5211 21.6343C37.2648 23.9227 40.068 26.0966 39.782 28.671C39.782 28.8999 39.4959 29.1287 39.3243 28.9571C38.3518 28.2706 38.0085 26.9548 37.4936 25.925C36.6355 24.3232 35.8918 22.6069 34.5188 21.3483C34.6904 21.3483 34.8048 21.3483 34.9764 21.3483C34.6332 21.6915 36.5783 24.3232 36.8071 24.6664C37.8941 26.2683 38.8666 27.9845 39.6104 29.758C39.7248 30.0441 39.3815 30.4445 39.0955 30.1585C37.8941 28.7855 37.1504 27.0692 36.3495 25.4673C35.8918 24.6092 35.4913 23.7511 34.9764 22.8929C34.5188 22.092 33.8895 20.6618 33.0886 20.2041C33.2602 20.0325 33.3746 19.9181 33.5462 19.7464C34.5188 21.9776 36.235 23.8083 37.5508 25.8678C38.1229 26.7259 39.4959 28.3278 39.0955 29.4148C38.9811 29.7008 38.695 29.7008 38.5234 29.472C37.322 27.8129 36.3495 25.9822 35.3197 24.1515C34.5188 22.7213 33.8323 21.0622 32.4593 20.0897C32.6309 20.0325 32.7453 19.9753 32.9169 19.9181C32.7453 20.6618 33.489 21.5771 33.8323 22.1492C34.2327 22.7213 34.6332 23.2934 35.0337 23.9227C36.2923 25.8678 37.6081 27.8701 38.1801 30.1585C38.2374 30.4445 37.8941 30.7306 37.6653 30.4445C37.0932 29.8724 36.8071 29.1287 36.4067 28.385C35.8918 27.298 35.2625 26.2683 34.6904 25.2385C33.7178 23.465 32.9741 21.1194 31.3723 19.8036C31.5439 19.7464 31.7156 19.632 31.8872 19.5748C31.9444 20.4902 32.5737 21.2911 32.9741 22.092C33.489 23.1218 34.0039 24.1515 34.5188 25.1241C35.0337 26.1538 35.5485 27.1836 36.0634 28.2134C36.4067 28.9571 37.0932 29.8724 37.036 30.7306C37.036 31.0738 36.6355 31.131 36.4639 30.9022C35.0337 28.8427 33.7751 26.7259 32.5165 24.552C31.4867 22.7785 30.6858 20.719 29.1983 19.2888C29.37 19.1743 29.5416 19.0599 29.7132 19.0027C31.1435 22.4925 33.8895 25.2385 35.1481 28.8427C35.2625 29.0715 34.9192 29.3576 34.6904 29.1859C34.1755 28.8427 33.9467 28.3278 33.6035 27.8129C33.0314 26.8976 32.4593 25.9822 31.8872 25.0669C31.3151 24.0943 30.743 23.1218 30.2281 22.1492C29.9421 21.6343 29.6561 21.1195 29.3128 20.6046C29.084 20.2613 28.6263 19.1743 28.283 19.0027C28.4546 18.8883 28.5691 18.7739 28.7407 18.6595C29.8849 21.8632 32.0016 24.4948 33.4318 27.5841C33.6034 27.9273 33.203 28.2134 32.9169 27.9845C31.7728 26.9548 31.029 25.5818 30.2281 24.2659C29.1412 22.4925 28.1114 20.719 27.1388 18.8311C27.3105 18.7739 27.5393 18.6595 27.7109 18.6023C28.7407 21.4627 30.5714 23.9227 31.7155 26.7259C31.83 27.012 31.4867 27.1836 31.2579 27.0692C30.3425 26.6115 29.656 24.9525 29.1983 24.0943C28.283 22.5497 27.5965 20.5474 26.3379 19.2316C26.5095 19.1743 26.6812 19.0599 26.8528 19.0027C26.7956 20.0897 27.5965 21.1767 28.0542 22.092C28.569 23.179 29.1984 24.2087 29.4272 25.4101C29.4844 25.7534 29.0267 25.9822 28.8551 25.639C27.6537 23.7511 26.9672 21.5771 25.7086 19.6892C25.8803 19.632 26.1091 19.5176 26.2807 19.4604C26.7956 21.4627 28.3402 23.0646 28.5119 25.1813C28.5119 25.4673 28.1686 25.5818 27.997 25.4101C27.3105 24.6664 26.91 23.6939 26.5096 22.7785C25.9947 21.5771 25.3654 20.3185 24.7361 19.1743C24.9077 19.1171 25.1366 19.0027 25.3082 18.9455C25.7659 20.4329 27.1961 21.6343 27.0817 23.2934C27.0817 23.5794 26.624 23.7511 26.5096 23.465C25.9375 22.4925 25.251 21.4055 25.0793 20.2613C25.1938 19.9753 25.8231 19.8036 25.8803 20.2041Z" fill="#00AEEF"/>
<path d="M48.0198 15.9137C47.8482 14.8267 46.5896 13.797 45.8459 13.0533C44.9305 12.0807 43.958 11.1654 43.2715 10.0212C43.0999 9.73514 43.4431 9.4491 43.7291 9.56352C44.3012 9.79236 44.7589 10.4217 45.2166 10.8221C45.8459 11.4514 46.3608 12.0807 46.9329 12.7672C47.9054 13.9114 48.9924 14.9984 49.6217 16.3714C49.7933 16.6574 49.3928 17.0579 49.1068 16.7718C47.8482 15.456 46.704 14.083 45.5026 12.71C44.4729 11.5658 43.5575 10.1928 42.1845 9.4491C42.3562 9.27747 42.4706 9.16306 42.6422 8.99143C43.5575 10.8221 44.8161 12.424 45.9603 14.1402C46.8184 15.3988 47.9054 16.6574 48.2486 18.2021C48.3059 18.4881 47.9626 18.7742 47.7338 18.4881C46.1891 16.9435 45.045 15.17 43.5575 13.5681C42.2989 12.1951 40.8115 10.9365 39.9534 9.27748C39.7818 8.99143 40.1822 8.59096 40.4683 8.87701C41.6697 10.3072 42.6994 11.8519 43.7864 13.3965C44.9305 14.9984 46.1891 16.543 47.1617 18.3165C47.2761 18.5453 47.1045 18.8886 46.8184 18.7742C45.617 18.2593 44.8733 16.7146 44.1868 15.7421C42.9283 13.9114 41.3264 12.424 40.1822 10.5361C40.0106 10.1928 40.4111 9.96398 40.6971 10.1356C41.8985 11.051 42.6422 12.4812 43.4431 13.7398C44.5301 15.5133 45.7314 17.1723 46.8756 18.8886C46.704 19.003 46.5324 19.1174 46.3035 19.2318C45.617 17.9732 44.8733 16.7146 44.0724 15.5133C43.3859 14.5407 42.6994 13.5681 42.4134 12.3668C42.3561 12.1379 42.585 11.9091 42.8138 11.9663C43.5003 12.1379 43.9008 12.9388 44.3012 13.5109C44.9877 14.5979 45.5026 15.8565 46.418 16.8291C46.2463 16.9435 46.0747 17.0579 45.9031 17.1151C45.1594 14.7695 43.2143 12.8244 41.8413 10.8221C41.2692 10.0212 40.7543 9.22027 40.1822 8.47655C39.7818 7.90446 39.2669 7.33237 39.1525 6.64586C39.0952 6.35981 39.4957 6.07377 39.6673 6.35981C40.9259 7.96167 42.0129 9.62073 43.1571 11.2798C44.0152 12.5384 44.7017 14.1974 45.9603 15.17C45.7887 15.2844 45.617 15.3988 45.4454 15.5705C44.244 13.6826 42.9282 11.7947 41.6696 9.90677C40.8115 8.59097 39.6102 7.16074 39.6102 5.55889C39.6102 5.27285 39.9534 5.10122 40.125 5.33005C41.7841 7.33237 43.4431 9.33468 44.9305 11.3942C45.8459 12.6528 46.8756 14.884 48.4203 15.3988C48.3058 15.5705 48.1914 15.6849 48.077 15.8565C46.4752 12.1379 42.1845 9.96398 41.0404 6.01656C40.9832 5.73052 41.2692 5.55889 41.498 5.67331C42.9855 6.41702 43.958 7.90446 44.9877 9.16305C46.418 10.8221 47.8482 12.5384 49.3356 14.1974C49.164 14.2547 48.9924 14.3691 48.8207 14.4263C48.8779 13.5681 47.791 12.5956 47.2761 12.0235C46.5324 11.2798 45.8459 10.4789 45.2166 9.62073C44.5873 8.76259 43.958 7.90446 43.3859 7.04632C42.9854 6.47423 42.4706 5.78773 42.4134 5.04401C42.4134 4.75796 42.7566 4.64354 42.9282 4.81517C44.244 6.2454 45.4454 7.79004 46.5896 9.33468C47.5621 10.5933 48.3631 12.424 49.7933 13.2249C49.6217 13.3965 49.5072 13.5109 49.3356 13.6826C48.6491 12.0807 47.3333 10.7649 46.3035 9.4491C45.2738 8.1905 44.3013 6.9319 43.6148 5.44447C43.5003 5.21563 43.6148 4.9868 43.9008 4.9868C44.9878 4.9868 46.1319 6.9319 46.704 7.73283C47.9054 9.39189 48.9924 11.4514 50.6514 12.6528C50.4798 12.7672 50.3654 12.8816 50.1938 12.9961C49.5645 11.5086 48.363 10.25 47.4477 8.93422C46.5324 7.61841 45.6742 6.30261 44.9877 4.87238C44.9305 4.70075 44.9877 4.47192 45.1594 4.41471C46.1319 4.18587 47.1617 5.90214 47.6194 6.53144C48.5919 7.79004 49.3928 9.16306 50.4226 10.4217C50.2509 10.5361 50.0793 10.6505 49.9077 10.8221C48.8207 8.30492 47.0473 6.2454 46.0747 3.67099C45.9603 3.32774 46.3607 3.21332 46.5896 3.38495C48.2486 4.70075 48.5919 6.93191 49.9649 8.47655C49.7933 8.53376 49.6216 8.64818 49.45 8.70539C49.2212 6.76028 47.3905 5.38726 46.99 3.49936C46.9328 3.21332 47.2761 2.98448 47.5049 3.21332C48.7063 4.3575 49.2784 5.90214 50.3654 7.04632C50.1937 7.16074 50.0221 7.27516 49.8505 7.33237C49.45 5.95935 48.4203 4.92959 47.9626 3.55658C47.8482 3.21332 48.2487 3.04169 48.4775 3.27053C49.3928 4.01425 49.7933 5.10122 50.5942 5.95935C50.4226 6.07377 50.251 6.18819 50.0793 6.2454C49.6217 5.10122 48.7063 4.07146 48.7635 2.69844C48.7635 2.4696 49.0496 2.29798 49.2212 2.4124C50.1365 3.04169 50.4226 4.01424 51.0519 4.92959C50.8803 5.04401 50.7086 5.15843 50.4798 5.27285C50.0221 4.47192 49.3356 3.67099 49.3356 2.69844C49.3356 2.4124 49.7933 2.24077 49.9077 2.52681C49.9649 2.69844 50.0221 2.81286 50.0793 2.98449C50.1937 3.38495 49.6216 3.55657 49.45 3.15611C49.3928 3.04169 49.3928 2.98448 49.3356 2.87007C49.5072 2.81286 49.7361 2.75565 49.9077 2.69844C49.9077 3.55658 50.5942 4.30029 50.9947 4.9868C51.1663 5.33005 50.6514 5.6161 50.4226 5.33005C49.9077 4.58634 49.6216 3.61378 48.8207 3.04169C48.9924 2.92728 49.164 2.87007 49.2784 2.75565C49.2212 3.95704 50.1365 5.04401 50.5942 6.13098C50.7086 6.41703 50.251 6.64586 50.0793 6.41703C49.2784 5.55889 48.8207 4.47192 47.9626 3.7282C48.1342 3.61378 48.3059 3.49936 48.4775 3.44216C48.9352 4.75796 49.9077 5.84493 50.3654 7.21795C50.4798 7.50399 50.0221 7.73283 49.8505 7.50399C48.7635 6.3026 48.1342 4.75796 46.99 3.67099C47.1617 3.55657 47.3333 3.44216 47.5049 3.38495C47.9054 5.38726 49.7361 6.70307 49.9649 8.76259C50.0221 9.04864 49.6216 9.16306 49.45 8.99143C48.1342 7.44679 47.7338 5.15843 46.0747 3.89983C46.2463 3.78541 46.418 3.67099 46.5896 3.61378C47.5049 6.13098 49.2784 8.1905 50.3654 10.6505C50.4798 10.9365 50.1365 11.337 49.8505 11.051C49.1068 10.1356 48.4775 9.10585 47.791 8.1333C47.3333 7.504 46.8756 6.8747 46.3608 6.2454C46.1891 6.07377 45.5026 5.10122 45.2166 5.15843C45.2738 4.9868 45.331 4.87238 45.3882 4.70076C46.0747 6.2454 47.0472 7.67562 48.0198 9.10585C48.9351 10.3644 50.0221 11.5658 50.5942 12.9961C50.7086 13.2249 50.3654 13.5109 50.1365 13.3393C48.6491 12.1951 47.6765 10.4789 46.5896 8.99143C46.1319 8.36213 45.6743 7.73283 45.2166 7.16074C44.9305 6.81749 44.244 5.73052 43.7291 5.73052C43.8436 5.55889 43.9008 5.38726 44.0152 5.27285C44.8161 6.8747 45.9603 8.30492 47.1045 9.67794C48.077 10.8793 49.164 12.0807 49.7933 13.4537C49.9077 13.7398 49.6789 14.083 49.3356 13.9114C48.077 13.1677 47.3333 11.7375 46.5324 10.5933C45.2166 8.8198 43.8436 6.98911 42.3562 5.38726C42.5278 5.33005 42.6994 5.21563 42.871 5.15843C42.9282 5.95935 43.7292 6.76028 44.1868 7.38958C45.045 8.59097 45.8459 9.79235 46.8184 10.8793C47.6193 11.7947 49.5072 13.1105 49.3356 14.4835C49.3356 14.7123 48.9924 14.9412 48.8207 14.7123C47.3905 13.1677 46.0747 11.5086 44.6445 9.90677C43.5575 8.64818 42.585 7.04632 41.0404 6.30261C41.212 6.18819 41.3264 6.07377 41.498 5.95935C42.0701 7.96167 43.7864 9.56352 45.1022 11.1082C46.3608 12.5384 47.7338 13.8542 48.4775 15.6277C48.5919 15.8565 48.4203 16.1998 48.1342 16.0853C46.5896 15.5705 45.5598 13.7398 44.7017 12.4812C43.0999 10.1928 41.2692 8.01888 39.4957 5.84494C39.6674 5.78773 39.839 5.67331 40.0106 5.6161C40.0678 7.27516 41.3836 8.76259 42.2417 10.0784C43.3859 11.8519 44.6445 13.5109 45.7314 15.2844C45.9603 15.6277 45.5026 15.8565 45.2166 15.6849C44.1296 14.8267 43.5575 13.4537 42.7566 12.3095C41.5552 10.4789 40.2966 8.64817 38.9236 6.87469C39.0953 6.76028 39.2669 6.64586 39.4385 6.58865C39.6101 7.27516 40.1822 7.90446 40.5827 8.47655C41.212 9.39189 41.8413 10.3644 42.5278 11.2798C43.8436 13.1677 45.5026 14.884 46.1891 17.1151C46.3036 17.4012 45.8459 17.63 45.6743 17.4012C44.9305 16.6002 44.4729 15.6849 43.958 14.7695C43.672 14.1974 43.0427 12.8816 42.3562 12.71C42.4706 12.5956 42.6422 12.424 42.7566 12.3095C43.0427 13.5681 43.8436 14.5407 44.5301 15.5705C45.2738 16.6574 45.9603 17.8588 46.5896 19.003C46.7612 19.3463 46.2463 19.6895 46.0175 19.3463C44.9305 17.6872 43.7864 16.1426 42.6994 14.4835C41.8985 13.1677 41.1548 11.7375 39.8962 10.7649C40.0678 10.6505 40.2394 10.5361 40.4111 10.3644C41.4408 12.1379 42.9283 13.5681 44.1868 15.2272C44.8733 16.1426 45.617 17.8588 46.704 18.3737C46.5896 18.5453 46.4752 18.6597 46.3608 18.8314C45.4454 17.1723 44.3013 15.7421 43.2143 14.1974C42.0701 12.6528 41.0976 10.9937 39.839 9.50631C40.0106 9.39189 40.1822 9.27747 40.3539 9.10585C41.2692 10.8221 42.8138 12.0807 44.0724 13.5109C45.4454 15.0556 46.5896 16.7718 48.0198 18.2021C47.8482 18.3165 47.6766 18.4309 47.5049 18.4881C47.1617 16.9435 46.0175 15.6849 45.1594 14.3691C44.0724 12.71 42.871 11.1654 41.9557 9.39189C41.7841 9.10585 42.1273 8.8198 42.4134 8.93422C43.7864 9.62073 44.7017 10.9365 45.6743 12.0807C46.9328 13.5109 48.1342 14.9984 49.45 16.3714C49.2784 16.4858 49.1068 16.6002 48.9352 16.7718C48.3059 15.456 47.2761 14.4263 46.3608 13.2821C45.9031 12.71 45.4454 12.1379 44.9305 11.623C44.4729 11.1654 43.9008 10.4217 43.3287 10.1928C43.5003 10.0212 43.6147 9.90677 43.7864 9.73514C44.5873 11.1082 45.7887 12.1379 46.8756 13.3393C47.5049 14.083 48.4203 14.7695 48.5919 15.7993C48.7063 16.1426 48.077 16.3142 48.0198 15.9137Z" fill="#00AEEF"/>
<path d="M45.9605 19.9756C46.1321 19.9756 46.3037 20.0328 46.4181 20.0328C46.3037 20.2045 46.2465 20.3761 46.1321 20.4905C45.6744 19.3463 44.7591 18.4882 44.2442 17.4012C44.0726 17.1152 44.5303 16.7147 44.7591 17.0008C45.56 17.9733 46.1321 19.0031 46.5325 20.1472C46.647 20.4905 46.2465 20.6621 46.0177 20.4333C45.2739 19.804 44.7019 19.0603 44.0726 18.3166C44.2442 18.2021 44.4158 18.0877 44.5874 17.9161C45.1023 19.0603 45.846 20.0328 46.3609 21.177C46.4753 21.4058 46.1893 21.8063 45.9033 21.6347C45.1023 21.0626 44.5874 20.2044 44.0153 19.3463C44.187 19.2319 44.3586 19.1175 44.5874 19.0031C45.0451 19.9756 45.56 20.9482 45.9033 21.9207C46.0177 22.1496 45.6744 22.4356 45.4456 22.264C44.4158 21.5203 43.9582 20.3189 43.1 19.4035C43.2717 19.2891 43.4433 19.1747 43.6149 19.1175C44.0154 20.1472 44.5875 21.0626 45.2168 21.9207C45.3884 22.2068 44.9307 22.55 44.7019 22.3212C43.9581 21.5203 43.3861 20.5477 42.5851 19.804C42.7568 19.6896 42.9284 19.5752 43.1 19.5179C43.6149 20.7765 44.5874 21.7491 44.8735 23.0649C44.9307 23.2937 44.6447 23.5798 44.4158 23.4082C43.4433 22.7216 42.9856 21.6347 42.1275 20.8338C42.2991 20.7193 42.4707 20.6049 42.6424 20.4333C43.2144 21.6919 43.9582 22.8361 44.5302 24.0375C44.6447 24.3235 44.3014 24.724 44.0153 24.4379C43.2716 23.5226 42.6424 22.4928 41.7842 21.6919C41.9559 21.5775 42.1275 21.4631 42.2991 21.4058C42.5851 22.3784 43.1572 23.2365 43.3861 24.2663C43.4433 24.6095 43.1 24.7812 42.8712 24.5523C42.1275 23.923 41.6126 23.1221 41.0405 22.3212C41.2122 22.264 41.441 22.1496 41.6126 22.0923C41.8414 23.2365 42.5279 24.2091 42.6424 25.4105C42.6996 25.6965 42.2991 25.8109 42.1275 25.6393C41.727 25.2388 41.441 24.7812 41.1549 24.2663C40.9261 23.923 41.4982 23.5798 41.727 23.923C42.013 24.3807 42.2419 24.7812 42.5851 25.1816C42.4135 25.2388 42.2419 25.3533 42.0703 25.4105C41.8986 24.3235 41.2694 23.3509 41.0405 22.264C40.9833 21.9207 41.3838 21.7491 41.6126 22.0351C42.1847 22.7789 42.6424 23.5226 43.3289 24.1519C43.1572 24.2663 42.9856 24.3807 42.814 24.4379C42.5851 23.4654 42.013 22.55 41.727 21.5775C41.6126 21.2342 42.0131 21.0626 42.2419 21.2914C43.1572 22.0924 43.7293 23.1221 44.473 24.0375C44.3014 24.1519 44.1298 24.2663 43.9582 24.4379C43.3861 23.1793 42.6424 22.0351 42.0703 20.8338C41.8986 20.4905 42.2991 20.2045 42.5851 20.4333C43.3861 21.177 43.8438 22.2068 44.7591 22.8933C44.5875 23.0077 44.473 23.1221 44.3014 23.2365C44.0153 21.9207 43.0428 20.891 42.5279 19.6896C42.4135 19.3463 42.8712 19.1747 43.0428 19.4035C43.901 20.1472 44.473 21.0626 45.1595 21.9207C44.9879 22.0351 44.8163 22.1496 44.6447 22.3212C44.0154 21.3486 43.4433 20.3761 42.9856 19.3463C42.8712 19.0603 43.3289 18.8314 43.5005 19.0603C44.3014 19.9184 44.7591 21.1198 45.7316 21.8063C45.56 21.9207 45.4456 22.0351 45.2739 22.1496C44.9307 21.177 44.473 20.2617 44.0153 19.3463C43.8437 19.0031 44.3014 18.717 44.5874 19.0031C45.1023 19.6896 45.5028 20.5477 46.2465 21.0626C46.0749 21.2342 45.9605 21.3486 45.7888 21.5203C45.274 20.3761 44.5302 19.4035 44.0153 18.2593C43.9009 17.9733 44.2442 17.5728 44.5302 17.8589C45.1595 18.6026 45.7316 19.3463 46.4753 19.9756C46.3037 20.09 46.1321 20.2045 45.9605 20.2617C45.6172 19.2319 45.0451 18.2593 44.3586 17.4012C44.5302 17.2868 44.7019 17.1724 44.8735 17.0008C45.4456 18.0877 46.3037 19.0031 46.7614 20.09C46.8758 20.3189 46.7614 20.5477 46.4753 20.5477C46.1321 20.5477 46.1321 20.5477 45.846 20.4905C45.3884 20.4905 45.56 19.9184 45.9605 19.9756Z" fill="#00AEEF"/>
<path d="M28.1112 16.3712C28.6261 16.9433 28.9693 17.5726 29.3698 18.2591C29.9419 19.2316 30.6856 20.0898 31.4293 20.9479C31.2577 21.0623 31.0861 21.1767 30.9144 21.3484C29.8275 19.8037 28.7405 18.2019 27.9968 16.4284C27.8824 16.1423 28.34 15.9135 28.5117 16.1423C29.9419 17.8014 30.8 19.9753 32.6879 21.2339C32.5163 21.4056 32.4019 21.52 32.2302 21.6916C31.3721 19.6893 29.3698 18.2591 29.141 15.9707C29.141 15.6847 29.427 15.6275 29.5986 15.6847C30.3996 16.0851 30.9144 17.0577 31.3721 17.8014C32.0586 18.9456 32.8595 20.0898 33.8893 20.9479C33.7177 21.0623 33.546 21.1767 33.3744 21.2339C32.6307 19.06 30.8572 17.4581 30.1135 15.3414C29.9991 14.9982 30.514 14.8265 30.6856 15.1126C32.173 17.0005 33.0884 19.4605 35.0907 20.8335C34.919 20.9479 34.7474 21.0051 34.633 21.1195C34.7474 20.3758 33.9465 19.5177 33.546 18.9456C33.2028 18.4879 32.9167 17.973 32.5735 17.4581C32.0014 16.5428 30.8572 15.0554 31.2005 13.854C31.2577 13.6823 31.4865 13.5679 31.6581 13.6823C32.4019 14.1972 32.9167 14.9409 33.3744 15.6847C34.0609 16.7716 34.8618 17.8586 35.6628 18.8884C35.4911 19.0028 35.3195 19.1172 35.1479 19.2888C34.4041 17.8586 33.546 16.4856 32.6879 15.1126C32.1158 14.2544 31.4865 13.3963 31.4865 12.3665C31.4865 12.1949 31.6581 12.0233 31.8298 12.0233C33.6604 12.1949 33.4888 14.8265 34.919 15.4558C34.7474 15.5702 34.633 15.6847 34.4614 15.7991C34.2326 14.0256 32.6879 12.8242 32.1158 11.2224C32.0014 10.9363 32.3446 10.7647 32.5735 10.8791C34.0037 11.5656 34.633 13.1675 35.6628 14.3116C35.4911 14.4261 35.3195 14.5405 35.1479 14.5977C34.8618 12.9386 33.0884 12.0805 32.6879 10.4786C32.6307 10.1926 32.9167 10.021 33.1456 10.1354C34.2325 10.6503 34.8618 11.7372 35.7772 12.5382C35.6056 12.6526 35.4339 12.767 35.2623 12.9386C34.6902 11.6228 33.4888 10.7647 33.0884 9.39167C33.0312 9.16283 33.3172 8.87679 33.546 9.04842C34.633 9.84934 35.3195 10.9935 36.1776 12.0233C36.006 12.1377 35.8344 12.2521 35.6628 12.4237C35.0335 11.1652 33.7177 10.2498 33.4888 8.81958C33.4316 8.59074 33.7177 8.24749 33.9465 8.47633C35.0907 9.33446 35.7772 10.6503 36.8069 11.68C36.6353 11.7944 36.4637 11.9089 36.292 11.9661C35.7199 10.5359 34.633 9.39167 34.2897 7.90424C34.2325 7.61819 34.5758 7.33215 34.8046 7.61819C35.9488 8.81958 36.5781 10.4214 37.8367 11.5656C37.665 11.6228 37.4934 11.7372 37.3218 11.7944C37.379 10.2498 35.7772 9.22004 35.5483 7.6754C35.4911 7.38936 35.7772 7.16052 36.006 7.33215C37.3218 8.01866 37.5506 9.5633 38.5232 10.5931C38.3516 10.7075 38.1799 10.8219 38.0083 10.8791C37.7222 9.33446 36.006 8.3047 36.006 6.64564C36.006 6.35959 36.3493 6.24518 36.5209 6.4168C37.7795 7.56098 38.1227 9.33446 39.4385 10.4214C39.2669 10.4786 39.0953 10.5359 38.9237 10.5359C39.0953 9.90655 38.4088 8.81958 38.1799 8.19028C37.8367 7.33215 37.5506 6.47401 37.379 5.55867C37.3218 5.32983 37.4934 5.1582 37.6651 5.1582C38.2944 5.1582 38.8664 6.81727 39.0953 7.27494C39.6674 8.3047 40.1822 9.84934 41.1548 10.6503C40.9831 10.7075 40.8115 10.8219 40.6399 10.8791C40.8115 9.27725 39.4957 7.90424 39.0381 6.47401C38.9809 6.24518 39.2669 5.95913 39.4957 6.13076C40.0678 6.53122 40.2394 7.21773 40.5827 7.78982C41.212 8.934 42.0129 9.96376 42.6994 10.9935C42.9282 11.2796 42.4706 11.6228 42.1846 11.394C41.6697 10.8219 41.212 10.1926 40.7543 9.5633C40.5827 9.27725 40.926 8.99121 41.212 9.10563C41.9557 9.5633 42.4706 10.2498 43.0427 10.9363C43.3287 11.2224 42.871 11.68 42.585 11.394C42.0701 10.7647 41.6125 10.0782 40.926 9.67772C41.0976 9.50609 41.212 9.39167 41.3836 9.22004C41.8413 9.79213 42.2418 10.3642 42.7566 10.9363C42.585 11.0507 42.4134 11.1652 42.2417 11.3368C41.6125 10.4214 40.926 9.50609 40.3539 8.53354C40.0106 8.01865 39.7818 7.10331 39.2669 6.70285C39.4385 6.58843 39.5529 6.47401 39.7246 6.35959C40.2394 7.84703 41.5553 9.22004 41.3264 10.9363C41.2692 11.2224 40.9832 11.3368 40.8115 11.1651C40.0678 10.5359 39.6101 9.39167 39.1525 8.59074C38.8664 8.01865 38.5232 7.44656 38.2371 6.87447C38.1227 6.64564 38.0083 6.4168 37.8939 6.24518C37.7795 6.07355 37.5506 5.90192 37.7795 5.90192C37.8939 5.7875 38.0083 5.61587 38.0655 5.50146C38.2944 6.64564 38.6948 7.78982 39.1525 8.81958C39.4385 9.44888 39.7818 10.0782 39.6102 10.7647C39.553 10.9935 39.2669 11.0507 39.0953 10.8791C37.8367 9.73492 37.4934 7.96144 36.1776 6.87447C36.3493 6.81726 36.5209 6.70285 36.6925 6.64564C36.6353 8.19028 38.3516 9.22005 38.6376 10.7075C38.6948 10.9935 38.3516 11.2796 38.1227 10.9935C37.2074 10.0782 36.9213 8.47633 35.7199 7.84703C35.8916 7.73261 36.006 7.61819 36.1776 7.50377C36.4065 9.10562 38.0655 10.0782 38.0083 11.7944C38.0083 12.0805 37.6651 12.1949 37.4934 12.0233C36.2348 10.8791 35.6056 9.27725 34.4614 8.07586C34.633 7.96144 34.8046 7.84703 34.9762 7.78982C35.3767 9.27725 36.4637 10.4214 36.9785 11.8517C37.093 12.1377 36.6353 12.3665 36.4637 12.1377C35.4911 11.1652 34.8618 9.90655 33.7176 9.04842C33.8893 8.934 34.0037 8.81958 34.1753 8.70516C34.4042 10.0782 35.6627 10.9363 36.292 12.1377C36.4637 12.4237 36.0632 12.8242 35.7772 12.5382C34.9763 11.5656 34.2897 10.4214 33.26 9.62051C33.4316 9.50609 33.546 9.39167 33.7176 9.27725C34.1181 10.5931 35.3195 11.4512 35.8344 12.6526C35.9488 12.9958 35.6056 13.2819 35.3195 13.053C34.5186 12.2521 33.8893 11.2224 32.8595 10.7075C33.0311 10.5931 33.1456 10.4786 33.3172 10.3642C33.7177 11.9661 35.4911 12.8242 35.7772 14.4833C35.8344 14.7693 35.4911 15.0554 35.2623 14.7693C34.2897 13.6823 33.6604 12.0805 32.2874 11.4512C32.4591 11.3368 32.5735 11.2224 32.7451 11.1079C33.3172 12.767 34.8618 13.9112 35.0907 15.6847C35.1479 15.9707 34.919 16.1423 34.633 16.0279C33.3744 15.4558 33.26 12.8242 31.8298 12.6526C31.9442 12.5382 32.0586 12.4237 32.173 12.3093C32.173 13.3963 33.0311 14.3689 33.546 15.227C34.2897 16.4284 35.0334 17.6298 35.7199 18.8884C35.8916 19.1744 35.4339 19.5749 35.2051 19.2888C34.5186 18.4307 33.8893 17.5726 33.26 16.7144C32.6879 15.8563 32.173 14.8265 31.3149 14.1972C31.4865 14.14 31.6009 14.0828 31.7726 14.0256C31.4293 15.1698 33.0312 17.0005 33.6033 17.9158C34.1753 18.8312 35.3195 19.9753 35.2051 21.1195C35.2051 21.3484 34.9191 21.52 34.7474 21.4056C32.6307 19.9181 31.6581 17.4581 30.1135 15.4558C30.2851 15.3986 30.514 15.2842 30.6856 15.227C31.4293 17.4009 33.2028 19.0028 33.9465 21.1195C34.0609 21.4628 33.6604 21.6344 33.4316 21.4056C32.5163 20.6618 31.7726 19.6893 31.1433 18.6595C30.6284 17.8586 30.1707 16.6572 29.3126 16.2568C29.4842 16.1423 29.6558 16.0851 29.7702 15.9707C29.9419 18.0874 32.0014 19.4605 32.8023 21.3484C32.9167 21.6344 32.6879 21.9777 32.3447 21.806C30.3996 20.5474 29.5414 18.3735 28.054 16.6572C28.2256 16.5428 28.3972 16.4284 28.5689 16.3712C29.2554 18.0874 30.3423 19.6321 31.4293 21.1195C31.6581 21.4056 31.1433 21.806 30.9144 21.52C30.2851 20.8335 29.713 20.0898 29.1981 19.346C28.6833 18.5451 28.2828 17.6298 27.6535 16.9433C27.3675 16.5428 27.8252 16.0851 28.1112 16.3712Z" fill="#00AEEF"/>
<path d="M28.9123 47.8933C26.0519 45.891 23.4204 43.6027 20.6743 41.4287C19.2441 40.2845 17.8139 39.1976 16.3264 38.1106C14.8962 37.138 13.3516 36.3943 11.9786 35.4218C11.3493 34.9641 11.9786 33.9343 12.6079 34.392C13.9809 35.3646 15.5828 36.1083 16.9558 37.0808C18.3288 38.0534 19.6446 39.0831 20.9604 40.1129C23.8208 42.3441 26.5668 44.7468 29.5417 46.8636C30.171 47.264 29.5416 48.351 28.9123 47.8933Z" fill="white"/>
<path d="M37.1503 36.7952C36.0634 35.4222 34.6332 34.4496 33.3174 33.4198C31.8872 32.3329 30.457 31.1315 28.9695 30.0445C27.4249 28.9575 25.823 27.9278 24.2784 26.8408C22.9054 25.8683 21.3035 25.0101 19.9877 23.9231C19.4157 23.4083 20.2738 22.5501 20.8459 23.065C22.2189 24.2664 23.9923 25.1817 25.4798 26.2115C27.0244 27.2985 28.6263 28.271 30.1709 29.4152C31.6011 30.5022 32.9741 31.6464 34.4043 32.7333C35.6629 33.7059 36.9787 34.6784 37.9513 35.937C38.5234 36.5663 37.6652 37.4245 37.1503 36.7952Z" fill="white"/>
<path d="M38.2374 36.3948C35.4342 40.1134 32.6882 43.8892 30.3998 48.0083C29.9994 48.6948 28.9696 48.0655 29.3701 47.379C31.6584 43.3171 34.3472 39.4841 37.2077 35.7655C37.6653 35.1362 38.6951 35.7655 38.2374 36.3948Z" fill="white"/>
<path d="M20.9605 23.8644C20.5028 24.837 19.6447 25.5807 19.0154 26.4388C18.3289 27.4114 17.6423 28.3839 16.8986 29.2993C16.1549 30.2718 15.4684 31.2444 14.7819 32.2169C14.0954 33.1895 13.2945 34.0476 12.8368 35.1346C12.5508 35.8783 11.4639 35.249 11.8071 34.5053C12.2648 33.4183 13.0657 32.5602 13.7522 31.5877C14.4387 30.6151 15.1824 29.6425 15.8689 28.67C16.5554 27.6974 17.2991 26.7821 17.9856 25.8095C18.6149 24.9514 19.473 24.2077 19.9307 23.2351C20.2168 22.5486 21.2465 23.1779 20.9605 23.8644Z" fill="white"/>
<path d="M38.8095 33.7614C40.9834 30.901 43.1573 28.0977 45.274 25.2373C47.3335 22.4341 49.107 19.402 50.8233 16.3699C51.2237 15.6834 52.2535 16.3127 51.853 16.9992C50.0795 20.0313 48.3633 23.0061 46.3038 25.8666C44.1871 28.727 42.0131 31.5303 39.8392 34.3907C39.4387 35.02 38.3518 34.3907 38.8095 33.7614Z" fill="white"/>
<path d="M50.8803 16.5993C50.8803 13.9677 51.338 11.3361 51.338 8.70447C51.3952 6.01565 50.8803 3.32682 50.6515 0.637997C50.8803 0.809624 51.1663 1.03846 51.3952 1.21009C48.0198 1.83939 44.759 3.04078 41.4981 4.18496C39.8962 4.75705 38.2944 5.27193 36.6925 5.84402C36.006 6.07286 35.1479 6.24448 34.5758 6.64494C34.0037 7.10261 33.4889 7.73191 33.0312 8.304C30.9717 10.8784 29.1982 13.7389 27.1959 16.3705C26.395 17.4002 25.7085 18.4872 24.9648 19.5742C24.4499 20.4323 23.8206 21.2904 22.9625 21.8625C22.276 22.263 21.7038 21.2332 22.3331 20.8328C23.3629 20.2035 23.935 18.8877 24.5643 17.9151C25.3652 16.5993 26.395 15.4551 27.3103 14.1965C29.1982 11.7365 30.7428 8.87609 32.8595 6.58773C33.8321 5.50076 34.6902 5.15751 36.0632 4.75705C37.6651 4.24217 39.2669 3.67008 40.8688 3.09799C44.2441 1.8966 47.6194 0.695207 51.1663 0.00869934C51.5668 -0.0485097 51.9101 0.180326 51.9101 0.580789C52.1389 3.26961 52.5965 5.95843 52.5965 8.64726C52.5393 11.2789 52.1389 13.9105 52.1389 16.5421C52.0817 17.343 50.8803 17.343 50.8803 16.5993Z" fill="white"/>
<path d="M39.6674 11.7361C41.8985 11.9077 43.6148 14.0244 44.0153 16.1412C44.3585 18.0863 43.386 20.0886 41.6697 21.0611C37.7795 23.2923 32.2875 19.8025 34.347 15.2258C35.2624 13.1663 38.2944 10.3059 40.5255 12.1938C41.0976 12.7086 40.2395 13.5668 39.6674 13.0519C38.6377 12.1938 37.093 13.5096 36.4637 14.2533C35.6628 15.1114 35.0335 16.2556 35.1479 17.457C35.3195 19.5165 37.4363 20.7751 39.3242 20.6035C40.926 20.4891 42.4134 19.4021 42.8139 17.743C43.2716 15.8551 41.7841 13.1663 39.7246 12.9947C38.9237 12.8803 38.8665 11.6789 39.6674 11.7361Z" fill="white"/>
<path d="M31.2007 42.9139C31.2579 43.3144 31.1434 43.0284 30.9146 42.8567C30.6858 42.6851 30.3997 42.5707 30.1709 42.3991C29.656 42.113 29.1411 41.827 28.6262 41.5981C27.196 40.8544 25.823 39.8819 24.5072 38.9093C23.0198 37.7651 21.5896 36.4493 20.1594 35.1907C18.5003 33.8177 16.7841 32.5591 15.0678 31.2433C14.4385 30.7856 15.0678 29.6987 15.6971 30.2135C17.4133 31.5293 19.1868 32.7879 20.8459 34.2182C22.6193 35.7056 24.2784 37.3075 26.1091 38.6233C27.3677 39.5386 28.7407 40.2823 30.1137 41.026C30.8574 41.4265 32.2304 41.9414 32.3448 42.9139C32.5165 43.7149 31.3151 43.7149 31.2007 42.9139Z" fill="white"/>
<path d="M42.2989 33.2479C42.9854 33.4767 42.8138 32.9047 42.585 33.4195C42.5278 33.5912 42.299 33.7628 42.1845 33.9344C41.8413 34.3921 41.5552 34.8498 41.212 35.3074C40.5827 36.28 39.9534 37.2525 39.3813 38.2823C37.5506 41.5432 35.9488 44.9757 33.6604 48.0078C33.2028 48.6371 32.1158 48.0078 32.6307 47.3785C35.2051 43.946 36.9785 39.9986 39.1525 36.28C39.6673 35.3646 40.2967 34.5065 40.9259 33.5912C41.212 33.1335 41.8413 31.8749 42.585 32.1037C43.3859 32.3326 43.0426 33.4767 42.2989 33.2479Z" fill="white"/>
<path d="M43.6722 32.9603C44.187 34.5622 43.8438 36.2785 43.7294 37.9375C43.5577 40.1115 43.5577 42.2282 43.5577 44.4021C43.5577 46.4045 43.7294 48.4068 43.7294 50.4663C43.7294 52.3542 43.615 54.2421 44.1298 56.0728C44.3015 56.6449 43.5578 57.0453 43.1001 56.6449C41.441 55.043 39.6676 53.5556 37.7797 52.2398C35.949 50.9812 34.0611 49.8942 32.4021 48.4068C31.83 47.8919 32.6881 47.0338 33.2602 47.5486C35.0337 49.1505 37.0932 50.2375 38.9811 51.6105C40.7545 52.8691 42.3564 54.2993 43.9582 55.7867C43.615 55.9584 43.2717 56.1872 42.9285 56.3588C42.4136 54.6426 42.4136 52.8691 42.4708 51.0956C42.4708 49.0933 42.3564 47.1482 42.3564 45.2031C42.2992 43.0291 42.3564 40.798 42.4708 38.624C42.528 36.8506 43.0429 34.9627 42.4708 33.2464C42.242 32.5599 43.4433 32.2166 43.6722 32.9603Z" fill="white"/>
<path d="M21.8184 20.0888C19.4156 21.519 17.7566 23.8645 16.1547 26.0957C14.6101 28.3268 12.6078 30.3864 11.292 32.7892C10.9487 33.4184 9.97613 32.8464 10.3194 32.2171C11.0059 30.9585 11.9213 29.8715 12.7794 28.7273C13.7519 27.5259 14.6101 26.2673 15.5254 25.0087C17.0701 22.7776 18.7863 20.5464 21.189 19.1162C21.8755 18.7729 22.3905 19.7455 21.8184 20.0888Z" fill="white"/>
<path d="M9.91899 32.6746C9.86178 31.9881 8.48876 31.0728 7.97388 30.6151C6.7725 29.5853 5.51389 28.6128 4.31251 27.583C3.28275 26.7249 2.19583 25.8668 1.28049 24.837C0.822824 24.2649 0.193487 23.464 0.593947 22.7203C0.9372 22.091 1.90979 22.6631 1.56654 23.2924C1.39491 23.5784 2.76792 24.7798 2.99675 25.0658C4.08372 26.0956 5.2279 27.0109 6.37208 27.9263C7.45904 28.7844 8.54599 29.6998 9.57575 30.6151C10.1478 31.1872 10.8916 31.8165 10.9488 32.6746C11.1204 33.3611 10.0334 33.3611 9.91899 32.6746Z" fill="white"/>
<path d="M20.9601 19.7467C20.9601 20.2043 21.2461 19.9755 20.7312 20.0899C20.4452 20.1471 20.1591 20.1471 19.8731 20.1471C19.2438 20.2043 18.6717 20.3188 18.0424 20.4332C16.4977 20.7192 14.9531 21.0625 13.4085 21.4629C11.2918 21.9778 9.11789 22.4355 6.94396 22.7215C5.74258 22.8932 4.54117 23.0076 3.33978 23.2364C2.36724 23.408 1.50909 23.6941 0.536547 23.6941C-0.149956 23.6941 -0.207165 22.5499 0.536547 22.6071C1.79514 22.6643 3.05373 22.2066 4.25511 21.9778C5.62812 21.749 7.00111 21.6346 8.31691 21.4057C10.9485 21.0053 13.4657 20.2615 16.0401 19.7467C17.0126 19.5178 21.9326 18.0876 21.9898 19.8039C22.1042 20.4332 20.9601 20.4332 20.9601 19.7467Z" fill="white"/>
<path d="M10.6054 48.809C8.37428 49.5528 6.14316 51.269 3.68319 51.0974C3.28273 51.0402 3.05394 50.6969 3.22556 50.2965C4.08369 48.3514 5.85712 47.0928 7.40175 45.6053C7.51617 45.8914 7.63063 46.1774 7.80225 46.5207C6.71529 46.4635 5.62827 46.5779 4.59851 46.9212C4.02643 47.0928 3.79765 46.4063 4.08369 46.063C5.34228 44.404 7.11574 43.317 9.00362 42.5733C8.94641 42.9165 8.94637 43.2026 8.88916 43.5458C8.20266 43.2598 7.51618 43.0881 6.77247 42.9737C6.25759 42.9165 6.31483 42.23 6.65808 42.0012C9.00363 40.3421 12.0357 41.4291 14.4384 40.1705C14.6673 40.0561 15.0105 40.1133 15.1821 40.3421C16.784 42.9165 16.0403 46.7495 14.3812 49.0951C14.1524 49.4383 13.5231 49.4383 13.4087 48.9807C13.237 48.0653 13.3515 47.0356 12.7794 46.2346C13.1226 46.1774 13.4086 46.1774 13.7519 46.1202C12.7793 48.5802 10.8343 50.4109 9.00362 52.2416C8.66037 52.5848 8.14551 52.2988 8.0883 51.8411C8.03109 50.4109 9.11801 49.4383 9.40405 48.1225C9.57568 47.436 10.5483 47.7221 10.4338 48.4086C10.1478 49.61 9.0608 50.5825 9.11801 51.8411C8.83197 51.7267 8.54594 51.6123 8.20269 51.4407C9.91895 49.7816 11.8069 48.0653 12.665 45.8342C12.8366 45.3765 13.3515 45.3193 13.6375 45.7198C14.324 46.6351 14.1524 47.6077 14.3812 48.6946C14.038 48.6374 13.7519 48.6374 13.4087 48.5802C14.8389 46.5207 15.5826 43.1454 14.2096 40.857C14.4384 40.9142 14.6673 40.9714 14.9533 41.0286C12.4934 42.2872 9.40404 41.2003 7.1729 42.8593C7.11569 42.5161 7.11572 42.23 7.05851 41.8868C7.85943 42.0012 8.66034 42.1728 9.40405 42.5161C9.86172 42.7449 9.63292 43.317 9.28966 43.4886C7.5162 44.1751 5.97153 45.2621 4.82736 46.7495C4.65574 46.4635 4.4841 46.1774 4.31247 45.8914C5.45664 45.5481 6.60087 45.4337 7.80225 45.4337C8.25992 45.4337 8.48873 46.0058 8.20269 46.3491C6.77247 47.7221 5.05621 48.9235 4.19808 50.8114C4.02645 50.5253 3.91201 50.2965 3.74038 50.0104C6.08594 50.1821 8.25992 48.4658 10.3766 47.7221C10.9487 47.5504 11.2347 48.5802 10.6054 48.809Z" fill="white"/>
<path d="M24.45 46.9765C25.7086 47.4914 25.537 49.3793 25.4797 50.4663C25.4797 52.4686 25.1938 54.5853 24.1068 56.3016C23.8208 56.7593 23.1342 56.5304 23.1342 56.0156C23.077 54.5281 22.9626 53.0979 22.5621 51.6677C22.9054 51.6105 23.2487 51.5533 23.5919 51.5533C23.6491 54.6998 22.1617 57.6174 19.9877 59.8486C19.6445 60.1918 19.1296 59.9058 19.0724 59.4481C19.0152 58.2467 19.0724 57.1025 19.2441 55.9584C19.5301 56.13 19.8161 56.3016 20.1022 56.4732C18.672 57.9035 16.3264 58.9332 14.3241 58.9904C13.9808 58.9904 13.6948 58.6472 13.8092 58.3039C14.2669 57.0453 15.0678 56.0156 15.8687 54.9286C16.0404 55.2146 16.1547 55.4435 16.3264 55.7295C15.2966 55.6723 14.2669 55.9011 13.2372 56.0728C12.8939 56.13 12.4362 55.8439 12.6078 55.4435C13.6948 52.6402 15.9259 49.837 19.0724 49.4937C19.0724 49.837 19.0724 50.1802 19.0724 50.5235C18.0999 50.5235 17.0701 50.5235 16.0976 50.5807C15.6971 50.5807 15.3538 49.9514 15.6971 49.6654C18.2143 47.7203 21.2463 45.4319 24.6216 46.5189C25.2509 46.7477 24.9649 47.7203 24.3356 47.5486C21.4179 46.5761 18.672 48.6928 16.4408 50.4091C16.3264 50.123 16.2119 49.837 16.0403 49.4937C17.0129 49.4365 18.0427 49.3793 19.0152 49.4365C19.7017 49.4365 19.6445 50.4091 19.0152 50.4663C16.3836 50.8095 14.4957 53.3839 13.5804 55.6723C13.3516 55.4435 13.1227 55.2146 12.9511 55.043C14.0953 54.8714 15.1822 54.5853 16.3264 54.6426C16.6696 54.6426 17.0129 55.1002 16.7841 55.4435C16.0403 56.416 15.2394 57.3886 14.839 58.59C14.6673 58.3611 14.4957 58.1323 14.3241 57.9035C16.0975 57.9035 18.1571 56.9309 19.3584 55.7295C19.7589 55.3291 20.331 55.7295 20.2166 56.2444C20.045 57.3314 20.045 58.4183 20.1022 59.5053C19.8161 59.3909 19.53 59.2765 19.1868 59.1048C21.1891 57.1025 22.5621 54.4137 22.5049 51.5533C22.5049 50.9812 23.3631 50.8095 23.5347 51.4388C23.9352 52.9835 24.0496 54.5281 24.164 56.0728C23.8207 55.9584 23.5347 55.9011 23.1914 55.7867C24.0495 54.4137 24.3356 52.6974 24.3928 51.1528C24.3928 50.6379 24.6789 48.2351 24.164 48.0063C23.5919 47.7203 23.8207 46.6905 24.45 46.9765Z" fill="white"/>
<path d="M38.5233 34.3341C37.4363 33.1327 35.8345 32.2173 34.5187 31.302C33.1457 30.2722 31.6582 29.4713 30.2852 28.4415C27.482 26.382 25.0221 23.922 22.3905 21.5765C21.8184 21.0616 22.6765 20.2035 23.2486 20.7183C25.9374 23.1211 28.5118 25.7527 31.4866 27.8122C32.9168 28.7848 34.347 29.6429 35.7201 30.6727C36.9214 31.588 38.3517 32.3318 39.3242 33.4759C39.8963 34.1052 39.0382 34.9634 38.5233 34.3341Z" fill="white"/>
<path d="M5.62829 46.8641C5.62829 46.8641 5.62829 46.8069 5.62829 46.7497C5.6855 46.8069 5.68547 46.8069 5.74268 46.8641C5.68547 46.8641 5.6855 46.8641 5.62829 46.8641C5.74271 46.8069 5.74274 46.8069 5.79995 46.8069C5.5139 47.3218 5.22781 47.7795 4.88455 48.2943C4.77014 48.4088 4.59857 48.2943 4.65577 48.1799C4.88461 47.665 5.05619 47.093 5.39945 46.6353C5.51386 46.5209 5.74271 46.6353 5.62829 46.7497C5.28504 47.2074 5.11339 47.7795 4.88455 48.2943C4.82735 48.2371 4.71298 48.1799 4.65577 48.1799C4.99903 47.7223 5.22785 47.2074 5.5711 46.6925C5.62831 46.6353 5.68547 46.6353 5.74268 46.6353C5.91431 46.6925 5.91434 46.7497 5.91434 46.9213C5.91434 47.0357 5.62829 47.0357 5.62829 46.8641Z" fill="white"/>
<path d="M29.5987 46.634C29.4843 46.5196 29.3126 46.4624 29.141 46.4052C29.1982 46.348 29.1982 46.2336 29.2555 46.1763C29.4271 46.2908 29.5415 46.4052 29.6559 46.5196C29.7703 46.634 29.6559 46.7484 29.5415 46.7484C29.2555 46.6912 29.0838 46.4624 28.7978 46.348C28.855 46.2908 28.9122 46.2336 28.9694 46.1763C29.0838 46.4052 29.3699 46.5768 29.5987 46.7484C29.5415 46.8056 29.4842 46.8629 29.427 46.9773C29.2554 46.8056 29.141 46.634 29.0266 46.4624C28.9694 46.348 29.0838 46.2336 29.1982 46.2908C29.4842 46.4052 29.7131 46.5768 29.8275 46.8629C29.8847 46.9773 29.7703 47.0345 29.6559 47.0345C29.5415 46.9773 29.4842 46.9201 29.427 46.8056C29.3126 46.5768 29.5415 46.4052 29.5987 46.634C29.6559 46.634 29.6559 46.6912 29.7131 46.6912C29.6559 46.7484 29.5987 46.8056 29.5415 46.8629C29.4843 46.6912 29.2554 46.5196 29.0838 46.4624C29.141 46.4052 29.1982 46.348 29.2555 46.2908C29.3699 46.4624 29.4843 46.634 29.6559 46.7484C29.7703 46.8629 29.5986 47.0345 29.4842 46.9773C29.1982 46.8056 28.9694 46.634 28.7978 46.348C28.7405 46.2336 28.855 46.1191 28.9694 46.1763C29.1982 46.2908 29.3698 46.4624 29.6559 46.5196C29.5987 46.5768 29.5987 46.6912 29.5415 46.7484C29.4271 46.634 29.3126 46.5196 29.1982 46.4624C29.0838 46.4052 29.141 46.1763 29.3126 46.2336C29.5415 46.2908 29.7131 46.4052 29.8847 46.5196C29.8847 46.5196 29.7131 46.7484 29.5987 46.634Z" fill="white"/>
<path d="M30.1708 46.1193C28.855 45.8904 27.5391 44.5174 26.5666 43.7165C25.2508 42.6295 23.8206 41.7142 22.5048 40.6272C21.1318 39.4258 19.816 38.1672 18.3858 37.023C16.8412 35.7645 15.1821 34.7919 13.5231 33.6477C13.4087 33.5333 13.523 33.3045 13.6375 33.4189C14.9533 34.3342 16.3263 35.0779 17.5849 36.0505C19.0151 37.1947 20.3881 38.3961 21.7039 39.6547C22.9625 40.7988 24.3927 41.7714 25.7657 42.8584C26.5666 43.4877 27.3104 44.117 28.1113 44.6891C28.7406 45.1467 29.4271 45.776 30.1708 45.8904C30.4568 45.8904 30.3424 46.1765 30.1708 46.1193Z" fill="white"/>
<path d="M30.4569 45.6621C30.3997 45.7765 27.0816 43.1449 26.8527 42.9161C25.4225 41.7147 23.9923 40.5133 22.5621 39.3119C19.7017 36.7947 16.8413 34.1059 13.5232 32.1608C13.3515 32.1036 13.5231 31.8747 13.6376 31.932C16.6124 33.7054 19.3012 36.051 21.8756 38.3394C23.1914 39.5408 24.6216 40.6849 25.9946 41.8863C27.4248 43.0877 28.9123 44.804 30.6285 45.4905C30.6857 45.4905 30.743 45.6049 30.743 45.6621C30.743 45.7193 30.7429 45.7193 30.6857 45.7765C30.6285 45.891 30.3997 45.8337 30.4569 45.6621Z" fill="white"/>
<path d="M30.743 44.8611C30.1709 44.575 29.7132 44.1174 29.1983 43.7169C28.3974 43.0304 27.5965 42.4583 26.7955 41.829C25.4225 40.7992 24.1639 39.7123 22.9053 38.5681C21.4751 37.3095 20.0449 36.0509 18.4431 34.9067C17.1273 33.9914 15.7543 33.076 14.5529 32.0463C14.4385 31.9319 14.6101 31.7602 14.7245 31.8746C16.0975 33.076 17.6993 34.0486 19.1868 35.1356C20.4454 36.0509 21.6468 37.0807 22.7909 38.1104C24.1639 39.3118 25.4798 40.5132 26.9672 41.6002C27.5965 42.0579 28.2257 42.5727 28.855 43.0304C29.5415 43.5453 30.1709 44.2318 30.9146 44.6323C31.029 44.6895 30.9146 44.9183 30.743 44.8611Z" fill="white"/>
<path d="M31.315 44.3467C31.2006 43.889 29.9992 43.088 29.656 42.802C28.855 42.1727 27.9969 41.5434 27.196 40.9713C25.9374 39.9988 24.736 39.0262 23.5347 37.9392C22.2189 36.7951 20.8458 35.7081 19.4156 34.7355C18.0998 33.8202 16.6124 32.9621 15.3538 31.9895C15.2394 31.8751 15.3538 31.6463 15.4682 31.7607C16.8412 32.8476 18.3859 33.7058 19.8161 34.6783C21.3035 35.7081 22.6193 36.7951 23.9351 37.9392C25.4797 39.3123 27.1388 40.5709 28.7978 41.8295C29.4271 42.2871 29.9992 42.802 30.6285 43.3169C30.9146 43.6029 31.3722 43.7746 31.4866 44.2322C31.6583 44.4039 31.3722 44.4611 31.315 44.3467Z" fill="white"/>
<path d="M29.1411 46.4057C28.0541 45.3188 26.6811 44.6322 25.5369 43.6025C24.2211 42.4583 23.0197 41.1997 21.7611 39.9983C20.5597 38.8541 19.3584 37.7672 18.0998 36.6802C16.784 35.536 15.2394 34.7351 13.8092 33.7053C13.6948 33.5909 13.8091 33.3621 13.9236 33.4765C15.1822 34.3918 16.6124 35.1356 17.8138 36.1081C19.1296 37.1951 20.3881 38.3393 21.6467 39.5406C22.9053 40.742 24.1067 42.0006 25.4225 43.1448C26.6239 44.289 28.1113 45.0327 29.3127 46.2341C29.4271 46.3485 29.2555 46.5201 29.1411 46.4057Z" fill="white"/>
<path d="M13.1798 33.8767C14.7244 35.1926 16.4979 36.1651 17.9853 37.5953C19.5299 39.0828 21.189 40.3986 22.7909 41.8288C22.9053 41.9432 22.7336 42.1148 22.6192 42.0004C21.0174 40.5702 19.3584 39.2544 17.8137 37.767C16.3263 36.3367 14.5528 35.3642 13.0082 34.0484C12.8366 33.9912 13.0081 33.8195 13.1798 33.8767Z" fill="white"/>
<path d="M13.7519 33.934C15.8114 35.0782 17.3561 36.8517 19.0151 38.4535C20.903 40.2842 22.9053 42.0577 24.8504 43.7739C24.9648 43.8884 24.7932 44.06 24.6788 43.9456C22.7909 42.2865 20.903 40.5702 19.1295 38.854C17.3561 37.1949 15.8114 35.307 13.6375 34.1056C13.4659 34.1056 13.5803 33.8768 13.7519 33.934Z" fill="white"/>
<path d="M14.5528 33.1904C15.5826 34.1629 16.8983 34.9066 18.0425 35.822C19.3583 36.9089 20.6169 37.9959 21.8755 39.0829C24.3927 41.1996 26.9099 43.3164 29.7131 45.0326C29.8847 45.147 29.7131 45.3187 29.5987 45.2615C26.8527 43.6596 24.4499 41.6001 21.9899 39.5406C20.6169 38.4536 19.3583 37.2522 17.9853 36.1652C16.8411 35.1927 15.4109 34.449 14.324 33.4192C14.2667 33.2476 14.4384 33.076 14.5528 33.1904Z" fill="white"/>
<path d="M31.1433 44.4028C29.8275 42.9726 28.054 41.8284 26.5094 40.6842C25.022 39.54 23.5917 38.3386 22.2759 37.0228C22.1615 36.9084 22.3332 36.7368 22.4476 36.8512C23.935 38.3386 25.5941 39.6545 27.2531 40.9131C28.6261 41.9428 30.1708 42.9726 31.3149 44.2312C31.4293 44.3456 31.2577 44.5172 31.1433 44.4028Z" fill="white"/>
<path d="M15.4676 32.0471C15.2956 31.9897 15.4103 31.7604 15.5824 31.8177C15.6397 31.8751 15.7543 31.9324 15.7543 32.0471C15.697 32.2191 15.4676 32.2191 15.4676 32.0471Z" fill="white"/>
<path d="M39.839 12.7097C40.5827 12.8241 41.0404 13.4534 41.4981 14.0255C42.1846 14.9408 42.4706 15.9134 42.4706 17.0575C42.4706 17.9729 42.2418 19.0027 41.7269 19.7464C41.1548 20.5473 40.3539 20.6617 39.4958 20.8906C39.3242 20.9478 39.2669 20.6617 39.4386 20.6617C40.2967 20.4901 41.0976 20.3185 41.6125 19.5175C42.0702 18.831 42.2418 17.8585 42.2418 17.0575C42.2418 15.6845 41.3837 13.2246 39.7818 12.9957C39.6102 12.9385 39.6674 12.6525 39.839 12.7097Z" fill="white"/>
<path d="M40.0106 12.9377C42.1274 14.4252 42.8139 17.4573 41.4409 19.6884C39.7246 22.4916 36.4065 20.661 35.0335 18.6014C34.9191 18.487 35.1479 18.3154 35.2623 18.487C36.807 20.7182 40.2395 22.2628 41.5553 18.9447C42.3562 16.9424 41.6697 14.4824 39.8962 13.2238C39.7246 13.1094 39.8962 12.8805 40.0106 12.9377Z" fill="white"/>
<path d="M35.434 37.7089C35.4912 37.7089 35.6057 37.7089 35.6629 37.6516C35.6629 37.7089 35.6629 37.8233 35.6057 37.8805C34.1755 37.0224 32.8597 35.8782 31.4867 34.9628C30.1709 34.1047 28.9122 33.0749 27.7109 32.0452C26.3379 30.901 24.9649 29.7568 23.5919 28.6698C22.7337 28.0405 21.8756 27.4112 21.0175 26.7819C20.5026 26.4387 20.1022 25.981 19.5301 25.695C19.3584 25.6378 19.53 25.4089 19.6445 25.4661C20.2165 25.7522 20.6742 26.1526 21.1319 26.5531C21.8756 27.1252 22.6765 27.6401 23.4202 28.2122C24.736 29.2419 25.9946 30.2717 27.3104 31.3587C28.7406 32.56 30.1136 33.7042 31.6583 34.734C33.0885 35.6493 34.3471 36.7935 35.7773 37.6516C35.8917 37.7089 35.8345 37.8805 35.7201 37.8805C35.6629 37.8805 35.5485 37.8805 35.4913 37.9377C35.3196 37.9949 35.2624 37.7661 35.434 37.7089Z" fill="white"/>
<path d="M36.4066 36.3932C36.4066 36.336 36.4066 36.2787 36.4638 36.2787C36.521 36.1643 36.7498 36.1643 36.7498 36.336C36.7498 36.3932 36.7498 36.5076 36.7498 36.5648C36.7498 36.7364 36.521 36.7364 36.4638 36.622C36.4066 36.3932 36.3494 36.1071 36.235 35.8783C36.2922 35.8783 36.4066 35.8783 36.4638 35.8783C36.3494 36.2787 36.3494 36.6792 36.2922 37.0797C36.2922 37.2513 36.0633 37.1941 36.0061 37.0225C35.9489 36.5648 35.9489 36.1071 35.8345 35.7067C35.8917 35.7067 36.0061 35.7067 36.0633 35.7067C36.0061 36.2787 35.9489 36.7936 35.8917 37.3657C35.8917 37.5373 35.6629 37.4801 35.6057 37.3085C35.5485 36.622 35.4913 35.9927 35.3196 35.3634C35.3768 35.3634 35.4912 35.3634 35.5484 35.3634C35.434 35.9927 35.434 36.5648 35.3768 37.1941C35.3768 37.3657 35.148 37.3657 35.0908 37.1941C35.0336 36.5648 35.0908 35.9927 34.9764 35.4206C35.0336 35.4206 35.148 35.4206 35.2052 35.4206C35.0336 36.0499 35.0908 36.7364 34.9764 37.3657C34.9764 37.5373 34.7475 37.5373 34.6903 37.3657C34.5759 36.5076 34.6903 35.5922 34.5759 34.7341C34.6331 34.7341 34.7475 34.7341 34.8047 34.7913C34.5187 35.4206 34.5759 36.1071 34.5187 36.7936C34.5187 36.9652 34.2899 36.9652 34.2327 36.7936C34.1754 36.1071 34.2327 35.4206 34.2327 34.7341C34.3471 34.7341 34.4043 34.7341 34.5187 34.7341C34.4615 35.4206 34.4043 36.0499 34.2898 36.7364C34.2898 36.908 34.061 36.8508 34.0038 36.6792C33.9466 35.9355 34.061 35.1918 33.8894 34.4481C33.9466 34.4481 34.061 34.4481 34.1182 34.4481C33.9466 35.0774 33.8894 35.6494 33.8322 36.2787C33.8322 36.4504 33.6034 36.3932 33.5461 36.2215C33.4889 35.4778 33.6606 34.6769 33.4317 33.9332C33.4889 33.9332 33.6034 33.9332 33.6606 33.9332C33.4317 34.6197 33.4317 35.3062 33.3173 35.9927C33.3173 36.1643 33.0885 36.1071 33.0313 35.9355C32.9741 35.249 33.2601 34.3909 32.9169 33.7616C32.9741 33.7616 33.0885 33.7615 33.1457 33.7043C32.9168 34.3336 32.9169 35.0201 32.8024 35.7067C32.7452 35.8783 32.5736 35.8211 32.5164 35.6494C32.4592 35.1346 32.688 34.4481 32.4592 33.9904C32.2876 33.5899 32.3448 34.4481 32.2875 34.6197C32.2875 34.9057 32.2304 35.1346 32.2304 35.4206C32.2304 35.5922 32.0015 35.5922 31.9443 35.4206C31.8871 34.6769 32.1731 33.8188 31.8299 33.1322C31.8871 33.1322 32.0015 33.1322 32.0587 33.075C31.8299 33.7043 31.8299 34.3908 31.7155 35.0774C31.7155 35.249 31.4866 35.1918 31.4294 35.0201C31.315 34.2192 31.5438 33.3611 31.2578 32.6174C31.315 32.6174 31.4294 32.6174 31.4866 32.6746C31.2578 33.1322 31.315 33.7043 31.2578 34.2192C31.2578 34.3908 30.9718 34.3336 30.9718 34.162C31.029 33.4183 31.1434 32.6746 30.9146 31.9881C30.9718 31.9881 31.0862 31.9881 31.1434 31.9881C30.9145 32.789 30.9146 33.6471 30.7429 34.4481C30.6857 34.6197 30.5141 34.5625 30.4569 34.3908C30.3997 33.4755 30.2853 32.5602 30.228 31.6448C30.3425 31.6448 30.3997 31.6448 30.5141 31.702C30.3425 32.4457 30.3997 33.2467 30.228 34.0476C30.228 34.162 29.9992 34.162 29.9992 34.0476C29.8848 33.075 29.9992 32.1025 29.7704 31.1871C29.8276 31.1871 29.942 31.1871 29.9992 31.1871C29.8276 32.0453 29.8276 32.8462 29.7704 33.7043C29.7704 33.876 29.5415 33.876 29.4843 33.7043C29.4271 32.789 29.5416 31.9309 29.3127 31.0155C29.4271 31.0155 29.4843 31.0155 29.5988 30.9583C29.4843 31.8164 29.5415 32.7318 29.4271 33.5899C29.4271 33.7043 29.1983 33.7615 29.1411 33.6471C28.9122 32.6746 29.0839 31.6448 28.9695 30.6151C29.0839 30.6151 29.1411 30.6151 29.2555 30.6723C29.1411 31.5876 29.1983 32.5029 29.0267 33.4183C29.0267 33.5899 28.7978 33.5327 28.7406 33.3611C28.6262 32.3885 28.7406 31.416 28.5118 30.4434C28.569 30.4434 28.6834 30.4434 28.7406 30.4434C28.5118 31.2444 28.6834 32.1025 28.569 32.9034C28.569 33.075 28.2829 33.075 28.2829 32.9034C28.2829 31.9881 28.2829 31.0727 28.0541 30.1002C28.1113 30.1002 28.2257 30.1002 28.2829 30.1002C28.1685 30.9011 28.2257 31.702 28.2257 32.5029C28.1113 32.5029 28.0541 32.5029 27.9397 32.5029C27.9397 31.5876 27.8825 30.6723 27.6537 29.7569C27.7109 29.7569 27.8253 29.7569 27.8825 29.7569C27.7109 30.6151 27.7681 31.4732 27.8253 32.3313C27.7109 32.3313 27.6537 32.3313 27.5393 32.3313C27.5393 31.3016 27.5964 30.1574 27.1388 29.1848C27.196 29.1848 27.3104 29.1276 27.3676 29.1276C27.2532 29.9858 27.3104 30.8439 27.3104 31.702C27.196 31.702 27.1388 31.702 27.0244 31.702C27.0244 30.8439 26.9672 30.043 26.7955 29.242C26.8527 29.242 26.9672 29.242 27.0244 29.242C26.7383 29.9858 26.9672 31.0155 26.9672 31.8164C26.9672 31.9309 26.7383 31.9881 26.6811 31.8737C26.5667 31.0155 26.6239 30.1574 26.4523 29.242C26.5667 29.242 26.6239 29.242 26.7383 29.1848C26.6811 29.8713 26.6811 30.5006 26.7383 31.1871C26.7383 31.3588 26.5095 31.3588 26.4523 31.1871C26.3951 30.2718 26.3379 29.3565 26.1662 28.4411C26.109 28.2695 26.3951 28.2123 26.3951 28.3839C26.5667 29.2992 26.6239 30.2718 26.7383 31.2443C26.6239 31.2443 26.5667 31.2443 26.4523 31.2443C26.4523 30.5578 26.3951 29.9285 26.4523 29.242C26.4523 29.1276 26.6811 29.0704 26.7383 29.1848C26.91 30.043 26.8528 30.9011 26.9672 31.8164C26.8528 31.8164 26.7956 31.8164 26.6811 31.8737C26.6811 31.0727 26.4523 30.043 26.7383 29.242C26.7955 29.1276 26.9672 29.1276 26.9672 29.242C27.196 30.1002 27.196 30.9011 27.196 31.8164C27.196 31.9881 26.9099 31.9881 26.9099 31.8164C26.9099 30.9583 26.8528 30.1002 26.9672 29.242C26.9672 29.1276 27.1388 29.0704 27.196 29.1848C27.6536 30.2146 27.6537 31.3588 27.6537 32.4457C27.6537 32.6174 27.3676 32.6174 27.3676 32.4457C27.3676 31.5876 27.2532 30.6723 27.4248 29.8141C27.4248 29.6997 27.6537 29.6997 27.6537 29.8141C27.8825 30.7295 27.9397 31.6448 27.9397 32.6174C27.9397 32.789 27.6537 32.789 27.6537 32.6174C27.6537 31.7592 27.5964 30.9583 27.7109 30.1002C27.7109 29.9858 27.9397 29.9858 27.9397 30.1002C28.1685 31.0155 28.2258 31.9881 28.1686 32.9606C28.0541 32.9606 27.9969 32.9606 27.8825 32.9606C27.9969 32.1025 27.8253 31.2443 28.0541 30.3862C28.1113 30.2718 28.2829 30.2718 28.2829 30.3862C28.5118 31.3588 28.4546 32.3885 28.5118 33.3611C28.3974 33.3611 28.3402 33.3611 28.2257 33.3039C28.3402 32.3885 28.283 31.4732 28.4546 30.5578C28.4546 30.3862 28.6834 30.4434 28.7406 30.6151C28.8551 31.5876 28.6834 32.6174 28.9122 33.5899C28.7978 33.5899 28.7406 33.5899 28.6262 33.6471C28.7406 32.789 28.6834 31.8737 28.7978 31.0155C28.7978 30.9011 29.0267 30.8439 29.0839 30.9583C29.3127 31.8736 29.1983 32.789 29.2555 33.7043C29.1411 33.7043 29.0839 33.7043 28.9695 33.7043C29.0839 32.8462 29.0839 31.9881 29.2555 31.1299C29.2555 31.0155 29.4843 31.0155 29.4843 31.1299C29.6559 32.1025 29.5415 33.075 29.7132 33.9904C29.6559 33.9904 29.5415 33.9904 29.4843 33.9904C29.6559 33.2467 29.5987 32.4457 29.7704 31.6448C29.8276 31.4732 29.9992 31.5304 30.0564 31.702C30.1136 32.6174 30.228 33.5327 30.2852 34.4481C30.1708 34.4481 30.1136 34.4481 29.9992 34.3908C30.1708 33.5899 30.1708 32.7318 30.3997 31.9309C30.4569 31.8164 30.6285 31.8164 30.6285 31.9309C30.8573 32.6746 30.7429 33.4183 30.6857 34.162C30.5713 34.162 30.5141 34.162 30.3997 34.1048C30.5141 33.5327 30.4569 33.0178 30.6285 32.5029C30.6857 32.3885 30.8573 32.4457 30.8573 32.5602C31.2006 33.3611 30.9718 34.2192 31.029 35.0774C30.9146 35.0774 30.8574 35.0774 30.7429 35.0201C30.8574 34.3336 30.8573 33.6471 31.0862 33.0178C31.1434 32.9034 31.2578 32.9034 31.315 32.9606C31.6583 33.7043 31.4294 34.5625 31.4866 35.4206C31.3722 35.4206 31.315 35.4206 31.2006 35.4206C31.315 34.6769 31.2578 33.9332 31.6011 33.2467C31.6583 33.1895 31.7727 33.1322 31.8299 33.2467C32.1731 34.0476 31.9443 34.8485 32.0015 35.6494C31.8871 35.6494 31.8299 35.6494 31.7155 35.5922C31.8299 34.9057 31.8299 34.2764 32.0587 33.5899C32.1159 33.4755 32.2303 33.4755 32.2875 33.5327C32.7452 34.2192 32.402 35.0774 32.4592 35.8211C32.3448 35.8211 32.2876 35.8211 32.1732 35.7639C32.2876 35.0774 32.2876 34.3908 32.5164 33.7043C32.5736 33.5899 32.7452 33.5899 32.7452 33.7043C32.9741 34.5053 32.8024 35.249 32.8596 36.0499C32.7452 36.0499 32.688 36.0499 32.5736 35.9927C32.688 35.3634 32.688 34.7913 32.8596 34.162C32.9168 34.0476 33.0885 34.0476 33.0885 34.162C33.2601 34.9057 33.1457 35.7067 33.2029 36.4504C33.0885 36.4504 33.0313 36.4504 32.9169 36.3932C33.0313 35.7639 33.0313 35.0774 33.1457 34.4481C33.1457 34.2764 33.4317 34.2764 33.4317 34.4481C33.4317 35.1346 33.3745 35.8211 33.4317 36.5076C33.3173 36.5076 33.2601 36.5076 33.1457 36.5076C33.2029 35.7639 33.1457 35.0201 33.4317 34.3908C33.4889 34.2764 33.6606 34.3336 33.6606 34.4481C33.775 35.3634 33.6606 36.2215 33.775 37.1369C33.6606 37.1369 33.6034 37.1369 33.4889 37.1369C33.5462 36.4504 33.4889 35.7639 33.7178 35.1346C33.775 35.0201 33.9466 35.0201 33.9466 35.1346C34.061 35.7639 34.0038 36.3932 34.061 37.0225C33.9466 37.0225 33.8894 37.0225 33.775 37.0225C33.8322 36.3932 33.8322 35.7639 33.9466 35.1346C33.9466 35.0201 34.1755 35.0201 34.1755 35.1346C34.3471 35.8211 34.4043 36.4504 34.4615 37.1369C34.3471 37.1369 34.2899 37.1369 34.1755 37.0797C34.2327 36.5076 34.2899 35.9927 34.3471 35.4206C34.3471 35.3062 34.5759 35.3062 34.5759 35.4206C34.6903 35.8783 34.6903 36.336 34.7475 36.8508C34.6331 36.8508 34.5759 36.8508 34.4615 36.7936C34.5187 36.3359 34.4615 35.9927 34.6331 35.5922C34.6903 35.4778 34.8619 35.4778 34.8619 35.5922C34.9191 35.8211 34.9764 36.0499 35.0908 36.336C34.9764 36.336 34.9192 36.336 34.8047 36.3932C34.8047 36.336 34.8047 36.2215 34.8047 36.1643C34.9192 36.1643 34.9764 36.1643 35.0908 36.2215C35.0908 36.2787 35.0908 36.336 35.0336 36.336C36.5782 36.6792 36.3494 36.5648 36.4066 36.3932Z" fill="white"/>
<path d="M26.9673 28.8996C26.9673 29.5289 26.9673 30.101 26.9673 30.7303C26.8529 30.7303 26.7957 30.7303 26.6812 30.7303C26.6812 29.815 26.6812 28.9568 26.3952 28.0987C26.4524 28.0987 26.5668 28.0987 26.624 28.0987C26.4524 28.9568 26.624 29.815 26.5668 30.6731C26.5668 30.8447 26.3379 30.8447 26.2807 30.7303C26.0519 29.9294 26.1091 29.1285 25.9375 28.3847C25.9947 28.3847 26.1091 28.3847 26.1664 28.3847C26.0519 29.1285 26.0519 29.8722 26.1664 30.6731C26.0519 30.6731 25.9947 30.6731 25.8803 30.6731C25.8803 29.7578 25.8231 28.8996 25.5943 27.9843C25.6515 27.9843 25.7659 27.9843 25.8231 27.9843C25.6515 28.6708 25.7087 29.3001 25.7087 29.9866C25.7087 30.1582 25.4798 30.1582 25.4226 29.9866C25.3654 29.3001 25.3654 28.6136 25.0794 27.9843C25.1366 27.9843 25.251 27.9843 25.3082 27.9271C25.1938 28.6136 25.251 29.3001 25.1366 29.9866C25.1366 30.1582 24.9077 30.101 24.9077 29.9866C24.6789 29.3573 24.6217 28.6708 24.4501 28.0415C24.5645 28.0415 24.6217 28.0415 24.7361 27.9843C24.7361 28.4992 24.7361 29.0713 24.7933 29.5861C24.6789 29.5861 24.6217 29.5861 24.5073 29.5861C24.5073 28.728 24.3928 27.8699 24.3356 27.0117C24.45 27.0117 24.5073 27.0117 24.6217 27.0117C24.5645 27.641 24.5645 28.2131 24.6217 28.8424C24.5073 28.8424 24.45 28.8424 24.3356 28.8424C24.3356 28.2131 24.2785 27.5838 24.164 27.0117C24.2785 27.0117 24.3357 27.0117 24.4501 26.9545C24.3929 27.5266 24.3929 28.1559 24.4501 28.728C24.3357 28.728 24.2785 28.728 24.164 28.728C24.164 27.9843 24.0496 27.2406 23.8208 26.5541C23.878 26.5541 23.9924 26.5541 24.0496 26.5541C23.878 27.1261 23.9352 27.7554 23.9924 28.3275C23.9924 28.4992 23.7636 28.4992 23.7064 28.3275C23.6491 27.6982 23.5919 27.0689 23.3631 26.4968C23.4203 26.4968 23.5348 26.4968 23.592 26.4968C23.4775 27.0117 23.5348 27.4122 23.5348 27.8699C23.5348 28.0415 23.3059 28.0415 23.2487 27.8699C23.1915 27.2978 23.1343 26.6685 22.8482 26.1536C22.9054 26.1536 23.0199 26.0964 23.0771 26.0964C23.0199 26.7257 23.0771 27.2978 23.0771 27.9271C22.9627 27.9271 22.9054 27.9271 22.791 27.9271C22.791 27.2406 22.6766 26.5541 22.505 25.8676C22.6194 25.8676 22.6766 25.8675 22.791 25.8103C22.791 26.3252 22.7338 26.8401 22.7338 27.355C22.7338 27.5266 22.505 27.5266 22.4478 27.4122C22.3334 26.7829 22.2189 26.0964 22.0473 25.4671C22.1045 25.4671 22.2189 25.4671 22.2761 25.4671C22.2189 26.0392 22.2761 26.6113 22.2761 27.1834C22.2761 27.355 22.0473 27.355 21.9901 27.1834C21.9329 26.6113 21.9329 26.0392 21.6469 25.4671C21.7041 25.4671 21.8185 25.4671 21.8757 25.4099C21.8185 25.982 21.8185 26.5541 21.8757 27.1261C21.8757 27.2978 21.6469 27.2978 21.5897 27.1834C21.4752 26.4969 21.2464 25.8103 21.1892 25.1238C21.3036 25.1238 21.3608 25.1238 21.4752 25.0666C21.4752 25.6387 21.4752 26.2108 21.4752 26.7257C21.4752 26.8973 21.2464 26.8973 21.1892 26.7829C21.0175 26.0392 20.9032 25.2955 20.7315 24.5517C20.7887 24.5517 20.9032 24.5517 20.9604 24.5517C20.846 25.181 20.9604 25.6959 20.9604 26.3252C20.846 26.3252 20.7888 26.3252 20.6743 26.3252C20.6743 25.6959 20.5599 25.0666 20.3883 24.4373C20.4455 24.4373 20.5599 24.4373 20.6171 24.4373C20.4454 25.0094 20.6171 25.5815 20.6171 26.1536C20.6171 26.3252 20.3882 26.3252 20.331 26.1536C20.2738 25.5815 20.1594 25.0094 20.045 24.4945C20.1594 24.4945 20.2166 24.4945 20.331 24.4373C20.2738 24.895 20.2738 25.3527 20.2738 25.8676C20.2738 26.0392 20.045 26.0392 19.9878 25.8676C19.9306 25.5243 19.8734 25.1238 19.7589 24.7806C19.8734 24.7806 19.9306 24.7806 20.045 24.7234C19.9878 25.0094 19.9878 25.2955 19.9878 25.5815C19.9878 25.7531 19.759 25.7531 19.7017 25.6387C19.759 25.3527 19.6446 25.2955 19.5302 25.4099C19.5302 25.5243 19.3013 25.5815 19.2441 25.4671C19.1869 25.1238 19.0725 24.7806 19.0153 24.4373C19.1297 24.4373 19.1869 24.4373 19.3013 24.3801C19.3585 24.6089 19.3585 24.8378 19.4157 25.0666C19.4729 25.2382 19.1869 25.2955 19.1869 25.1238C19.0724 24.6662 19.0725 24.8378 19.0725 24.3801C19.0725 24.2085 19.3013 24.2085 19.3585 24.3229C19.4729 24.6662 19.5301 24.9522 19.5874 25.3527C19.4729 25.3527 19.4157 25.3527 19.3013 25.4099C19.3013 25.1238 19.3585 24.9522 19.4729 24.6662C19.5301 24.6089 19.6445 24.5517 19.7017 24.6662C19.8734 24.9522 19.9306 25.2383 19.9878 25.5815C19.8734 25.5815 19.8162 25.5815 19.7017 25.6387C19.7017 25.3527 19.7017 25.0666 19.7589 24.7806C19.7589 24.6662 19.9878 24.609 20.045 24.7234C20.1594 25.1238 20.2166 25.4671 20.2738 25.8676C20.1594 25.8676 20.1022 25.8676 19.9878 25.8676C19.9878 25.4099 19.9878 24.9522 20.045 24.4373C20.045 24.3229 20.2738 24.2657 20.331 24.3801C20.4454 24.9522 20.5599 25.5243 20.6171 26.1536C20.5027 26.1536 20.4454 26.1536 20.331 26.1536C20.2738 25.5243 20.1594 24.9522 20.331 24.3801C20.3882 24.2657 20.5599 24.2657 20.5599 24.3801C20.7315 25.0094 20.8459 25.6387 20.8459 26.3252C20.8459 26.4969 20.6171 26.4969 20.5599 26.3252C20.5027 25.6959 20.4455 25.1238 20.5599 24.4945C20.5599 24.3801 20.7887 24.3801 20.7887 24.4945C20.9603 25.2382 21.0748 25.982 21.2464 26.7257C21.132 26.7257 21.0748 26.7257 20.9604 26.7829C20.9604 26.2108 20.9604 25.6387 20.9604 25.1238C20.9604 25.0094 21.1892 24.9522 21.2464 25.0666C21.3608 25.7531 21.5324 26.4396 21.6469 27.1261C21.5324 27.1261 21.4752 27.1261 21.3608 27.1834C21.3036 26.5541 21.3036 25.982 21.418 25.4099C21.418 25.2955 21.5896 25.2955 21.6469 25.3527C21.9329 25.9248 21.9901 26.5541 22.0473 27.1834C21.9329 27.1834 21.8757 27.1834 21.7612 27.1834C21.7612 26.5541 21.6468 25.982 21.7612 25.3527C21.7612 25.2382 21.9901 25.2382 21.9901 25.3527C22.2189 25.982 22.2762 26.6113 22.3906 27.2978C22.2762 27.2978 22.219 27.2978 22.1045 27.355C22.1045 26.8401 22.1045 26.3252 22.1617 25.8103C22.1617 25.6387 22.3906 25.6387 22.4478 25.7531C22.6194 26.4396 22.7338 27.1261 22.7338 27.8699C22.7338 28.0415 22.4478 28.0415 22.4478 27.8699C22.4478 27.2406 22.3906 26.6685 22.4478 26.0392C22.4478 25.9248 22.6194 25.8675 22.6766 25.982C22.9627 26.5541 23.0199 27.1834 23.0771 27.8127C22.9627 27.8127 22.9054 27.8127 22.791 27.8127C22.791 27.2978 22.7338 26.8401 22.8482 26.3252C22.8482 26.2108 23.0771 26.2108 23.0771 26.3252C23.3059 26.9545 23.3059 27.5838 23.4203 28.2131C23.3059 28.2131 23.2487 28.2131 23.1343 28.2131C23.0771 27.5838 23.0198 27.0117 23.1915 26.3824C23.2487 26.268 23.4203 26.268 23.4203 26.3824C23.6491 27.1261 23.7635 27.8699 23.7635 28.6136C23.7635 28.7852 23.4775 28.7852 23.4775 28.6136C23.4775 28.0415 23.4775 27.4122 23.4775 26.8401C23.4775 26.7257 23.7063 26.6685 23.7635 26.7829C23.878 27.4122 23.9352 28.0415 23.9352 28.728C23.9352 28.8996 23.6492 28.8996 23.6492 28.728C23.6492 28.0987 23.5919 27.5266 23.6492 26.8973C23.6492 26.7257 23.878 26.7257 23.9352 26.8973C23.9924 27.7554 24.1069 28.6136 24.1069 29.4717C24.1069 29.6433 23.8208 29.6433 23.8208 29.4717C23.8208 28.9568 23.7635 28.3847 23.7635 27.8699C23.7635 27.6982 23.9924 27.6982 24.0496 27.8127C24.2212 28.442 24.2212 29.1285 24.5073 29.7578C24.4501 29.7578 24.3356 29.7578 24.2784 29.7578C24.3929 29.0713 24.3357 28.3847 24.4501 27.6982C24.4501 27.5838 24.6217 27.5838 24.6789 27.641C24.965 28.3275 25.0222 29.014 25.0794 29.7578C24.965 29.7578 24.9077 29.7578 24.7933 29.7578C24.7933 29.0713 24.7361 28.3847 24.9077 27.641C24.9077 27.5266 25.1366 27.5266 25.1366 27.641C25.3654 28.5564 25.4226 29.4717 25.4226 30.3871C25.4226 30.5587 25.1938 30.5587 25.1366 30.3871C25.0221 29.5861 25.0221 28.8424 25.1938 28.0415C25.1938 27.9271 25.4226 27.9271 25.4226 28.0415C25.6514 28.8424 25.537 29.6433 25.7658 30.3871C25.6514 30.3871 25.5942 30.3871 25.4798 30.4443C25.537 29.5861 25.3654 28.728 25.5371 27.8127C25.5371 27.6982 25.7658 27.6982 25.7658 27.8127C26.0519 28.6708 26.0519 29.5861 26.0519 30.5015C26.0519 30.6731 25.7658 30.6731 25.7658 30.5015C25.7658 29.8722 25.7658 29.3001 25.7658 28.6708C26.7384 28.728 26.9673 28.728 26.9673 28.8996Z" fill="white"/>
<path d="M40.9261 14.1388C40.1252 13.395 39.0954 13.5095 38.1229 13.2806C37.9512 13.2234 38.0085 13.0518 38.1801 12.9946C38.8666 12.9374 39.5531 12.7085 40.2396 13.0518C40.354 13.109 40.2968 13.3378 40.1252 13.2806C39.6103 13.1662 39.0382 13.109 38.5233 13.109C38.3517 13.109 38.3517 12.823 38.5233 12.823C38.9238 12.823 39.267 12.823 39.6675 12.7657C39.6675 12.823 39.6675 12.9374 39.6675 12.9946C39.0382 12.823 38.5233 12.6513 38.0084 13.1662C37.9512 13.109 37.9512 12.9946 37.894 12.9374C41.3838 13.109 44.3014 19.5164 40.0107 20.775C37.9512 21.3471 36.0634 19.8025 35.6057 17.8574C35.148 15.7978 35.8345 13.395 37.8368 12.4225C37.9512 12.3653 38.1228 12.5369 38.0084 12.6513C36.9215 13.6811 35.8917 14.9969 35.7201 16.5415C35.5485 17.8001 36.0061 19.402 36.8643 20.3173C36.9787 20.4318 36.8643 20.6034 36.6926 20.5462C35.2052 19.7452 34.6331 16.7704 35.434 15.3974C35.5485 15.2257 35.7773 15.3974 35.6629 15.5118C34.9192 16.7704 35.4341 19.5736 36.8071 20.3173C36.7499 20.3745 36.6927 20.4318 36.6354 20.5462C34.2327 18.029 35.5485 14.5964 37.7224 12.5369C37.7796 12.5941 37.8368 12.6513 37.894 12.7657C36.1778 13.6239 35.4912 15.569 35.7201 17.3997C35.9489 19.402 37.7224 21.2327 39.8391 20.6034C41.727 20.0885 42.0703 17.9718 41.4982 16.3699C40.9261 14.8253 39.5531 13.395 37.8368 13.3378C37.7224 13.3378 37.6652 13.2234 37.7224 13.109C37.894 12.9374 38.0085 12.7085 38.1801 12.6513C38.5233 12.5369 39.267 12.823 39.6103 12.8802C39.7247 12.9374 39.7247 13.109 39.6103 13.109C39.2098 13.1662 38.8094 13.2234 38.4089 13.2234C38.4089 13.109 38.4089 13.0518 38.4089 12.9374C38.981 12.9374 39.5531 13.0518 40.068 13.1662C40.0108 13.2234 40.0107 13.3378 39.9535 13.395C39.3815 13.109 38.6377 13.2806 38.0657 13.395C38.0657 13.2806 38.0656 13.2234 38.1229 13.109C39.2098 13.395 40.1824 13.2234 41.0405 14.0243C41.2121 14.0816 41.0405 14.2532 40.9261 14.1388Z" fill="white"/>
<path d="M10.3766 33.4761C8.43151 32.1603 6.94405 30.5012 5.34221 28.8421C4.48408 27.984 3.62597 27.1831 2.71063 26.3821C1.79529 25.524 1.10879 24.4942 0.136239 23.6361C0.021822 23.5217 0.193406 23.3501 0.307823 23.4645C1.16595 24.2082 1.79525 25.1235 2.59617 25.9245C3.4543 26.7254 4.36969 27.5263 5.22782 28.3845C6.94408 30.1007 8.48869 31.8742 10.491 33.2472C10.6626 33.3616 10.5482 33.5905 10.3766 33.4761Z" fill="white"/>
<path d="M9.34705 32.6751C8.3173 31.0732 6.71545 29.8718 5.34245 28.556C5.22803 28.4416 5.39968 28.27 5.5141 28.3844C6.88711 29.7574 8.48895 30.9016 9.5187 32.5607C9.69033 32.6751 9.46147 32.7895 9.34705 32.6751Z" fill="white"/>
<path d="M43.672 56.8169C43.672 57.389 43.386 57.5034 42.9283 57.2174C41.7841 56.5881 40.64 55.5583 39.6102 54.7574C38.2372 53.6704 36.8642 52.5262 35.4912 51.4393C34.2326 50.4667 32.974 49.4942 31.887 48.35C31.7726 48.2356 31.9442 48.0639 32.0586 48.1784C33.7177 49.9518 35.7772 51.2676 37.6079 52.8123C38.6949 53.6704 39.7246 54.5858 40.8688 55.3867C41.3836 55.7299 41.8985 56.1304 42.4134 56.4737C42.5278 56.5881 43.4431 57.3318 43.4431 56.7597C43.3859 56.6453 43.672 56.6453 43.672 56.8169Z" fill="white"/>
<path d="M42.7567 56.5888C40.0679 55.2158 37.8939 53.1563 35.5484 51.2112C34.9763 50.6963 34.4042 50.2386 33.7749 49.7809C33.4317 49.4949 33.0884 49.1516 32.688 48.9228C33.3173 49.3233 32.0015 48.5795 32.0587 48.6367C31.7154 48.1791 32.1731 47.9502 32.5163 47.7214C32.6308 47.6642 32.7452 47.7786 32.688 47.893C32.688 47.9502 32.6308 47.9502 32.6308 48.0074C32.5163 48.1219 32.3447 48.0074 32.4019 47.893C32.5163 47.6642 32.5735 47.607 32.8596 47.6642C33.0312 47.6642 32.974 47.9502 32.8024 47.893C32.7452 47.9502 32.688 47.9502 32.6308 48.0074C32.5736 47.9502 32.4591 47.893 32.4019 47.893C32.4019 47.8358 32.4591 47.8358 32.4591 47.7786C32.5164 47.8358 32.5736 47.893 32.6308 47.9502C32.4591 48.0647 32.2875 48.2935 32.3447 48.4651C32.3447 48.5223 32.5163 48.4651 32.5163 48.5223C32.8024 48.8656 33.3745 49.2088 33.7749 49.4949C34.7475 50.2386 35.6628 51.0395 36.6354 51.8404C38.5805 53.4995 40.5255 55.2158 42.8139 56.4172C43.0427 56.4172 42.9283 56.646 42.7567 56.5888Z" fill="white"/>
</g>
</svg>
