<svg width="40" height="60" viewBox="0 0 40 60" fill="none" xmlns="http://www.w3.org/2000/svg">
<g opacity="0.2">
<path d="M29.8947 37.6348C30.084 37.1301 29.9578 36.6253 30.5887 36.3098C30.9673 36.1206 30.6518 35.4896 30.2102 35.6789C29.2007 36.1836 28.3804 36.9408 27.434 37.5717C27.5602 37.761 27.6864 37.9503 27.8757 38.1396C28.759 37.3824 29.6423 36.6253 30.3364 35.742C30.5257 35.4896 30.3994 35.111 30.084 35.1741C28.6959 35.1741 27.5602 36.0575 26.2983 36.4991C26.4245 36.6884 26.5507 36.8777 26.6138 37.067C27.434 36.3729 28.3173 35.742 29.1376 35.111C29.5161 34.8586 29.1376 34.2277 28.759 34.4801C27.3709 35.5527 25.7935 36.2467 24.2793 37.067C23.9007 37.3193 24.2162 37.8872 24.6578 37.6979C26.2352 36.8777 27.8757 36.1836 29.5792 35.5527C29.453 35.3634 29.3268 35.1741 29.2638 34.9848C28.065 36.0575 26.9292 37.2563 25.5411 38.0765C25.1626 38.2658 25.415 38.7705 25.7935 38.7074C27.2447 38.4551 28.5697 37.8241 29.8947 37.067C29.7685 36.8777 29.6423 36.6884 29.453 36.4991C27.8757 37.8872 26.109 39.086 24.5316 40.5372C24.2162 40.7896 24.5947 41.2943 24.9733 41.105C26.8662 40.0324 28.8221 39.0229 30.5256 37.6348C30.8411 37.3824 30.3994 36.8146 30.084 37.067C28.5697 38.2027 26.9923 39.2753 25.6043 40.6003C25.3519 40.8527 25.6043 41.2312 25.9197 41.1681C27.6233 40.7896 29.0114 39.78 30.5256 38.9598C30.3364 38.7705 30.2102 38.6443 30.0209 38.4551C28.6959 40.2848 26.6138 41.2943 25.0364 42.8086C24.7209 43.061 25.0995 43.5657 25.4781 43.3764C27.1185 42.4931 28.759 41.6729 30.3994 40.7265C30.2733 40.5372 30.1471 40.3479 30.0209 40.0955C28.6328 41.105 27.1185 42.0515 25.9197 43.3133C25.6674 43.5657 25.9828 44.0705 26.3614 43.8812C27.8126 42.8717 29.3269 42.0515 30.778 41.105C30.6519 40.9157 30.5257 40.7265 30.3364 40.5372C29.1376 41.5467 27.8757 42.4931 26.803 43.6288C26.5507 43.9443 26.8661 44.386 27.2447 44.1967C28.6959 43.5026 30.1471 42.6824 31.5983 41.9884C31.4721 41.7991 31.3459 41.6098 31.1566 41.4205C29.7685 42.8717 28.0019 43.8812 26.5507 45.2693C26.2352 45.5848 26.6138 45.9633 26.9924 45.8371C28.4435 45.1431 29.8316 44.2598 31.409 43.8181C31.2828 43.6288 31.1566 43.4395 31.0935 43.2503C30.084 44.1336 28.8852 44.8907 27.8757 45.8371C27.6233 46.0895 27.8757 46.4681 28.1911 46.405C29.5792 46.1526 30.9042 45.711 32.2292 45.1431C32.103 44.9538 31.9768 44.7645 31.7875 44.5752C30.084 45.9633 28.1911 47.0359 26.4245 48.2978C26.109 48.4871 26.2983 49.1181 26.6769 48.9288C28.2543 48.3609 29.7685 47.4776 31.409 46.9728C31.2828 46.7836 31.1566 46.5943 31.0935 46.405C29.5792 47.6669 27.8757 48.5502 26.3614 49.8121C26.0459 50.0645 26.4245 50.4431 26.6769 50.38C28.5066 50.0645 30.2102 49.3073 31.8506 48.424C31.7244 48.2347 31.5983 48.0455 31.4721 47.7931C30.0209 48.7395 28.6328 49.6859 27.3709 50.8216C27.1185 51.074 27.3709 51.5157 27.6864 51.3895C29.7054 50.7585 31.4721 49.6859 33.2387 48.6133C33.1125 48.424 32.9863 48.2347 32.797 48.0455C31.4721 49.1812 30.084 50.1907 28.759 51.3264C28.4435 51.5788 28.8221 52.0204 29.2007 51.8942C30.3995 51.2633 31.5351 50.5692 32.797 50.0645C32.6709 49.8752 32.5447 49.6859 32.4816 49.4966C31.7244 50.3169 30.9042 51.074 30.1471 51.8942C29.8316 52.2097 30.2102 52.5883 30.5887 52.4621C31.5982 52.0204 32.4816 51.4526 33.4911 51.074C33.3649 50.8847 33.2387 50.7585 33.1125 50.5692C32.797 51.2633 32.3554 51.768 31.7875 52.2728C31.4721 52.5883 31.9768 53.093 32.2923 52.7776C32.8601 52.2097 33.3649 51.6419 33.7435 50.9478C33.8697 50.6954 33.6804 50.3169 33.3649 50.4431C32.2923 50.8847 31.3459 51.4526 30.3364 51.8942C30.4626 52.0835 30.5888 52.2728 30.778 52.4621C31.5352 51.6419 32.3554 50.8847 33.1125 50.0645C33.3018 49.8121 33.1125 49.3073 32.797 49.4966C31.4721 50.0014 30.2733 50.7585 29.0114 51.3895C29.1375 51.5788 29.2637 51.768 29.453 51.9573C30.778 50.8216 32.1661 49.749 33.4911 48.6764C33.8066 48.424 33.428 47.9193 33.0494 48.1085C31.2828 49.1181 29.5792 50.1907 27.6233 50.7585C27.7495 50.9478 27.8757 51.1371 27.9388 51.3264C29.1376 50.2538 30.5257 49.3073 31.9137 48.424C32.2923 48.1716 31.9768 47.6038 31.5351 47.7931C29.9578 48.6764 28.3173 49.3704 26.5507 49.6859C26.6769 49.8752 26.8031 50.0645 26.8662 50.2538C28.3804 48.9919 30.084 48.1085 31.5983 46.8467C31.8506 46.5943 31.5983 46.1526 31.2828 46.2788C29.6423 46.8467 28.1911 47.6669 26.5507 48.2347C26.6138 48.424 26.7399 48.6764 26.803 48.8657C28.6328 47.5407 30.5887 46.4681 32.2923 45.08C32.6078 44.8276 32.2292 44.386 31.8506 44.5122C30.5887 45.08 29.3268 45.4586 28.0019 45.7109C28.128 45.9002 28.2542 46.0895 28.3173 46.2788C29.3268 45.3324 30.5256 44.6383 31.5351 43.6919C31.7875 43.4395 31.5351 42.9979 31.2197 43.1241C29.5792 43.5657 28.1912 44.449 26.6769 45.2062C26.8031 45.3955 26.9292 45.5848 27.1185 45.774C28.5697 44.386 30.3364 43.3764 31.7245 41.9253C32.0399 41.6098 31.6614 41.2312 31.2828 41.3574C29.8316 42.0515 28.3804 42.8717 26.9292 43.5657C27.0554 43.755 27.1816 43.9443 27.3709 44.1336C28.4435 42.9348 29.6423 41.9884 30.9042 41.0419C31.2197 40.7896 30.8411 40.2848 30.4626 40.4741C28.9483 41.3574 27.4971 42.2407 26.0459 43.2503C26.1721 43.4395 26.2983 43.6288 26.4876 43.8181C27.6864 42.6193 29.1376 41.736 30.4626 40.7265C30.8411 40.4741 30.5256 39.9062 30.084 40.0955C28.5066 41.0419 26.8031 41.7991 25.1626 42.7455C25.2888 42.9348 25.415 43.1241 25.6043 43.3133C27.2447 41.736 29.3268 40.7265 30.7149 38.8336C30.9042 38.5182 30.5256 38.2027 30.2102 38.3289C28.759 39.086 27.434 40.0955 25.7935 40.4741C25.9197 40.6634 26.0459 40.8527 26.109 41.0419C27.434 39.78 29.0114 38.7074 30.4626 37.6348C30.3364 37.4455 30.2102 37.2563 30.0209 37.067C28.3804 38.392 26.4876 39.4015 24.5947 40.4741C24.7209 40.6634 24.8471 40.8527 25.0364 41.0419C26.5507 39.5908 28.3173 38.392 29.9578 37.0039C30.2733 36.7515 29.8947 36.2467 29.5161 36.436C28.2543 37.1301 26.9923 37.6979 25.6043 37.9503C25.6674 38.1396 25.7935 38.392 25.8566 38.5812C27.3078 37.6979 28.4435 36.4991 29.7054 35.3634C29.9578 35.111 29.7054 34.6694 29.3899 34.7956C27.6233 35.4265 25.9828 36.1205 24.3424 37.0039C24.4686 37.1932 24.5947 37.3824 24.7209 37.6348C26.2352 36.8146 27.8126 36.1206 29.2007 35.0479C29.0745 34.8587 28.9483 34.6694 28.8221 34.417C27.9388 35.111 27.0554 35.8051 26.1721 36.4991C25.9197 36.7515 26.1721 37.1932 26.4876 37.067C27.6864 36.6884 28.8221 35.8051 30.084 35.8051C30.0209 35.6158 29.8947 35.4265 29.8316 35.2372C29.1376 36.1206 28.2542 36.9408 27.3709 37.6348C27.0554 37.8872 27.434 38.392 27.8126 38.2027C28.759 37.5717 29.5792 36.8146 30.5887 36.3098C30.4625 36.1206 30.3364 35.9313 30.2102 35.6789C29.3268 36.1206 29.5161 36.6253 29.2007 37.3824C29.0745 37.8872 29.7685 38.0765 29.8947 37.6348Z" fill="#00AEEF"/>
<path d="M12.7328 36.8789C12.4805 36.8789 12.2281 36.8158 11.9757 36.8158C11.9757 37.0682 11.9757 37.2574 11.9757 37.5098C13.4269 37.1313 14.8781 37.3205 16.3293 37.7622C16.7078 37.8884 16.8971 37.3205 16.5817 37.1313C15.1305 36.1848 13.49 35.8063 11.7864 35.7432C11.7864 35.9955 11.7864 36.1848 11.7864 36.4372C13.6162 36.4372 15.4459 36.7527 17.3388 36.7527C17.7804 36.7527 17.7804 36.0586 17.3388 36.0586C15.8245 36.0586 14.3102 35.9955 12.796 36.1217C12.5436 36.1217 12.2912 36.5003 12.5436 36.6896C13.6162 37.636 14.815 38.267 16.0769 38.8979C16.14 38.7086 16.2031 38.4562 16.2662 38.267C14.5626 38.3931 12.9222 38.2039 11.2186 37.8884C10.84 37.8253 10.5876 38.3301 10.9662 38.5193C12.3543 39.3396 13.8685 39.5289 15.4459 39.5919C15.4459 39.3396 15.4459 39.1503 15.4459 38.8979C14.1209 39.0241 12.859 38.8348 11.5972 38.5824C11.1555 38.5193 10.9662 39.0872 11.4079 39.2765C12.796 39.7812 14.1841 40.0336 15.6352 40.3491C15.6352 40.0967 15.6352 39.9074 15.6352 39.655C14.1841 40.0336 12.7329 39.9074 11.2817 39.9705C10.9662 39.9705 10.7769 40.4753 11.0924 40.6015C12.4805 41.2324 13.9317 41.4848 15.3828 41.8003C15.3828 41.5479 15.4459 41.3586 15.4459 41.1062C14.1209 41.0431 12.859 40.7907 11.5972 40.4753C11.2186 40.4122 10.9662 40.9169 11.3448 41.1062C12.6697 41.7372 14.1209 41.9895 15.4459 42.5574C15.4459 42.305 15.4459 42.1157 15.4459 41.8634C14.184 42.0526 12.9221 41.611 11.7233 41.2955C11.2817 41.1693 11.1555 41.7372 11.471 41.9265C12.4174 42.6836 13.49 43.0622 14.6257 43.4407C14.6257 43.1884 14.6888 42.9991 14.6888 42.7467C13.3007 42.7467 11.9126 42.5574 10.5245 42.2419C10.0829 42.1788 9.89359 42.7467 10.3353 42.936C11.3448 43.3145 12.3543 43.63 13.3007 44.1979C13.3007 44.0086 13.3638 43.7562 13.3638 43.5669C12.2281 43.6931 11.1555 43.5038 10.0198 43.2514C9.57812 43.1883 9.45194 43.7562 9.83051 43.9455C11.0293 44.4502 12.2912 44.7657 13.49 45.3336C13.49 45.1443 13.5531 44.8919 13.5531 44.7026C11.9126 45.0812 10.2091 44.955 8.50551 44.955C8.06385 44.955 8.06385 45.586 8.50551 45.649C10.3353 45.9014 12.165 46.28 13.9317 46.8478C13.9317 46.5955 13.9317 46.4062 13.9317 46.1538C12.1019 46.6586 10.3353 46.5324 8.50551 46.3431C8.12694 46.28 8.00075 46.974 8.44241 47.0371C10.3984 47.4157 12.2912 48.0466 14.184 48.4252C14.184 48.1728 14.2471 47.9835 14.2471 47.7312C12.4805 47.7943 10.7138 47.3526 9.01026 46.974C8.63169 46.9109 8.37932 47.4157 8.75789 47.605C10.146 48.299 11.5972 48.8038 13.1114 49.1193C13.1114 48.8669 13.1745 48.6776 13.1745 48.4252C12.3543 48.3621 11.534 48.5514 10.7138 48.5514C10.4614 48.5514 10.2091 48.93 10.4615 49.1193C11.0924 49.6871 11.5341 50.4442 12.165 50.949C12.165 50.7597 12.2281 50.5073 12.2281 50.3181C11.7233 50.3811 11.2186 50.5704 10.7138 50.5704C10.4614 50.6335 10.2091 50.949 10.4615 51.1383C11.0924 51.643 11.471 52.4002 12.1019 52.8418C12.1019 52.6526 12.165 52.4002 12.165 52.2109C11.5972 52.3371 11.1555 52.6526 10.5876 52.7787C10.3353 52.8418 10.2091 53.1573 10.4615 53.3466C11.0293 53.8514 11.471 54.3561 12.165 54.7347C12.2281 54.5454 12.3543 54.293 12.4174 54.1037C11.1555 53.6621 10.5245 53.0311 10.0198 51.7692C9.70431 50.8859 9.83049 50.0657 9.64121 49.1823C9.26264 47.1633 6.73886 46.6586 5.0984 46.2169C5.0984 46.4693 5.0984 46.6586 5.0984 46.9109C6.99124 46.1538 9.38882 46.3431 11.0293 45.0181C11.7233 44.4502 12.165 43.5038 12.1019 42.6205C11.9757 41.4848 11.0293 40.7277 10.3984 39.7812C10.2722 39.9705 10.2091 40.1598 10.0829 40.286C11.6603 40.0967 13.3007 39.9705 14.5626 39.0241C14.7519 38.8979 14.815 38.5824 14.5626 38.3932C13.7424 37.9515 12.9853 37.4467 12.165 37.0682C11.7234 36.8789 11.4079 37.5098 11.7864 37.6991C12.6067 38.0777 13.3638 38.5824 14.184 39.0241C14.184 38.8348 14.184 38.6455 14.184 38.3932C12.9852 39.2765 11.471 39.4027 10.0829 39.5919C9.8305 39.5919 9.64122 39.8443 9.76741 40.0967C10.2722 40.8538 11.0924 41.5479 11.2817 42.3681C11.5972 43.6931 10.5245 44.5764 9.45193 44.955C7.93766 45.5229 6.29719 45.5859 4.84601 46.1538C4.53053 46.28 4.46744 46.7217 4.84601 46.8478C6.1079 47.1633 7.49599 47.4157 8.37932 48.4252C9.07336 49.2454 8.75788 50.0026 8.94716 50.949C9.32573 52.8418 10.2722 54.1037 12.1019 54.7347C12.4805 54.8609 12.7329 54.293 12.3543 54.1037C11.7233 53.7883 11.3448 53.2835 10.7769 52.7787C10.7138 52.968 10.6507 53.1573 10.6507 53.3466C11.2186 53.2204 11.6602 52.9049 12.2281 52.7787C12.5436 52.7156 12.5436 52.274 12.2912 52.1478C11.7233 51.7061 11.3448 51.0121 10.7769 50.5073C10.7138 50.6966 10.5876 50.8859 10.5245 51.0752C11.0924 51.0121 11.6602 50.8228 12.2281 50.7597C12.5436 50.6966 12.5436 50.255 12.2912 50.1288C11.6602 49.6871 11.2817 48.93 10.7138 48.4252C10.6507 48.6145 10.5245 48.8038 10.4615 48.9931C11.2817 48.93 12.1019 48.7407 12.9221 48.8669C13.3007 48.93 13.4269 48.2359 12.9852 48.1728C11.5341 47.8574 10.146 47.4157 8.82099 46.7217C8.75789 46.9109 8.63171 47.1633 8.56861 47.3526C10.3984 47.7312 12.165 48.2359 13.9947 48.1728C14.3733 48.1728 14.4995 47.5419 14.0579 47.4788C12.1019 47.1002 10.2091 46.4693 8.31622 46.0907C8.31622 46.3431 8.25314 46.5324 8.25314 46.7847C10.146 47.0371 12.0388 47.1002 13.8685 46.5955C14.2471 46.5324 14.184 46.0276 13.8685 45.9014C12.0388 45.2705 10.2091 44.8919 8.25314 44.7026C8.25314 44.955 8.25314 45.1443 8.25314 45.3967C10.0198 45.4598 11.7233 45.5859 13.49 45.1443C13.7424 45.0812 13.8685 44.6395 13.5531 44.5133C12.3543 43.9455 11.0293 43.63 9.76741 43.0622C9.70431 43.3145 9.64121 43.5038 9.57811 43.7562C10.84 44.0086 12.0388 44.1979 13.3007 44.0717C13.6162 44.0086 13.6162 43.5669 13.3638 43.4407C12.3543 42.8729 11.2817 42.4943 10.2091 42.1157C10.146 42.3681 10.0829 42.5574 10.0198 42.8098C11.471 43.0622 12.8591 43.3145 14.3733 43.3145C14.7519 43.3145 14.815 42.7467 14.4364 42.6205C13.3638 42.2419 12.3543 41.8634 11.4079 41.1693C11.3448 41.3586 11.2186 41.611 11.1555 41.8003C12.5436 42.1788 13.8055 42.6205 15.2566 42.3681C15.6352 42.305 15.509 41.8003 15.2566 41.6741C13.9947 41.1062 12.6067 40.8538 11.3448 40.286C11.2817 40.4753 11.1555 40.7277 11.0924 40.9169C12.4174 41.2324 13.7424 41.4848 15.1304 41.5479C15.509 41.5479 15.6352 40.9169 15.1936 40.8538C13.8055 40.5384 12.4174 40.286 11.0924 39.7181C11.0293 39.9074 10.9662 40.1598 10.9031 40.3491C12.4174 40.286 13.9316 40.4122 15.4459 40.0336C15.7614 39.9705 15.7614 39.4658 15.4459 39.3396C14.0578 38.961 12.6067 38.7717 11.2186 38.267C11.1555 38.5193 11.0924 38.7086 11.0293 38.961C12.3543 39.2134 13.6793 39.4027 15.0674 39.2765C15.509 39.2134 15.509 38.5824 15.0674 38.5824C13.6162 38.5193 12.2281 38.3301 10.9031 37.5729C10.84 37.7622 10.7138 38.0146 10.6507 38.2039C12.3543 38.4562 14.1209 38.7086 15.8876 38.5824C16.2031 38.5824 16.3923 38.0777 16.0769 37.9515C14.8781 37.3836 13.6793 36.8158 12.6698 35.8694C12.9852 36.4372 12.9221 36.6265 12.7328 36.8789C14.3102 36.6896 15.8245 36.7527 17.3388 36.7527C17.3388 36.5003 17.3388 36.311 17.3388 36.0586C15.509 36.0586 13.6793 35.7432 11.7864 35.7432C11.3448 35.7432 11.3448 36.4372 11.7864 36.4372C13.3638 36.5003 14.8781 36.8158 16.2031 37.6991C16.2662 37.5098 16.3924 37.2574 16.4555 37.0682C14.9412 36.6265 13.3007 36.3741 11.7233 36.8158C11.4079 36.8789 11.3448 37.4467 11.7233 37.5098C12.0388 37.5729 12.3543 37.5729 12.6698 37.5729C13.1745 37.636 13.1745 36.942 12.7328 36.8789Z" fill="#00AEEF"/>
<path d="M17.1494 6.59298C15.9506 6.78226 14.6887 6.97155 13.4899 7.16083C13.6161 7.35012 13.7423 7.5394 13.8054 7.72869C15.6352 6.27751 18.0328 5.89894 20.1149 4.88942C20.4934 4.70014 20.178 4.19538 19.8625 4.25848C16.5185 4.70014 13.1745 5.1418 9.83045 5.96203C9.89354 6.21441 9.95663 6.4037 10.0197 6.65608C13.3006 5.70966 16.7078 5.01561 19.6732 3.31206C19.9887 3.12277 19.7994 2.55492 19.4209 2.68111C16.2661 3.75372 12.9852 4.32157 9.83045 5.26799C9.45188 5.39418 9.51496 6.02513 9.89353 5.96203C12.1018 5.77275 14.3102 5.01561 16.1399 3.81681C16.3292 3.69063 16.3923 3.31206 16.1399 3.18587C15.1304 2.61801 14.0578 2.49183 12.859 2.55492C12.859 2.8073 12.9221 2.99658 12.9221 3.24896C14.6256 2.61801 16.3923 2.30254 18.222 2.49182C18.0958 2.36563 17.9697 2.17635 17.9066 2.05016C17.528 3.62753 15.6351 4.38466 14.3102 4.95252C12.9221 5.52037 11.4709 6.02513 10.209 6.84536C9.89353 7.03464 10.0828 7.6025 10.4614 7.47631C13.8685 6.46679 17.1494 5.1418 20.4934 4.13229C20.9351 4.0061 20.7458 3.37515 20.3042 3.43824C16.7078 3.943 12.9852 5.1418 9.83045 7.03465C9.45188 7.22393 9.70425 7.72869 10.0828 7.66559C15.3197 6.59298 20.2411 4.25848 25.541 3.81681C25.541 3.56444 25.4779 3.37515 25.4779 3.12277C19.6101 5.01561 13.4899 6.08823 7.9376 8.86439C7.62213 8.99058 7.74831 9.55844 8.12688 9.49534C13.6792 9.11677 18.9161 6.90846 24.2791 5.52037C24.216 5.26799 24.1529 5.07871 24.0898 4.82633C17.7804 6.90846 11.0292 7.85487 5.09834 11.0096C4.71977 11.1989 4.97215 11.7667 5.35072 11.6406C11.0292 9.74772 16.8339 8.04416 22.8279 7.5394C22.8279 7.28702 22.7649 7.09774 22.7649 6.84536C17.3387 8.92749 11.8495 10.9465 6.36024 12.9025C5.91857 13.0286 6.10785 13.6596 6.54951 13.5965C13.4268 12.6501 20.0518 10.4418 26.8029 8.86439C26.7398 8.61202 26.6767 8.42273 26.6136 8.17035C19.4839 10.1263 12.1649 11.7037 5.53999 15.1739C5.16142 15.3632 5.4138 15.8679 5.79237 15.8048C12.859 14.606 19.7363 12.4608 26.4244 10.0001C26.866 9.87391 26.6767 9.24296 26.2351 9.30606C19.547 10.7572 12.9221 12.5239 6.48641 14.9215C6.17094 15.0477 6.17094 15.6155 6.54951 15.6155C14.6256 14.9215 22.0708 11.262 30.0838 10.2525C30.0838 10.0001 30.0208 9.81081 30.0208 9.55844C23.3958 12.0191 16.1399 12.7132 10.0197 16.3096C9.70425 16.4989 9.83043 17.0036 10.209 16.9405C17.2756 16.4358 23.9637 13.7858 30.6517 11.5775C31.0934 11.4513 30.9041 10.8203 30.4624 10.8834C21.9446 12.587 13.9316 15.931 5.72929 18.7703C5.35072 18.8965 5.4138 19.5274 5.79237 19.4643C9.57805 19.0226 13.1114 17.1298 16.8339 16.1834C20.8089 15.1739 24.847 14.4798 28.6957 13.0917C29.1374 12.9655 28.9481 12.2715 28.5065 12.3977C21.9446 14.3536 15.2566 15.931 9.1995 19.0857C8.88402 19.2119 9.01021 19.7798 9.38877 19.7167C16.5816 19.0226 23.3958 16.4358 30.2731 14.2274C30.7148 14.1013 30.5255 13.4703 30.0838 13.5334C23.6482 15.0477 17.1494 16.7512 11.0923 19.5905C10.7138 19.7798 10.9661 20.3476 11.3447 20.2214C17.8435 18.5179 24.5315 17.3822 30.841 14.9215C31.2826 14.7322 31.0934 14.1644 30.6517 14.2274C21.9446 15.8048 13.7423 19.2119 5.35072 21.9881C4.97215 22.1143 5.03525 22.7452 5.41381 22.6821C9.76735 22.1143 13.7423 20.2845 17.9696 19.3381C21.6922 18.5179 25.6041 18.1393 28.9481 16.1834C29.3267 15.9941 29.0743 15.4262 28.6957 15.5524C24.4684 16.562 20.4934 18.4548 16.3292 19.6536C13.2376 20.5369 9.70425 21.231 7.18046 23.3762C6.86499 23.6286 7.24355 24.0071 7.49593 23.944C15.3197 22.4929 22.7018 19.3381 30.0208 16.4358C30.3993 16.2465 30.2731 15.6155 29.8315 15.7417C23.2696 17.4453 16.1399 19.5905 10.7769 23.8809C10.4614 24.1333 10.84 24.5119 11.0923 24.4488C18.2851 23.5024 24.9101 19.906 31.4089 16.8774C31.7874 16.6881 31.535 16.1203 31.1565 16.2465C25.4148 18.2655 19.7363 20.4738 14.4994 23.6286C14.2471 23.8178 14.3102 24.3226 14.6887 24.2595C20.6827 23.8178 26.172 20.8524 31.6612 18.581C32.0398 18.3917 31.7874 17.8238 31.4089 17.95C25.7934 19.275 20.872 22.3667 15.8875 25.0797C15.5721 25.269 15.6982 25.7738 16.0768 25.7107C21.3137 25.3952 26.0458 22.6821 30.841 20.7893C31.2826 20.6 31.0934 19.9691 30.6517 20.0953C27.8755 20.9155 25.1625 21.7988 22.5125 22.9976C19.9887 24.0702 17.3387 25.3952 15.509 27.4773C15.2566 27.7297 15.509 28.1714 15.8244 28.0452C22.3863 26.4047 28.885 24.0071 34.6897 20.6C35.0052 20.4107 34.816 19.8429 34.4374 19.9691C28.3803 22.2405 22.3232 24.7012 17.0232 28.4238C16.7708 28.613 16.834 29.0547 17.2125 29.0547C19.547 29.1178 21.8184 27.4773 23.7744 26.5309C27.1184 24.8905 30.7148 23.6286 33.9957 21.8619C34.3743 21.6726 34.0588 21.1048 33.6172 21.231C30.3993 22.6821 27.3708 24.5119 24.216 26.0262C22.3863 26.9095 19.9256 27.6035 18.6006 29.244C18.3482 29.4964 18.6006 29.8749 18.9161 29.8118C24.2791 28.9916 29.0112 26.2154 33.8695 24.0071C34.3112 23.8178 33.9326 23.25 33.491 23.3762C28.1279 25.7738 22.3863 27.7297 17.7173 31.3892C17.4649 31.5785 17.6542 32.0202 17.9696 31.9571C23.7113 31.5785 28.5065 27.6666 33.5541 25.3321C33.9326 25.1428 33.6803 24.575 33.3017 24.7012C28.2541 26.4678 23.3958 28.8023 19.0423 31.894C18.7268 32.0833 18.853 32.5249 19.2315 32.5249C24.3422 33.0928 28.7589 29.244 33.3017 27.6666C33.1755 27.4773 33.0493 27.2881 32.9862 27.0988C29.9577 29.4333 26.1089 30.6321 23.4589 33.5344C23.2065 33.7868 23.4589 34.1654 23.7744 34.1023C27.3077 33.5975 30.4624 31.5154 33.491 29.6857C33.8064 29.4964 33.6171 28.9285 33.2386 29.0547C27.9386 30.569 23.1434 33.4082 17.9066 35.1749C18.0328 35.3642 18.1589 35.5535 18.222 35.7427C21.0613 33.3451 25.0994 32.4618 27.3708 29.4333C27.497 29.244 27.3708 28.9916 27.1815 28.9285C24.4053 28.1714 21.3768 29.0547 18.7268 29.938C15.7613 30.9475 12.9852 32.3356 10.0197 33.4082C10.0828 33.5975 10.209 33.8499 10.2721 34.0392C14.3102 31.9571 18.853 30.8214 22.3863 27.8559C22.5756 27.6666 22.4494 27.3512 22.2601 27.2881C18.4744 26.0262 14.7518 29.1809 11.0292 29.1178C11.0923 29.3071 11.1554 29.5595 11.2185 29.7487C17.2756 25.4583 25.4779 24.7643 30.7148 19.3381C30.9672 19.0857 30.7148 18.7072 30.3993 18.7703C28.3172 19.2119 26.3613 20.1584 24.3422 20.7262C24.4684 20.9155 24.5946 21.1048 24.6577 21.2941C26.4875 19.8429 28.5065 18.7072 30.0208 16.9405C30.147 16.7512 30.1469 16.4989 29.9576 16.3727C27.3708 14.8584 24.0268 16.4989 21.3137 16.8143C21.4399 16.9405 21.5661 17.0667 21.6922 17.1929C21.8815 17.1298 22.0708 17.1298 22.2601 17.0667C22.7018 17.0667 22.7018 16.3727 22.2601 16.3727C21.5661 16.3096 21.0613 16.4989 20.9982 17.1929C20.9982 17.3822 21.1875 17.5715 21.3768 17.5715C23.9006 17.3191 27.2446 15.6155 29.6422 17.0667C29.6422 16.8774 29.5791 16.6881 29.5791 16.4989C28.0648 18.2655 26.0458 19.4643 24.216 20.8524C23.9006 21.1048 24.216 21.5464 24.5315 21.4202C26.5505 20.7893 28.5065 19.906 30.5886 19.4643C30.4624 19.275 30.3362 19.0857 30.2731 18.8965C25.0993 24.3226 16.8971 24.9536 10.9031 29.244C10.6507 29.4333 10.7138 29.8749 11.0923 29.8749C12.9221 29.938 14.6256 29.244 16.3292 28.6761C18.1589 28.1083 20.2411 27.3512 22.1339 27.9821C22.0708 27.7928 22.0077 27.6035 22.0077 27.4142C18.5375 30.3166 13.9947 31.4523 10.0828 33.4713C9.70425 33.6606 9.95663 34.2285 10.3352 34.1023C13.0483 33.0928 15.6982 31.8309 18.4113 30.8845C21.1244 29.8749 24.216 28.8654 27.1184 29.6226C27.0553 29.4333 26.9922 29.3071 26.9291 29.1178C24.6577 32.0833 20.6197 32.9666 17.8435 35.3011C17.5911 35.5535 17.8435 35.9951 18.159 35.8689C23.3327 34.0392 28.191 31.1999 33.491 29.7487C33.4279 29.5595 33.3017 29.3071 33.2386 29.1178C30.2731 30.9475 27.1815 32.9666 23.7113 33.4713C23.8375 33.6606 23.9637 33.8499 24.0268 34.0392C26.6767 31.1368 30.5255 29.938 33.5541 27.6035C33.8064 27.4142 33.5541 26.9095 33.2386 27.0357C28.6958 28.55 24.3422 32.3987 19.2947 31.8309C19.3578 32.0202 19.4208 32.2725 19.4839 32.4618C23.7744 29.4333 28.6327 27.0988 33.6172 25.3321C33.5541 25.1428 33.4279 24.8905 33.3648 24.7012C28.4434 26.9726 23.7113 30.8845 18.0958 31.263C18.1589 31.4523 18.2851 31.6416 18.3482 31.8309C23.0172 28.2345 28.6958 26.2785 33.9957 23.944C33.8695 23.7547 33.7434 23.5655 33.6172 23.3131C28.822 25.5214 24.1529 28.2345 18.853 29.0547C18.9792 29.244 19.1054 29.4333 19.1685 29.6226C20.4934 27.9821 22.9541 27.3512 24.847 26.4047C27.9386 24.8274 30.9041 23.0607 34.0588 21.6726C33.9326 21.4833 33.8064 21.2941 33.6802 21.0417C30.4624 22.7452 27.0553 23.944 23.7744 25.5214C21.7553 26.4678 19.4839 28.1714 17.2125 28.1083C17.2756 28.2976 17.3387 28.55 17.4018 28.7392C22.6387 25.0166 28.6327 22.556 34.6267 20.3476C34.5636 20.1583 34.4374 19.906 34.3743 19.7167C28.5696 23.1238 22.1339 25.4583 15.6352 27.0988C15.7614 27.2881 15.8875 27.4773 15.9506 27.6666C17.7804 25.6476 20.3042 24.3226 22.8279 23.25C25.4148 22.1143 28.1279 21.231 30.841 20.4107C30.7779 20.1584 30.7148 19.9691 30.6517 19.7167C25.9196 21.5464 21.2506 24.2595 16.0768 24.575C16.1399 24.7643 16.203 25.0166 16.2661 25.2059C21.2506 22.5559 26.1089 19.4643 31.6612 18.2024C31.5981 18.0131 31.4719 17.7607 31.4089 17.5715C26.1089 19.8429 20.6827 22.7452 14.8149 23.1869C14.878 23.3762 14.9411 23.6286 15.0042 23.8178C20.178 20.6631 25.7934 18.5179 31.4719 16.4989C31.4088 16.3096 31.2826 16.0572 31.2195 15.8679C24.7839 18.8965 18.222 22.3667 11.0923 23.3762C11.2185 23.5655 11.3447 23.7547 11.4078 23.944C16.7078 19.7798 23.7113 17.6977 30.147 15.9941C30.0839 15.7417 30.0207 15.5524 29.9576 15.3001C22.6387 18.2024 15.2566 21.3571 7.43283 22.8083C7.55902 22.9976 7.68521 23.1869 7.74831 23.3762C10.3352 21.231 14.0578 20.5369 17.2125 19.6536C21.1875 18.5179 24.9732 16.6881 29.0112 15.7417C28.9481 15.5524 28.822 15.3001 28.7589 15.1108C25.4779 17.0036 21.566 17.4453 17.9696 18.2024C13.8054 19.0857 9.89353 20.9786 5.60309 21.5464C5.60309 21.7988 5.66619 21.9881 5.66619 22.2405C14.0578 19.5274 22.197 16.0572 30.9672 14.4798C30.9041 14.2274 30.841 14.0382 30.7779 13.7858C24.4684 16.2465 17.7804 17.4453 11.2816 19.0857C11.3447 19.275 11.4709 19.5274 11.534 19.7167C17.528 16.9405 23.9637 15.237 30.3362 13.7227C30.2731 13.4703 30.2101 13.281 30.147 13.0286C23.3958 15.237 16.5816 17.8238 9.45187 18.5179C9.51497 18.7072 9.57806 18.9595 9.64115 19.1488C15.6982 16.0572 22.3232 14.4798 28.8219 12.5239C28.7589 12.2715 28.6958 12.0822 28.6327 11.8298C24.9101 13.1548 20.9982 13.8489 17.2125 14.8584C15.3828 15.3001 13.553 15.8679 11.7864 16.4989C9.89353 17.1929 8.00069 17.95 5.98166 18.1393C5.98166 18.3917 6.04476 18.581 6.04476 18.8334C14.2471 16.0572 22.2601 12.7132 30.7779 10.9465C30.7148 10.6941 30.6517 10.5049 30.5886 10.2525C23.9636 12.3977 17.3387 15.0477 10.3352 15.5524C10.3983 15.7417 10.4614 15.9941 10.5245 16.1834C16.6447 12.587 23.8375 11.956 30.3993 9.49534C30.7148 9.36915 30.7148 8.7382 30.3362 8.8013C22.3232 9.87391 14.878 13.4703 6.80189 14.1643C6.80189 14.4167 6.86499 14.606 6.86499 14.8584C13.3006 12.5239 19.9256 10.6941 26.6136 9.24296C26.5505 8.99058 26.4874 8.8013 26.4244 8.54892C19.7363 11.0096 12.7959 13.1548 5.79237 14.3536C5.85546 14.5429 5.98167 14.7953 6.04476 14.9846C12.6066 11.5775 19.8625 10.0001 26.9291 8.04416C27.3708 7.91797 27.1815 7.28702 26.7398 7.35012C19.9887 8.92749 13.3637 11.1358 6.48641 12.0822C6.54951 12.3346 6.61261 12.5239 6.67571 12.7763C12.165 10.8203 17.6542 8.8013 23.0803 6.71917C23.3958 6.59298 23.3958 6.02513 23.0172 6.02513C16.9601 6.52989 11.0923 8.23345 5.35072 10.1894C5.41381 10.3787 5.54 10.631 5.60309 10.8203C11.4709 7.72869 18.159 6.78226 24.4684 4.70014C24.9101 4.57395 24.7208 3.943 24.2791 4.0061C18.9792 5.33109 13.8054 7.5394 8.25308 7.98107C8.31617 8.17035 8.37926 8.42273 8.44235 8.61201C13.9316 5.89894 19.9887 4.82633 25.7934 2.93349C26.172 2.8073 26.1089 2.17635 25.7303 2.23945C20.3042 2.7442 15.3197 5.07871 10.0828 6.15132C10.1459 6.3406 10.2721 6.59298 10.3352 6.78227C13.4268 4.95252 17.0232 3.75372 20.6196 3.24896C20.5565 2.99658 20.4934 2.8073 20.4304 2.55492C17.0232 3.56444 13.7423 4.88942 10.3983 5.89894C10.4614 6.08822 10.5876 6.3406 10.6507 6.52989C12.9852 4.95252 17.8435 4.51086 18.6637 1.35612C18.7268 1.10374 18.5375 0.914453 18.3482 0.914453C16.4554 0.662074 14.6256 0.977551 12.859 1.67159C12.5435 1.79778 12.5435 2.36563 12.9221 2.36563C13.9316 2.30254 14.878 2.42873 15.8244 2.87039C15.8244 2.68111 15.8244 2.49183 15.8244 2.23945C14.0578 3.37515 11.9757 4.06919 9.89353 4.25848C9.89353 4.51086 9.95662 4.70014 9.95662 4.95252C13.1114 4.0061 16.3923 3.43824 19.547 2.36563C19.4839 2.17635 19.3578 1.92397 19.2947 1.73469C16.3923 3.43824 13.0483 4.06919 9.83045 4.95252C9.38878 5.07871 9.57806 5.70965 10.0197 5.64656C13.3006 4.82633 16.6447 4.38467 20.0518 3.943C19.9887 3.75372 19.8625 3.50134 19.7994 3.31206C17.6542 4.38467 15.2566 4.70014 13.3637 6.21441C13.0483 6.46679 13.4268 6.84536 13.6792 6.78227C14.878 6.52989 16.1399 6.4037 17.3387 6.21441C17.7804 7.22393 17.5911 6.52988 17.1494 6.59298Z" fill="#00AEEF"/>
<path d="M18.4747 3.43836C10.3355 3.62764 3.39502 10.2526 2.57479 18.2656C1.81765 25.3953 6.42355 31.6417 12.733 34.481C19.0425 37.3833 26.8032 37.0679 32.1031 32.2727C37.9709 26.9096 38.0971 17.6347 34.3114 11.0097C32.6079 8.04427 29.5793 5.64668 26.7401 3.94312C24.027 2.30265 20.2413 0.851474 17.4651 3.05979C16.708 3.62764 17.7806 4.70026 18.5378 4.1324C20.683 2.49194 23.9008 4.00621 25.9198 5.20501C28.3805 6.65619 30.7781 8.61213 32.4817 10.8835C34.3745 13.3442 35.2579 16.8775 35.4471 19.9061C35.6364 23.3763 34.8162 26.8465 32.671 29.6227C24.658 39.844 5.41404 34.1024 4.21524 21.2311C3.4581 12.9026 10.3354 5.07882 18.6639 4.95263C19.4211 4.95263 19.4211 3.43836 18.4747 3.43836Z" fill="white"/>
<path d="M9.83047 32.8414C7.81144 36.564 7.05428 40.7282 6.10786 44.7663C4.97216 49.4984 3.89955 54.2936 3.07932 59.0888C2.95313 59.7828 3.96265 60.4138 4.34122 59.6566C6.04477 56.2495 7.93761 52.9055 10.5245 50.0662C10.1459 49.8769 9.70427 49.7508 9.3257 49.5615C9.3257 51.6436 9.51498 53.7888 9.89355 55.8078C10.1459 57.1328 10.7138 60.0983 12.6697 59.909C12.9852 59.8459 13.2376 59.7197 13.3638 59.4042C14.5626 55.6817 15.4459 51.896 16.3292 48.1103C16.7709 46.2805 17.1495 44.4508 17.5911 42.6841C18.0959 40.7282 18.7268 38.7723 19.1685 36.7532C19.3578 35.8699 18.0328 35.4913 17.8435 36.3747C17.4018 38.3937 16.7709 40.2865 16.2661 42.3056C15.8245 44.1353 15.4459 45.9651 15.0042 47.7317C14.1209 51.5174 13.2376 55.3031 12.0388 59.0257C12.2912 58.8364 12.4804 58.7102 12.7328 58.5209C11.5971 58.6471 11.2816 55.24 11.1554 54.5459C10.9031 52.9055 10.84 51.265 10.7769 49.6246C10.7769 49.0567 10.0197 48.6781 9.57807 49.1198C6.92809 52.0222 4.90907 55.4924 3.14242 58.9626C3.58408 59.1519 4.02575 59.3412 4.40432 59.5304C5.22455 54.8614 6.23405 50.1924 7.36976 45.5865C8.37927 41.5484 9.07331 37.3211 11.0292 33.5985C11.4709 32.7152 10.2721 32.0211 9.83047 32.8414Z" fill="white"/>
<path d="M21.5662 36.1841C21.8817 40.0329 23.0174 43.8816 23.7745 47.6673C24.5316 51.5161 24.2793 56.2482 26.8662 59.466C27.1816 59.8446 27.7495 59.6553 27.9388 59.3399C29.3269 57.1315 28.4435 54.5447 29.3268 52.2101C28.9483 52.3363 28.5697 52.3994 28.128 52.5256C30.5256 54.5447 33.1756 56.3113 35.8887 57.9518C36.3935 58.2672 36.8982 57.8256 36.9613 57.3208C37.2137 55.1756 36.6458 53.0304 36.1411 50.9482C35.5101 48.6137 35.0054 46.2792 34.5006 43.8816C33.9958 41.5471 33.4911 39.2126 32.9864 36.9412C32.5447 35.0484 32.2292 33.0293 31.3459 31.3258C30.9042 30.5055 29.7054 31.2627 30.1471 32.0198C31.0304 33.6603 31.2828 35.6793 31.7245 37.446C32.2292 39.7174 32.7339 41.9888 33.2387 44.2602C33.6804 46.4054 34.122 48.6137 34.6899 50.759C35.2577 52.9042 35.8887 55.0494 35.6363 57.3208C36.0149 57.1315 36.3303 56.9423 36.7089 56.6899C34.122 55.1125 31.5983 53.4089 29.2637 51.453C28.8221 51.0744 28.3173 51.2637 28.0649 51.7685C27.2447 53.9137 28.0649 56.5637 26.803 58.5827C27.1816 58.5196 27.5602 58.5196 27.8757 58.4565C26.5507 56.8161 26.1721 54.4816 25.9197 52.3994C25.6674 50.5697 25.415 48.7399 25.0995 46.9733C24.4055 43.44 23.3328 39.7805 23.0174 36.1841C22.8912 35.3008 21.44 35.3008 21.5662 36.1841Z" fill="white"/>
<path d="M4.27816 59.1509C4.08888 58.2675 5.85553 56.8164 6.42338 56.2485C7.49599 55.0497 8.6317 53.8509 9.70431 52.589C10.0198 52.2735 9.51504 51.7688 9.19956 52.0843C7.87457 53.5354 6.54957 54.9866 5.22458 56.5009C4.59363 57.1949 3.39483 58.2675 3.58411 59.4032C3.7103 59.7818 4.34126 59.5925 4.27816 59.1509Z" fill="white"/>
<path d="M8.19012 53.2205C8.4425 53.0312 8.69488 52.8419 8.88417 52.6526C9.07345 52.4633 8.82106 52.274 8.63177 52.4002C8.44249 52.5895 8.2532 52.7788 8.00083 52.905C7.81154 53.0312 8.00084 53.3467 8.19012 53.2205Z" fill="white"/>
<path d="M28.0649 58.9614C28.0649 58.0781 28.5065 57.2579 28.7589 56.4376C29.0744 55.5543 29.2006 54.6079 29.5792 53.6615C29.6422 53.4722 29.3268 53.346 29.2637 53.5984C28.8851 54.6079 28.7589 55.6805 28.3803 56.6269C28.128 57.384 27.7494 58.1412 27.7494 58.9614C27.7494 59.2138 28.0649 59.2138 28.0649 58.9614Z" fill="white"/>
<path d="M27.8126 59.0876C27.9388 58.2673 28.3174 57.5733 28.6328 56.8161C29.0114 55.8697 29.2007 54.8602 29.7054 53.8507C29.8316 53.6614 29.5162 53.4721 29.39 53.6614C28.9483 54.5447 28.759 55.4912 28.4435 56.3745C28.1281 57.2578 27.6864 58.015 27.4971 58.8983C27.434 59.2138 27.7495 59.3399 27.8126 59.0876Z" fill="white"/>
<path d="M31.7244 33.5355C32.1661 36.2486 33.1125 38.7723 33.9327 41.3592C34.753 43.8199 35.6994 46.2806 35.6363 48.9306C35.6363 49.183 35.9518 49.183 36.0149 48.9306C36.078 46.4068 35.1946 44.0092 34.4375 41.6747C33.5542 38.9616 32.5446 36.2486 32.103 33.4724C32.0399 33.22 31.7244 33.3462 31.7244 33.5355Z" fill="white"/>
<path d="M19.4841 36.1215C19.2318 38.0143 18.4746 39.9071 18.033 41.7369C17.5913 43.7559 17.1497 45.7749 16.5818 47.7309C15.9509 49.6868 15.0675 51.5166 14.3735 53.4094C13.6794 55.2392 13.2378 57.1951 12.6068 59.0248C12.5437 59.2141 12.8592 59.3403 12.9223 59.0879C13.6163 57.132 14.058 55.1761 14.8151 53.2832C15.5723 51.3273 16.4556 49.4344 17.0866 47.4154C17.6544 45.4595 18.033 43.3773 18.5377 41.4214C18.9163 39.6548 19.6734 37.9512 19.8627 36.1215C19.8627 35.9322 19.5472 35.9322 19.4841 36.1215Z" fill="white"/>
<path d="M34.3744 43.5028C34.4375 44.7016 34.9423 45.7742 35.2577 46.8469C35.6994 48.2349 36.0149 49.6861 36.3934 51.1373C36.5196 51.1373 36.6458 51.0742 36.7089 51.0742C36.078 49.2445 35.9518 47.2885 35.5101 45.3957C35.447 45.2064 35.1947 45.2695 35.1947 45.4588C35.0054 47.4778 36.078 49.4968 36.4565 51.4528C36.6458 52.5254 36.772 53.598 36.8982 54.6706C36.9613 55.3646 37.2768 56.8789 36.5196 57.3206C36.5827 57.3837 36.7089 57.4468 36.772 57.4468C37.0875 54.9861 36.9613 52.4623 36.4565 50.0016C36.2042 48.8028 35.9518 47.5409 35.6363 46.3421C35.3839 45.2064 35.3208 44.0707 34.9423 42.9981C34.8792 42.8088 34.5006 42.8719 34.6268 43.0612C35.0054 44.0076 35.0054 45.0171 35.2577 46.0266C35.5101 47.2254 35.8256 48.4873 36.078 49.6861C36.5827 52.273 36.772 54.8599 36.4565 57.4468C36.4565 57.573 36.6458 57.6361 36.7089 57.573C37.9077 56.8789 37.2768 54.4813 37.1506 53.4087C37.0244 52.2099 36.8351 50.948 36.5196 49.7492C36.1411 48.298 35.447 46.91 35.6363 45.3957C35.5101 45.3957 35.3839 45.3957 35.3208 45.4588C35.7625 47.3516 35.9518 49.3076 36.5196 51.1373C36.5827 51.3266 36.8982 51.2635 36.8351 51.0742C36.4565 49.8123 36.2042 48.4873 35.8256 47.2254C35.447 46.0266 34.8792 44.8278 34.8161 43.5659C34.6899 43.3136 34.3744 43.3136 34.3744 43.5028Z" fill="white"/>
<path d="M18.9794 36.6893C18.5377 36.5 18.6639 36.5 18.2222 36.5631C18.0961 36.5631 18.033 36.6262 18.033 36.7524C17.9068 39.4655 17.0866 42.0524 16.5818 44.6393C16.708 44.6393 16.8342 44.6393 16.8973 44.7024C17.0235 42.9988 17.4651 41.3583 17.8437 39.7179C18.0961 38.7084 18.033 37.2572 18.727 36.4369C18.6008 36.4369 18.5377 36.3738 18.4115 36.3738C18.7901 39.4024 17.7175 43.1881 16.0139 45.7119C16.1401 45.7119 16.2032 45.775 16.3294 45.775C16.2032 44.0083 16.8972 42.3048 17.4651 40.6012C18.096 38.8345 18.5377 37.0048 19.1056 35.2381C18.9794 35.2381 18.8532 35.2381 18.7901 35.175C18.9163 40.7905 15.5723 45.5857 14.5628 50.9487C14.4997 51.138 14.8782 51.2642 14.8782 51.0118C15.8877 45.5857 19.1687 40.7905 19.1056 35.112C19.1056 34.9227 18.8532 34.8596 18.7901 35.0489C18.1592 36.9417 17.7175 38.8976 17.0234 40.7905C16.4556 42.3678 15.8878 44.0083 15.9508 45.7119C15.9508 45.9012 16.2032 45.9643 16.2663 45.775C18.033 43.1881 19.1056 39.2762 18.6639 36.1846C18.6639 36.0584 18.4746 35.9953 18.3484 36.1215C17.6544 36.9417 17.7175 38.1405 17.4651 39.15C17.0865 40.9798 16.5818 42.7464 16.3925 44.6393C16.3925 44.8285 16.708 44.8916 16.708 44.7024C16.9603 43.3143 17.3389 41.9262 17.6544 40.5381C17.7806 39.9072 17.9068 39.2762 17.9699 38.6453C18.0329 38.2667 18.033 36.6893 18.5377 36.9417C19.0425 37.0679 19.2318 36.7524 18.9794 36.6893Z" fill="white"/>
<path d="M32.3556 33.5976C33.6175 32.1464 33.6175 30.1905 34.3746 28.55C34.2484 28.55 34.1853 28.4869 34.0591 28.4869C33.996 30.1905 32.9865 31.8941 31.7247 32.9667C31.5985 33.0929 31.7877 33.3452 31.9139 33.2191C33.302 32.1464 33.9329 30.5691 34.8163 29.1179C34.6901 29.0548 34.627 29.0548 34.5008 28.9917C34.1222 30.9476 32.6711 32.0834 31.283 33.3453C31.1568 33.4714 31.283 33.6607 31.4092 33.6607C33.4913 33.7869 34.627 30.4429 35.1949 28.9286C36.2675 25.9001 36.9615 22.493 36.4568 19.2751C36.3937 19.0227 36.0782 19.1489 36.1413 19.3382C36.5829 22.3037 36.0151 25.3953 35.0687 28.2346C34.5639 29.6858 33.4282 33.4083 31.4092 33.2822C31.4723 33.4083 31.4722 33.4714 31.5353 33.5976C32.9234 32.2726 34.4377 31.0738 34.8163 29.0548C34.8794 28.8655 34.627 28.7393 34.5008 28.9286C33.6806 30.3167 33.0496 31.8941 31.7247 32.9036C31.7877 32.9667 31.8508 33.0929 31.9139 33.156C33.2389 31.9572 34.3115 30.2536 34.3746 28.4239C34.3746 28.2346 34.1222 28.1715 34.0591 28.3608C33.302 30.0012 33.302 31.9572 32.0401 33.3453C31.977 33.5345 32.2294 33.7869 32.3556 33.5976Z" fill="white"/>
<path d="M19.7365 3.56537C18.8532 3.50227 18.0329 3.62846 17.2127 4.07012C17.0865 4.13322 17.1496 4.3856 17.2758 4.3856C18.4115 4.3856 19.5472 4.25941 20.6829 4.00703C20.8722 3.94394 20.8722 3.69156 20.6829 3.69156C19.2948 3.31299 17.9067 3.43918 16.4556 3.43918C16.4556 3.56537 16.4555 3.69156 16.5186 3.75465C17.7805 3.50227 19.0424 3.2499 20.1781 2.61895C20.3043 2.55585 20.3043 2.30347 20.115 2.30347C18.7901 2.0511 17.2758 2.24038 15.9508 2.55585C14.752 2.87133 13.3639 3.31299 12.6068 4.3225C12.4806 4.51179 12.796 4.70107 12.9222 4.51179C13.6163 3.43918 15.1306 3.06061 16.3294 2.80823C17.5282 2.55585 18.79 2.36657 19.9888 2.61895C19.9888 2.49276 19.9889 2.42966 19.9258 2.30347C18.7901 2.93442 17.5913 3.1868 16.3294 3.43918C16.1401 3.50227 16.2032 3.81775 16.3924 3.75465C17.7805 3.69156 19.1686 3.62846 20.4936 4.00703C20.4936 3.88084 20.4936 3.75465 20.4936 3.69156C19.421 3.88084 18.2853 4.00703 17.2127 4.07012C17.2127 4.19631 17.2758 4.25941 17.2758 4.3856C18.0329 4.00703 18.7901 3.88084 19.6103 3.94394C19.9889 3.94394 19.9889 3.56537 19.7365 3.56537Z" fill="white"/>
<path d="M18.6639 2.55574C14.1842 2.49265 9.89377 5.26881 7.30689 8.80212C7.1807 8.9914 7.49617 9.18069 7.62236 8.9914C10.1462 5.52119 14.3104 2.87121 18.6639 2.93431C18.8532 2.93431 18.8532 2.55574 18.6639 2.55574Z" fill="white"/>
<path d="M14.3104 4.38477C11.5973 4.44786 8.94732 6.52999 7.11758 8.35974C4.65688 10.7573 2.38548 14.0383 1.62835 17.3823C0.240263 23.6918 5.41402 28.7393 9.26279 33.0298C9.38898 33.2191 9.64138 32.9667 9.51519 32.7774C5.85569 28.6762 0.808115 23.881 1.94382 17.8239C2.51167 14.6061 4.65688 11.5145 6.8021 9.17997C8.63185 7.22403 11.4711 4.82643 14.3104 4.76334C14.4997 4.76334 14.4997 4.38477 14.3104 4.38477Z" fill="white"/>
<path d="M3.45806 15.6161C3.07949 17.3196 3.33187 19.0232 3.45806 20.7268C3.45806 20.9791 3.83663 20.9791 3.83663 20.7268C3.71044 19.0863 3.45806 17.3827 3.83663 15.7423C3.83663 15.4899 3.52115 15.3637 3.45806 15.6161Z" fill="white"/>
<path d="M35.8889 31.0122C36.1419 31.0122 36.1419 30.6328 35.8889 30.6328C35.6992 30.6328 35.6992 31.0122 35.8889 31.0122Z" fill="white"/>
<path d="M32.2921 32.6521C32.2291 32.589 32.229 32.4628 32.1659 32.3997C32.0398 32.2104 31.7874 32.3997 31.8505 32.589C31.9136 32.6521 31.9136 32.7783 31.9767 32.8414C32.0398 33.0306 32.3552 32.9044 32.2921 32.6521Z" fill="white"/>
<path d="M32.2291 32.9668C33.3648 32.5251 34.6898 32.5882 35.8255 32.3989C35.9517 32.3989 36.0779 32.2096 36.0779 32.0835C36.141 30.5692 36.141 28.9918 35.51 27.5406C35.3208 27.099 34.6898 27.4775 34.8791 27.9192C35.447 29.1811 35.4469 30.6954 35.3838 32.0835C35.4469 31.9573 35.5731 31.8311 35.6362 31.768C34.4374 31.9573 33.1755 31.8942 32.0398 32.3358C31.5982 32.462 31.7874 33.1561 32.2291 32.9668Z" fill="white"/>
<path d="M35.5102 28.1718C36.2673 27.7301 37.0875 27.4147 37.9708 27.3516C38.2232 27.3516 38.3494 27.1623 38.2863 26.9099C38.0339 25.5849 37.2137 24.5123 36.7721 23.2504C36.6459 22.8087 35.9518 22.998 36.078 23.4397C36.5197 24.7016 37.3399 25.7742 37.5923 27.0992C37.7185 26.973 37.8447 26.7837 37.9078 26.6575C36.8983 26.7206 35.9518 27.0361 35.0685 27.5408C34.753 27.7932 35.1316 28.4242 35.5102 28.1718Z" fill="white"/>
<path d="M36.3933 23.6914C37.4659 23.439 38.5385 23.5021 39.548 22.9973C39.6742 22.9342 39.7373 22.7449 39.7373 22.6187C39.1694 21.2307 38.0337 19.8426 36.7719 19.0223C36.3933 18.77 36.0147 19.4009 36.3933 19.6533C37.4659 20.3473 38.5385 21.6092 39.0432 22.808C39.1063 22.6818 39.1694 22.5556 39.2325 22.4295C38.2861 22.9342 37.2135 22.808 36.2671 23.0604C35.7623 23.1235 35.9516 23.8175 36.3933 23.6914Z" fill="white"/>
<path d="M36.7089 19.5279C37.5291 18.6445 38.6017 18.0767 39.3589 17.1303C39.5482 16.941 39.4851 16.7517 39.2958 16.5624C37.9708 15.5529 36.8982 14.0386 35.3839 13.3446C35.0053 13.1553 34.6267 13.7862 35.0053 13.9755C36.5196 14.6696 37.5922 16.1838 38.9172 17.1934C38.9172 17.0041 38.8541 16.8148 38.8541 16.6255C38.097 17.5088 37.0244 18.1398 36.2041 19.0231C35.8887 19.4017 36.3934 19.9064 36.7089 19.5279Z" fill="white"/>
<path d="M35.8254 13.8483C35.6993 12.3341 36.6457 11.0091 36.5195 9.4948C36.5195 9.30552 36.3933 9.11623 36.1409 9.11623C34.879 9.11623 33.6802 8.48529 32.3552 8.54838C31.9136 8.54838 31.9136 9.24242 32.3552 9.24242C33.6171 9.17933 34.8159 9.81028 36.1409 9.81028C36.0147 9.68409 35.8885 9.55789 35.7623 9.4317C35.8885 10.946 35.0052 12.271 35.0683 13.7852C35.1314 14.29 35.8885 14.29 35.8254 13.8483Z" fill="white"/>
<path d="M32.6077 8.48575C32.6077 7.35005 32.6078 6.21435 32.8601 5.07864C32.9232 4.82626 32.734 4.63697 32.5447 4.63697C31.2828 4.57388 30.084 5.01554 28.8221 5.20483C28.3804 5.26792 28.5697 5.96196 29.0113 5.89887C30.2101 5.70958 31.3459 5.33102 32.5447 5.39411C32.4185 5.26792 32.2923 5.07864 32.2292 4.95245C31.9768 6.15125 31.9137 7.35005 31.9768 8.54885C31.9137 8.92742 32.6077 8.92742 32.6077 8.48575Z" fill="white"/>
<path d="M28.9481 5.58456C28.5695 4.32266 28.3802 2.99767 28.0647 1.73578C28.0016 1.60959 27.8754 1.4834 27.7493 1.4834C26.1719 1.4834 24.5945 1.98816 23.2695 2.87149C22.891 3.12386 23.2695 3.75481 23.6481 3.50243C24.8469 2.6822 26.3612 2.24053 27.8124 2.17744C27.6862 2.11434 27.56 1.98816 27.4969 1.92506C27.7493 3.25005 28.0016 4.51195 28.3802 5.77384C28.3802 6.21551 29.0743 6.02622 28.9481 5.58456Z" fill="white"/>
<path d="M23.6483 2.23986C22.828 1.48273 21.9447 0.851779 21.1245 0.0946421C20.9983 -0.0315474 20.7459 -0.0315474 20.6197 0.0946421C19.7364 0.851779 19.1055 1.92439 18.1591 2.61843C17.7805 2.87081 18.1591 3.50176 18.5376 3.24938C19.5471 2.55534 20.2412 1.48273 21.1245 0.662496C20.9352 0.662496 20.809 0.662496 20.6197 0.662496C21.44 1.41963 22.3233 2.05058 23.1435 2.80771C23.459 2.997 23.9638 2.55534 23.6483 2.23986Z" fill="white"/>
<path d="M18.9161 2.2394C18.0959 1.29298 16.8971 0.851316 15.8876 0.0941788C15.7614 0.031084 15.5721 0.0310831 15.4459 0.157273C14.4995 1.22988 14.2471 2.61797 13.553 3.81677C13.3007 4.19534 13.9316 4.57391 14.184 4.19534C14.878 3.05963 15.0673 1.67155 15.9507 0.662032C15.8245 0.662032 15.6983 0.725126 15.509 0.725126C16.4554 1.41917 17.5911 1.79773 18.4113 2.74416C18.6637 3.05963 19.1685 2.55487 18.9161 2.2394Z" fill="white"/>
<path d="M13.9947 3.12265C12.7959 2.68098 11.534 2.4917 10.2721 2.5548C10.1459 2.5548 9.95664 2.68098 9.95664 2.80717C9.64117 4.06907 9.45189 5.39406 9.13642 6.71905C9.01023 7.16071 9.70427 7.35 9.83046 6.90833C10.1459 5.64644 10.3352 4.32145 10.6507 2.99646C10.5245 3.05956 10.3983 3.18575 10.3352 3.24884C11.534 3.12265 12.7328 3.37503 13.9316 3.7536C14.184 3.94288 14.3733 3.24884 13.9947 3.12265Z" fill="white"/>
<path d="M9.51509 5.77246C8.31629 5.77246 7.18059 6.08793 6.04488 6.21412C5.8556 6.21412 5.66631 6.34031 5.66631 6.59269C5.66631 8.29625 5.91869 10.0629 5.35084 11.7034C5.22465 12.145 5.8556 12.3343 6.04488 11.8926C6.61273 10.1891 6.36036 8.35934 6.36036 6.59269C6.23417 6.71888 6.10797 6.84507 5.98178 6.97126C7.11749 6.84507 8.31629 6.5296 9.45199 6.5296C9.95675 6.4665 9.95676 5.77246 9.51509 5.77246Z" fill="white"/>
<path d="M5.66616 9.3063C4.46736 9.05392 3.14237 10.1265 2.19595 10.7575C2.06976 10.8206 2.00665 11.0099 2.00665 11.1361C2.25903 12.3979 3.07926 13.5967 3.8995 14.4801C4.21497 14.7955 4.71974 14.2908 4.40426 13.9753C3.64713 13.1551 2.88998 12.0194 2.7007 10.8837C2.6376 11.0099 2.57452 11.136 2.51142 11.2622C3.20546 10.8206 4.53044 9.68487 5.47686 9.87416C5.91853 10.0634 6.10782 9.3694 5.66616 9.3063Z" fill="white"/>
<path d="M4.02576 14.1023C2.82696 14.8594 1.56507 15.4904 0.618645 16.563C0.492456 16.6892 0.492456 16.9416 0.618645 17.0677C1.31269 17.6987 2.13292 17.9511 2.89006 18.3927C2.89006 18.2034 2.82696 18.0142 2.82696 17.8249C1.81745 18.9606 0.934123 20.1594 0.0507966 21.4213C-0.0753929 21.6106 0.0507889 21.8629 0.240073 21.926C1.24959 22.1784 2.32219 22.1784 3.26861 22.4939C3.71028 22.6201 3.89957 21.926 3.45791 21.7999C2.44839 21.5475 1.37577 21.5475 0.42935 21.232C0.492444 21.4213 0.555551 21.5475 0.618645 21.7368C1.43888 20.538 2.3222 19.4022 3.33171 18.2665C3.4579 18.0773 3.4579 17.8249 3.26861 17.6987C2.57457 17.3201 1.75434 17.0677 1.1234 16.4999C1.1234 16.6892 1.1234 16.8154 1.1234 17.0046C2.06982 15.9951 3.26862 15.4273 4.40433 14.6701C4.7198 14.4178 4.40433 13.8499 4.02576 14.1023Z" fill="white"/>
<path d="M2.89007 21.9248C2.13293 23.3128 1.69126 24.8271 1.1865 26.3414C1.12341 26.5938 1.37579 26.8462 1.62817 26.7831C2.44841 26.6569 3.33173 26.6569 4.15196 26.6569C4.02577 26.4676 3.96268 26.2783 3.83649 26.1521C3.26864 27.5402 2.51149 28.8652 2.4484 30.3795C2.4484 30.6318 2.70078 30.758 2.89007 30.6949C4.08887 30.5056 5.16146 29.9378 6.10788 29.1807C6.48645 28.9283 5.9817 28.4235 5.60313 28.6759C4.7829 29.3699 3.77338 29.8116 2.70077 30.0009C2.82696 30.1271 3.01625 30.2533 3.14244 30.3164C3.20554 28.9283 3.89958 27.6664 4.40434 26.4676C4.53053 26.2152 4.40434 25.9628 4.08886 25.9628C3.14244 25.8997 2.25911 25.8997 1.37578 26.089C1.50197 26.2152 1.69126 26.4045 1.81745 26.5307C2.32221 25.0795 2.70078 23.6283 3.45792 22.3033C3.7103 21.8617 3.14245 21.5462 2.89007 21.9248Z" fill="white"/>
<path d="M5.54018 29.2449C5.54018 30.5068 5.414 31.7687 5.414 33.0306C5.414 33.2829 5.66637 33.4091 5.85565 33.346C6.80207 33.1567 7.62231 32.7782 8.44254 32.3365C8.25326 32.2734 8.12708 32.2103 7.93779 32.1472C8.12708 32.9674 8.19017 33.7246 8.50564 34.4817C8.69492 34.9234 9.26278 34.5448 9.13659 34.1032C8.82111 33.4091 8.75801 32.652 8.63182 31.8948C8.56872 31.6425 8.31635 31.5794 8.12707 31.7056C7.36993 32.1472 6.5497 32.5258 5.66638 32.652C5.79257 32.7782 5.98184 32.9044 6.10803 32.9675C6.10803 31.7056 6.23423 30.4437 6.23423 29.1818C6.23423 28.8032 5.54018 28.8032 5.54018 29.2449Z" fill="white"/>
</g>
</svg>
