<svg width="60" height="58" viewBox="0 0 60 58" fill="none" xmlns="http://www.w3.org/2000/svg">
<g opacity="0.2">
<path d="M13.4559 12.3276C13.223 12.2111 13.0483 12.0947 12.7571 12.0364C12.8153 12.2694 12.8153 12.5605 12.8736 12.7935C13.8053 12.2111 14.6788 11.6288 15.5523 10.93C15.8435 10.697 15.6105 10.1729 15.2611 10.2312C13.8635 10.2894 12.5242 10.7553 11.1848 10.8135C11.243 11.1047 11.3013 11.3376 11.4177 11.6288C12.3495 10.9882 13.4559 10.7553 14.5623 10.4641C14.4458 10.2312 14.2711 9.99824 14.1547 9.76531C13.5141 10.5806 12.6406 11.0464 11.7671 11.6288C11.3595 11.8617 11.5924 12.5605 12.1165 12.3858C13.3394 11.9782 14.5041 11.5123 15.7852 11.4541C15.6688 11.2211 15.6105 10.9882 15.4941 10.7553C14.0965 12.0946 11.8836 12.677 10.9518 14.4822C10.7771 14.8316 11.0683 15.181 11.4177 15.1228C12.4077 14.9481 13.3977 14.7152 14.3876 14.5405C14.9117 14.424 14.6788 13.6087 14.1547 13.7252C13.1647 13.8999 12.1748 14.1328 11.1848 14.3075C11.3595 14.5405 11.5342 14.7152 11.6506 14.9481C12.5241 13.2593 14.737 12.677 16.0764 11.3959C16.3093 11.1629 16.1346 10.6388 15.7852 10.697C14.4459 10.7553 13.1647 11.2794 11.8836 11.687C12.0001 11.92 12.1165 12.2111 12.233 12.4441C13.1647 11.8617 14.1547 11.3376 14.7953 10.4641C15.0282 10.1147 14.8535 9.64884 14.3876 9.76531C13.223 10.0565 12.0583 10.3476 11.0101 10.9882C10.6607 11.2211 10.7771 11.8035 11.243 11.8035C12.6406 11.687 13.98 11.2211 15.3193 11.2211C15.2029 10.9882 15.1446 10.7553 15.0282 10.5223C14.2129 11.1629 13.3976 11.7452 12.5241 12.2111C12.233 12.3858 12.233 12.9099 12.6406 12.9682C12.8153 12.9682 12.99 13.0846 13.1065 13.2011C13.4559 13.3176 13.9218 12.6188 13.4559 12.3276Z" fill="#00AEEF"/>
<path d="M12.2913 12.9098C12.5243 12.6769 12.5243 12.6769 12.7572 12.3857C12.9319 12.211 12.6407 11.8616 12.4078 11.9781C11.3596 12.3857 10.4861 13.0263 9.55436 13.5504C9.20496 13.7251 9.49612 14.1909 9.84552 14.0162C10.719 13.5504 11.5343 13.0845 12.2913 12.5022C12.1749 12.3857 12.0002 12.211 11.8837 12.0945C11.2431 12.7351 10.4861 13.2592 9.72905 13.7833C9.43788 13.958 9.6126 14.3656 9.962 14.3074C11.0684 14.0745 12.1166 13.6086 13.2231 13.3757C13.1066 13.201 13.0484 13.0845 12.9319 12.9098C12.0584 13.7833 10.952 14.4239 9.962 15.1227C9.67083 15.2974 9.84551 15.705 10.1949 15.6468C11.4178 15.4721 12.466 14.7733 13.5724 14.2492C13.456 14.0745 13.3395 13.958 13.2231 13.7833C12.466 14.6568 11.5343 15.3556 10.6608 16.1709C10.4278 16.4038 10.719 16.8114 11.0102 16.6367C11.9419 15.9962 12.8737 15.5303 13.9801 15.2391C13.8636 15.0644 13.8054 14.948 13.6889 14.7733C13.0484 15.2974 12.4078 15.7632 11.7672 16.2291C11.4761 16.4038 11.6508 16.8114 12.0002 16.7532C12.8737 16.5785 13.7472 16.2291 14.5624 15.9379C14.446 15.7632 14.3877 15.6468 14.2713 15.4721C13.6307 16.0544 12.9319 16.5203 12.2331 16.9279C12.3496 17.1026 12.466 17.2191 12.5825 17.3938C13.6307 16.5203 14.7954 15.7632 15.7271 14.7733C15.9018 14.5986 15.7271 14.1909 15.4359 14.3074C14.7371 14.5403 14.0383 14.6568 13.3978 14.948C13.5142 15.1227 13.5725 15.2974 13.6889 15.4138C14.5624 14.8315 15.3777 14.1909 15.7271 13.201C15.8436 12.968 15.4942 12.7351 15.3195 12.8516C14.7954 13.201 14.2713 13.5504 13.7472 13.958C13.8636 14.0745 14.0383 14.2492 14.1548 14.3656C14.8536 13.7251 15.4359 13.0263 15.96 12.2692C16.1347 12.0363 15.7853 11.8034 15.5524 11.8616C14.6789 12.2692 13.9218 12.7933 13.2813 13.5504C13.1066 13.7251 13.2813 14.1327 13.5724 14.0162C14.446 13.6668 15.2612 13.201 16.0765 12.7351C15.9601 12.6186 15.8436 12.5022 15.6689 12.3275C15.0865 13.3757 14.213 14.1909 13.456 15.1227C13.3395 15.2974 13.3978 15.6468 13.6307 15.5885C14.3877 15.5303 15.1448 15.4721 15.8436 15.7632C15.7853 15.6468 15.7271 15.4721 15.6689 15.3556C15.203 16.0544 14.6207 16.5203 13.8636 16.8114C13.9801 16.9279 14.0966 16.9861 14.213 17.1026C14.446 14.0162 10.0202 15.7632 8.50616 16.1709C8.56439 16.3456 8.62262 16.5203 8.68085 16.695C8.97202 16.5785 9.03024 16.5785 9.32141 16.4038C9.61258 16.2291 9.32141 15.705 9.03024 15.9379C8.85554 15.9962 8.73908 16.1126 8.56438 16.1709C8.21498 16.2873 8.33144 16.8114 8.73907 16.695C9.96198 16.3456 13.8636 14.6568 13.7472 17.0444C13.7472 17.2191 13.9219 17.3938 14.0966 17.3355C15.0283 16.9861 15.6689 16.462 16.2512 15.6468C16.3677 15.4721 16.2512 15.2974 16.0765 15.2391C15.3195 14.948 14.5042 15.0062 13.7472 15.0644C13.8054 15.2391 13.8636 15.4138 13.9219 15.5303C14.7371 14.5403 15.6106 13.6668 16.2512 12.6186C16.3677 12.3857 16.1347 12.0945 15.8436 12.211C15.0865 12.6769 14.3295 13.0845 13.5142 13.4339C13.6307 13.6086 13.6889 13.7251 13.8054 13.8998C14.3877 13.201 15.0865 12.6769 15.96 12.3275C15.8436 12.211 15.7271 12.0945 15.5524 11.9198C15.0283 12.6769 14.5042 13.2592 13.8054 13.8998C13.5142 14.1327 13.9219 14.5403 14.213 14.3074C14.6789 13.958 15.203 13.6668 15.6689 13.3174C15.5524 13.201 15.3777 13.0845 15.2612 12.968C14.9118 13.7833 14.1548 14.3074 13.456 14.8315C13.1648 15.0644 13.3978 15.4721 13.7472 15.2974C14.3295 15.0062 15.0283 14.8897 15.6689 14.715C15.5524 14.5403 15.4942 14.4239 15.3777 14.2492C14.3877 15.2391 13.2813 15.9962 12.2331 16.8697C12.0001 17.1026 12.2913 17.452 12.5825 17.3355C13.3395 16.8697 14.0965 16.4038 14.7371 15.8215C14.9701 15.6468 14.7371 15.2391 14.446 15.3556C13.5724 15.705 12.7572 15.9962 11.8837 16.1709C11.9419 16.3456 12.0584 16.5203 12.1166 16.695C12.8154 16.2291 13.5142 15.705 14.1548 15.1227C14.3877 14.948 14.1548 14.5986 13.8636 14.6568C12.7572 14.948 11.709 15.4721 10.7772 16.1126C10.8937 16.2873 11.0102 16.4038 11.1267 16.5785C12.0002 15.7632 12.9319 15.0644 13.6889 14.1909C13.9219 13.958 13.6307 13.6086 13.3395 13.7251C12.2331 14.1909 11.3013 14.8897 10.0784 15.0644C10.1367 15.2391 10.2532 15.4138 10.3114 15.5885C11.3596 14.8315 12.466 14.1909 13.3978 13.2592C13.6307 13.0263 13.3978 12.7351 13.1066 12.7933C12.0001 13.0263 10.952 13.4921 9.84552 13.7251C9.90376 13.8998 10.0202 14.0745 10.0784 14.2492C10.8937 13.6668 11.6508 13.1427 12.3496 12.4439C12.6407 12.1528 12.2331 11.8034 11.9419 12.0363C11.1849 12.6186 10.4278 13.0845 9.61258 13.4921C9.72904 13.6668 9.78728 13.8415 9.90374 13.958C10.8355 13.4921 11.6508 12.8516 12.6407 12.4439C12.5243 12.3275 12.4078 12.1528 12.2913 12.0363C12.1749 12.1528 12.0584 12.2692 11.9419 12.4439C11.5925 12.7351 12.0002 13.1427 12.2913 12.9098Z" fill="#00AEEF"/>
<path d="M15.4942 41.0959C16.3677 40.3971 17.2994 39.8148 18.2894 39.2906C18.6388 39.1159 18.3476 38.6501 17.9982 38.8248C16.7171 39.4653 15.6107 40.3971 14.2713 41.0377C14.3878 41.1541 14.5042 41.2706 14.6789 41.4453C15.6107 40.2224 16.8336 39.2324 17.5906 37.893C17.7071 37.6601 17.5324 37.4272 17.2412 37.4854C16.2512 37.7183 15.3195 38.0677 14.3878 38.5336C14.0966 38.6501 14.3295 39.1742 14.6207 39.0577C15.2613 38.8248 15.9601 38.7665 16.6006 38.7083C16.5424 38.5336 16.4842 38.3589 16.4259 38.2424C15.436 39.4071 14.0966 40.2224 13.0484 41.3288C12.8155 41.5618 13.1066 41.9112 13.3978 41.7947C14.7372 41.1541 16.0183 40.5136 17.3577 39.873C17.2412 39.6983 17.1247 39.5818 17.0083 39.4071C15.203 40.8047 13.3395 42.0859 11.6508 43.5999C11.4178 43.7746 11.6508 44.0658 11.8255 44.0658C13.8054 44.2987 15.5524 42.4353 17.2412 41.7365C17.1247 41.5618 17.0665 41.3871 16.95 41.2706C15.2613 42.2023 13.6307 43.1923 12.2331 44.4152C12.0002 44.6481 12.2914 44.9975 12.5825 44.8811C14.3878 44.0076 16.1348 43.0176 17.8236 41.8529C17.7071 41.6782 17.6489 41.5035 17.5324 41.3871C16.0183 42.4935 14.5042 43.5999 13.0484 44.8228C12.8155 45.0558 13.1066 45.4052 13.3978 45.2887C14.9701 44.357 16.5424 43.367 18.0565 42.3188C18.3476 42.1441 18.0565 41.62 17.7653 41.8529C16.5424 42.6682 15.3195 43.5417 14.1548 44.4734C13.9219 44.6481 14.1548 45.0558 14.446 44.9393C16.4842 44.2405 18.1729 42.7264 19.2211 40.9212C19.2794 40.8047 19.2794 40.6883 19.1629 40.5718C18.5806 40.1641 18.5806 39.64 19.2211 38.9995C19.1047 38.9412 18.93 38.883 18.8135 38.8248C18.93 39.64 18.8717 40.3389 18.5806 41.0959C18.7553 41.1541 18.93 41.2124 19.1047 41.2706C19.3376 40.1059 19.8035 38.9995 20.5605 38.0678C20.3858 37.9513 20.2693 37.8931 20.0946 37.7766C19.2794 40.0477 17.9983 42.0859 16.3677 43.8329C16.1348 44.0658 16.4259 44.4734 16.7171 44.2987C17.5906 43.6582 18.4059 43.0176 19.2211 42.3188C19.5123 42.0859 19.1047 41.6782 18.8135 41.9112C17.4741 43.0176 16.193 44.124 14.7954 45.1722C14.5625 45.4052 14.8536 45.7546 15.1448 45.6381C16.4842 44.9393 17.7071 44.0658 18.9882 43.1923C18.8718 43.0176 18.7553 42.9011 18.6388 42.7264C17.2994 43.8911 15.8436 44.8811 14.3295 45.8128C14.446 45.9875 14.5042 46.1622 14.6207 46.2787C15.7854 45.5216 17.0083 44.7646 18.2312 44.0658C18.1147 43.9493 17.9983 43.8329 17.8236 43.6582C17.2994 44.4152 16.5424 44.9975 15.8436 45.5799C15.6107 45.7546 15.8436 46.1622 16.1348 46.0457C17.2412 45.6963 18.2894 45.2887 19.2794 44.7646C19.1629 44.5899 19.0464 44.4734 18.93 44.2987C17.94 45.2305 16.8336 45.9875 15.8436 46.9192C15.6689 47.0939 15.7854 47.3851 16.0183 47.3851C17.8235 47.5016 19.2794 45.9875 20.8517 45.2887C20.7352 45.114 20.6187 44.9975 20.5023 44.8228C19.3958 45.9875 17.9982 46.9192 17.0665 48.2586C16.8918 48.4915 17.2412 48.7827 17.4741 48.6662C18.7553 47.851 20.0364 46.9775 21.3176 46.2204C21.2011 46.0457 21.1429 45.871 21.0264 45.7546C19.8617 46.6281 18.697 47.3851 17.7071 48.4915C17.4741 48.7245 17.7653 49.0739 18.0565 48.9574C19.2794 48.4333 20.3858 47.618 21.6087 47.0357C21.4923 46.861 21.3758 46.7445 21.2593 46.5698C20.3276 47.5016 19.2794 48.3168 18.2894 49.2486C18.1147 49.4233 18.2894 49.8309 18.5806 49.7145C19.92 49.3068 21.0264 48.3751 22.1911 47.6763C22.0746 47.5016 21.9581 47.3851 21.8416 47.2104C20.9681 48.0839 20.0364 48.8992 19.3958 49.9474C19.2211 50.1803 19.5705 50.4715 19.8035 50.355C20.8517 49.7727 21.8416 49.0739 22.8898 48.4915C22.7734 48.3168 22.6569 48.2004 22.5405 48.0257C22.1328 48.5498 21.7834 49.0739 21.3758 49.598C21.2011 49.8309 21.434 50.2385 21.7252 50.0638C22.191 49.7727 22.6569 49.365 23.0646 49.0156C23.3557 48.7827 22.9481 48.3751 22.6569 48.608C22.2493 48.9574 21.8999 49.3068 21.434 49.598C21.5505 49.7727 21.667 49.8891 21.7834 50.0638C22.1911 49.5397 22.5405 49.0156 22.9481 48.4915C23.1228 48.2586 22.8898 47.9092 22.5987 48.0257C21.5505 48.608 20.5605 49.3068 19.5123 49.8891C19.6288 50.0056 19.7452 50.1221 19.9199 50.2968C20.5605 49.3068 21.4922 48.5498 22.3075 47.6763C22.5404 47.4433 22.2493 47.0357 21.9581 47.2104C20.7934 47.9092 19.7452 48.7827 18.4641 49.1903C18.5806 49.365 18.6388 49.4815 18.7553 49.6562C19.687 48.7245 20.7934 47.9092 21.7252 46.9775C21.9581 46.7445 21.6669 46.3951 21.3758 46.5116C20.1529 47.1522 19.0465 47.9092 17.8236 48.4333C17.94 48.608 18.0565 48.7245 18.1729 48.8992C19.1047 47.851 20.2693 47.0939 21.3758 46.2787C21.6669 46.0457 21.434 45.5799 21.0846 45.8128C19.7452 46.5698 18.5224 47.4433 17.2412 48.2586C17.3577 48.3751 17.4741 48.4915 17.6488 48.6662C18.5806 47.3851 19.92 46.5116 21.0264 45.3469C21.2593 45.114 20.9681 44.7646 20.677 44.8811C19.2211 45.5216 17.8235 47.0357 16.1348 46.861C16.193 47.0357 16.2512 47.2104 16.3095 47.3269C17.2994 46.3951 18.4059 45.6381 19.3958 44.7064C19.6288 44.4734 19.3376 44.124 19.0464 44.2405C18.0565 44.7064 17.0665 45.114 16.0183 45.4634C16.1348 45.6381 16.193 45.7546 16.3095 45.9293C17.0083 45.2887 17.7653 44.7064 18.3476 43.8911C18.5223 43.6582 18.1729 43.367 17.94 43.4835C16.7171 44.1823 15.4942 44.8811 14.3295 45.6963C14.0384 45.871 14.3295 46.3951 14.6207 46.1622C16.193 45.2305 17.6488 44.1823 19.0464 42.9594C19.2794 42.7264 18.9882 42.3188 18.6971 42.4935C17.4742 43.367 16.193 44.2405 14.8536 44.9393C14.9701 45.114 15.0866 45.2305 15.203 45.4052C16.5424 44.357 17.8818 43.2505 19.2211 42.1441C19.1047 42.0276 18.93 41.8529 18.8135 41.7365C18.0565 42.4353 17.2412 43.0758 16.4259 43.6582C16.5424 43.8329 16.6589 43.9493 16.7753 44.124C18.4641 42.3188 19.8617 40.2224 20.677 37.8348C20.7934 37.6019 20.3858 37.3107 20.2111 37.5436C19.3958 38.5336 18.8717 39.6983 18.5806 40.9794C18.5223 41.3288 18.9882 41.4453 19.1047 41.1541C19.4541 40.2806 19.5123 39.4654 19.3376 38.5918C19.2794 38.4171 19.0464 38.3007 18.93 38.4171C18.5223 38.7083 18.2312 38.9995 18.1147 39.5236C18.1147 39.6983 18.1147 39.873 18.1729 40.1059C18.2312 40.2806 18.5223 40.5718 18.5223 40.6883C18.5806 41.2706 17.4741 42.2023 17.0665 42.61C16.2512 43.367 15.3195 43.9493 14.2713 44.2987C14.3878 44.4734 14.446 44.5899 14.5625 44.7646C15.6689 43.8329 16.8336 43.0176 18.0565 42.2023C17.94 42.0276 17.8818 41.8529 17.7653 41.7365C16.2512 42.7847 14.7372 43.7746 13.1066 44.7064C13.2231 44.8811 13.3396 44.9975 13.456 45.1722C14.8536 44.0076 16.3095 42.9011 17.8236 41.8529C18.1147 41.62 17.8236 41.1541 17.5324 41.3871C15.9018 42.5517 14.0966 43.5417 12.2914 44.4152C12.4078 44.5899 12.5243 44.7064 12.6408 44.8811C14.0384 43.6582 15.6107 42.6682 17.2412 41.7947C17.5906 41.62 17.2994 41.1541 16.95 41.3288C15.3777 42.0276 13.6307 43.8329 11.8255 43.5999C11.8837 43.7746 11.942 43.9493 12.0002 44.0658C13.689 42.5517 15.5524 41.2706 17.3577 39.873C17.6488 39.64 17.2994 39.2906 17.0083 39.4071C15.6689 40.0477 14.3295 40.6883 13.0484 41.3288C13.1649 41.5035 13.2813 41.62 13.3978 41.7947C14.446 40.6883 15.7853 39.9312 16.7753 38.7083C16.8918 38.5336 16.8336 38.1842 16.6006 38.2424C15.8436 38.3007 15.1448 38.3589 14.446 38.5918C14.5042 38.7665 14.6207 38.9412 14.6789 39.1159C15.5524 38.7083 16.4259 38.3589 17.3577 38.126C17.2412 38.0095 17.1247 37.8348 17.0083 37.7183C16.193 39.0577 14.9701 40.0477 14.0966 41.2706C13.9219 41.5035 14.2713 41.7947 14.5042 41.6782C15.7854 41.0377 16.8918 40.1059 18.2312 39.4654C18.1147 39.2907 18.0565 39.1159 17.94 38.9995C16.8918 39.5818 15.9018 40.1641 15.0283 40.863C14.7954 40.9212 15.203 41.3288 15.4942 41.0959Z" fill="#00AEEF"/>
<path d="M34.3036 45.2888C34.4783 45.6964 34.7113 45.9876 35.1771 46.0458C35.5265 46.0458 35.9342 45.8129 36.2253 46.1041C36.4583 46.3952 36.8659 45.9876 36.633 45.6964C36.4 45.4053 36.1089 45.347 35.7595 45.4053C35.4101 45.4635 35.0607 45.58 34.886 45.1723C34.7113 44.7647 34.1872 44.9394 34.3036 45.2888Z" fill="#00AEEF"/>
<path d="M28.7712 24.2657C28.2471 24.6151 27.723 24.9645 27.1989 25.2557C26.9077 25.4304 27.0824 25.838 27.4318 25.7798C29.8194 25.1974 31.974 24.091 34.1287 22.9846C34.0122 22.8098 33.954 22.6351 33.8375 22.5187C31.6829 23.7998 29.5282 25.0227 27.4318 26.3621C27.1407 26.5368 27.3153 26.9444 27.6647 26.8862C29.8194 26.5368 31.7993 25.5468 33.7793 24.6151C34.1287 24.4404 33.8375 23.9745 33.4881 24.1492C31.7411 24.9063 30.1688 26.0709 28.7712 27.4103C28.5383 27.585 28.7712 27.9344 29.0624 27.8762C31.5664 27.2356 33.5463 25.4886 35.7592 24.2657C35.6428 24.091 35.5263 23.9745 35.4098 23.7998C33.2552 25.6633 30.6346 27.0609 28.7129 29.1573C28.48 29.3902 28.7712 29.7396 29.0624 29.6232C31.5082 28.575 33.6628 27.1191 35.8174 25.6051C35.701 25.4304 35.5845 25.3139 35.4681 25.1392C33.954 26.4786 32.2652 27.585 30.8094 28.9826C30.6347 29.1573 30.7511 29.5067 30.9841 29.4485C33.8957 29.0991 36.6327 27.4103 39.0203 25.7798C39.3114 25.5468 39.0785 25.1392 38.7291 25.3139C36.5745 26.4203 34.3616 27.5268 32.7311 29.3902C32.5564 29.5649 32.7311 29.9726 33.0222 29.8561C35.1769 29.0991 36.9239 27.7015 38.7874 26.4786C39.0785 26.2456 38.7874 25.7798 38.4962 26.0127C36.8074 27.0609 35.3516 28.342 34.0704 29.8561C33.8375 30.089 34.1287 30.4384 34.4199 30.322C36.5745 29.3902 38.6126 28.1673 40.4761 26.7697C40.7091 26.595 40.5926 26.1292 40.2432 26.2456C37.6227 27.0609 35.3516 28.5167 33.3134 30.3802C33.1387 30.5549 33.3134 30.9625 33.6046 30.8461C35.7592 29.9726 37.8556 28.9826 39.7773 27.585C40.0685 27.3521 39.8355 26.9444 39.4861 27.1191C37.6227 27.9926 35.9921 29.1573 34.5363 30.5549C34.3616 30.7296 34.5363 31.1372 34.8275 31.0208C36.5745 30.322 38.0886 29.332 39.6609 28.342C39.952 28.1673 39.7191 27.7015 39.3697 27.8762C37.6809 28.7497 36.1086 29.7979 34.8857 31.2537C34.6528 31.4866 34.9439 31.836 35.2351 31.7196C36.458 31.079 37.6227 30.4967 38.9038 29.9726C38.7873 29.7979 38.6709 29.6814 38.5544 29.5067C37.5062 30.7878 36.2251 31.836 34.9439 32.8842C34.711 33.1172 35.0022 33.5248 35.2934 33.3501C36.6327 32.5348 37.9721 31.836 39.2532 30.9625C39.1368 30.7878 39.0785 30.6131 38.9621 30.4967C37.2733 31.7778 35.5845 33.0007 34.1869 34.573C34.0122 34.806 34.1869 35.0971 34.4781 35.0389C35.9339 34.7477 37.215 33.9907 38.6126 33.4084C38.4962 33.2337 38.4379 33.1172 38.3215 32.9425C37.215 33.9325 35.8175 34.6313 35.0022 35.8542C34.8857 36.0871 35.0604 36.32 35.3516 36.2618C35.7592 36.1453 36.1669 36.0289 36.6327 35.9124C36.5163 35.8542 36.3998 35.7959 36.2833 35.7377C36.5162 36.7859 35.7592 37.6594 35.1769 38.4164C35.0022 38.6494 35.2933 38.8823 35.5263 38.8241C36.3998 38.5329 37.2151 38.1253 38.0886 37.7176C37.9721 37.6012 37.8556 37.4847 37.6809 37.31C36.9821 38.2417 36.1086 38.9405 35.0604 39.4646C34.8275 39.5811 34.9439 39.9887 35.1769 39.9887C36.3998 39.9887 37.448 39.3482 38.5544 38.9405C38.438 38.7658 38.3797 38.6494 38.2633 38.4747C37.448 39.4646 36.3415 40.047 35.3516 40.804C35.1186 40.9787 35.2351 41.4446 35.5845 41.3281C36.7492 40.9787 37.7391 40.3381 38.7291 39.7558C38.6126 39.5811 38.5544 39.4064 38.4379 39.2899C37.3315 40.047 36.1086 40.6293 35.0022 41.4446C34.711 41.6775 34.944 42.0851 35.2934 41.9104C36.0504 41.5028 36.8657 41.0952 37.6227 40.6875C37.9721 40.5128 37.6809 40.047 37.3315 40.2217C35.9922 40.8622 34.6528 41.6193 33.1969 42.0851C33.3134 42.2016 33.4299 42.3763 33.5464 42.4928C34.5363 40.9205 36.691 40.047 36.9239 38.067C36.9239 37.8923 36.7492 37.7759 36.6327 37.7759C35.1187 37.6012 33.7793 38.4164 32.3234 38.7658C32.4399 38.8823 32.5564 39.057 32.6728 39.1735C34.3034 36.6694 37.0403 35.2718 38.6126 32.7678C38.7291 32.5931 38.5544 32.3601 38.3797 32.3601C35.7592 32.4766 33.721 34.5148 31.6246 35.7959C31.7411 35.9706 31.8576 36.0871 31.974 36.2618C34.3034 33.816 38.0886 32.4766 39.3697 29.2155C39.4279 29.0408 39.2532 28.8661 39.0785 28.8661C35.701 29.0991 32.9058 31.2537 29.9359 32.7095C29.6447 32.826 29.8776 33.3501 30.1688 33.2337C32.0323 32.4766 33.7793 31.3702 35.4098 30.2055C36.6327 29.332 38.6126 28.1091 39.0203 26.4786C39.0785 26.3039 38.9038 26.0709 38.6709 26.1292C35.4098 27.1774 32.964 29.7396 29.8194 30.9043C29.9359 31.079 29.9941 31.1955 30.1106 31.3702C32.964 28.1091 37.9138 26.8862 39.8938 22.8681C40.0103 22.6934 39.8938 22.4022 39.6609 22.4605C36.3416 22.6352 33.8957 25.7215 31.1005 27.2356C31.217 27.4103 31.3335 27.5268 31.4499 27.7015C34.8275 25.0227 40.0685 23.2757 41.8155 19.0247C41.8737 18.85 41.699 18.6753 41.5243 18.6753C37.7391 18.9664 35.0022 21.8781 31.7993 23.5669C31.4499 23.7416 31.7411 24.2075 32.0905 24.0328C35.701 22.2275 39.4279 20.364 43.446 19.5488C43.3296 19.4323 43.2131 19.3158 43.0966 19.1994C42.5725 21.2375 40.8255 22.6934 39.3114 24.0328C37.8556 25.3139 36.3415 26.6533 35.5263 28.5167C35.468 28.6914 35.5263 28.9826 35.7592 28.9244C39.4279 28.6332 42.5725 25.7798 45.6007 23.9163C45.8918 23.7416 45.6589 23.2757 45.3095 23.4504C41.9902 25.1974 39.1367 27.7015 36.3998 30.2055C36.1668 30.4384 36.458 30.7878 36.7492 30.6714C40.4761 28.9244 44.1448 26.9444 47.5806 24.7316C47.8718 24.5569 47.6388 24.091 47.2894 24.2657C43.679 25.838 40.5344 28.2838 37.6227 30.9625C37.3898 31.1372 37.6227 31.5449 37.9139 31.4284C41.5826 30.322 44.7854 28.1673 48.0465 26.2456C47.93 26.0709 47.8718 25.8962 47.7553 25.7798C44.7272 27.8179 41.2914 29.5067 38.9038 32.3601C38.7291 32.5931 38.9038 32.8843 39.195 32.826C42.689 32.069 45.7171 29.7979 48.5123 27.6432C48.8035 27.4103 48.4541 27.0609 48.1629 27.1774C45.193 28.6332 42.3396 30.3802 39.952 32.6513C39.7773 32.826 39.952 33.2337 40.2432 33.1172C43.3296 32.1272 45.8336 30.0308 48.8035 28.8079C48.7453 28.6332 48.6288 28.4585 48.5706 28.2838C46.183 29.8561 43.7372 31.3119 41.5243 33.1754C41.2914 33.3501 41.5243 33.7578 41.8155 33.6413C43.8537 32.7678 45.7171 31.5449 47.7553 30.6131C47.6388 30.4384 47.5224 30.322 47.4059 30.1473C45.6589 31.6031 43.7372 32.8842 41.9902 34.3401C41.7573 34.5148 41.9902 34.9224 42.2814 34.806C44.4943 33.9907 46.5324 32.7678 48.6288 31.6613C48.5123 31.4866 48.3959 31.3702 48.2794 31.1955C46.9401 32.3601 45.426 33.2337 44.2613 34.5148C44.0866 34.6895 44.2613 35.0971 44.5525 34.9807C46.4742 34.3401 48.1629 33.2337 50.0846 32.5349C49.9682 32.3602 49.9099 32.2437 49.7935 32.069C48.5123 33.2337 46.9983 34.1654 45.6007 35.2136C45.3677 35.3883 45.6589 35.8542 45.9501 35.6795C47.0565 34.9224 48.2212 34.2236 49.0947 33.2337C49.2694 33.0007 49.0947 32.7095 48.8035 32.7678C47.3477 33.1172 46.183 34.0489 44.7854 34.4566C44.9019 34.573 45.0183 34.7477 45.1348 34.8642C46.5324 32.6513 48.7453 31.0208 50.6088 29.2738C52.1228 27.8762 53.9863 26.1292 54.3357 24.0328C54.3939 23.8581 54.2192 23.6251 53.9863 23.6833C49.5606 25.3139 45.7754 28.1673 41.4661 30.0308C41.5826 30.2055 41.6408 30.3802 41.7573 30.4967C44.8436 28.1673 48.6288 26.828 51.3076 23.9745C51.424 23.7998 51.424 23.5669 51.1911 23.5087C49.2694 23.101 47.2895 24.1492 45.6589 25.081C43.679 26.2456 41.7573 27.8179 39.6026 28.6332C39.6608 28.8079 39.7773 28.9826 39.8356 29.1573C43.2713 26.7115 47.5806 24.7316 49.9682 21.0628C50.0846 20.8299 49.8517 20.597 49.6188 20.6552C44.9019 21.8199 41.1749 24.9645 36.9821 27.1774C37.0986 27.3521 37.2151 27.4685 37.3315 27.6432C39.7773 24.9063 44.0284 24.3822 45.9501 21.1211C46.0665 20.8881 45.8336 20.6552 45.6007 20.7134C41.4661 21.354 38.5544 24.7316 34.8275 26.4203C34.9439 26.595 35.0604 26.7115 35.1769 26.8862C38.0303 23.8581 42.4561 22.7516 44.9019 19.3158C45.0766 19.0829 44.7854 18.85 44.5525 18.9082C40.3014 19.8982 37.0404 22.9846 32.964 24.4986C33.0805 24.6733 33.1387 24.7898 33.2552 24.9645C36.1086 21.9364 40.2432 20.6552 43.2131 17.6853C43.3878 17.4524 43.2131 17.1612 42.9219 17.2194C40.4179 17.8018 38.2632 19.3158 35.9921 20.4805C36.1086 20.6552 36.1668 20.8299 36.2833 20.9464C37.7391 20.0146 39.3697 19.3741 40.8838 18.5006C41.9902 17.86 43.446 17.0447 43.9701 15.7636C44.0866 15.5307 43.7954 15.356 43.6207 15.4142C40.5926 16.1712 38.1468 18.1512 35.4681 19.607C35.5845 19.7817 35.701 19.8982 35.8174 20.0729C38.0303 17.9765 41.0002 16.8118 43.0384 14.5407C43.2131 14.3078 43.0384 14.0166 42.7472 14.0748C40.0103 14.6572 37.6227 16.0548 35.2934 17.4524C35.4098 17.6271 35.5263 17.7435 35.6427 17.9182C37.7974 15.7636 40.7673 14.7154 43.2713 13.0266C43.5625 12.8519 43.3878 12.4443 43.0384 12.5025C40.0103 12.9684 37.215 14.6572 34.7692 16.4042C34.4781 16.6371 34.711 17.103 35.0604 16.87C37.3897 15.5307 40.4761 14.8319 42.1066 12.5025C42.2231 12.3278 42.0484 12.0367 41.8737 12.0949C38.6127 12.4443 35.5845 14.2495 32.8475 15.9383C32.5564 16.113 32.7893 16.5789 33.1387 16.4042C36.0504 14.8901 39.0785 13.5507 41.5826 11.4543C41.8155 11.2796 41.5826 10.9302 41.2914 10.9884C38.9038 11.6872 35.8757 12.3861 34.1287 14.3078C33.8958 14.5407 34.1869 14.8901 34.4781 14.7736C36.8656 13.4925 40.0685 12.3861 41.6408 9.99848C41.7573 9.82378 41.5826 9.53261 41.4079 9.59084C37.9139 9.94024 35.1769 12.5025 32.1487 14.0166C32.2652 14.1913 32.3234 14.366 32.4399 14.4825C34.6528 13.2596 36.9239 12.2114 38.9621 10.7555C39.195 10.5808 39.1368 10.2314 38.8456 10.2314C35.8174 10.4643 33.0805 12.2114 30.6347 13.8419C30.7511 14.0166 30.8094 14.1913 30.9258 14.3078C33.3134 12.6772 35.9339 11.5126 38.1468 9.70731C38.3215 9.53261 38.205 9.18321 37.9721 9.24144C35.1769 9.53261 32.6146 10.9885 30.227 12.2696C29.8776 12.4443 30.1688 12.9102 30.5182 12.7355C32.7893 11.629 34.8857 10.3479 36.9821 8.95027C37.2733 8.77557 37.0986 8.36794 36.7492 8.42617C33.5464 8.89204 30.8094 10.7555 27.9559 12.0367C28.0724 12.2114 28.1306 12.3861 28.2471 12.5025C30.227 11.3378 32.2652 10.2896 34.2451 9.18321C34.5363 9.00851 34.3616 8.54264 34.0122 8.65911C32.0905 9.35791 30.2852 10.2896 28.4218 11.1631C28.1306 11.2796 28.3636 11.8037 28.6547 11.6873C29.8194 11.2214 30.8094 10.639 31.7411 9.76554C31.974 9.59084 31.7411 9.24144 31.4499 9.29967C29.9941 9.70731 28.5965 10.3479 27.3154 11.1631C27.0824 11.3379 27.1989 11.8037 27.5483 11.6873C31.4499 10.4643 35.1186 8.77558 38.9038 7.31974C39.2532 7.20327 39.1367 6.67917 38.7291 6.79564C35.8757 7.55267 33.1387 8.65911 30.6929 10.2314C30.46 10.4061 30.5764 10.872 30.9258 10.7555C33.7793 9.59084 36.6327 8.36794 39.2532 6.67917C39.4862 6.50447 39.3697 6.0386 39.0203 6.15507C36.6327 6.85387 34.3616 7.78561 32.2652 9.12498C32.0323 9.24144 32.0905 9.70731 32.3817 9.64908C35.4681 9.24144 38.2632 7.72737 41.2331 6.85387C41.1167 6.67917 41.0584 6.5627 40.942 6.388C40.1267 7.14503 39.1368 7.61091 38.205 8.19324C37.9139 8.36794 38.0885 8.77557 38.4379 8.71734C40.4179 8.36794 42.1067 7.37797 43.9119 6.67917C44.2613 6.5627 44.1448 6.0386 43.7372 6.15507C41.1167 6.9121 38.438 8.30971 36.3416 10.0567C36.1086 10.2314 36.3416 10.5808 36.6327 10.5226C39.195 10.0567 41.4661 8.65911 43.9701 8.135C43.9119 7.9603 43.7955 7.78561 43.7372 7.61091C41.5243 8.65911 39.0785 9.53261 37.2733 11.2214C37.0403 11.4543 37.2733 11.7455 37.5644 11.6873C40.7091 11.0467 43.5043 9.53261 46.5906 8.60087C46.5324 8.42617 46.416 8.25147 46.3577 8.07677C44.0866 9.53261 41.4661 10.3479 39.3697 12.1531C39.195 12.3278 39.3115 12.6772 39.5444 12.619C42.5143 12.2696 45.1348 10.6973 47.93 9.70731C48.2794 9.59084 48.1047 9.06674 47.7553 9.18321C44.9601 10.1149 42.4561 11.6872 39.8938 13.0266C39.6608 13.1431 39.7773 13.5507 40.0103 13.5507C43.0966 13.3178 45.8918 11.8037 48.6288 10.4061C48.92 10.2314 48.6871 9.82378 48.3959 9.88201C44.9019 10.7555 41.4079 12.5025 38.6709 14.8901C38.438 15.0648 38.6709 15.4142 38.9621 15.356C41.9902 14.6572 44.7854 13.3178 47.5806 11.9784C47.8718 11.862 47.6388 11.3379 47.3477 11.4543C44.6107 12.3278 42.1067 13.7837 39.6609 15.2395C39.3697 15.4142 39.5444 15.8218 39.8938 15.7636C43.446 15.0648 46.6489 13.3178 50.0264 12.0367C49.9682 11.862 49.8517 11.6873 49.7935 11.5125C47.6388 12.7355 45.3677 13.7837 43.3296 15.1813C43.0966 15.356 43.1549 15.7054 43.446 15.7054C45.8919 15.6471 48.163 14.4242 50.3176 13.3178C50.667 13.1431 50.3758 12.6772 50.0264 12.8519C47.4642 13.9584 44.7854 14.8319 42.5725 16.5789C42.3978 16.7536 42.5143 17.103 42.7472 17.0447C45.5424 16.6953 47.93 15.1813 50.4923 14.1331C50.3758 13.9584 50.3176 13.7837 50.2011 13.6672C47.8718 14.8901 44.9601 15.6471 43.3296 17.86C43.1549 18.0929 43.446 18.3259 43.679 18.2676C47.0565 17.4524 50.0847 15.7636 53.0546 14.1331C53.3457 13.9584 53.1128 13.4925 52.7634 13.6672C49.91 15.1813 46.9983 16.5789 44.3778 18.4423C44.1448 18.617 44.2031 18.9664 44.4942 18.9664C47.2312 18.85 49.8517 17.3359 52.1228 15.8801C52.3558 15.7636 52.2975 15.2977 52.0063 15.356C50.434 15.5889 48.92 16.2295 47.4641 16.9865C46.0083 17.7435 44.4943 18.7335 43.446 20.0146C43.3296 20.1893 43.3878 20.5387 43.6207 20.4805C46.9401 20.0146 49.8517 18.0929 52.7634 16.5789C53.0546 16.4624 52.8216 15.9383 52.5305 16.0548C47.9882 17.6271 44.0866 20.4805 40.185 23.2175C39.8938 23.3922 40.0685 23.7998 40.4179 23.7416C44.8436 22.9846 48.8035 20.364 52.5887 18.1512C52.8798 17.9765 52.6469 17.5106 52.3558 17.6271C50.667 18.3259 49.0364 19.1411 47.4641 20.0729C46.1248 20.8881 44.6107 21.8781 43.8537 23.2757C43.7372 23.5087 43.9119 23.7416 44.2031 23.6833C48.0465 22.8681 51.7734 21.0628 54.9763 18.85C55.2674 18.617 55.0345 18.2094 54.6851 18.3841C51.9481 19.7817 49.3276 21.4705 46.9401 23.3922C46.7071 23.5669 46.9401 23.9745 47.2312 23.8581C50.1429 22.9263 52.7634 21.2375 55.6751 20.364C55.6169 20.1893 55.5004 20.0146 55.4421 19.8399C53.0546 21.2375 50.667 22.6352 48.5123 24.3239C48.2794 24.4986 48.5123 24.848 48.8035 24.7898C51.1911 24.2657 53.3457 23.101 55.4421 21.8781C55.3257 21.7034 55.2674 21.5287 55.151 21.4122C53.404 22.5769 51.424 23.334 49.8517 24.7316C49.6188 24.9063 49.8517 25.3139 50.1429 25.1974C52.0646 24.4404 54.2192 23.7416 55.7333 22.2275C55.9662 21.9946 55.6751 21.6452 55.3839 21.7617C51.5405 23.4504 47.6971 25.2557 44.3778 27.8762C44.1448 28.0509 44.3778 28.4585 44.6689 28.342C47.8718 27.1191 50.7252 25.3139 53.9863 24.2657C53.9281 24.091 53.8116 23.9163 53.7534 23.7416C52.3557 24.7316 50.7835 25.4304 49.4441 26.5368C49.2694 26.6533 49.3859 26.9444 49.5606 27.0027C50.8999 27.2938 52.1228 26.595 53.2293 26.0127C53.9281 25.6633 54.6851 25.1392 55.4421 24.9645C56.4903 24.7316 57.5386 25.081 58.5868 24.7316C58.5285 24.5569 58.412 24.3822 58.3538 24.2075C57.655 24.6733 57.0144 25.081 56.3156 25.5468C56.1992 25.6051 56.1409 25.838 56.1992 25.9545C56.3739 26.1874 56.4321 26.2456 56.7233 26.3621C56.665 26.1874 56.665 26.0709 56.6068 25.8962C55.7915 26.595 55.4421 27.4103 56.1409 28.2838C56.3156 28.5167 56.6068 28.2838 56.6068 28.1091C56.7815 26.2456 56.1409 24.3822 55.2092 22.8098C55.0927 22.5769 54.6851 22.6934 54.6851 22.9263C54.6269 24.0328 55.2092 24.9063 55.6168 25.8962C55.7333 25.7798 55.908 25.6633 56.0245 25.5468C53.8116 24.4986 51.2493 24.3822 48.8618 24.7316C46.5324 25.081 43.9119 25.9545 42.3978 27.8762C42.2231 28.1091 42.3978 28.4585 42.689 28.342C45.193 27.6432 47.4059 26.3039 49.8517 25.4886C49.7353 25.3139 49.677 25.1974 49.5606 25.0227C47.2312 27.0609 44.436 28.575 42.3396 30.9043C42.1649 31.079 42.2814 31.4284 42.5143 31.3702C45.8918 31.1372 48.9782 29.0991 51.4823 26.8862C51.7152 26.7115 51.4823 26.4203 51.3076 26.4203C47.8718 25.9545 44.9601 29.332 41.5826 28.6332C41.6408 28.8079 41.6408 28.9244 41.699 29.0991C43.7955 26.7115 47.5806 25.1392 48.3959 21.8199C48.4541 21.6452 48.2794 21.4705 48.1047 21.4705C45.6007 21.1793 43.1549 22.9263 41.1167 24.2075C40.8255 24.3822 41.1167 24.9063 41.4079 24.6733C43.3296 23.4504 45.6589 21.7616 48.1047 21.9946C47.9883 21.8781 47.93 21.7616 47.8136 21.6452C46.9983 24.7898 43.2131 26.3621 41.2331 28.6332C41.1167 28.8079 41.1167 29.0408 41.3496 29.0991C44.8436 29.8561 47.7553 26.4786 51.2493 26.9444C51.1911 26.7697 51.1329 26.595 51.0746 26.4786C48.7453 28.575 45.7171 30.5549 42.5143 30.7878C42.5725 30.9625 42.6308 31.1372 42.689 31.2537C44.7854 28.9244 47.5806 27.4103 49.91 25.3721C50.1429 25.1974 49.91 24.7898 49.6188 24.9063C47.173 25.7215 44.9019 27.0027 42.4561 27.7597C42.5725 27.9344 42.6308 28.0509 42.7472 28.2256C44.1448 26.4203 46.4742 25.6051 48.6871 25.2557C50.9582 24.9063 53.5787 24.9063 55.6751 25.9545C55.8498 26.0709 56.1992 25.8962 56.0827 25.6051C55.7333 24.6733 55.0927 23.8581 55.151 22.8098C54.9763 22.8681 54.8016 22.9263 54.6269 22.9263C55.5004 24.4404 56.141 26.1874 55.9663 27.9926C56.141 27.9344 56.3156 27.8762 56.4321 27.8179C55.908 27.1774 56.4321 26.595 56.898 26.1874C57.0727 26.0127 56.9562 25.7798 56.7815 25.7215C56.7233 25.6633 56.665 25.6633 56.6068 25.6051C56.5486 25.7215 56.5486 25.838 56.4903 26.0127C57.1891 25.6051 57.8879 25.1392 58.5285 24.6733C58.7614 24.4986 58.645 24.0328 58.2956 24.1492C57.4221 24.4404 56.5486 24.2075 55.6168 24.2657C54.9763 24.3239 54.3939 24.6151 53.8116 24.9063C52.5305 25.5468 51.0164 26.7115 49.5023 26.4203C49.5605 26.595 49.5606 26.7115 49.6188 26.8862C50.8999 25.838 52.4722 25.1392 53.8116 24.2075C54.0445 24.0328 53.9281 23.5669 53.5787 23.6833C50.3176 24.7316 47.4059 26.5368 44.2613 27.7597C44.3778 27.9344 44.436 28.0509 44.5525 28.2256C47.8135 25.6633 51.657 23.9163 55.4421 22.2275C55.3257 22.0528 55.2092 21.9364 55.0927 21.7617C53.6369 23.1593 51.5987 23.8581 49.7935 24.5569C49.9099 24.7316 49.9682 24.848 50.0846 25.0227C51.5987 23.6834 53.5787 22.8681 55.2674 21.7617C55.5586 21.587 55.3257 21.1211 54.9763 21.2958C52.8799 22.4605 50.7835 23.6251 48.4541 24.1492C48.5706 24.3239 48.6288 24.4404 48.7453 24.6151C50.8417 22.9263 53.2293 21.5869 55.5586 20.1893C55.8498 20.0146 55.6751 19.5488 55.3257 19.6652C52.414 20.5387 49.7935 22.2275 46.8818 23.1593C46.9983 23.334 47.0565 23.4504 47.173 23.6251C49.5023 21.7034 52.1228 20.1311 54.8016 18.6753C54.6851 18.5006 54.6269 18.3259 54.5104 18.2094C51.3076 20.4223 47.6388 22.1693 43.8537 22.9846C43.9701 23.101 44.0866 23.2757 44.2031 23.3922C44.9601 21.9946 46.5324 21.0628 47.8718 20.2476C49.3276 19.3741 50.7835 18.617 52.3558 17.9765C52.2975 17.8018 52.1811 17.6271 52.1228 17.4524C48.3376 19.607 44.436 22.2275 40.0685 22.9846C40.1267 23.1593 40.2432 23.334 40.3014 23.5087C44.1448 20.8299 48.0465 17.9765 52.4722 16.4042C52.414 16.2295 52.2975 16.0548 52.2393 15.8801C49.4441 17.3359 46.5906 19.2576 43.3878 19.6652C43.446 19.8399 43.5043 20.0146 43.5625 20.1311C44.5525 18.9664 45.8336 18.0929 47.173 17.3359C48.5706 16.5789 50.0847 15.8218 51.657 15.6471C51.5987 15.4724 51.5405 15.2977 51.5405 15.123C49.3858 16.5206 46.8818 17.9765 44.2031 18.0929C44.2613 18.2676 44.3196 18.4423 44.3196 18.617C46.9401 16.7536 49.8517 15.356 52.7052 13.8419C52.5887 13.6672 52.5305 13.4925 52.414 13.376C49.4441 15.0066 46.4742 16.6953 43.1549 17.4524C43.2713 17.5688 43.3878 17.7435 43.5043 17.86C45.0766 15.7636 47.9882 15.0648 50.2011 13.8419C50.5505 13.6672 50.2594 13.2013 49.91 13.376C47.4641 14.4242 45.1348 15.8801 42.4561 16.2295C42.5143 16.4042 42.5725 16.5789 42.6308 16.6953C44.7854 14.9483 47.4641 14.1331 49.9682 13.0266C49.8517 12.8519 49.7935 12.6772 49.677 12.5608C47.6388 13.609 45.4842 14.8319 43.0966 14.8901C43.1549 15.0648 43.2131 15.2395 43.2131 15.4142C45.2513 13.9584 47.5224 12.9684 49.677 11.7455C49.9682 11.5708 49.7935 11.1049 49.4441 11.2214C46.0665 12.5025 42.9219 14.3078 39.3114 14.9483C39.3697 15.123 39.4862 15.2977 39.5444 15.4724C41.932 14.0166 44.3778 12.5608 47.1148 11.7455C47.0565 11.5708 46.94 11.3961 46.8818 11.2214C44.1448 12.5025 41.4079 13.8419 38.4379 14.5407C38.5544 14.7154 38.6126 14.8319 38.7291 15.0066C41.4079 12.6772 44.7854 10.9884 48.2212 10.1149C48.1629 9.94024 48.0465 9.76554 47.9883 9.59084C45.3677 10.9302 42.6308 12.4443 39.6609 12.619C39.7191 12.7937 39.7773 12.9684 39.7773 13.1431C42.3396 11.862 44.7854 10.2314 47.5224 9.35791C47.4642 9.18321 47.4059 9.00851 47.3477 8.83381C44.6107 9.82378 42.0484 11.3961 39.1368 11.7455C39.195 11.9202 39.2532 12.0949 39.3114 12.2114C41.3496 10.4643 43.9119 9.64908 46.183 8.25147C46.4742 8.07677 46.2995 7.6109 45.9501 7.72737C42.9219 8.65911 40.0685 10.1732 36.9239 10.8137C37.0404 10.9885 37.0986 11.1049 37.2151 11.2796C39.0203 9.64908 41.4078 8.83381 43.5625 7.7856C43.8537 7.66914 43.6207 7.20327 43.3296 7.2615C40.8255 7.7856 38.5544 9.18321 35.9921 9.64908C36.1086 9.82378 36.1668 9.94024 36.2833 10.1149C38.2632 8.36794 40.8838 7.02857 43.446 6.32977C43.3878 6.15507 43.3296 5.98036 43.2713 5.80566C41.4661 6.5627 39.7191 7.55267 37.7974 7.84384C37.8556 8.01854 37.9721 8.19324 38.0303 8.36794C39.0203 7.7856 40.0103 7.2615 40.8838 6.50447C41.1167 6.32977 40.8838 5.98037 40.5926 6.0386C37.6809 6.9121 34.9439 8.42617 31.8576 8.83381C31.9158 9.00851 31.974 9.18321 31.974 9.35791C34.0122 8.07677 36.2833 7.0868 38.6126 6.44624C38.5544 6.27154 38.438 6.09683 38.3797 5.92213C35.8175 7.61091 33.0222 8.83381 30.1688 9.94025C30.227 10.1149 30.3435 10.2896 30.4017 10.4643C32.8475 8.95027 35.5263 7.84384 38.3215 7.0868C38.2632 6.9121 38.205 6.7374 38.1468 6.5627C34.3616 8.01854 30.6347 9.70731 26.7912 10.9302C26.8495 11.1049 26.966 11.2796 27.0242 11.4543C28.2471 10.639 29.5865 10.0567 30.9841 9.64908C30.8676 9.47438 30.8094 9.35791 30.6929 9.18321C29.8194 9.94025 28.8876 10.5226 27.8394 10.9302C27.8977 11.1049 28.0142 11.2796 28.0724 11.4543C29.8776 10.639 31.6246 9.64908 33.4881 9.00851C33.4299 8.83381 33.3134 8.65911 33.2552 8.48441C31.2752 9.59085 29.237 10.639 27.2571 11.8037C26.9077 11.9784 27.1989 12.4443 27.5483 12.2696C30.4017 10.9885 33.0805 9.18321 36.2251 8.71734C36.1668 8.54264 36.0504 8.36794 35.9921 8.19324C33.8957 9.59085 31.7993 10.9302 29.5282 11.9784C29.6447 12.1531 29.7029 12.3278 29.8194 12.4443C32.1487 11.1631 34.5945 9.70731 37.2733 9.47438C37.215 9.29968 37.1568 9.12497 37.0986 9.00851C34.9439 10.8137 32.2652 11.9202 29.9941 13.5507C29.7029 13.7837 29.9941 14.2495 30.2853 14.0166C32.6728 12.4443 35.2934 10.6973 38.205 10.5226C38.1468 10.3479 38.0886 10.1732 38.0886 9.99848C36.0504 11.4543 33.7793 12.5608 31.5664 13.7254C31.217 13.9001 31.5082 14.366 31.8576 14.1913C34.8275 12.7355 37.448 10.1732 40.8255 9.82378C40.7673 9.70731 40.6508 9.53261 40.5926 9.41614C39.0785 11.6873 35.9339 12.7355 33.6628 13.9584C33.7793 14.1331 33.8957 14.2495 34.0122 14.4242C35.701 12.5608 38.6127 11.9202 40.8838 11.2214C40.7673 11.0467 40.7091 10.9302 40.5926 10.7555C38.1468 12.8519 35.1187 14.1331 32.2652 15.6471C32.3817 15.8218 32.4399 15.9965 32.5564 16.113C35.2351 14.4825 38.1468 12.6772 41.2914 12.3278C41.2332 12.2114 41.1167 12.0366 41.0585 11.9202C39.5444 14.1331 36.458 14.7736 34.2451 16.0548C34.3616 16.2295 34.4198 16.4042 34.5363 16.5206C36.9821 14.8319 39.7191 13.1431 42.689 12.6772C42.6308 12.5025 42.5143 12.3278 42.4561 12.1531C39.8938 13.9001 36.9239 14.9483 34.711 17.1612C34.4781 17.3941 34.7692 17.8018 35.0604 17.6271C37.3897 16.2295 39.7191 14.8319 42.3978 14.3078C42.2814 14.1331 42.2231 14.0166 42.1066 13.8419C40.0685 16.113 37.0986 17.2777 34.8857 19.3741C34.6528 19.607 34.9439 19.9564 35.2351 19.8399C37.8556 18.3841 40.3014 16.4624 43.2713 15.7054C43.1549 15.5889 43.0384 15.4724 42.9219 15.356C42.3396 16.6953 40.5344 17.5106 39.3697 18.1512C38.0886 18.85 36.7492 19.4323 35.5263 20.1893C35.2351 20.364 35.468 20.8299 35.8174 20.6552C38.0303 19.4905 40.1267 18.0347 42.5725 17.4524C42.4561 17.2777 42.3978 17.1612 42.2814 16.9865C39.3697 19.9564 35.1769 21.2375 32.3234 24.2657C32.1487 24.4404 32.3234 24.848 32.6146 24.7316C36.6327 23.2175 39.952 20.1311 44.2031 19.1411C44.0866 19.0247 43.9701 18.85 43.8537 18.7335C41.4661 22.111 37.0403 23.2175 34.1869 26.1874C33.954 26.4203 34.2451 26.7697 34.5363 26.6533C38.205 25.0227 41.0585 21.6452 45.1348 21.0046C45.0183 20.8881 44.9019 20.7134 44.7854 20.597C42.9219 23.7416 38.6709 24.3239 36.2833 27.0027C36.0504 27.2356 36.3416 27.585 36.6327 27.4685C40.7673 25.3139 44.4942 22.1111 49.1529 21.0046C49.0365 20.8881 48.92 20.7134 48.8035 20.597C46.4742 24.1492 42.2231 26.0709 38.9038 28.4585C38.6709 28.6332 38.7874 29.0991 39.1368 28.9826C41.0002 28.2838 42.689 27.0027 44.3778 25.9545C46.0665 24.9063 48.3377 23.3922 50.4341 23.8581C50.3758 23.6834 50.3758 23.5669 50.3176 23.3922C47.6389 26.1874 43.9119 27.5268 40.8838 29.8561C40.5926 30.089 40.8255 30.4967 41.1749 30.322C45.426 28.4585 49.2112 25.6633 53.5204 24.0328C53.404 23.9163 53.2875 23.7998 53.171 23.6833C52.7634 26.0127 50.5505 27.8179 48.92 29.332C47.173 30.9043 45.3095 32.4766 44.0284 34.4566C43.9119 34.6895 44.1448 34.9224 44.3778 34.8642C45.8336 34.4566 46.9983 33.5248 48.3959 33.1754C48.2794 33.0007 48.2212 32.8842 48.1047 32.7095C47.2312 33.6995 46.183 34.3401 45.0766 35.0971C45.193 35.2718 45.3095 35.3883 45.426 35.563C46.7653 34.4566 48.2794 33.583 49.6188 32.4184C49.8517 32.2437 49.6188 31.836 49.3276 31.9525C47.4059 32.6513 45.7171 33.7578 43.7954 34.3983C43.9119 34.573 43.9701 34.6895 44.0866 34.8642C45.3095 33.5831 46.8236 32.7095 48.1047 31.5449C48.3377 31.3119 48.0465 30.9625 47.7553 31.079C45.6589 32.1272 43.679 33.3501 41.5243 34.1654C41.6408 34.3401 41.699 34.4566 41.8155 34.6313C43.5625 33.1754 45.4842 31.8943 47.2312 30.4384C47.5224 30.2055 47.173 29.8561 46.8818 29.9726C44.9019 30.9043 43.0966 32.1272 41.1167 32.9425C41.2332 33.1172 41.2914 33.2337 41.4079 33.4084C43.5625 31.6031 45.9501 30.089 48.3376 28.575C48.5706 28.4003 48.4541 27.9344 48.1047 28.0509C45.1348 29.2738 42.6308 31.3702 39.5444 32.3601C39.6609 32.5348 39.7191 32.6513 39.8356 32.826C42.2231 30.6131 45.0183 28.8661 47.93 27.4685C47.8135 27.2938 47.6971 27.1774 47.5806 27.0027C44.9019 29.0991 41.932 31.2537 38.5544 32.0107C38.6709 32.1854 38.7291 32.3019 38.8456 32.4766C41.1749 29.6814 44.5525 27.9926 47.5806 26.0127C47.8718 25.838 47.6388 25.3139 47.2894 25.5468C44.0284 27.4685 40.8838 29.5649 37.2733 30.6714C37.3897 30.8461 37.448 30.9625 37.5644 31.1372C40.4179 28.5167 43.5625 26.1292 47.1148 24.5569C46.9983 24.3822 46.9401 24.2075 46.8236 24.091C43.3296 26.3039 39.7191 28.2838 35.9921 30.0308C36.1086 30.2055 36.2251 30.322 36.3416 30.4967C39.0785 27.9926 41.8737 25.5468 45.1348 23.8581C45.0183 23.6834 44.9601 23.5086 44.8436 23.3922C41.932 25.1974 38.8456 27.9926 35.2934 28.2838C35.3516 28.4003 35.468 28.575 35.5263 28.6914C37.215 24.9063 42.1067 23.334 43.1549 19.2576C43.2131 19.0247 43.0384 18.85 42.8055 18.9082C38.7291 19.7235 35.0022 21.5869 31.3335 23.4504C31.4499 23.6251 31.5082 23.7998 31.6246 23.9163C34.711 22.2858 37.448 19.3741 41.0585 19.1411C40.942 19.0247 40.8838 18.9082 40.7673 18.7917C39.8938 20.9464 37.7392 22.4022 35.8757 23.6833C34.1287 24.848 32.2652 25.8962 30.5764 27.1774C30.3435 27.4103 30.6347 27.7597 30.9258 27.6432C33.5464 26.1874 35.9921 23.101 39.195 22.9263C39.1367 22.8099 39.0203 22.6351 38.9621 22.5187C37.0404 26.5368 32.0323 27.7015 29.2371 30.9043C29.0624 31.079 29.2371 31.4866 29.5282 31.3702C32.7311 30.2055 35.1769 27.6432 38.3797 26.595C38.2633 26.4786 38.1468 26.3621 38.0303 26.2456C37.6227 27.8179 35.468 29.0991 34.2451 29.9143C32.7893 30.9043 31.217 31.9525 29.5864 32.5931C29.6447 32.7678 29.7612 32.9425 29.8194 33.1172C32.6728 31.7196 35.4098 29.5649 38.6709 29.332C38.5544 29.2155 38.4962 29.0991 38.3797 28.9826C37.0986 32.1272 33.3134 33.4666 31.1005 35.7959C30.8676 36.0289 31.1588 36.4365 31.4499 36.2618C33.4881 35.0389 35.468 33.0007 37.9721 32.8842C37.9139 32.7678 37.7974 32.5931 37.7391 32.4766C36.1668 34.9807 33.4299 36.4365 31.7993 38.8823C31.6829 39.1152 31.9158 39.3482 32.1487 39.2899C33.5463 38.9405 34.8275 38.1253 36.2833 38.3C36.1668 38.1835 36.1086 38.1253 35.9921 38.0088C35.7592 39.7558 33.5464 40.7458 32.6728 42.1434C32.5564 42.3763 32.7311 42.6092 33.0222 42.551C34.5363 42.0851 35.8757 41.2699 37.2733 40.6293C37.1568 40.4546 37.0986 40.2799 36.9821 40.1634C36.2251 40.5711 35.4098 40.9787 34.6528 41.3863C34.7692 41.561 34.8275 41.7357 34.9439 41.8522C36.0504 41.0369 37.2733 40.5128 38.3797 39.6976C38.6709 39.4646 38.3797 38.9988 38.0886 39.2317C37.0986 39.814 36.1668 40.3964 35.0604 40.7458C35.1186 40.9205 35.2351 41.0952 35.2934 41.2699C36.3416 40.4546 37.448 39.8723 38.3215 38.8241C38.4962 38.6494 38.3215 38.2417 38.0303 38.3582C36.9821 38.7658 35.9339 39.4064 34.7692 39.4064C34.8275 39.5811 34.8857 39.7558 34.8857 39.9305C35.9922 39.3482 36.9821 38.6494 37.7391 37.6012C37.9138 37.3682 37.5645 37.0771 37.3315 37.1935C36.5163 37.6012 35.7592 38.0088 34.9439 38.2417C35.0604 38.3582 35.1769 38.5329 35.2934 38.6494C35.9922 37.6594 36.7492 36.7859 36.458 35.5048C36.3998 35.3301 36.2251 35.2718 36.1086 35.3301C35.701 35.4465 35.2351 35.563 34.8275 35.6795C34.9439 35.7959 35.0604 35.9706 35.1769 36.0871C35.9339 34.8642 37.3315 34.1654 38.3797 33.2919C38.6127 33.1172 38.3797 32.7096 38.0886 32.826C36.691 33.4084 35.4098 34.1654 33.954 34.4566C34.0704 34.6313 34.1287 34.7477 34.2451 34.9224C35.6427 33.4083 37.2733 32.1854 38.9621 30.9625C39.2532 30.7296 38.9621 30.2637 38.6709 30.4967C37.3898 31.3119 35.9922 32.069 34.711 32.8842C34.8275 33.0589 34.9439 33.1754 35.0604 33.3501C36.3415 32.3019 37.6227 31.3119 38.6709 29.9726C38.8456 29.7396 38.6126 29.3902 38.3215 29.5067C37.0986 30.0308 35.8757 30.6714 34.6528 31.2537C34.7692 31.4284 34.8857 31.5449 35.0022 31.7196C36.2251 30.322 37.7392 29.2738 39.3697 28.4003C39.2532 28.2256 39.195 28.0509 39.0785 27.9344C37.5062 28.8661 36.0504 29.8561 34.3616 30.5549C34.4781 30.7296 34.5363 30.8461 34.6528 31.0208C36.0504 29.6232 37.6809 28.5167 39.4861 27.6432C39.3697 27.4685 39.3114 27.2938 39.195 27.1774C37.3315 28.5167 35.2351 29.4485 33.1387 30.3802C33.2552 30.5549 33.3134 30.6714 33.4299 30.8461C35.3516 29.0991 37.5645 27.6432 40.1267 26.8862C40.0685 26.7115 39.952 26.5368 39.8938 26.3621C38.0303 27.7597 35.9922 29.0408 33.8375 29.9143C33.954 30.089 34.0704 30.2055 34.1869 30.3802C35.4098 28.8661 36.8657 27.6432 38.4962 26.595C38.3797 26.4203 38.3215 26.2456 38.205 26.1292C36.3998 27.3521 34.6528 28.7497 32.5564 29.4485C32.6728 29.6232 32.7311 29.7396 32.8475 29.9143C34.4781 28.1091 36.6327 27.0609 38.7291 25.9545C38.6126 25.7798 38.5544 25.6051 38.4379 25.4886C36.1668 27.0609 33.4881 28.7497 30.6929 29.0991C30.7511 29.2738 30.8094 29.4485 30.8676 29.5649C32.3234 28.1673 34.0122 27.0609 35.5263 25.7215C35.7592 25.4886 35.4681 25.081 35.1769 25.2557C33.0222 26.7697 30.8676 28.2256 28.4218 29.2738C28.5382 29.4485 28.6547 29.5649 28.7712 29.7396C30.7511 27.6432 33.3134 26.2456 35.4681 24.3822C35.701 24.1492 35.4098 23.7998 35.1186 23.9163C32.964 25.1392 30.9841 26.8862 28.5382 27.4685C28.6547 27.6432 28.713 27.7597 28.8294 27.9344C30.227 26.6533 31.7411 25.5468 33.4299 24.7898C33.3134 24.6151 33.2552 24.4404 33.1387 24.3239C31.217 25.3139 29.2953 26.2456 27.1407 26.5368C27.1989 26.7115 27.3153 26.8862 27.3736 27.0609C29.5282 25.7798 31.6246 24.4986 33.7793 23.2175C34.0704 23.0428 33.8375 22.5769 33.4881 22.7516C31.3917 23.8581 29.2371 24.9063 26.9077 25.4886C26.966 25.6633 27.0824 25.838 27.1407 26.0127C27.6648 25.7215 28.1888 25.3139 28.7129 25.0227C29.3535 24.5569 29.0624 24.091 28.7712 24.2657Z" fill="#00AEEF"/>
<path d="M36.4 17.1619C34.5365 16.9289 32.7313 18.9089 31.5084 20.1318C31.2755 20.3647 31.5666 20.7723 31.8578 20.5976C33.8377 19.3747 35.9924 18.2683 37.7976 16.8125C38.0305 16.6378 37.7976 16.2884 37.5064 16.3466C35.4683 16.8707 33.7213 18.0354 32.0907 19.2583C31.7996 19.4912 32.0907 19.9571 32.3819 19.7241C34.3618 18.2683 36.6912 17.2783 38.3217 15.4148C38.4964 15.2401 38.3799 14.949 38.147 14.949C35.5265 15.0655 33.3719 16.7542 30.8678 17.2201C30.926 17.3948 31.0425 17.5695 31.1008 17.7442C33.0225 16.4048 35.2936 15.4731 36.8076 13.6678C36.9823 13.4931 36.8659 13.202 36.6329 13.202C34.0124 13.1437 31.7413 14.5996 29.412 15.706C29.5284 15.8807 29.5867 16.0554 29.7031 16.1719C31.9742 14.5413 34.653 13.4349 36.4582 11.222C36.5747 11.0473 36.5165 10.6979 36.2835 10.7562C33.7212 10.9309 31.4501 12.1538 29.0043 12.9108C29.0626 13.0855 29.179 13.2602 29.2373 13.4349C30.4602 12.5614 31.7995 11.7461 32.906 10.6979C33.0807 10.5232 32.906 10.1156 32.6148 10.2321C31.159 10.6979 29.8196 11.455 28.3638 11.8044C28.422 11.9791 28.5385 12.1538 28.5967 12.3285C30.1108 11.5714 31.7413 10.9891 33.3136 10.3485C33.663 10.2321 33.4883 9.64973 33.1389 9.82443C31.5084 10.465 29.8779 11.1638 28.3056 11.8626C28.0144 11.9791 28.2473 12.4449 28.5385 12.3867C29.9943 11.9791 31.3919 11.2803 32.7895 10.8144C32.673 10.6397 32.6148 10.5232 32.4983 10.3485C31.4501 11.3967 30.169 12.1538 28.9461 12.969C28.7132 13.1437 28.8297 13.6096 29.1791 13.4931C31.5666 12.7361 33.7795 11.5714 36.2835 11.3385C36.2253 11.1638 36.1671 10.9891 36.1088 10.8726C34.3618 13.0273 31.6831 14.1337 29.4702 15.7643C29.1791 15.9972 29.412 16.4048 29.7614 16.2301C31.9743 15.1819 34.1289 13.7843 36.6912 13.8425C36.6329 13.6678 36.5747 13.4931 36.5165 13.3767C35.0024 15.1237 32.7895 16.0554 30.9261 17.3366C30.6349 17.5113 30.8096 17.9189 31.159 17.8607C33.663 17.3948 35.7594 15.706 38.3217 15.5896C38.2635 15.4149 38.2052 15.2401 38.147 15.1237C36.5165 16.9289 34.2454 17.9771 32.3236 19.3747C32.4401 19.5494 32.4983 19.7241 32.6148 19.8406C34.2454 18.6177 35.9341 17.5113 37.9141 16.9872C37.7976 16.8125 37.7394 16.696 37.6229 16.5213C35.8177 17.9771 33.7213 19.0253 31.7996 20.19C31.916 20.3647 32.0325 20.4812 32.149 20.6559C33.2554 19.5494 34.9442 17.686 36.6329 17.8607C36.7494 17.8024 36.7494 17.2201 36.4 17.1619Z" fill="#00AEEF"/>
<path d="M22.1328 46.3939C22.0746 46.3357 23.414 45.5204 23.5304 45.404C23.414 45.2293 23.2975 45.1128 23.181 44.9381C22.4822 45.6369 21.6087 46.161 20.9099 46.8598C20.677 47.0927 20.9681 47.4421 21.2593 47.3257C22.424 46.7433 23.4722 45.9863 24.6951 45.5204C24.5786 45.3457 24.5204 45.2293 24.4039 45.0546C23.7051 45.9281 22.8316 46.6269 22.1911 47.5586C22.0746 47.7333 22.3075 48.0827 22.5405 47.9662C24.1128 47.4421 25.2192 46.161 26.675 45.4622C26.5586 45.3457 26.3839 45.2293 26.2674 45.1128C25.7433 46.5104 24.2875 47.2674 23.414 48.3739C23.2393 48.6068 23.4722 48.9562 23.7633 48.8397C24.8698 48.2574 25.8598 47.5004 26.8498 46.7433C26.7333 46.5686 26.6168 46.4522 26.5003 46.2775C25.2774 47.5586 23.8798 48.6068 22.7152 49.9462C22.5405 50.1209 22.7152 50.5285 23.0063 50.412C24.0545 50.0044 24.928 49.2474 26.0345 48.9562C25.918 48.7815 25.8598 48.665 25.7433 48.4903C25.1027 49.2474 24.2875 49.8879 23.7051 50.7614C23.5304 50.9944 23.8216 51.2273 24.0545 51.1691C25.2192 50.8779 26.2674 50.2373 27.3156 49.655C27.1991 49.4803 27.0827 49.3638 26.9662 49.1891C26.3839 49.9462 25.6268 50.5867 24.9863 51.2856C24.8116 51.5185 24.9863 51.8097 25.2774 51.7514C25.9762 51.635 26.5586 51.3438 27.1991 51.1108C27.5485 50.9944 27.3738 50.412 27.0244 50.5867C26.3839 50.8197 25.7433 51.1108 25.1027 51.2273C25.2192 51.402 25.2774 51.5185 25.3939 51.6932C26.0345 50.9944 26.7333 50.3538 27.3738 49.5968C27.5485 49.3638 27.3156 49.0144 27.0244 49.1309C25.9762 49.655 25.0445 50.2956 23.8798 50.5867C23.9963 50.7032 24.1128 50.8779 24.2292 50.9944C24.8116 50.1791 25.5686 49.5968 26.1509 48.8397C26.3256 48.6068 26.1509 48.3156 25.8598 48.3739C24.7533 48.665 23.8798 49.4221 22.8316 49.8297C22.9481 50.0044 23.0063 50.1209 23.1228 50.2956C24.2875 48.9562 25.6851 47.908 26.908 46.6269C27.1409 46.3939 26.8498 45.9863 26.5586 46.161C25.5104 46.8598 24.5786 47.6751 23.4722 48.2574C23.5886 48.4321 23.7051 48.5486 23.8216 48.7233C24.7533 47.5004 26.2092 46.6851 26.7915 45.2293C26.908 44.9963 26.5586 44.8216 26.3839 44.8799C24.9863 45.5787 23.8798 46.8016 22.3658 47.3257C22.4822 47.4421 22.5987 47.6168 22.7152 47.7333C23.3557 46.8598 24.171 46.161 24.8116 45.3457C24.9863 45.171 24.8116 44.7634 24.5204 44.8799C23.2393 45.404 22.1911 46.161 20.9681 46.7433C21.0846 46.918 21.2011 47.0345 21.3176 47.2092C22.0164 46.5104 22.8899 45.9863 23.5887 45.2875C23.8216 45.0546 23.5304 44.6469 23.2393 44.8216C22.7152 45.171 21.2593 45.7534 21.6087 46.5686C21.7834 47.0345 22.2493 46.7433 22.1328 46.3939Z" fill="#00AEEF"/>
<path d="M26.7333 51.8679C26.5586 51.8679 26.4421 51.8679 26.2674 51.8679C26.2674 52.0426 26.3256 52.2173 26.3256 52.4502C27.4321 52.2173 28.4803 51.9261 29.4702 51.5185C29.8196 51.402 29.6449 50.8197 29.2955 50.9944C28.2473 51.402 27.1991 51.6932 26.1509 51.9261C25.8598 51.9843 25.918 52.5084 26.2091 52.5084C26.3838 52.5084 26.5003 52.5084 26.675 52.5084C27.0826 52.4502 27.0827 51.8679 26.7333 51.8679Z" fill="#00AEEF"/>
<path d="M29.8777 51.1691C29.0624 51.635 28.2472 51.9844 27.4319 52.4502C27.0825 52.6249 27.3737 53.0908 27.7231 52.9161C29.3536 52.1591 30.9841 51.402 32.6729 50.7615C32.6147 50.5868 32.4982 50.4121 32.44 50.2374C31.6247 50.8197 30.7512 51.3438 29.9941 51.9844C29.8194 52.1008 29.9359 52.392 30.1106 52.4502C31.5665 52.8579 33.0223 52.1591 34.3617 51.7514C34.3034 51.5767 34.187 51.402 34.1287 51.2273C33.6629 51.5185 33.2552 51.8679 32.9058 52.2173C32.7311 52.392 32.9058 52.7996 33.197 52.6832C34.4781 52.2755 35.5846 51.402 36.9239 51.3438C36.8657 51.2273 36.7492 51.0526 36.691 50.9362C36.5745 51.1691 36.5163 51.402 36.3998 51.5767C36.2834 51.8097 36.4581 52.0426 36.7493 51.9844C39.5445 51.5185 42.0485 49.9462 44.3778 48.4904C44.669 48.3157 44.3778 47.7916 44.0867 48.0245C41.7573 49.4803 39.3115 50.9944 36.5745 51.4603C36.691 51.5767 36.8075 51.7514 36.9239 51.8679C37.0404 51.635 37.0986 51.4603 37.2151 51.2273C37.2733 51.0526 37.2151 50.7615 36.9822 50.8197C35.5846 50.9362 34.4199 51.7514 33.0805 52.2173C33.197 52.392 33.2552 52.5085 33.3717 52.6832C33.7211 52.3338 34.0705 52.0426 34.4781 51.7514C34.7111 51.5767 34.5946 51.1109 34.2452 51.2273C32.964 51.635 31.6247 52.3338 30.2853 51.9261C30.3435 52.1008 30.3435 52.2173 30.4018 52.392C31.1588 51.8097 31.9741 51.2856 32.7311 50.7615C32.9641 50.5868 32.8476 50.1209 32.4982 50.2374C30.7512 50.8779 29.0624 51.6932 27.3736 52.4502C27.4901 52.6249 27.5483 52.7996 27.6648 52.9161C28.4801 52.4502 29.2953 52.1008 30.1106 51.635C30.5182 51.4603 30.2271 50.9944 29.8777 51.1691Z" fill="#00AEEF"/>
<path d="M10.3114 14.6567C10.4278 14.3656 10.5443 14.0162 10.719 13.725C10.8937 13.4338 10.4861 13.2009 10.2532 13.3756C8.97202 14.482 8.21498 16.1708 7.63265 17.6849C6.99208 19.3154 6.40971 21.1789 6.58441 22.9259C6.58441 23.1588 6.99206 23.3335 7.10853 23.0424C7.34146 22.6347 7.51618 22.2271 7.63265 21.8195C7.45795 21.7612 7.28323 21.703 7.10853 21.6448C7.0503 22.1106 6.99207 22.5765 6.93384 23.0424C6.8756 23.3918 7.45794 23.3918 7.51617 23.0424C7.57441 22.6347 7.5744 22.2271 7.69087 21.8195C7.7491 21.4701 7.28322 21.2954 7.16675 21.6448C7.05028 22.0524 6.87559 22.4018 6.70089 22.7512C6.87559 22.8094 7.0503 22.8677 7.225 22.8677C7.10854 21.2371 7.63262 19.5484 8.15673 18.0343C8.73906 16.5202 9.4961 14.7732 10.7772 13.725C10.6025 13.6085 10.4861 13.4921 10.3114 13.3756C10.1367 13.725 10.0202 14.0744 9.84551 14.4238C9.61258 14.8314 10.1949 15.0061 10.3114 14.6567Z" fill="#00AEEF"/>
<path d="M9.78717 10.6973C3.61441 19.9564 1.22686 32.3019 7.39961 42.2016C10.1948 46.7438 14.4459 50.1214 19.3375 52.1595C24.8114 54.4307 31.2753 55.3624 37.1569 54.1395C48.4542 51.7519 58.0628 41.5028 59.7515 30.089C60.6251 24.2657 59.1692 18.6753 55.7916 13.8419C52.4723 9.06676 47.8137 5.28158 42.5144 2.95224C32.5565 -1.41527 20.1527 -0.600009 12.3495 7.55268C11.4177 8.54265 10.5442 9.59086 9.78717 10.6973C9.37953 11.2796 10.3695 11.862 10.7771 11.2796C16.9499 2.31167 28.3054 -0.367071 38.4381 2.66107C48.8036 5.74745 58.7616 15.0066 58.878 26.4203C58.9945 37.4847 50.7254 48.0832 40.5345 51.9266C35.0605 54.023 29.0625 53.8483 23.472 52.3343C18.4057 50.9949 13.6888 48.2579 10.3113 44.2398C3.32326 35.9706 3.73091 24.3239 8.50606 15.123C9.20486 13.7837 9.96187 12.5025 10.7771 11.2796C11.1848 10.6973 10.1948 10.115 9.78717 10.6973Z" fill="white"/>
<path d="M34.2452 22.3447C36.2251 21.5295 36.5163 19.4913 35.701 17.6861C34.7693 15.6479 32.6729 14.8326 30.9259 13.6679C29.5865 12.7362 26.4419 10.2322 28.9459 8.71808C30.5182 7.78635 32.6146 7.96105 34.3616 7.78635C35.5845 7.61165 36.9822 7.37872 38.0886 6.73815C38.6709 6.38875 39.2533 5.92288 39.6027 5.34054C39.9521 4.75821 39.8938 3.8847 40.5926 3.59354C41.2914 3.3606 41.0003 2.25417 40.3015 2.4871C39.0203 2.95297 39.195 3.76824 38.6127 4.75821C37.8556 6.03934 35.9922 6.38874 34.6528 6.62168C32.8476 6.91285 31.0423 6.79638 29.2953 7.37872C27.6648 7.96105 26.5584 9.30042 27.0242 11.0474C27.5483 13.1438 30.0524 14.4832 31.7411 15.5314C32.7311 16.172 33.8376 16.6961 34.4781 17.7443C35.1769 18.9089 35.4681 20.656 33.954 21.2383C33.2552 21.5295 33.5464 22.5777 34.2452 22.3447Z" fill="white"/>
<path d="M9.67077 43.7162C11.7672 43.7745 12.7571 42.2021 13.5724 40.5134C13.98 39.6399 14.4459 38.5917 15.2612 37.9511C16.0764 37.3105 17.3576 37.2523 18.3475 37.3688C18.8716 37.427 19.5122 37.5435 19.9781 37.8929C20.8516 38.5917 20.1528 39.3487 19.8616 40.1057C19.5122 41.0957 19.5704 42.5515 19.6869 43.658C19.7451 44.2985 20.0946 44.6479 20.7351 44.6479C22.0163 44.6479 23.2974 44.2403 24.1127 45.5797C25.0444 47.152 24.1127 48.3749 22.948 49.3649C22.1327 50.1219 21.4339 50.9372 21.7251 52.1018C21.8998 52.8006 23.0062 52.5095 22.8315 51.8107C22.5404 50.7042 24.2291 49.889 24.8115 49.1319C25.5685 48.2584 25.7432 46.9773 25.3938 45.8709C25.0444 44.7062 24.1709 43.8327 23.0062 43.4833C22.4239 43.3086 21.8416 43.3668 21.2592 43.425C21.0845 43.425 20.7933 43.425 20.6769 43.4833C20.3857 43.5997 20.7934 43.4833 20.7934 43.658C20.7934 43.5415 20.7934 43.4251 20.7934 43.3086C20.9098 42.668 20.7934 42.0274 20.7934 41.3869C20.7934 40.4551 21.3757 39.8728 21.5504 39.0575C21.7833 37.9511 21.0263 37.0776 20.0945 36.67C18.2893 35.8547 15.4941 36.0294 14.0965 37.5435C12.6989 39.1158 12.2913 42.668 9.72899 42.6098C8.97195 42.5515 8.97197 43.7162 9.67077 43.7162Z" fill="white"/>
<path d="M33.5465 44.2395C33.1971 45.2295 33.4883 46.3941 34.1288 47.2094C34.7112 47.9664 35.7594 48.4323 36.5164 47.6753C37.3899 46.86 37.4481 45.5206 36.7493 44.5889C36.0505 43.6572 34.7694 43.0748 33.6047 43.0166C32.8477 43.0166 32.8477 44.123 33.6047 44.1813C34.3035 44.1813 35.0606 44.5307 35.5847 44.9965C36.0505 45.4624 36.3417 46.2194 35.7594 46.8018C35.41 47.1512 35.0605 46.6271 34.8276 46.3359C34.4782 45.8118 34.3617 45.113 34.5364 44.5307C34.8858 43.8319 33.7794 43.5407 33.5465 44.2395Z" fill="white"/>
<path d="M7.34146 15.7063C7.63263 17.5115 9.55433 18.618 11.1266 19.1421C12.9319 19.7244 14.4459 19.4915 15.6106 17.9192C16.717 16.4051 18.0564 14.2505 17.8817 12.2705C17.707 10.1741 16.3094 8.36889 14.3877 7.49539C13.7471 7.20422 13.1648 8.19419 13.8054 8.48536C15.3777 9.18416 16.6006 10.64 16.717 12.387C16.8335 13.9011 15.7853 15.3569 15.0865 16.6381C14.7371 17.2204 14.3295 17.9774 13.6307 18.2686C13.0483 18.5015 12.2913 18.3268 11.709 18.1521C10.4278 17.8027 8.68081 16.9292 8.44787 15.4734C8.27317 14.7163 7.22499 15.0075 7.34146 15.7063Z" fill="white"/>
<path d="M33.6629 21.8794C31.6829 21.8794 29.4118 21.6464 27.956 23.2187C26.5001 24.8493 25.6266 27.7609 26.966 29.6826C27.6066 30.6144 28.5966 31.2549 29.5283 31.8373C30.46 32.4196 31.7412 32.9437 32.5564 33.759C32.9058 34.1084 33.1388 34.6325 33.3135 35.0984C33.6629 35.7972 34.3034 36.5542 34.1287 37.3695C34.0123 37.8936 33.8958 38.1265 34.0705 38.6506C34.2452 39.1747 34.5946 39.757 34.8858 40.2229C35.5846 41.3876 37.3898 44.0081 38.8456 42.2028C40.5927 39.99 38.4963 37.8936 37.9139 35.7972C37.7392 35.1566 37.7975 34.1666 38.4963 33.8172C39.0786 33.5261 39.7774 34.1666 40.2433 34.516C41.0003 35.1566 41.1168 35.9136 42.165 36.2048C44.3778 36.9036 47.4642 36.263 49.3277 34.9237C50.4341 34.1666 51.4241 32.9437 51.4823 31.5461C51.4823 30.5561 50.143 26.8874 52.3558 27.3533C53.6952 27.6445 54.3357 29.1003 55.2092 30.032C55.9663 30.9056 57.1892 30.7308 58.2374 30.7308C58.9944 30.7308 58.9944 29.5662 58.2374 29.5662C57.1892 29.5662 56.3739 29.7409 55.7916 28.8674C55.2092 28.0521 54.5105 27.2368 53.6952 26.7127C51.657 25.4316 49.6771 26.8874 50.0265 29.1585C50.2594 30.6726 50.7835 31.8373 49.6771 33.1767C48.7453 34.2249 47.3477 34.8654 46.0084 35.0984C45.0766 35.2148 43.0385 35.5642 42.2232 34.9237C41.9903 34.749 41.932 34.3996 41.7573 34.1666C41.4662 33.8172 41.0585 33.5261 40.7091 33.2349C40.0103 32.769 39.195 32.3614 38.3215 32.7108C37.448 33.1184 36.8657 34.1666 36.8657 35.0984C36.8657 36.0883 37.3898 37.0201 37.8557 37.8936C38.1468 38.4177 38.438 38.9418 38.5545 39.5823C38.6709 40.0482 38.6127 41.3876 38.0886 41.5623C37.3316 41.8535 36.3998 40.1064 36.1087 39.6406C35.8757 39.2329 35.5263 38.7671 35.4099 38.3594C35.2352 37.8353 35.5846 37.253 35.5263 36.7289C35.3516 35.7389 34.5946 34.4578 34.0123 33.6425C33.5464 32.8855 32.9058 32.4779 32.1488 32.0702C30.9841 31.3714 29.7612 30.7308 28.7713 29.8573C27.6648 28.8674 27.4901 27.5862 27.956 26.1886C28.3636 24.9657 29.0042 23.6846 30.3436 23.277C31.45 22.9276 32.7311 23.1023 33.8958 23.1023C34.4199 23.044 34.4199 21.8794 33.6629 21.8794Z" fill="white"/>
<path d="M21.1426 37.8351C21.4337 39.4074 20.7932 40.7467 20.5602 42.319C20.4438 43.1343 20.502 43.8913 21.259 44.3572C21.4337 44.4737 21.7249 44.3572 21.6667 44.1243C21.6084 43.8331 21.6084 43.4837 21.5502 43.1925C21.492 42.8431 20.9097 42.9596 21.0261 43.3672C21.0844 43.6002 21.1426 43.8913 21.1426 44.1243C21.259 44.066 21.4337 43.9496 21.5502 43.8913C20.5602 43.309 21.3173 41.562 21.5502 40.7467C21.7831 39.6985 21.9578 38.825 21.7249 37.7768C21.6084 37.311 21.0843 37.4857 21.1426 37.8351Z" fill="white"/>
<path d="M20.9679 38.3011C21.492 39.7569 20.7932 41.3292 21.3756 42.7268C21.725 43.6586 22.5985 44.1826 23.2973 44.8232C24.4037 45.8714 25.0443 47.5602 24.6366 49.016C24.2872 50.2972 23.6467 51.1707 24.4619 52.4518C24.5202 52.3353 24.6366 52.1606 24.6949 52.0442C24.1708 52.1024 23.7631 51.8695 23.5302 51.4036C23.2973 51.1124 22.8314 51.4036 23.0643 51.6948C23.5302 52.2771 23.9961 52.6265 24.7531 52.6265C24.986 52.6265 25.1025 52.3936 24.986 52.2189C24.1125 50.8213 25.5102 49.4237 25.3937 47.9678C25.3355 46.9779 24.8696 45.755 24.229 44.9979C23.5302 44.1244 22.3655 43.6003 21.9579 42.5521C21.4338 41.1545 22.0744 39.6404 21.5503 38.1846C21.4338 37.8352 20.8515 37.9517 20.9679 38.3011Z" fill="white"/>
<path d="M22.948 50.5289C22.948 50.82 23.0062 52.5088 23.705 52.1594C23.9962 51.9847 23.7633 51.4606 23.4139 51.6935C23.705 51.81 23.7633 51.8682 23.705 51.7518C23.705 51.7518 23.705 51.6935 23.6468 51.6353C23.6468 51.5188 23.5886 51.4024 23.5886 51.3441C23.5303 51.1112 23.5303 50.8783 23.5303 50.6453C23.5303 50.1212 22.948 50.1212 22.948 50.5289Z" fill="white"/>
<path d="M38.6128 42.2029C40.8257 40.1647 39.0205 36.9036 39.2534 34.3996C39.2534 34.2249 39.137 34.1084 38.9623 34.1084C38.0887 34.1666 37.5064 34.749 38.0305 35.5642C38.147 35.7389 38.4964 35.7389 38.5546 35.506C38.7875 34.6325 39.4281 34.6907 40.1269 34.8072C40.4763 34.8654 40.651 34.3413 40.3016 34.2831C39.1952 34.0502 38.3217 34.1666 38.0305 35.3313C38.2052 35.3313 38.3799 35.2731 38.5546 35.2731C38.6711 35.0401 38.8458 34.8654 38.9623 34.6325C38.8458 34.516 38.7876 34.4578 38.6711 34.3413C38.4381 36.6707 40.1852 39.8735 38.2052 41.737C37.9141 42.0864 38.3217 42.494 38.6128 42.2029Z" fill="white"/>
<path d="M12.8737 9.41585C13.7472 9.12468 14.5624 9.47408 15.1447 10.1147C15.3777 10.4058 15.7853 9.99819 15.5524 9.70702C14.7954 8.89175 13.7471 8.54235 12.6989 8.89175C12.3495 8.94998 12.5243 9.53232 12.8737 9.41585Z" fill="white"/>
<path d="M12.2914 9.99835C13.2813 10.1148 14.1548 10.5225 15.0866 10.8719C15.436 10.9883 15.5524 10.4642 15.2613 10.3478C14.2713 9.94012 13.3396 9.59072 12.2914 9.41602C11.942 9.41602 11.942 9.99835 12.2914 9.99835Z" fill="white"/>
<path d="M12.99 8.65963C13.9217 8.83433 14.7952 9.1255 15.4358 9.8243C15.494 9.6496 15.494 9.53314 15.5523 9.35844C14.6205 9.6496 13.5723 9.00903 12.6406 9.53313C12.4077 9.70783 12.5241 10.0572 12.7571 10.0572C13.2229 10.1155 13.6306 10.2319 14.0382 10.2319C13.98 10.0572 13.9217 9.88254 13.9217 9.70784C13.5723 9.94077 13.2229 10.1737 12.8153 10.2902C12.5241 10.4066 12.5824 10.8725 12.8735 10.8725C13.98 10.8725 15.2029 11.1637 16.0764 10.3484C16.3676 10.1155 15.9599 9.70784 15.6688 9.94077C14.9699 10.6396 13.7471 10.3484 12.8735 10.3484C12.8735 10.5231 12.9318 10.6978 12.9318 10.9307C13.3976 10.8143 13.747 10.5231 14.1547 10.2902C14.3876 10.1737 14.2712 9.76607 14.0382 9.76607C13.6306 9.76607 13.1647 9.6496 12.7571 9.59137C12.8153 9.76607 12.8735 9.94077 12.8735 10.1155C13.3394 9.88253 13.8635 9.999 14.3294 10.0572C14.7953 10.1155 15.2029 10.1155 15.6105 9.999C15.8434 9.94077 15.9017 9.70783 15.727 9.53313C15.0282 8.7761 14.0382 8.4267 13.0482 8.252C12.8153 8.01906 12.6406 8.6014 12.99 8.65963Z" fill="white"/>
<path d="M15.3776 7.72793C15.2611 7.61146 15.2029 7.55323 15.0282 7.49499C15.0864 7.61146 15.1447 7.78616 15.2029 7.90263C15.0282 8.13556 15.7852 8.31026 15.9017 8.42673C16.1346 8.54319 16.4258 8.31026 16.3093 8.01909C16.0181 7.61146 15.7852 7.20383 15.4358 6.79619C15.3193 6.91266 15.1446 7.08736 15.0282 7.20382C15.3776 7.55323 15.727 7.8444 16.0181 8.1938C16.2511 8.42673 16.6005 8.13556 16.484 7.84439C16.4258 7.66969 16.3093 7.55323 16.2511 7.43676C16.0764 7.55323 15.9599 7.66969 15.7852 7.78616C17.8234 9.64963 17.474 13.3766 16.484 15.7059C15.8434 17.2782 14.5623 18.4429 12.8153 18.5594C11.243 18.6176 9.6707 17.977 8.15663 17.4529C7.92369 17.3947 7.69077 17.6859 7.80724 17.8606C7.98194 18.0935 8.09841 18.3264 8.21488 18.5594C8.27311 18.4429 8.38956 18.2682 8.44779 18.1517C7.98192 18.1517 7.63254 18.0935 7.2249 17.8606C6.8755 17.6859 6.64257 18.1517 6.93374 18.3264C7.3996 18.6176 7.86546 18.6758 8.44779 18.6758C8.68073 18.6758 8.79721 18.4429 8.68074 18.2682C8.56427 18.0353 8.4478 17.8023 8.2731 17.5694C8.15663 17.6859 8.04018 17.8606 7.92371 17.977C9.61248 18.5594 11.4177 19.3164 13.2229 19.0835C14.9117 18.8505 16.1929 17.6276 16.8334 16.1136C17.9399 13.5513 18.3475 9.47493 16.0764 7.43676C15.8435 7.20383 15.4358 7.49499 15.6105 7.78616C15.727 7.90263 15.7852 8.07733 15.8435 8.1938C16.0182 8.07733 16.1346 7.96086 16.3093 7.84439C16.0181 7.49499 15.6687 7.14559 15.3193 6.85442C15.0282 6.62149 14.6788 6.97089 14.9117 7.26206C15.2029 7.61146 15.4358 7.96086 15.6688 8.36849C15.7852 8.25203 15.9017 8.13556 16.0764 7.96086C15.727 7.78616 15.3194 7.61146 14.97 7.43676C14.8535 7.37853 14.737 7.49499 14.6206 7.55322L14.5623 7.61146C14.4458 7.78616 14.5623 7.96086 14.737 8.01909C14.7952 8.01909 14.7952 8.07733 14.8535 8.07733C15.2611 8.36849 15.6688 7.96086 15.3776 7.72793Z" fill="white"/>
<path d="M27.6068 24.9647C25.8015 26.304 27.5485 28.5751 29.2955 28.6334C29.4702 28.6334 29.6449 28.4587 29.5867 28.284C29.2373 27.1775 28.4221 26.6534 27.3156 26.537C27.1409 26.537 27.0245 26.7117 27.0245 26.8864C27.3739 28.2257 28.3638 29.1575 29.3538 30.031C29.5867 30.2639 29.9944 29.9727 29.8197 29.6816C29.412 29.0992 28.9461 28.6916 28.422 28.2257C28.1891 28.051 27.8397 28.2257 27.9562 28.5169C28.2473 29.6233 28.8879 30.3804 29.8197 31.0792C30.1108 31.3121 30.402 30.788 30.1108 30.6133C28.7132 29.5651 26.2674 28.051 26.2092 26.0129C26.0927 23.3924 29.5285 23.8582 31.2173 23.9165C31.5667 23.9165 31.5667 23.4506 31.2755 23.3341C29.645 22.8683 26.3839 21.8201 25.2774 23.7418C24.8116 24.4988 24.8698 25.6635 24.8698 26.537C24.8698 27.6434 24.928 28.7498 25.0445 29.8563C25.0445 30.2057 25.5104 30.2639 25.6268 29.9145C26.1509 28.4587 25.8598 26.8864 26.151 25.3723C26.4421 24.1494 27.1409 23.4506 28.4803 23.6835C29.1209 23.8 29.8196 24.0329 30.4602 23.6835C30.6931 23.5088 30.8096 23.3341 30.9843 23.1012C31.3337 22.7518 31.6831 22.5771 32.149 22.4024C32.6731 22.1695 33.1972 21.9365 33.6631 21.5871C34.7695 20.7136 34.7113 19.5489 34.0125 18.3843C33.8378 18.0931 33.3137 18.3843 33.5466 18.6754C34.7695 20.6554 33.0225 21.3542 31.4502 22.053C30.8678 22.2859 30.5767 22.9265 29.9943 23.1594C29.1791 23.4506 28.3638 22.8683 27.4903 23.043C24.6951 23.5088 25.8016 27.9346 25.1028 29.7398C25.2775 29.7398 25.4522 29.798 25.6851 29.798C25.5104 28.1093 25.2775 26.1293 25.6851 24.4988C26.2092 22.2859 29.7614 23.3924 31.2173 23.8582C31.2173 23.6835 31.2755 23.5088 31.2755 23.2759C29.3538 23.1594 26.1509 22.81 25.7433 25.4305C25.3357 27.8763 28.2473 29.7398 29.8779 30.9627C29.9943 30.788 30.0526 30.6133 30.169 30.4968C29.412 29.9145 28.8297 29.2739 28.5968 28.284C28.4221 28.4004 28.3056 28.4587 28.1309 28.5751C28.5967 28.9828 29.0626 29.3904 29.4703 29.9145C29.645 29.798 29.7614 29.6816 29.9361 29.5651C29.0044 28.7498 28.0726 27.8763 27.7815 26.6534C27.665 26.7699 27.6068 26.8864 27.4903 27.0028C28.3638 27.0611 28.9462 27.4687 29.2373 28.3422C29.3538 28.2257 29.412 28.1093 29.5285 27.9928C28.3638 27.9346 26.7915 26.3623 28.1309 25.3723C28.1891 25.1976 27.9562 24.7317 27.6068 24.9647Z" fill="white"/>
<path d="M8.7389 18.8498C8.79713 18.7916 8.85536 18.6751 8.91359 18.6168C9.08829 18.5004 9.08829 18.2674 8.91359 18.151C8.50596 17.918 8.09835 17.6269 7.63249 17.4522C7.57425 17.6269 7.51599 17.8016 7.45776 17.9763C7.92362 18.0345 8.33127 18.151 8.7389 18.2675C8.7389 18.0928 8.7389 17.918 8.7389 17.7433C8.09833 17.918 7.69071 18.2675 7.10837 18.5586C6.93367 18.6751 6.93367 18.9662 7.10837 19.0245C7.3413 19.1992 7.57423 19.0827 7.8654 19.0827C7.80716 18.908 7.74892 18.7333 7.74892 18.5586C7.39952 18.7916 7.10838 19.0827 6.75898 19.2574C6.46782 19.4321 6.64249 19.8398 6.9919 19.7815C8.15657 19.5486 9.32124 19.5486 10.4859 19.5486C10.7771 19.5486 10.8936 19.0245 10.5442 18.9663C10.4277 18.908 10.3695 18.908 10.253 18.8498C10.1948 19.0245 10.1365 19.1992 10.0783 19.3156C12.9899 19.1409 15.9599 19.4904 17.4157 16.404C18.8715 13.4341 17.5904 10.173 15.5522 7.84365C15.494 8.01835 15.4358 8.19305 15.3775 8.30952C15.6687 8.30952 15.9016 8.25129 16.1928 8.25129C16.3675 8.25129 16.4839 8.13482 16.4839 7.96012C16.4839 7.72719 16.484 7.55248 16.3093 7.37778C16.251 7.31955 15.9016 7.31955 15.9599 7.31955C15.6687 7.08662 15.2611 7.49425 15.5522 7.72718C15.6105 7.78542 15.6687 7.84365 15.7852 7.84365C16.0181 7.96012 15.9598 7.66895 15.9016 7.90189C16.0181 7.78542 16.0763 7.72719 16.1928 7.61072C15.9016 7.61072 15.6687 7.66895 15.3775 7.66895C15.1446 7.66895 15.0281 7.96012 15.2028 8.13482C17.1245 10.3477 18.3474 13.4923 16.8334 16.2875C15.4358 18.8498 12.6406 18.4422 10.1365 18.5586C9.90359 18.5586 9.72889 18.8498 9.96183 19.0245C10.1948 19.1992 10.1947 19.2574 10.4859 19.2574C10.4859 19.0827 10.5442 18.908 10.5442 18.6751C9.32126 18.6751 8.09833 18.6751 6.87542 18.908C6.93366 19.0827 7.05014 19.2574 7.10837 19.4321C7.45777 19.1992 7.74895 18.9662 8.09835 18.7333C8.33128 18.5586 8.27304 18.2092 7.98187 18.2092C7.86541 18.2092 7.57425 18.2675 7.51601 18.2092C7.51601 18.3839 7.51601 18.5586 7.51601 18.6751C8.04011 18.3839 8.38951 18.0345 8.97185 17.918C9.26302 17.8598 9.20478 17.4522 8.97185 17.394C8.56421 17.2775 8.15657 17.161 7.69071 17.1028C7.3413 17.0445 7.16661 17.5104 7.51601 17.6269C7.92365 17.8016 8.27305 18.0345 8.68068 18.2675C8.68068 18.0928 8.68068 17.9181 8.68068 17.8016C8.38951 18.0345 8.27305 18.151 8.21482 18.5586C8.09835 19.1992 8.68067 19.1992 8.7389 18.8498Z" fill="white"/>
<path d="M33.8959 43.3671C35.2353 42.2025 36.8076 44.0077 37.157 45.2888C37.2152 45.4053 37.3317 45.5218 37.4482 45.5218C37.7976 45.4635 37.7976 45.5218 38.0888 45.3471C37.9723 45.2888 37.8558 45.2306 37.7393 45.1724C37.7976 45.58 37.7393 45.8712 37.7393 46.2788C37.7393 46.57 38.2052 46.6864 38.3217 46.337C38.3799 46.1623 38.3799 45.8129 38.2635 45.6382C38.2052 45.4053 37.9723 45.3471 37.7976 45.5218C37.5064 45.7547 37.2153 45.8712 36.9241 45.8712C36.5747 45.9294 36.5747 46.4535 36.9241 46.4535C37.4482 46.3953 37.7976 46.2788 38.2052 45.9294C38.0305 45.8712 37.914 45.8712 37.7393 45.8129C37.7976 45.9294 37.7976 46.1041 37.7976 46.2206C37.9723 46.2206 38.147 46.2788 38.3799 46.2788C38.3799 45.8712 38.4381 45.4635 38.3217 45.0559C38.3217 44.9394 38.0888 44.823 37.9723 44.8812C37.7976 44.9394 37.6811 44.9977 37.5064 44.9977C37.6229 45.0559 37.6811 45.1141 37.7976 45.2306C37.2735 43.4836 35.2935 41.6201 33.6048 43.076C33.1971 43.1924 33.6048 43.6001 33.8959 43.3671Z" fill="white"/>
<path d="M35.876 44.0658C35.876 44.2987 35.9924 44.5316 36.1671 44.7063C36.2836 44.8228 36.4583 44.8228 36.5748 44.7063C36.6912 44.5899 36.6912 44.4152 36.5748 44.2987C36.4583 44.1822 36.4583 44.1822 36.4583 44.0658C36.4583 43.7164 35.876 43.7164 35.876 44.0658Z" fill="white"/>
<path d="M25.6853 24.7327C25.7435 27.5862 26.2093 29.9155 28.7134 31.546C28.9463 31.7207 29.2375 31.3713 29.121 31.1384C28.0728 29.5661 25.627 28.9838 26.4423 26.7127C26.2676 26.6544 26.0929 26.5962 25.9182 26.538C25.3941 29.4496 27.374 31.2549 29.5869 32.7689C30.868 33.6424 32.1492 34.3995 33.1974 35.5059C34.5367 36.9618 34.9444 38.8252 35.4685 40.6887C35.5849 41.0381 36.109 40.8634 35.9926 40.514C35.5849 39.0582 35.2938 37.4859 34.4203 36.2047C33.6632 35.04 32.5568 34.1083 31.4504 33.3513C29.121 31.779 25.8017 30.032 26.384 26.7127C26.4423 26.3633 25.9764 26.1886 25.86 26.538C24.9282 29.1002 27.4323 29.6243 28.5969 31.4296C28.7134 31.3131 28.8298 31.1966 29.0045 31.0219C26.6752 29.5079 26.2676 27.295 26.2676 24.6745C26.2094 24.3833 25.6853 24.3833 25.6853 24.7327Z" fill="white"/>
<path d="M37.7978 34.5735C38.1472 34.5735 38.1472 33.9912 37.7978 33.9912C37.3902 33.9912 37.3902 34.5735 37.7978 34.5735Z" fill="white"/>
<path d="M26.908 23.5085C27.2574 22.6932 28.7132 22.5185 29.4703 22.402C30.4602 22.1691 31.5084 22.0526 32.4984 21.7032C33.9542 21.1209 35.1772 20.1891 34.7113 18.5004C34.0707 16.2293 32.7896 14.7734 30.6932 13.8417C29.7614 13.4341 28.4803 13.0847 27.7233 12.3276C27.0245 11.6288 27.1991 10.3477 27.1991 9.47417C27.1991 9.12477 26.6168 9.12477 26.6168 9.47417C26.6168 10.2894 26.5003 11.1047 26.3839 11.92C26.3256 12.2694 26.8497 12.4441 26.908 12.0947C27.0244 11.687 27.1409 11.2794 27.1991 10.8718C27.0244 10.8718 26.7915 10.8718 26.6168 10.8718C26.6168 11.1047 26.5586 11.3959 26.5586 11.6288C26.5586 11.9782 27.0245 11.9782 27.1409 11.687C27.4321 10.93 27.5485 10.1147 27.8397 9.35771C28.1891 8.48421 29.1791 8.19304 29.9943 7.9601C31.3337 7.55247 32.6731 7.55247 34.0125 7.2613C35.1189 7.02836 36.1671 6.5625 37.0988 5.98016C38.3217 5.22313 39.4864 3.88376 38.38 2.54439C37.5065 1.49618 35.5848 0.739148 34.3036 1.26325C34.0707 1.32148 34.0125 1.67089 34.2454 1.78735C34.9442 2.19499 35.7012 2.42792 36.5165 2.60262C36.5165 2.42792 36.5165 2.25322 36.5165 2.07852C36.3418 2.07852 36.1671 2.07852 35.9924 2.13675C35.643 2.13675 35.643 2.66085 35.9924 2.71909C36.3418 2.71909 36.3418 2.71909 36.6912 2.66085C36.9824 2.60262 36.9824 2.13675 36.6912 2.13675C35.9342 2.02029 35.2354 1.78735 34.5366 1.37971C34.5366 1.55442 34.4783 1.72912 34.4783 1.90382C35.9342 1.37972 39.4864 2.95202 37.9141 4.75726C36.5165 6.3878 34.0707 6.85367 32.0908 7.14483C30.7514 7.31953 28.8879 7.55247 27.8397 8.60067C27.0827 9.35771 26.9662 10.6971 26.675 11.687C26.8497 11.687 27.0244 11.7453 27.2574 11.7453C27.2574 11.5123 27.2574 11.2212 27.3156 10.9882C27.3156 10.6388 26.7915 10.6388 26.7333 10.9882C26.6751 11.3376 26.5586 11.7453 26.5003 12.0947C26.675 12.1529 26.8498 12.2112 27.0245 12.2694C27.1992 11.3959 27.2574 10.5806 27.2574 9.70711C27.0827 9.70711 26.8497 9.70711 26.675 9.70711C26.675 11.2794 26.675 12.677 28.1309 13.5505C29.1208 14.1329 30.2273 14.424 31.2755 15.0064C32.4984 15.7052 33.3137 16.6369 33.8378 17.918C34.1872 18.7915 34.7113 19.7815 33.896 20.5385C33.0807 21.2956 31.9743 21.5867 30.9261 21.8197C29.7032 22.0526 27.0827 22.1108 26.5003 23.5085C26.2674 23.5667 26.7333 23.8579 26.908 23.5085Z" fill="white"/>
<path d="M21.1429 38.9989C20.91 39.6977 20.7353 40.513 21.2594 41.0953C21.7253 41.6776 22.5988 41.8523 23.1229 42.4347C25.2775 44.4728 22.8899 47.7921 23.647 50.2962C23.7635 50.6456 24.2875 50.4709 24.1711 50.1215C23.4723 47.7921 25.2193 45.4046 24.2293 43.1335C23.8799 42.3764 23.3558 41.8523 22.5988 41.4447C21.6088 40.8623 21.2594 40.4547 21.6088 39.1736C21.7835 38.7659 21.2594 38.6495 21.1429 38.9989Z" fill="white"/>
<path d="M24.4621 53.2087C27.6067 52.1605 31.2172 53.267 34.4201 53.4417C38.0888 53.6164 41.6992 52.5099 44.9021 50.7629C47.872 49.1324 50.9001 47.036 53.0548 44.3572C54.7435 42.2608 55.6753 39.7568 56.4323 37.1945C56.8982 35.7387 57.2476 34.2828 57.4805 32.7688C57.597 31.7206 57.7134 30.4977 57.1893 29.5659C57.0146 29.2748 56.4905 29.5659 56.7235 29.8571C57.2476 30.7888 57.0729 32.07 56.8982 33.0599C56.7235 34.3411 56.3741 35.564 56.0247 36.7869C55.2676 39.2327 54.3941 41.6785 52.88 43.7749C50.7836 46.5119 47.7555 48.6665 44.7274 50.2971C41.5245 52.0441 37.9723 53.0923 34.3036 52.8593C31.1007 52.6846 27.6067 51.6364 24.4621 52.6846C23.938 52.7429 24.1127 53.3252 24.4621 53.2087Z" fill="white"/>
<path d="M25.2774 53.6739C32.0325 53.8486 38.7293 52.1016 44.8438 49.3064C47.6973 47.967 50.5507 46.453 52.9383 44.3566C54.9765 42.5513 56.3158 40.3967 57.0729 37.7762C57.7717 35.5051 58.4705 32.244 57.1311 30.0894C56.9564 29.7982 56.4323 30.0894 56.6652 30.3805C57.8881 32.3605 57.2476 35.2721 56.6652 37.3685C55.9664 39.9308 54.6853 42.0272 52.7053 43.8325C50.4342 45.8706 47.6973 47.3847 44.9021 48.6659C42.0486 50.0052 39.0205 51.1117 35.9923 51.8687C32.4983 52.7422 28.9461 53.2081 25.3356 53.0916C24.928 53.0916 24.928 53.6739 25.2774 53.6739Z" fill="white"/>
<path d="M8.68088 37.0765C9.03028 37.0765 9.03028 36.4941 8.68088 36.4941C8.33148 36.4941 8.33148 37.0765 8.68088 37.0765Z" fill="white"/>
<path d="M10.0204 40.2806C10.3698 40.2806 10.3698 39.6982 10.0204 39.6982C9.67104 39.6982 9.67104 40.2806 10.0204 40.2806Z" fill="white"/>
<path d="M10.6608 36.4949C10.6608 36.5531 10.6026 36.6113 10.6608 36.7278C10.719 36.8443 10.7773 36.9025 10.952 36.9607C11.1849 36.9607 11.3596 36.6696 11.4761 36.4949C11.6508 36.2037 11.8837 35.9708 12.0584 35.6796C11.8837 35.6796 11.7673 35.6214 11.5926 35.6214C12.0002 36.3784 11.3596 36.8443 10.7191 37.019C10.4861 37.0772 10.4861 37.3684 10.6608 37.5431C10.8355 37.7178 11.1267 37.8342 11.3596 37.7178C11.5343 37.6013 11.5926 37.4266 11.7673 37.3101C12.1167 37.1354 11.8255 36.6696 11.4761 36.8443C11.3596 36.9025 11.2432 37.019 11.1267 37.1354C11.1267 37.1937 11.0684 37.2519 11.0684 37.2519C11.1849 37.1937 11.0102 37.1354 10.952 37.0772C10.952 37.2519 10.8938 37.4266 10.8938 37.6013C11.942 37.2519 12.699 36.4366 12.1166 35.3884C12.0584 35.2137 11.7672 35.2137 11.6508 35.3302C11.4761 35.5049 11.3014 35.7378 11.1849 35.9708C11.1267 36.0872 11.0102 36.2037 10.8938 36.3202C10.8938 36.3784 10.8355 36.3784 10.8355 36.4366C10.7773 36.5531 10.6608 36.4366 10.952 36.4366C11.0684 36.4949 11.1267 36.5531 11.2431 36.6696C11.2431 36.7278 11.2431 36.7278 11.2431 36.786C11.3014 36.2619 10.7773 36.1455 10.6608 36.4949Z" fill="white"/>
<path d="M7.63267 37.4854C7.8656 37.6019 8.15677 37.6601 8.3897 37.7766C8.50617 37.8348 8.62263 37.7766 8.68087 37.7183C8.79733 37.6019 8.85556 37.4854 8.85556 37.3107C8.85556 37.1942 8.79732 37.0778 8.73909 36.9031C8.68085 36.7866 8.5644 36.6701 8.3897 36.7284C8.27323 36.7866 8.15677 36.9613 8.21501 37.0778C8.21501 37.136 8.27323 37.1942 8.27323 37.3107C8.27323 37.3107 8.27323 37.3107 8.27323 37.3689C8.27323 37.3689 8.33146 37.2525 8.27323 37.3107C8.38969 37.3107 8.44793 37.2525 8.56439 37.2525C8.33146 37.1942 8.09854 37.136 7.92384 37.0195C7.57444 36.8448 7.28327 37.3107 7.63267 37.4854Z" fill="white"/>
<path d="M8.85566 20.9472C9.9621 21.2966 11.0103 21.5295 12.175 21.646C12.0585 21.5295 12.0003 21.413 11.8838 21.2966C11.6509 22.2283 10.7191 21.7042 10.1368 22.2865C9.438 22.9271 9.20508 24.0335 9.08861 24.9653C9.26331 24.907 9.438 24.8488 9.55447 24.7906C8.97214 24.15 8.62274 23.2183 8.50627 22.3448C8.44804 22.0536 8.33156 21.4713 8.56449 21.2383C8.9139 20.8307 9.55447 21.413 9.84564 21.5877C9.90387 21.413 9.96211 21.2383 9.96211 21.0636C9.67095 21.0636 9.37976 21.1219 9.14683 21.1801C8.85566 21.2383 8.85566 21.7042 9.14683 21.7042C9.6127 21.7624 9.96208 21.9954 10.3697 22.1118C10.3115 21.9954 10.2533 21.8207 10.195 21.7042C9.96209 22.0536 9.67094 22.2283 9.2633 22.403C9.37977 22.4612 9.55448 22.5195 9.67095 22.5777C9.61271 22.2283 9.43801 21.9371 9.37978 21.5877C9.32154 21.2966 8.79744 21.3548 8.79744 21.646C8.79744 22.3448 8.50625 22.8106 7.86568 23.1018C7.98215 23.16 8.09864 23.2183 8.21511 23.2765C7.98217 22.3448 9.32154 22.2865 9.96211 22.2865C10.1368 22.2865 10.3115 22.1118 10.2533 21.9371C10.195 21.7042 10.0786 21.413 10.0786 21.1219C9.96208 21.1801 9.78741 21.2966 9.67095 21.3548C9.61271 21.3548 10.1368 21.5295 10.0786 21.5877C9.84562 21.8789 10.2533 22.2865 10.4862 21.9954C10.8938 21.4713 10.4862 21.1219 9.96211 20.8889C9.78741 20.8307 9.49624 20.8889 9.55447 21.1219C9.55447 21.413 9.67092 21.7624 9.78738 22.0536C9.90385 21.9371 9.96208 21.8207 10.0786 21.7042C9.03035 21.7042 7.39983 21.9954 7.80747 23.393C7.8657 23.5094 8.04039 23.6259 8.15685 23.5677C9.08859 23.2183 9.55447 22.5777 9.55447 21.5877C9.37977 21.5877 9.20507 21.646 8.97214 21.646C9.0886 21.9954 9.20507 22.2865 9.2633 22.6359C9.32154 22.8106 9.49624 22.8689 9.67095 22.8106C10.1368 22.5777 10.4862 22.3448 10.7774 21.9371C10.8938 21.7624 10.7774 21.5877 10.6027 21.5295C10.195 21.3548 9.84565 21.1801 9.37978 21.1219C9.37978 21.2966 9.37978 21.4713 9.37978 21.646C9.61271 21.5877 9.84562 21.5295 10.0786 21.5877C10.3697 21.5877 10.428 21.2383 10.195 21.0636C9.26329 20.4231 8.04041 20.1319 7.92394 21.5877C7.86571 22.7524 8.38978 24.2665 9.20505 25.14C9.37975 25.3147 9.67095 25.14 9.67095 24.9653C9.72918 24.3247 9.90386 23.6841 10.195 23.16C10.5444 22.5777 10.7191 22.5777 11.3015 22.5195C11.942 22.403 12.2332 22.1118 12.4079 21.4713C12.4661 21.2966 12.2914 21.1219 12.1167 21.1219C11.0103 21.0054 10.0203 20.7142 8.97214 20.4231C8.62273 20.2484 8.50626 20.8307 8.85566 20.9472Z" fill="white"/>
<path d="M58.0629 29.9734C58.0629 29.7405 58.0629 29.5658 58.0629 29.3329C57.8882 29.3329 57.6553 29.3329 57.4806 29.3329C57.4806 29.6823 57.4806 30.0317 57.4806 30.3811C57.4806 30.7305 58.0629 30.7305 58.0629 30.3811C58.0629 29.9734 58.0629 29.5076 58.0629 29.0999C57.8882 29.0999 57.6553 29.0999 57.4806 29.0999C57.6553 32.361 55.3259 34.6321 53.8701 37.3109C53.6954 37.6603 54.1613 37.8932 54.336 37.602C55.85 34.8068 58.1794 32.4775 58.0047 29.0999C58.0047 28.7505 57.4224 28.7505 57.4224 29.0999C57.4224 29.5076 57.4224 29.9734 57.4224 30.3811C57.5971 30.3811 57.83 30.3811 58.0047 30.3811C58.0047 30.0317 58.0047 29.6823 58.0047 29.3329C58.0047 28.9835 57.4224 28.9835 57.4224 29.3329C57.4224 29.5658 57.4224 29.7405 57.4224 29.9734C57.4806 30.3228 58.0629 30.3228 58.0629 29.9734Z" fill="white"/>
<path d="M58.4706 32.4771C58.4706 32.4771 58.4123 32.5354 58.4123 32.5936C58.4123 32.5936 58.6453 32.7101 58.6453 32.6518V32.5354C58.7035 32.3607 58.6453 32.1277 58.6453 31.8948C58.7035 31.4872 58.7617 31.0795 58.7617 30.6719C58.7617 30.3225 58.2959 30.2643 58.1794 30.6137C58.0047 31.196 58.1212 31.7201 58.1794 32.2442C58.1794 32.5936 58.7617 32.5936 58.7617 32.2442C58.7617 31.7201 58.587 31.2542 58.7617 30.7301C58.587 30.7301 58.4123 30.6719 58.1794 30.6719C58.1794 31.3125 58.0047 31.8948 58.0629 32.5354C58.0629 33.0595 58.4706 33.3506 58.8782 32.8848C59.1111 32.5936 58.7617 32.2442 58.4706 32.4771Z" fill="white"/>
<path d="M3.73125 13.3185C3.38184 11.222 5.71118 9.82444 7.22526 8.89271C7.51642 8.71801 7.22526 8.1939 6.93409 8.42684C5.12885 9.53327 2.74128 11.0473 3.14891 13.4932C3.26538 13.7843 3.78948 13.6679 3.73125 13.3185Z" fill="white"/>
<path d="M6.17689 5.80566C3.38168 5.80566 0.295285 8.54264 0.00411776 11.3378C-0.0541157 11.6872 0.528219 11.6872 0.586453 11.3378C0.87762 8.83381 3.73107 6.388 6.23511 6.388C6.52628 6.388 6.52629 5.80566 6.17689 5.80566Z" fill="white"/>
<path d="M44.9022 57.5181C47.1151 56.7029 48.8038 55.1305 50.4926 53.5582C50.7838 53.3253 50.3761 52.9177 50.085 53.1506C48.5126 54.6647 46.8239 56.1787 44.7275 56.9358C44.4363 57.1105 44.5528 57.6346 44.9022 57.5181Z" fill="white"/>
<path d="M52.5307 52.8013C52.0066 53.6748 51.1913 54.2571 50.5507 55.0142C50.3178 55.3053 50.7254 55.713 50.9583 55.4218C51.6571 54.6648 52.5307 54.0242 53.0548 53.0924C53.2295 52.743 52.7054 52.4519 52.5307 52.8013Z" fill="white"/>
<path d="M7.98199 18.0345C8.04022 17.6269 8.15667 17.2775 8.33137 16.9281C7.98197 16.8116 7.63258 16.7534 7.28318 16.6369C7.28318 17.2775 7.16672 17.8016 6.93379 18.3257C7.28319 18.4422 7.63259 18.5004 7.98199 18.6169C7.98199 18.4422 8.04021 18.2675 8.04021 18.0928C8.15667 17.5104 7.28318 17.0446 6.99201 17.6269C6.81731 17.9763 6.75908 18.2675 6.70084 18.6751C6.64261 18.9663 6.75908 19.3157 7.10848 19.3739C7.98199 19.5486 8.91371 19.5486 9.78721 19.7815C9.67074 19.4904 9.55429 19.1992 9.43782 18.9663C9.43782 19.0245 9.37961 19.0245 9.37961 19.0827C8.8555 19.4904 9.49604 20.3056 10.0784 19.9562C10.1948 19.898 10.3113 19.7815 10.4278 19.6651C10.8354 19.3157 10.4278 18.5586 9.90369 18.7333C9.26312 18.908 8.6808 18.9663 8.09846 19.2574C7.69083 19.4321 7.28318 19.8398 6.81732 19.898C6.99202 19.9562 7.16673 20.0145 7.34143 20.0727C7.39967 20.3056 7.39964 20.5386 7.45787 20.7715C7.45787 20.7715 7.45787 20.7715 7.45787 20.7133C7.6908 20.1892 6.992 19.4904 6.58437 20.0145C6.35143 20.3056 6.11851 20.5386 5.82734 20.7715C6.11851 20.9462 6.46793 21.1209 6.7591 21.2956C6.87556 21.0044 6.99202 20.7133 7.10848 20.4221C7.45789 19.7815 6.46791 19.1992 6.11851 19.8398C5.94381 20.1892 5.76911 20.5968 5.65265 21.0044C5.47795 21.5868 6.17673 21.8779 6.58437 21.5285C6.87554 21.2956 7.1085 21.0627 7.34143 20.7715C7.05026 20.5386 6.7591 20.3056 6.46793 20.0727C6.46793 20.0727 6.46793 20.0727 6.46793 20.1309C6.35146 20.3639 6.35143 20.655 6.58437 20.8297C7.05024 21.2374 7.57435 20.8297 7.98199 20.5968C8.27315 20.4221 8.56432 20.2474 8.85549 20.1309C9.26312 19.9562 9.78722 19.9562 10.1949 19.7815C10.0202 19.4904 9.84547 19.141 9.67077 18.8498C9.61254 18.908 9.5543 18.908 9.5543 18.9663C9.78723 19.2574 10.0202 19.5486 10.2531 19.8398C10.3696 19.7233 10.4278 19.6651 10.486 19.4904C10.6607 19.141 10.5443 18.7916 10.1366 18.6751C9.26313 18.3839 8.38961 18.4422 7.45787 18.2675C7.57434 18.5004 7.74905 18.7333 7.86551 18.9663C7.92375 18.7333 7.92374 18.4422 8.04021 18.2092C7.6908 18.0345 7.34141 17.9181 6.99201 17.7434C6.93378 18.0345 6.93377 18.3257 6.87554 18.6169C6.8173 19.1992 7.69083 19.3739 7.92377 18.908C8.27317 18.2092 8.44785 17.4522 8.44785 16.6369C8.44785 16.1128 7.63259 15.8217 7.39965 16.3458C7.10848 16.8699 6.93377 17.394 6.87554 17.9763C6.75907 18.7333 7.92375 18.7333 7.98199 18.0345Z" fill="white"/>
<path d="M56.7235 31.1961C56.6653 31.8367 56.607 32.4773 56.4906 33.1761C56.6653 33.1761 56.84 33.2343 57.0729 33.2343C57.0147 32.7102 57.0147 32.1279 56.9564 31.6038C56.9564 31.2544 56.3741 31.2544 56.3741 31.6038C56.3741 32.3608 56.3741 33.1761 56.3741 33.9331C56.5488 33.9331 56.7817 33.9331 56.9564 33.9331C56.9564 33.1179 56.9564 32.3026 56.9564 31.4873C56.7817 31.4873 56.607 31.5455 56.3741 31.5455C56.607 33.0014 56.5488 34.4572 56.1412 35.8548C56.3159 35.8548 56.4906 35.9131 56.7235 35.9131C56.6071 33.8749 56.6653 31.895 56.7235 29.8568C56.5488 29.8568 56.3159 29.8568 56.1412 29.8568C56.1412 34.6902 56.3741 40.2806 53.1713 44.1822C52.9383 44.4734 53.346 44.881 53.5789 44.5899C56.8982 40.5135 56.7235 34.8066 56.7235 29.8568C56.7235 29.5074 56.1412 29.5074 56.1412 29.8568C56.1412 31.895 56.0247 33.9331 56.1412 35.9131C56.1412 36.2042 56.6071 36.3207 56.7235 35.9713C57.1312 34.4572 57.2476 32.8849 56.9564 31.3709C56.8982 31.0215 56.4323 31.1379 56.3741 31.4291C56.3159 32.2443 56.3741 33.0596 56.3741 33.8749C56.3741 34.2243 56.9564 34.2243 56.9564 33.8749C56.9564 33.1179 56.9564 32.3026 56.9564 31.5455C56.7817 31.5455 56.5488 31.5455 56.3741 31.5455C56.4323 32.0696 56.4323 32.652 56.4906 33.1761C56.4906 33.4673 57.0147 33.5837 57.0729 33.2343C57.1894 32.5355 57.2476 31.8367 57.3059 31.1379C57.3059 30.8467 56.7235 30.8467 56.7235 31.1961Z" fill="white"/>
<path d="M26.6166 24.3829C24.6949 25.8387 26.7331 29.2163 27.5484 30.7886C27.7231 31.138 28.189 30.8468 28.0143 30.4974C27.3737 29.2745 25.3937 26.0134 26.9078 24.8488C27.199 24.6741 26.9078 24.15 26.6166 24.3829Z" fill="white"/>
<path d="M26.4423 29.3333C26.0929 28.4598 25.9182 27.4698 26.0346 26.538C26.1511 25.7228 26.5005 25.024 26.6752 24.2669C26.7334 24.034 26.5587 23.8593 26.3258 23.9175C24.5206 24.3252 24.637 27.0039 24.7535 28.4015C24.8699 29.2168 24.9864 30.1485 25.4523 30.8473C26.0346 31.6626 27.0246 31.6044 27.9563 31.5461C28.2475 31.5461 28.3057 31.1967 28.0728 31.022C27.4905 30.6144 26.9081 30.3815 26.2093 30.265C26.2676 30.3815 26.3258 30.4979 26.384 30.6144C26.5587 30.3815 26.7334 30.1485 26.9081 29.9738C27.1993 29.7991 27.0246 29.3333 26.6752 29.4497C26.384 29.5662 26.2676 29.5662 26.0346 29.7409C25.8599 29.8574 25.8599 30.1485 26.0346 30.2068C26.6752 30.6144 27.3158 30.7891 28.0728 30.8473C28.4222 30.9056 28.4222 30.3232 28.0728 30.265C27.4322 30.2068 26.9081 30.0321 26.3258 29.6827C26.3258 29.8574 26.3258 30.0321 26.3258 30.1485C26.5005 30.0903 26.6752 30.0321 26.8499 29.9156C26.7917 29.7409 26.6752 29.5662 26.617 29.3915C26.1511 29.6244 25.9181 29.8573 25.8017 30.3815C25.8017 30.4979 25.8599 30.7309 25.9764 30.7309C26.617 30.8473 27.1993 31.022 27.7234 31.4297C27.7816 31.255 27.8398 31.0803 27.8398 30.9056C26.7916 31.022 25.9181 31.022 25.5105 29.8574C25.3358 29.3333 25.2194 28.6927 25.1611 28.1103C25.0447 27.0039 24.87 24.6746 26.3258 24.3834C26.2093 24.2669 26.0929 24.1505 25.9764 24.034C25.8017 24.8493 25.394 25.6063 25.3358 26.4798C25.2193 27.4698 25.4523 28.518 25.8017 29.4497C26.0346 29.7991 26.5587 29.6827 26.4423 29.3333Z" fill="white"/>
<path d="M31.7997 33.583C32.8479 34.6312 33.7214 35.9123 34.2455 37.3099C34.6531 38.4163 34.5367 39.581 34.7696 40.6874C35.0608 41.9104 36.7495 43.2497 38.0307 43.308C39.4283 43.308 39.6612 41.0368 39.7195 40.1051C39.8359 38.9404 38.5548 35.7958 40.0689 35.3882C39.9524 35.2135 39.8942 35.097 39.7777 34.9223C39.0206 35.5047 38.7877 36.3199 38.5548 37.1934C38.7295 37.1934 38.9042 37.1352 39.0789 37.1352C38.5548 36.3782 38.3218 35.2717 39.4865 34.9806C39.8359 34.8641 39.6612 34.34 39.3118 34.4565C37.7978 34.8641 37.7978 36.3199 38.5548 37.4264C38.6713 37.6011 39.0207 37.6011 39.0789 37.3681C39.2536 36.5529 39.4865 35.8541 40.1271 35.33C40.36 35.1553 40.1271 34.8059 39.8359 34.8641C38.5548 35.2135 38.613 36.6111 38.7877 37.6593C38.9624 39.0569 39.4283 41.1533 38.4383 42.4345C37.856 43.1915 36.7496 42.3762 36.1672 41.9103C35.0608 41.1533 35.1773 40.1051 35.0608 38.9404C34.8279 36.7276 33.605 34.8059 32.0909 33.2336C31.9162 32.9424 31.5086 33.2918 31.7997 33.583Z" fill="white"/>
<path d="M51.075 29.4497C51.3661 29.0421 52.4726 27.2369 53.1131 27.8192C53.4043 28.0521 53.8119 27.6445 53.5208 27.4116C52.4143 26.4216 51.0749 28.3433 50.5508 29.1586C50.4344 29.4497 50.9003 29.7409 51.075 29.4497Z" fill="white"/>
<path d="M51.1331 30.439C51.1913 29.7985 51.7737 29.1579 52.2978 28.8667C53.1131 28.4009 53.7536 28.692 54.336 29.2744C54.9183 29.7985 55.3842 30.3808 56.0247 30.8467C57.1894 31.6037 58.4123 31.5455 58.9946 30.2061C59.1111 29.9732 58.9364 29.7402 58.6453 29.7985C58.2959 29.8567 57.9465 29.9149 57.5971 29.9732C57.7135 30.0896 57.83 30.2643 57.9464 30.3808C58.0047 30.2643 58.0629 30.1479 58.1211 30.0314C58.3541 29.7402 57.83 29.4491 57.6553 29.7402C57.597 29.8567 57.5388 29.9732 57.4806 30.0896C57.3641 30.3226 57.5388 30.5555 57.83 30.4973C58.1794 30.3808 58.5288 30.3808 58.8782 30.3226C58.7617 30.2061 58.6452 30.0314 58.5288 29.9149C57.3059 32.5937 55.0348 28.692 53.7536 28.1679C52.356 27.6438 50.7255 29.0997 50.5508 30.4973C50.5508 30.7884 51.0749 30.7884 51.1331 30.439Z" fill="white"/>
<path d="M21.1428 41.5042C21.3175 42.0283 21.5504 42.3777 21.9581 42.7271C22.1328 42.9018 22.3657 42.7854 22.4239 42.6107C22.4822 42.4942 22.4822 42.3777 22.5404 42.203C22.4239 42.2613 22.2492 42.3195 22.1328 42.3777C23.2974 42.9601 24.3456 43.8336 24.928 45.0565C25.5103 46.2794 25.3356 47.3858 24.9862 48.6087C24.5786 50.1228 24.3457 51.6369 25.9762 52.4521C25.9762 52.2774 25.918 52.161 25.918 51.9863C25.8015 52.1027 25.685 52.161 25.6268 52.2774C25.8015 52.2774 25.9179 52.3357 26.0926 52.3357C25.685 51.7533 25.1609 51.4039 24.5204 51.0545C24.3457 50.9963 24.171 51.0545 24.1127 51.2292C24.0545 51.4622 23.938 51.6951 23.8798 51.9863C24.0545 51.9863 24.2292 52.0445 24.4621 52.0445C24.5786 50.9963 23.181 51.0545 22.4822 50.9963C22.191 50.9963 22.0745 51.5204 22.4239 51.5786C22.5986 51.5786 22.7733 51.6369 22.8898 51.6951C22.8898 51.5204 22.8898 51.3457 22.8898 51.171C22.4239 51.2875 22.0163 51.2875 21.5504 51.2875C21.201 51.2875 21.201 51.8698 21.5504 51.8698C22.0745 51.8698 22.5404 51.8116 23.0645 51.7533C23.3557 51.6951 23.3557 51.2292 23.0645 51.2292C22.8898 51.171 22.7151 51.171 22.5986 51.1128C22.5986 51.2875 22.5404 51.4622 22.5404 51.6951C22.8316 51.6951 23.9963 51.6369 23.938 52.161C23.8798 52.4521 24.4621 52.5686 24.5204 52.2192C24.5786 51.928 24.6368 51.7533 24.7533 51.4622C24.6368 51.5204 24.4621 51.5786 24.3456 51.6369C24.8697 51.8698 25.3939 52.161 25.685 52.6851C25.8015 52.8015 26.0344 52.8598 26.1509 52.7433C26.2674 52.6268 26.3838 52.5104 26.4421 52.4521C26.5585 52.3357 26.5585 52.1027 26.3838 51.9863C24.2292 50.8798 26.1509 48.2593 25.9762 46.4541C25.8015 44.4159 24.2292 42.7854 22.4822 41.9701C22.3075 41.9119 22.1328 41.9701 22.0746 42.1448C22.0163 42.2613 22.0163 42.3777 21.9581 42.5524C22.1328 42.4942 22.2492 42.4942 22.4239 42.436C22.1328 42.203 21.8999 41.8536 21.7834 41.446C21.6087 41.0384 21.0263 41.1548 21.1428 41.5042Z" fill="white"/>
<path d="M10.3697 42.3196C9.43792 42.1449 8.56442 41.8537 7.86562 41.1549C7.74915 41.3296 7.69092 41.4461 7.57445 41.6208C8.56442 41.8538 9.37969 42.669 10.4861 42.5526C10.8355 42.4943 10.8355 41.9702 10.4861 41.9702C9.20499 42.0867 8.79737 41.0967 8.09857 40.2232C7.86563 39.932 7.45799 40.3397 7.69093 40.6308C8.44796 41.6208 9.03029 42.669 10.4861 42.5526C10.4861 42.3779 10.4861 42.1449 10.4861 41.9702C9.49616 42.0867 8.68088 41.3297 7.74914 41.0967C7.45798 41.0385 7.28328 41.3879 7.45798 41.5626C8.21501 42.3196 9.14676 42.669 10.195 42.8437C10.5444 42.902 10.7191 42.3779 10.3697 42.3196Z" fill="white"/>
<path d="M7.86571 25.7222C6.35163 25.2563 4.77933 25.7222 4.37169 27.4109C4.31346 27.5856 4.42992 27.7021 4.54639 27.7603C5.18696 27.9933 5.12874 28.5174 4.77934 28.9832C4.60464 29.1579 4.77934 29.5656 5.0705 29.4491C5.88577 29.1579 6.75929 29.0415 7.63279 29.3326C7.86573 29.3909 8.04041 29.1579 7.98218 28.9832C7.69101 27.8186 6.93398 27.0033 5.65284 27.1198C5.71107 27.2945 5.76931 27.4692 5.76931 27.6439C6.52635 27.1198 7.98219 27.935 8.5063 27.0033C8.56453 26.8868 8.56452 26.7121 8.38982 26.5957C7.28338 25.8969 6.46812 26.0716 5.18698 26.3627C5.30345 26.5374 5.36168 26.6539 5.47815 26.8286C5.59461 26.7121 5.71109 26.5957 5.88579 26.4792C6.11872 26.2463 5.82753 25.8386 5.53637 26.0133C4.31346 26.8286 5.18696 27.8186 6.29339 28.1097C6.23516 27.9933 6.17693 27.8186 6.1187 27.7021C6.00223 27.935 6.00225 28.2262 5.88579 28.4591C5.82755 28.5756 5.94401 28.8085 6.06048 28.8085C6.23518 28.8668 6.46812 28.8668 6.64282 28.925C6.58458 28.7503 6.52634 28.5756 6.52634 28.4009C6.35164 28.5174 6.23518 28.5756 6.06048 28.6921C5.88578 28.7503 5.88576 29.0415 6.00223 29.1579C6.58456 29.6238 7.16691 29.5073 7.69101 29.0415C7.92395 28.7503 7.5163 28.4009 7.28337 28.6338C7.05044 28.925 6.75927 28.9832 6.40987 28.7503C6.40987 28.925 6.35165 29.0415 6.35165 29.2162C6.52635 29.1579 6.64281 29.0415 6.81751 28.925C7.10868 28.7503 6.93397 28.4009 6.70104 28.4009C6.52633 28.3427 6.40987 28.3427 6.23517 28.3427C6.29341 28.4591 6.35163 28.5756 6.40987 28.6921C6.4681 28.5174 6.46809 28.2844 6.58456 28.0515C6.64279 27.8768 6.58457 27.7021 6.40987 27.6439C6.00223 27.5274 4.89581 27.178 5.76931 26.5957C5.65285 26.421 5.53636 26.3045 5.41989 26.1298C5.30342 26.2463 5.18699 26.3627 5.01228 26.4792C4.83758 26.7121 5.01228 27.0033 5.30345 26.9451C6.35166 26.7121 7.05043 26.5374 8.0404 27.1198C7.98217 27.0033 7.98219 26.8868 7.92396 26.7121C7.69103 27.0615 6.81752 26.8868 6.46812 26.8868C6.06049 26.8868 5.71107 26.9451 5.36167 27.178C5.12874 27.2945 5.18698 27.7021 5.47815 27.7021C6.52635 27.6439 6.99222 28.2262 7.22515 29.1579C7.34162 29.0415 7.45807 28.925 7.57454 28.8085C6.6428 28.4591 5.65285 28.5756 4.72112 28.925C4.83758 29.0997 4.89582 29.2162 5.01228 29.3909C5.65285 28.5174 5.53636 27.6439 4.54639 27.2362C4.60462 27.3527 4.66288 27.4692 4.72112 27.5856C5.07052 26.188 6.29341 25.9551 7.51632 26.3045C8.04042 26.3627 8.21511 25.8386 7.86571 25.7222Z" fill="white"/>
<path d="M36.9241 5.68991C37.2735 3.30234 34.2453 0.681827 31.916 1.03123C31.6248 1.08946 31.683 1.4971 31.916 1.55533C33.7212 2.13767 35.7012 2.77824 36.8076 4.40877C36.9823 4.69994 37.39 4.52524 37.3317 4.17584C37.2735 3.9429 37.2152 3.65174 37.2152 3.4188C37.0405 3.4188 36.8658 3.47703 36.6329 3.47703C36.6329 3.53527 36.6329 3.53527 36.6911 3.5935C36.8076 3.9429 37.3317 3.82644 37.2152 3.4188C37.0988 2.8947 36.9823 2.3706 36.8658 1.8465C36.6911 1.96297 36.5747 2.0212 36.4 2.13767C36.6329 2.31237 36.8076 2.60353 36.9823 2.83647C37.157 3.0694 37.5064 3.01117 37.5064 2.72C37.5646 1.8465 37.39 3.5935 37.3317 3.70997C37.2153 4.23407 36.8658 4.69994 36.5747 5.10757C36.4 5.39874 36.8076 5.68991 37.0405 5.45697C38.4964 3.88467 36.9241 2.0212 35.3518 1.26416C34.7112 0.914762 33.9542 0.856528 33.1971 0.740061C32.9059 0.681827 30.9842 0.274193 30.8678 0.448893C30.9842 0.0994922 30.5184 -0.191675 30.4019 0.157726C29.9943 1.08946 32.0324 1.1477 32.4983 1.20593C33.2553 1.3224 34.0706 1.3224 34.8276 1.61356C36.1088 2.07943 37.7976 3.70997 36.6329 5.04934C36.8076 5.16581 36.9241 5.28227 37.0988 5.39874C37.8558 4.35054 38.3799 3.30234 37.6811 2.07943C37.6229 1.96297 37.4482 1.90473 37.3317 1.96296C36.8076 2.1959 36.9241 2.31237 36.9241 2.77823C37.0988 2.72 37.2735 2.66177 37.4482 2.66177C37.2152 2.3706 37.0405 2.07943 36.7494 1.8465C36.5164 1.6718 36.2253 1.8465 36.2835 2.13767C36.4 2.66177 36.4582 3.18587 36.6329 3.70997C36.8076 3.65174 36.9823 3.5935 37.157 3.53527C37.157 3.47704 37.157 3.47703 37.0988 3.4188C36.9823 3.12763 36.5747 3.18587 36.5164 3.47703C36.4582 3.7682 36.5747 4.1176 36.6329 4.35054C36.8076 4.2923 36.9823 4.17584 37.157 4.11761C35.9341 2.31237 33.8377 1.61356 31.916 0.972996C31.916 1.1477 31.916 1.3224 31.916 1.4971C33.7794 1.20593 36.5164 3.47703 36.2253 5.45697C36.3417 5.92284 36.8658 6.09754 36.9241 5.68991Z" fill="white"/>
<path d="M52.9384 28.4013C56.083 29.4495 55.6754 34.1082 55.6754 36.7287C55.6754 37.0781 56.1995 37.0781 56.2577 36.7287C56.2577 36.1463 56.4324 35.564 56.5489 34.9817C56.3742 34.9817 56.1995 34.9817 56.0248 34.9817C56.2577 36.2046 56.1412 37.311 55.7336 38.4757C55.9083 38.4757 56.083 38.5339 56.3159 38.5339C56.3742 38.0098 56.3742 37.4857 56.4324 36.9616C56.4906 36.6122 55.9665 36.4375 55.9083 36.7869C55.093 40.048 53.346 42.3191 50.842 44.4155C48.3379 46.5119 45.9504 49.1324 42.8058 50.1224C42.4564 50.2389 42.6311 50.763 42.9805 50.6465C46.2415 49.5983 48.7456 46.9195 51.3079 44.7649C53.9284 42.6103 55.6754 40.2227 56.5489 36.9034C56.3742 36.8452 56.1995 36.7869 56.0248 36.7287C55.9665 37.311 55.9083 37.8934 55.8501 38.4757C55.8501 38.8251 56.3159 38.8251 56.4324 38.5339C56.8983 37.311 57.0147 36.0299 56.7236 34.7487C56.6653 34.4576 56.2577 34.4576 56.1995 34.7487C56.083 35.3893 55.9083 36.0299 55.9083 36.6704C56.083 36.6704 56.3159 36.6704 56.4906 36.6704C56.4906 33.7588 56.7818 28.9836 53.346 27.819C52.7637 27.7607 52.589 28.2848 52.9384 28.4013Z" fill="white"/>
<path d="M33.8961 54.4892C34.8861 53.4992 37.0407 54.1398 38.3219 53.9069C40.2436 53.5575 41.9906 52.5093 43.5629 51.4028C43.854 51.1699 43.5629 50.704 43.2717 50.937C40.7677 52.6257 37.7978 53.2081 35.0026 54.0233C35.0608 54.198 35.1773 54.3727 35.2355 54.5474C38.4966 53.0916 41.9324 52.1016 45.1934 50.6458C45.4264 50.5293 45.3099 50.0635 45.077 50.1217C43.3882 50.3546 41.9323 51.3446 40.36 51.8687C38.5548 52.451 36.6913 52.8587 34.9443 53.441C34.6532 53.5575 34.6532 54.0233 35.0026 54.0233C37.7395 53.9651 40.1271 52.684 42.4565 51.3446C42.8059 51.1699 42.5147 50.704 42.1653 50.8787C40.593 51.6358 39.0207 52.6257 37.2737 52.8587C37.3319 53.0334 37.3901 53.2081 37.3901 53.3828C38.6713 52.5093 40.2436 52.0434 41.5247 51.1699C41.8159 50.9952 41.6412 50.5876 41.2918 50.6458C39.7777 50.8787 38.3219 51.4028 37.0407 52.2181C36.7496 52.3928 36.9825 52.8587 37.3319 52.684C38.9625 51.7522 40.7677 51.2281 42.6312 50.937C42.5729 50.7623 42.4564 50.5876 42.3982 50.4129C40.1853 51.4611 37.7978 52.0434 35.5849 53.0916C35.2937 53.2081 35.5267 53.6739 35.8178 53.6157C41.4665 52.5675 47.2898 50.3546 51.308 46.0454C54.8602 42.2019 55.7919 37.0774 55.8502 32.0111C55.8502 31.6617 55.2678 31.6617 55.2678 32.0111C55.2096 37.0774 54.3361 42.1437 50.6674 45.8707C46.7075 49.947 41.1171 52.0434 35.6431 53.0916C35.7014 53.2663 35.8178 53.441 35.8761 53.6157C38.089 52.5675 40.4765 51.9852 42.6894 50.937C42.9805 50.7623 42.7476 50.3546 42.4565 50.4129C40.5348 50.704 38.7295 51.2864 37.0407 52.2181C37.1572 52.3928 37.2154 52.5675 37.3319 52.684C38.6131 51.9269 40.0106 51.4028 41.4665 51.1699C41.4082 50.9952 41.2918 50.8205 41.2335 50.6458C39.9524 51.5193 38.3801 51.9269 37.099 52.8587C36.866 52.9751 36.9243 53.441 37.2154 53.3828C39.1371 53.1498 40.7094 52.1016 42.3982 51.2864C42.2817 51.1117 42.2235 50.937 42.107 50.8205C39.8942 52.1016 37.5648 53.3828 34.9443 53.441C34.9443 53.6157 35.0026 53.7904 35.0026 54.0233C36.6331 53.441 38.3801 53.0916 40.0689 52.5675C41.6994 52.0434 43.2717 50.937 45.0187 50.704C44.9605 50.5293 44.9023 50.3546 44.9023 50.1799C41.6412 51.694 38.2054 52.6257 34.9443 54.0816C34.6532 54.198 34.8861 54.6639 35.1773 54.6057C38.0889 53.8486 41.1171 53.2081 43.6211 51.4611C43.5047 51.2864 43.4464 51.1117 43.33 50.9952C41.5247 52.2181 39.5448 53.441 37.3319 53.4992C36.109 53.4992 34.4785 53.2081 33.5467 54.1398C33.2556 54.3727 33.605 54.7804 33.8961 54.4892Z" fill="white"/>
</g>
</svg>
